<!-- Generator: Adobe Illustrator 21.0.2, SVG Export Plug-In  -->
<svg version="1.1"
	 xmlns="http://www.w3.org/2000/svg" xmlns:xlink="http://www.w3.org/1999/xlink" xmlns:a="http://ns.adobe.com/AdobeSVGViewerExtensions/3.0/"
	 x="0px" y="0px" width="314.4px" height="225.1px" viewBox="0 0 314.4 225.1" style="enable-background:new 0 0 314.4 225.1;"
	 xml:space="preserve">
<style type="text/css">
	.st0{clip-path:url(#SVGID_2_);fill:#4F81BD;}
	.st1{clip-path:url(#SVGID_2_);fill:none;stroke:#FFFFFF;stroke-width:2;stroke-linejoin:round;}
	.st2{clip-path:url(#SVGID_4_);}
	.st3{fill:#FFFFFF;}
	.st4{clip-path:url(#SVGID_6_);fill:#4F81BD;}
	.st5{clip-path:url(#SVGID_6_);fill:none;stroke:#FFFFFF;stroke-width:2;stroke-linejoin:round;}
	.st6{clip-path:url(#SVGID_8_);}
	.st7{clip-path:url(#SVGID_10_);fill:#4F81BD;}
	.st8{clip-path:url(#SVGID_10_);fill:none;stroke:#FFFFFF;stroke-width:2;stroke-linejoin:round;}
	.st9{clip-path:url(#SVGID_12_);}
	.st10{clip-path:url(#SVGID_14_);fill:#4F81BD;}
	.st11{clip-path:url(#SVGID_14_);fill:none;stroke:#FFFFFF;stroke-width:2;stroke-linejoin:round;}
	.st12{clip-path:url(#SVGID_16_);}
	.st13{clip-path:url(#SVGID_18_);fill:#4F81BD;}
	.st14{clip-path:url(#SVGID_18_);fill:none;stroke:#FFFFFF;stroke-width:2;stroke-linejoin:round;}
	.st15{clip-path:url(#SVGID_20_);}
	.st16{clip-path:url(#SVGID_22_);fill:#4F81BD;}
	.st17{clip-path:url(#SVGID_22_);fill:none;stroke:#FFFFFF;stroke-width:2;stroke-linejoin:round;}
	.st18{clip-path:url(#SVGID_24_);}
	.st19{clip-path:url(#SVGID_26_);fill:#4F81BD;}
	.st20{clip-path:url(#SVGID_26_);fill:none;stroke:#FFFFFF;stroke-width:2;stroke-linejoin:round;}
	.st21{clip-path:url(#SVGID_28_);}
	.st22{clip-path:url(#SVGID_30_);fill:#4F81BD;}
	.st23{clip-path:url(#SVGID_30_);fill:none;stroke:#FFFFFF;stroke-width:2;stroke-linejoin:round;}
	.st24{clip-path:url(#SVGID_32_);}
	.st25{clip-path:url(#SVGID_34_);fill:#4F81BD;}
	.st26{clip-path:url(#SVGID_34_);fill:none;stroke:#FFFFFF;stroke-width:2;stroke-linejoin:round;}
	.st27{clip-path:url(#SVGID_36_);}
	.st28{clip-path:url(#SVGID_38_);fill:#4F81BD;}
	.st29{clip-path:url(#SVGID_38_);fill:none;stroke:#FFFFFF;stroke-width:2;stroke-linejoin:round;}
	.st30{clip-path:url(#SVGID_40_);}
	.st31{clip-path:url(#SVGID_42_);fill:#4F81BD;}
	.st32{clip-path:url(#SVGID_42_);fill:none;stroke:#FFFFFF;stroke-width:2;stroke-linejoin:round;}
	.st33{clip-path:url(#SVGID_44_);}
	.st34{clip-path:url(#SVGID_46_);fill:#4F81BD;}
	.st35{clip-path:url(#SVGID_46_);fill:none;stroke:#FFFFFF;stroke-width:2;stroke-linejoin:round;}
	.st36{clip-path:url(#SVGID_48_);}
</style>
<defs>
</defs>
<g>
	<defs>
		<rect id="SVGID_1_" width="314.4" height="35.7"/>
	</defs>
	<clipPath id="SVGID_2_">
		<use xlink:href="#SVGID_1_"  style="overflow:visible;"/>
	</clipPath>
	<rect x="6.2" y="2" class="st0" width="303" height="31.7"/>
	<rect x="6.2" y="2" class="st1" width="303" height="31.7"/>
</g>
<g>
	<defs>
		<rect id="SVGID_3_" x="2.3" y="5.9" width="309.8" height="27"/>
	</defs>
	<clipPath id="SVGID_4_">
		<use xlink:href="#SVGID_3_"  style="overflow:visible;"/>
	</clipPath>
	<g class="st2">
		<path class="st3" d="M18.6,11.5H23c2.6,0,4.3,1.5,4.3,3.7v0c0,2.5-2,3.8-4.5,3.8h-2.2v3.6h-2V11.5z M22.9,17.4
			c1.5,0,2.4-0.8,2.4-2v0c0-1.3-0.9-2-2.4-2h-2.3v4H22.9z"/>
		<path class="st3" d="M29.1,14.3H31v1.9c0.5-1.3,1.5-2.1,3-2.1v2h-0.1c-1.7,0-2.9,1.1-2.9,3.3v3.2h-1.9V14.3z"/>
		<path class="st3" d="M34.9,18.6L34.9,18.6c0-2.4,1.9-4.5,4.5-4.5s4.5,2,4.5,4.4v0c0,2.4-1.9,4.4-4.5,4.4
			C36.8,22.9,34.9,21,34.9,18.6z M42,18.6L42,18.6c0-1.5-1.1-2.8-2.6-2.8c-1.6,0-2.5,1.2-2.5,2.7v0c0,1.5,1.1,2.7,2.6,2.7
			C41,21.3,42,20,42,18.6z"/>
		<path class="st3" d="M44.6,25.3v-1.6c0.2,0,0.4,0,0.5,0c0.5,0,0.9-0.3,0.9-1v-8.5H48v8.6c0,1.7-0.9,2.5-2.5,2.5
			C45.1,25.4,44.9,25.3,44.6,25.3z M45.9,11.2H48V13h-2.1V11.2z"/>
		<path class="st3" d="M50,18.6L50,18.6c0-2.4,1.7-4.4,4.1-4.4c2.7,0,4,2.1,4,4.5c0,0.2,0,0.4,0,0.5H52c0.2,1.4,1.2,2.1,2.4,2.1
			c0.9,0,1.6-0.4,2.3-1l1.1,1c-0.8,1-1.9,1.6-3.5,1.6C51.9,22.9,50,21.2,50,18.6z M56.3,17.9c-0.1-1.2-0.9-2.2-2.1-2.2
			c-1.2,0-2,0.9-2.2,2.2H56.3z"/>
		<path class="st3" d="M64.7,17.2L64.7,17.2c0-3.2,2.4-5.8,5.9-5.8s5.8,2.6,5.8,5.8v0c0,3.2-2.4,5.8-5.9,5.8S64.7,20.3,64.7,17.2z
			 M74.3,17.2L74.3,17.2c0-2.2-1.6-4-3.8-4c-2.2,0-3.8,1.8-3.8,4v0c0,2.2,1.6,4,3.8,4C72.8,21.1,74.3,19.4,74.3,17.2z"/>
		<path class="st3" d="M78.6,14.3h1.9v1.3c0.5-0.8,1.3-1.5,2.6-1.5c1.9,0,3,1.3,3,3.2v5.4h-1.9v-4.8c0-1.3-0.7-2.1-1.8-2.1
			c-1.1,0-1.9,0.8-1.9,2.1v4.8h-1.9V14.3z"/>
		<path class="st3" d="M93.6,22.7v-1c-0.6,0.7-1.5,1.2-2.7,1.2c-1.6,0-3-0.9-3-2.6v0c0-1.9,1.5-2.8,3.4-2.8c1,0,1.7,0.1,2.3,0.4
			v-0.2c0-1.2-0.7-1.8-2.1-1.8c-0.9,0-1.6,0.2-2.4,0.5l-0.5-1.6c0.9-0.4,1.8-0.7,3.2-0.7c2.5,0,3.7,1.3,3.7,3.6v5H93.6z M93.7,19.2
			c-0.5-0.2-1.2-0.3-1.9-0.3c-1.2,0-1.9,0.5-1.9,1.3v0c0,0.8,0.7,1.2,1.6,1.2c1.3,0,2.2-0.7,2.2-1.8V19.2z"/>
		<path class="st3" d="M97.3,24.8l0.7-1.4c0.4,0.2,0.7,0.3,1.1,0.3c0.5,0,0.9-0.2,1.2-1l-3.5-8.5h2.1l2.4,6.3l2.2-6.3h2l-3.4,8.7
			c-0.7,1.7-1.4,2.4-2.8,2.4C98.5,25.4,97.9,25.2,97.3,24.8z"/>
		<path class="st3" d="M107.2,11.1h1.9v11.7h-1.9V11.1z"/>
		<path class="st3" d="M111.8,14.3h1.9v8.5h-1.9V14.3z"/>
		<path class="st3" d="M121.3,11.5h5c1.3,0,2.3,0.4,2.9,1c0.5,0.5,0.8,1.1,0.8,1.9v0c0,1.3-0.8,2.1-1.6,2.5c1.3,0.4,2.2,1.2,2.2,2.7
			v0c0,2-1.6,3.1-4.1,3.1h-5.2V11.5z M125.9,16.3c1.3,0,2.1-0.5,2.1-1.5v0c0-0.9-0.7-1.4-2-1.4h-2.8v3H125.9z M126.5,21
			c1.3,0,2.2-0.5,2.2-1.5v0c0-0.9-0.8-1.5-2.3-1.5h-3.1V21H126.5z"/>
		<path class="st3" d="M132.5,19.7v-5.4h1.9v4.8c0,1.3,0.7,2.1,1.8,2.1c1.1,0,1.9-0.8,1.9-2.1v-4.8h1.9v8.5h-1.9v-1.3
			c-0.5,0.8-1.3,1.5-2.6,1.5C133.6,22.9,132.5,21.6,132.5,19.7z M133.7,11.3h2v1.9h-2V11.3z M136.9,11.3h2v1.9h-2V11.3z"/>
		<path class="st3" d="M142.9,20.4V16h-1.1v-1.7h1.1V12h1.9v2.3h2.3V16h-2.3v4.1c0,0.8,0.4,1.1,1,1.1c0.4,0,0.8-0.1,1.2-0.3v1.6
			c-0.5,0.3-1,0.4-1.7,0.4C143.9,22.9,142.9,22.3,142.9,20.4z"/>
		<path class="st3" d="M150.4,24.7l1.3-1.9c-1.9-0.5-3.2-2.2-3.2-4.2v0c0-2.4,1.9-4.4,4.4-4.4c1.6,0,2.6,0.6,3.4,1.5l-1.2,1.3
			c-0.6-0.6-1.2-1.1-2.2-1.1c-1.4,0-2.4,1.2-2.4,2.7v0c0,1.5,1,2.7,2.5,2.7c0.9,0,1.6-0.4,2.2-1.1l1.2,1.2c-0.8,0.9-1.7,1.5-3.1,1.6
			l-1.1,2.5L150.4,24.7z"/>
		<path class="st3" d="M157.3,18.6L157.3,18.6c0-2.4,1.7-4.4,4.1-4.4c2.7,0,4,2.1,4,4.5c0,0.2,0,0.4,0,0.5h-6.2
			c0.2,1.4,1.2,2.1,2.4,2.1c0.9,0,1.6-0.4,2.3-1l1.1,1c-0.8,1-1.9,1.6-3.5,1.6C159.2,22.9,157.3,21.2,157.3,18.6z M163.5,17.9
			c-0.1-1.2-0.9-2.2-2.1-2.2c-1.2,0-2,0.9-2.2,2.2H163.5z"/>
		<path class="st3" d="M166.7,21.6l0.9-1.3c0.9,0.7,1.9,1,2.8,1c0.8,0,1.3-0.4,1.3-0.9v0c0-0.7-0.9-0.9-1.9-1.2
			c-1.2-0.4-2.6-0.9-2.6-2.5v0c0-1.6,1.3-2.6,3-2.6c1.1,0,2.2,0.4,3.1,1l-0.8,1.4c-0.8-0.5-1.7-0.8-2.4-0.8c-0.8,0-1.2,0.4-1.2,0.8
			v0c0,0.6,0.9,0.9,1.9,1.2c1.2,0.4,2.6,0.9,2.6,2.5v0c0,1.8-1.4,2.7-3.1,2.7C169.1,22.9,167.8,22.5,166.7,21.6z"/>
		<path class="st3" d="M175.4,11.2h2.1V13h-2.1V11.2z M175.5,14.3h1.9v8.5h-1.9V14.3z"/>
		<path class="st3" d="M179.9,14.3h2.1v2.2h-2.1V14.3z M179.9,20.6h2.1v2.2h-2.1V20.6z"/>
		<path class="st3" d="M186.1,13.5l-2,0.6l-0.4-1.6l3-1h1.4v11.3h-2V13.5z"/>
		<path class="st3" d="M190.8,21.6l1.1-1.5c0.8,0.7,1.6,1.1,2.6,1.1c1.6,0,2.6-1.5,2.7-3.5c-0.6,0.7-1.4,1.2-2.6,1.2
			c-2.4,0-4-1.4-4-3.6v0c0-2.2,1.7-3.9,4.2-3.9c1.4,0,2.3,0.4,3.1,1.2c0.8,0.8,1.4,2.1,1.4,4.3v0c0,3.6-1.8,6.1-4.8,6.1
			C192.8,22.9,191.7,22.4,190.8,21.6z M197,15.1L197,15.1c0-1.2-0.9-2.1-2.3-2.1c-1.4,0-2.2,0.9-2.2,2.1v0c0,1.2,0.9,2,2.3,2
			C196.2,17.2,197,16.2,197,15.1z"/>
		<path class="st3" d="M201,20.6h2.1v2.2H201V20.6z"/>
		<path class="st3" d="M210.8,20.2h-5.7l-0.4-1.4l6.2-7.4h1.7v7.2h1.6v1.6h-1.6v2.5h-1.9V20.2z M210.8,18.6v-4.4l-3.7,4.4H210.8z"/>
		<path class="st3" d="M221.3,13.3h-5.6v-1.7h7.9V13l-5.1,9.7h-2.2L221.3,13.3z"/>
		<path class="st3" d="M229.6,20.2h-5.7l-0.4-1.4l6.2-7.4h1.7v7.2h1.6v1.6h-1.6v2.5h-1.9V20.2z M229.6,18.6v-4.4l-3.7,4.4H229.6z"/>
		<path class="st3" d="M235,20.6h2.1v2.2H235V20.6z"/>
		<path class="st3" d="M238.8,17.2L238.8,17.2c0-3.2,2-5.8,4.9-5.8c2.9,0,4.9,2.6,4.9,5.8v0c0,3.2-2,5.8-4.9,5.8
			S238.8,20.4,238.8,17.2z M246.5,17.2L246.5,17.2c0-2.2-1.1-4-2.9-4s-2.8,1.8-2.8,4v0c0,2.2,1.1,4,2.9,4
			C245.4,21.2,246.5,19.4,246.5,17.2z"/>
		<path class="st3" d="M250.4,17.2L250.4,17.2c0-3.2,2-5.8,4.9-5.8c2.9,0,4.9,2.6,4.9,5.8v0c0,3.2-2,5.8-4.9,5.8
			C252.3,22.9,250.4,20.4,250.4,17.2z M258.1,17.2L258.1,17.2c0-2.2-1.1-4-2.9-4c-1.7,0-2.8,1.8-2.8,4v0c0,2.2,1.1,4,2.9,4
			C257,21.2,258.1,19.4,258.1,17.2z"/>
		<path class="st3" d="M262,17.2L262,17.2c0-3.2,2-5.8,4.9-5.8c2.9,0,4.9,2.6,4.9,5.8v0c0,3.2-2,5.8-4.9,5.8S262,20.4,262,17.2z
			 M269.7,17.2L269.7,17.2c0-2.2-1.1-4-2.9-4s-2.8,1.8-2.8,4v0c0,2.2,1.1,4,2.9,4C268.6,21.2,269.7,19.4,269.7,17.2z"/>
		<path class="st3" d="M281.6,13.4h-3.6v-1.8h9.1v1.8h-3.6v9.4h-2V13.4z"/>
		<path class="st3" d="M289.2,11.5h2V21h5.9v1.8h-7.9V11.5z"/>
	</g>
</g>
<g>
	<defs>
		<rect id="SVGID_5_" y="37.9" width="314.4" height="35.7"/>
	</defs>
	<clipPath id="SVGID_6_">
		<use xlink:href="#SVGID_5_"  style="overflow:visible;"/>
	</clipPath>
	<rect x="6.2" y="39.9" class="st4" width="303" height="31.7"/>
	<rect x="6.2" y="39.9" class="st5" width="303" height="31.7"/>
</g>
<g>
	<defs>
		<rect id="SVGID_7_" x="2.3" y="43.8" width="309.8" height="27"/>
	</defs>
	<clipPath id="SVGID_8_">
		<use xlink:href="#SVGID_7_"  style="overflow:visible;"/>
	</clipPath>
	<g class="st6">
		<path class="st3" d="M57.6,49.5H62c2.6,0,4.3,1.5,4.3,3.7v0c0,2.5-2,3.8-4.5,3.8h-2.2v3.6h-2V49.5z M61.9,55.4
			c1.5,0,2.4-0.8,2.4-2v0c0-1.3-0.9-2-2.4-2h-2.3v4H61.9z"/>
		<path class="st3" d="M68.1,52.3H70v1.9c0.5-1.3,1.5-2.1,3-2.1v2h-0.1c-1.7,0-2.9,1.1-2.9,3.3v3.2h-1.9V52.3z"/>
		<path class="st3" d="M73.9,56.6L73.9,56.6c0-2.4,1.9-4.5,4.5-4.5s4.5,2,4.5,4.4v0c0,2.4-1.9,4.4-4.5,4.4
			C75.8,60.9,73.9,59,73.9,56.6z M81,56.6L81,56.6c0-1.5-1.1-2.8-2.6-2.8c-1.6,0-2.5,1.2-2.5,2.7v0c0,1.5,1.1,2.7,2.6,2.7
			C80,59.3,81,58,81,56.6z"/>
		<path class="st3" d="M83.6,63.3v-1.6c0.2,0,0.4,0,0.5,0c0.5,0,0.9-0.3,0.9-1v-8.5H87v8.6c0,1.7-0.9,2.5-2.5,2.5
			C84.1,63.4,83.9,63.3,83.6,63.3z M84.9,49.2H87V51h-2.1V49.2z"/>
		<path class="st3" d="M89,56.6L89,56.6c0-2.4,1.7-4.4,4.1-4.4c2.7,0,4,2.1,4,4.5c0,0.2,0,0.4,0,0.5H91c0.2,1.4,1.2,2.1,2.4,2.1
			c0.9,0,1.6-0.4,2.3-1l1.1,1c-0.8,1-1.9,1.6-3.5,1.6C90.9,60.9,89,59.2,89,56.6z M95.3,55.9c-0.1-1.2-0.9-2.2-2.1-2.2
			c-1.2,0-2,0.9-2.2,2.2H95.3z"/>
		<path class="st3" d="M107.5,56.3l-4.4-6.8h2.3l3.1,5l3.2-5h2.3l-4.4,6.7v4.5h-2V56.3z"/>
		<path class="st3" d="M113.2,56.6L113.2,56.6c0-2.4,1.7-4.4,4.1-4.4c2.7,0,4,2.1,4,4.5c0,0.2,0,0.4,0,0.5h-6.2
			c0.2,1.4,1.2,2.1,2.4,2.1c0.9,0,1.6-0.4,2.3-1l1.1,1c-0.8,1-1.9,1.6-3.5,1.6C115.1,60.9,113.2,59.2,113.2,56.6z M119.5,55.9
			c-0.1-1.2-0.9-2.2-2.1-2.2c-1.2,0-2,0.9-2.2,2.2H119.5z"/>
		<path class="st3" d="M123.3,52.3h1.9v1.9c0.5-1.3,1.5-2.1,3-2.1v2h-0.1c-1.7,0-2.9,1.1-2.9,3.3v3.2h-1.9V52.3z"/>
		<path class="st3" d="M130,49.2h2.1V51H130V49.2z M130,52.3h1.9v8.5H130V52.3z"/>
		<path class="st3" d="M134.5,52.3h2.1v2.2h-2.1V52.3z M134.5,58.6h2.1v2.2h-2.1V58.6z"/>
		<path class="st3" d="M143,49.5h2.2l3.4,8.6l3.4-8.6h2.1l-4.7,11.3h-1.7L143,49.5z"/>
		<path class="st3" d="M159.8,60.7v-1c-0.6,0.7-1.5,1.2-2.7,1.2c-1.6,0-3-0.9-3-2.6v0c0-1.9,1.5-2.8,3.4-2.8c1,0,1.7,0.1,2.3,0.4
			v-0.2c0-1.2-0.7-1.8-2.1-1.8c-0.9,0-1.6,0.2-2.4,0.5l-0.5-1.6c0.9-0.4,1.8-0.7,3.2-0.7c2.5,0,3.7,1.3,3.7,3.6v5H159.8z
			 M159.9,57.2c-0.5-0.2-1.2-0.3-1.9-0.3c-1.2,0-1.9,0.5-1.9,1.3v0c0,0.8,0.7,1.2,1.6,1.2c1.3,0,2.2-0.7,2.2-1.8V57.2z"/>
		<path class="st3" d="M164,52.3h1.9v1.3c0.5-0.8,1.3-1.5,2.6-1.5c1.9,0,3,1.3,3,3.2v5.4h-1.9v-4.8c0-1.3-0.7-2.1-1.8-2.1
			c-1.1,0-1.9,0.8-1.9,2.1v4.8H164V52.3z"/>
		<path class="st3" d="M178.5,55.2L178.5,55.2c0-3.2,2.4-5.8,5.9-5.8s5.8,2.6,5.8,5.8v0c0,3.2-2.4,5.8-5.9,5.8
			S178.5,58.3,178.5,55.2z M188.1,55.2L188.1,55.2c0-2.2-1.6-4-3.8-4c-2.2,0-3.8,1.8-3.8,4v0c0,2.2,1.6,4,3.8,4
			C186.6,59.1,188.1,57.4,188.1,55.2z"/>
		<path class="st3" d="M191.8,59.1l1.2-1.4c1.1,0.9,2.1,1.5,3.5,1.5c1.2,0,2-0.6,2-1.4v0c0-0.8-0.4-1.2-2.5-1.7
			c-2.4-0.6-3.7-1.3-3.7-3.3v0c0-1.9,1.6-3.2,3.8-3.2c1.6,0,2.9,0.5,4.1,1.4l-1.1,1.5c-1-0.8-2-1.2-3-1.2c-1.2,0-1.8,0.6-1.8,1.3v0
			c0,0.9,0.5,1.2,2.7,1.8c2.4,0.6,3.6,1.4,3.6,3.3v0c0,2.1-1.6,3.3-4,3.3C194.7,60.9,193.1,60.3,191.8,59.1z"/>
		<path class="st3" d="M202.8,49.5h5c1.3,0,2.3,0.4,2.9,1c0.5,0.5,0.8,1.1,0.8,1.9v0c0,1.3-0.8,2.1-1.6,2.5c1.3,0.4,2.2,1.2,2.2,2.7
			v0c0,2-1.6,3.1-4.1,3.1h-5.2V49.5z M207.4,54.3c1.3,0,2.1-0.5,2.1-1.5v0c0-0.9-0.7-1.4-2-1.4h-2.8v3H207.4z M208,59
			c1.3,0,2.2-0.5,2.2-1.5v0c0-0.9-0.8-1.5-2.3-1.5h-3.1V59H208z"/>
		<path class="st3" d="M218.6,55.2L218.6,55.2c0-3.2,2.4-5.8,5.8-5.8c2,0,3.2,0.5,4.3,1.5l-1.2,1.5c-0.9-0.7-1.7-1.2-3.1-1.2
			c-2.1,0-3.6,1.8-3.6,4v0c0,2.3,1.5,4,3.8,4c1.1,0,2-0.3,2.7-0.8v-2.1h-2.9v-1.7h4.8v4.7c-1.1,0.9-2.7,1.7-4.7,1.7
			C220.9,60.9,218.6,58.4,218.6,55.2z"/>
		<path class="st3" d="M231.5,49.2h2.1V51h-2.1V49.2z M231.5,52.3h1.9v8.5h-1.9V52.3z"/>
		<path class="st3" d="M236,52.3h1.9v1.9c0.5-1.3,1.5-2.1,3-2.1v2h-0.1c-1.7,0-2.9,1.1-2.9,3.3v3.2H236V52.3z"/>
		<path class="st3" d="M242.7,49.2h2.1V51h-2.1V49.2z M242.7,52.3h1.9v8.5h-1.9V52.3z"/>
	</g>
	<g class="st6">
		<path class="st3" d="M247.9,62.7l1.3-1.9c-0.9-0.2-1.9-0.6-2.7-1.2l0.9-1.3c0.9,0.7,1.9,1,2.8,1c0.8,0,1.3-0.4,1.3-0.9v0
			c0-0.7-0.9-0.9-1.9-1.2c-1.2-0.4-2.6-0.9-2.6-2.5v0c0-1.6,1.3-2.6,3-2.6c1.1,0,2.2,0.4,3.1,1l-0.8,1.4c-0.8-0.5-1.7-0.8-2.4-0.8
			c-0.8,0-1.2,0.4-1.2,0.8v0c0,0.6,0.9,0.9,1.9,1.2c1.2,0.4,2.6,0.9,2.6,2.5v0c0,1.6-1.1,2.4-2.6,2.6l-1.1,2.5L247.9,62.7z"/>
	</g>
	<g class="st6">
		<path class="st3" d="M255.2,49.2h2.1V51h-2.1V49.2z M255.3,52.3h1.9v8.5h-1.9V52.3z"/>
	</g>
</g>
<g>
	<defs>
		<rect id="SVGID_9_" y="75.8" width="314.4" height="35.7"/>
	</defs>
	<clipPath id="SVGID_10_">
		<use xlink:href="#SVGID_9_"  style="overflow:visible;"/>
	</clipPath>
	<rect x="6.2" y="77.8" class="st7" width="303" height="31.7"/>
	<rect x="6.2" y="77.8" class="st8" width="303" height="31.7"/>
</g>
<g>
	<defs>
		<rect id="SVGID_11_" x="2.3" y="81.7" width="309.8" height="27"/>
	</defs>
	<clipPath id="SVGID_12_">
		<use xlink:href="#SVGID_11_"  style="overflow:visible;"/>
	</clipPath>
	<g class="st9">
		<path class="st3" d="M45.6,87.5H50c2.6,0,4.3,1.5,4.3,3.7v0c0,2.5-2,3.8-4.5,3.8h-2.2v3.6h-2V87.5z M49.9,93.4
			c1.5,0,2.4-0.8,2.4-2v0c0-1.3-0.9-2-2.4-2h-2.3v4H49.9z"/>
		<path class="st3" d="M56.1,90.3H58v1.9c0.5-1.3,1.5-2.1,3-2.1v2h-0.1c-1.7,0-2.9,1.1-2.9,3.3v3.2h-1.9V90.3z"/>
		<path class="st3" d="M61.9,94.6L61.9,94.6c0-2.4,1.9-4.5,4.5-4.5c2.6,0,4.5,2,4.5,4.4v0c0,2.4-1.9,4.4-4.5,4.4
			C63.8,98.9,61.9,97,61.9,94.6z M69,94.6L69,94.6c0-1.5-1.1-2.8-2.6-2.8c-1.6,0-2.5,1.2-2.5,2.7v0c0,1.5,1.1,2.7,2.6,2.7
			C68,97.3,69,96,69,94.6z"/>
		<path class="st3" d="M71.6,101.3v-1.6c0.2,0,0.4,0,0.5,0c0.5,0,0.9-0.3,0.9-1v-8.5H75v8.6c0,1.7-0.9,2.5-2.5,2.5
			C72.1,101.4,71.9,101.3,71.6,101.3z M72.9,87.2H75V89h-2.1V87.2z"/>
		<path class="st3" d="M77,94.6L77,94.6c0-2.4,1.7-4.4,4.1-4.4c2.7,0,4,2.1,4,4.5c0,0.2,0,0.4,0,0.5H79c0.2,1.4,1.2,2.1,2.4,2.1
			c0.9,0,1.6-0.4,2.3-1l1.1,1c-0.8,1-1.9,1.6-3.5,1.6C78.9,98.9,77,97.2,77,94.6z M83.3,93.9c-0.1-1.2-0.9-2.2-2.1-2.2
			c-1.2,0-2,0.9-2.2,2.2H83.3z"/>
		<path class="st3" d="M92.2,87.5h2v5.6l5.3-5.6h2.4l-4.7,4.8l4.9,6.4h-2.4l-3.8-5l-1.7,1.8v3.2h-2V87.5z"/>
		<path class="st3" d="M108.6,98.7v-1c-0.6,0.7-1.5,1.2-2.7,1.2c-1.6,0-3-0.9-3-2.6v0c0-1.9,1.5-2.8,3.4-2.8c1,0,1.7,0.1,2.3,0.4
			v-0.2c0-1.2-0.7-1.8-2.1-1.8c-0.9,0-1.6,0.2-2.4,0.5l-0.5-1.6c0.9-0.4,1.8-0.7,3.2-0.7c2.5,0,3.7,1.3,3.7,3.6v5H108.6z
			 M108.6,95.2c-0.5-0.2-1.2-0.3-1.9-0.3c-1.2,0-1.9,0.5-1.9,1.3v0c0,0.8,0.7,1.2,1.6,1.2c1.3,0,2.2-0.7,2.2-1.8V95.2z"/>
		<path class="st3" d="M112.8,90.3h1.9v1.4c0.6-0.9,1.5-1.6,2.9-1.6c2,0,3.9,1.6,3.9,4.4v0c0,2.8-1.9,4.4-3.9,4.4
			c-1.4,0-2.3-0.7-2.9-1.5v3.9h-1.9V90.3z M119.6,94.5L119.6,94.5c0-1.7-1.1-2.7-2.4-2.7s-2.5,1.1-2.5,2.7v0c0,1.6,1.2,2.7,2.5,2.7
			C118.5,97.2,119.6,96.2,119.6,94.5z"/>
		<path class="st3" d="M128.7,98.7v-1c-0.6,0.7-1.5,1.2-2.7,1.2c-1.6,0-3-0.9-3-2.6v0c0-1.9,1.5-2.8,3.4-2.8c1,0,1.7,0.1,2.3,0.4
			v-0.2c0-1.2-0.7-1.8-2.1-1.8c-0.9,0-1.6,0.2-2.4,0.5l-0.5-1.6c0.9-0.4,1.8-0.7,3.2-0.7c2.5,0,3.7,1.3,3.7,3.6v5H128.7z
			 M128.7,95.2c-0.5-0.2-1.2-0.3-1.9-0.3c-1.2,0-1.9,0.5-1.9,1.3v0c0,0.8,0.7,1.2,1.6,1.2c1.3,0,2.2-0.7,2.2-1.8V95.2z"/>
		<path class="st3" d="M133,87.1h1.9v11.7H133V87.1z"/>
		<path class="st3" d="M137.6,90.3h1.9v8.5h-1.9V90.3z"/>
		<path class="st3" d="M151.1,87.5h1.8l4.9,11.3h-2.1l-1.1-2.7h-5.3l-1.2,2.7h-2L151.1,87.5z M153.9,94.3l-1.9-4.5l-1.9,4.5H153.9z"
			/>
		<path class="st3" d="M159.6,87.1h1.9v11.7h-1.9V87.1z"/>
		<path class="st3" d="M169.2,98.7v-1c-0.6,0.7-1.5,1.2-2.7,1.2c-1.6,0-3-0.9-3-2.6v0c0-1.9,1.5-2.8,3.4-2.8c1,0,1.7,0.1,2.3,0.4
			v-0.2c0-1.2-0.7-1.8-2.1-1.8c-0.9,0-1.6,0.2-2.4,0.5l-0.5-1.6c0.9-0.4,1.8-0.7,3.2-0.7c2.5,0,3.7,1.3,3.7,3.6v5H169.2z
			 M169.3,95.2c-0.5-0.2-1.2-0.3-1.9-0.3c-1.2,0-1.9,0.5-1.9,1.3v0c0,0.8,0.7,1.2,1.6,1.2c1.3,0,2.2-0.7,2.2-1.8V95.2z"/>
		<path class="st3" d="M173.5,90.3h1.9v1.3c0.5-0.8,1.3-1.5,2.6-1.5c1.9,0,3,1.3,3,3.2v5.4h-1.9v-4.8c0-1.3-0.7-2.1-1.8-2.1
			c-1.1,0-1.9,0.8-1.9,2.1v4.8h-1.9V90.3z"/>
		<path class="st3" d="M183.5,90.3h1.9v8.5h-1.9V90.3z"/>
		<path class="st3" d="M187.9,90.3h2.1v2.2h-2.1V90.3z M187.9,96.6h2.1v2.2h-2.1V96.6z"/>
		<path class="st3" d="M194.1,89.5l-2,0.6l-0.4-1.6l3-1h1.4v11.3h-2V89.5z"/>
		<path class="st3" d="M198.2,97l1.4-1.3c0.8,0.9,1.7,1.5,2.9,1.5c1.1,0,1.9-0.7,1.9-1.7v0c0-1.1-1-1.7-2.6-1.7H201l-0.3-1.2l3-3.2
			h-4.9v-1.7h7.4V89l-3.1,3.2c1.7,0.2,3.3,1.1,3.3,3.2v0c0,2.1-1.6,3.5-3.9,3.5C200.6,98.9,199.2,98.1,198.2,97z"/>
		<path class="st3" d="M208.5,96.6h2.1v2.2h-2.1V96.6z"/>
		<path class="st3" d="M212.3,93.2L212.3,93.2c0-3.2,2-5.8,4.9-5.8c2.9,0,4.9,2.6,4.9,5.8v0c0,3.2-2,5.8-4.9,5.8
			S212.3,96.4,212.3,93.2z M220.1,93.2L220.1,93.2c0-2.2-1.1-4-2.9-4s-2.8,1.8-2.8,4v0c0,2.2,1.1,4,2.9,4
			C219,97.2,220.1,95.4,220.1,93.2z"/>
		<path class="st3" d="M223.9,93.2L223.9,93.2c0-3.2,2-5.8,4.9-5.8c2.9,0,4.9,2.6,4.9,5.8v0c0,3.2-2,5.8-4.9,5.8
			S223.9,96.4,223.9,93.2z M231.6,93.2L231.6,93.2c0-2.2-1.1-4-2.9-4s-2.8,1.8-2.8,4v0c0,2.2,1.1,4,2.9,4
			C230.6,97.2,231.6,95.4,231.6,93.2z"/>
		<path class="st3" d="M235.5,93.2L235.5,93.2c0-3.2,2-5.8,4.9-5.8c2.9,0,4.9,2.6,4.9,5.8v0c0,3.2-2,5.8-4.9,5.8
			S235.5,96.4,235.5,93.2z M243.2,93.2L243.2,93.2c0-2.2-1.1-4-2.9-4s-2.8,1.8-2.8,4v0c0,2.2,1.1,4,2.9,4
			C242.1,97.2,243.2,95.4,243.2,93.2z"/>
		<path class="st3" d="M247.4,90.3h1.9v1.3c0.5-0.8,1.3-1.5,2.6-1.5c1.2,0,2.1,0.6,2.5,1.5c0.7-0.9,1.6-1.5,2.9-1.5
			c1.8,0,3,1.2,3,3.2v5.4h-1.9v-4.8c0-1.3-0.6-2.1-1.7-2.1c-1.1,0-1.8,0.7-1.8,2.1v4.8h-1.9v-4.8c0-1.3-0.6-2-1.7-2
			c-1.1,0-1.8,0.8-1.8,2.1v4.8h-1.9V90.3z"/>
		<path class="st3" d="M262.2,97.2l3.9-3.3c1.5-1.3,2.1-2,2.1-3c0-1.1-0.8-1.7-1.8-1.7s-1.7,0.6-2.6,1.7l-1.4-1.1
			c1.1-1.5,2.1-2.4,4.1-2.4c2.2,0,3.7,1.3,3.7,3.3v0c0,1.8-0.9,2.7-2.9,4.3l-2.3,1.9h5.3v1.7h-8.1V97.2z"/>
	</g>
</g>
<g>
	<defs>
		<rect id="SVGID_13_" y="113.7" width="314.4" height="35.7"/>
	</defs>
	<clipPath id="SVGID_14_">
		<use xlink:href="#SVGID_13_"  style="overflow:visible;"/>
	</clipPath>
	<rect x="6.2" y="115.7" class="st10" width="303" height="31.7"/>
	<rect x="6.2" y="115.7" class="st11" width="303" height="31.7"/>
</g>
<g>
	<defs>
		<rect id="SVGID_15_" x="2.3" y="119.6" width="309.8" height="27"/>
	</defs>
	<clipPath id="SVGID_16_">
		<use xlink:href="#SVGID_15_"  style="overflow:visible;"/>
	</clipPath>
	<g class="st12">
		<path class="st3" d="M20.6,124.5H25c2.6,0,4.3,1.5,4.3,3.7v0c0,2.5-2,3.8-4.5,3.8h-2.2v3.6h-2V124.5z M24.9,130.4
			c1.5,0,2.4-0.8,2.4-2v0c0-1.3-0.9-2-2.4-2h-2.3v4H24.9z"/>
		<path class="st3" d="M31.1,127.3H33v1.9c0.5-1.3,1.5-2.1,3-2.1v2h-0.1c-1.7,0-2.9,1.1-2.9,3.3v3.2h-1.9V127.3z"/>
		<path class="st3" d="M36.9,131.6L36.9,131.6c0-2.4,1.9-4.5,4.5-4.5s4.5,2,4.5,4.4v0c0,2.4-1.9,4.4-4.5,4.4
			C38.8,135.9,36.9,134,36.9,131.6z M44,131.6L44,131.6c0-1.5-1.1-2.8-2.6-2.8c-1.6,0-2.5,1.2-2.5,2.7v0c0,1.5,1.1,2.7,2.6,2.7
			C43,134.3,44,133,44,131.6z"/>
		<path class="st3" d="M46.6,138.3v-1.6c0.2,0,0.4,0,0.5,0c0.5,0,0.9-0.3,0.9-1v-8.5H50v8.6c0,1.7-0.9,2.5-2.5,2.5
			C47.1,138.4,46.9,138.3,46.6,138.3z M47.9,124.2H50v1.8h-2.1V124.2z"/>
		<path class="st3" d="M52,131.6L52,131.6c0-2.4,1.7-4.4,4.1-4.4c2.7,0,4,2.1,4,4.5c0,0.2,0,0.4,0,0.5H54c0.2,1.4,1.2,2.1,2.4,2.1
			c0.9,0,1.6-0.4,2.3-1l1.1,1c-0.8,1-1.9,1.6-3.5,1.6C53.9,135.9,52,134.2,52,131.6z M58.3,130.9c-0.1-1.2-0.9-2.2-2.1-2.2
			c-1.2,0-2,0.9-2.2,2.2H58.3z"/>
		<path class="st3" d="M70.5,131.3l-4.4-6.8h2.3l3.1,5l3.2-5h2.3l-4.4,6.7v4.5h-2V131.3z"/>
		<path class="st3" d="M76.2,131.6L76.2,131.6c0-2.4,1.7-4.4,4.1-4.4c2.7,0,4,2.1,4,4.5c0,0.2,0,0.4,0,0.5h-6.2
			c0.2,1.4,1.2,2.1,2.4,2.1c0.9,0,1.6-0.4,2.3-1l1.1,1c-0.8,1-1.9,1.6-3.5,1.6C78.1,135.9,76.2,134.2,76.2,131.6z M82.5,130.9
			c-0.1-1.2-0.9-2.2-2.1-2.2c-1.2,0-2,0.9-2.2,2.2H82.5z"/>
		<path class="st3" d="M86.3,127.3h1.9v1.9c0.5-1.3,1.5-2.1,3-2.1v2h-0.1c-1.7,0-2.9,1.1-2.9,3.3v3.2h-1.9V127.3z"/>
		<path class="st3" d="M100.7,126.4h-3.6v-1.8h9.1v1.8h-3.6v9.4h-2V126.4z"/>
		<path class="st3" d="M105.8,131.6L105.8,131.6c0-2.4,1.7-4.4,4.1-4.4c2.7,0,4,2.1,4,4.5c0,0.2,0,0.4,0,0.5h-6.2
			c0.2,1.4,1.2,2.1,2.4,2.1c0.9,0,1.6-0.4,2.3-1l1.1,1c-0.8,1-1.9,1.6-3.5,1.6C107.7,135.9,105.8,134.2,105.8,131.6z M112.1,130.9
			c-0.1-1.2-0.9-2.2-2.1-2.2c-1.2,0-2,0.9-2.2,2.2H112.1z"/>
		<path class="st3" d="M115.3,134.6l0.9-1.3c0.9,0.7,1.9,1,2.8,1c0.8,0,1.3-0.4,1.3-0.9v0c0-0.7-0.9-0.9-1.9-1.2
			c-1.2-0.4-2.6-0.9-2.6-2.5v0c0-1.6,1.3-2.6,3-2.6c1.1,0,2.2,0.4,3.1,1l-0.8,1.4c-0.8-0.5-1.7-0.8-2.4-0.8c-0.8,0-1.2,0.4-1.2,0.8
			v0c0,0.6,0.9,0.9,1.9,1.2c1.2,0.4,2.6,0.9,2.6,2.5v0c0,1.8-1.4,2.7-3.1,2.7C117.7,135.9,116.3,135.5,115.3,134.6z"/>
		<path class="st3" d="M124.1,124.1h1.9v11.7h-1.9V124.1z"/>
		<path class="st3" d="M128.6,124.2h2.1v1.8h-2.1V124.2z M128.6,127.3h1.9v8.5h-1.9V127.3z"/>
		<path class="st3" d="M133.1,127.3h1.9v1.3c0.5-0.8,1.3-1.5,2.6-1.5c1.2,0,2.1,0.6,2.5,1.5c0.7-0.9,1.6-1.5,2.9-1.5
			c1.8,0,3,1.2,3,3.2v5.4H144v-4.8c0-1.3-0.6-2.1-1.7-2.1c-1.1,0-1.8,0.7-1.8,2.1v4.8h-1.9v-4.8c0-1.3-0.6-2-1.7-2
			c-1.1,0-1.8,0.8-1.8,2.1v4.8h-1.9V127.3z"/>
		<path class="st3" d="M156.1,126.4h-3.6v-1.8h9.1v1.8h-3.6v9.4h-2V126.4z"/>
		<path class="st3" d="M166.8,135.7v-1c-0.6,0.7-1.5,1.2-2.7,1.2c-1.6,0-3-0.9-3-2.6v0c0-1.9,1.5-2.8,3.4-2.8c1,0,1.7,0.1,2.3,0.4
			v-0.2c0-1.2-0.7-1.8-2.1-1.8c-0.9,0-1.6,0.2-2.4,0.5l-0.5-1.6c0.9-0.4,1.8-0.7,3.2-0.7c2.5,0,3.7,1.3,3.7,3.6v5H166.8z
			 M166.9,132.2c-0.5-0.2-1.2-0.3-1.9-0.3c-1.2,0-1.9,0.5-1.9,1.3v0c0,0.8,0.7,1.2,1.6,1.2c1.3,0,2.2-0.7,2.2-1.8V132.2z"/>
		<path class="st3" d="M171,127.3h1.9v1.9c0.5-1.3,1.5-2.1,3-2.1v2h-0.1c-1.7,0-2.9,1.1-2.9,3.3v3.2H171V127.3z"/>
		<path class="st3" d="M177.7,124.2h2.1v1.8h-2.1V124.2z M177.8,127.3h1.9v8.5h-1.9V127.3z"/>
		<path class="st3" d="M182.2,124.1h1.9v4.5c0.5-0.8,1.3-1.5,2.6-1.5c1.9,0,3,1.3,3,3.2v5.4h-1.9v-4.8c0-1.3-0.7-2.1-1.8-2.1
			c-1.1,0-1.9,0.8-1.9,2.1v4.8h-1.9V124.1z"/>
		<path class="st3" d="M192.2,124.2h2.1v1.8h-2.1V124.2z M192.3,127.3h1.9v8.5h-1.9V127.3z"/>
		<path class="st3" d="M196.7,127.3h2.1v2.2h-2.1V127.3z M196.7,133.6h2.1v2.2h-2.1V133.6z"/>
		<path class="st3" d="M205.7,130.2L205.7,130.2c0-3.2,2-5.8,4.9-5.8c2.9,0,4.9,2.6,4.9,5.8v0c0,3.2-2,5.8-4.9,5.8
			S205.7,133.4,205.7,130.2z M213.4,130.2L213.4,130.2c0-2.2-1.1-4-2.9-4s-2.8,1.8-2.8,4v0c0,2.2,1.1,4,2.9,4
			C212.3,134.2,213.4,132.4,213.4,130.2z"/>
		<path class="st3" d="M223,133.2h-5.7l-0.4-1.4l6.2-7.4h1.7v7.2h1.6v1.6h-1.6v2.5H223V133.2z M223,131.6v-4.4l-3.7,4.4H223z"/>
		<path class="st3" d="M228.3,133.6h2.1v2.2h-2.1V133.6z"/>
		<path class="st3" d="M232.1,130.2L232.1,130.2c0-3.2,2-5.8,4.9-5.8c2.9,0,4.9,2.6,4.9,5.8v0c0,3.2-2,5.8-4.9,5.8
			S232.1,133.4,232.1,130.2z M239.9,130.2L239.9,130.2c0-2.2-1.1-4-2.9-4s-2.8,1.8-2.8,4v0c0,2.2,1.1,4,2.9,4
			C238.8,134.2,239.9,132.4,239.9,130.2z"/>
		<path class="st3" d="M249.4,133.2h-5.7l-0.4-1.4l6.2-7.4h1.7v7.2h1.6v1.6h-1.6v2.5h-1.9V133.2z M249.4,131.6v-4.4l-3.7,4.4H249.4z
			"/>
		<path class="st3" d="M254.8,133.6h2.1v2.2h-2.1V133.6z"/>
		<path class="st3" d="M258.8,134.2l3.9-3.3c1.5-1.3,2.1-2,2.1-3c0-1.1-0.8-1.7-1.8-1.7s-1.7,0.6-2.6,1.7l-1.4-1.1
			c1.1-1.5,2.1-2.4,4.1-2.4c2.2,0,3.7,1.3,3.7,3.3v0c0,1.8-0.9,2.7-2.9,4.3l-2.3,1.9h5.3v1.7h-8.1V134.2z"/>
		<path class="st3" d="M268.7,130.2L268.7,130.2c0-3.2,2-5.8,4.9-5.8c2.9,0,4.9,2.6,4.9,5.8v0c0,3.2-2,5.8-4.9,5.8
			S268.7,133.4,268.7,130.2z M276.5,130.2L276.5,130.2c0-2.2-1.1-4-2.9-4s-2.8,1.8-2.8,4v0c0,2.2,1.1,4,2.9,4
			C275.4,134.2,276.5,132.4,276.5,130.2z"/>
		<path class="st3" d="M282.2,126.5l-2,0.6l-0.4-1.6l3-1h1.4v11.3h-2V126.5z"/>
		<path class="st3" d="M286.4,134l1.4-1.3c0.8,0.9,1.7,1.5,2.9,1.5c1.1,0,1.9-0.7,1.9-1.7v0c0-1.1-1-1.7-2.6-1.7h-0.9l-0.3-1.2
			l3-3.2H287v-1.7h7.4v1.5l-3.1,3.2c1.7,0.2,3.3,1.1,3.3,3.2v0c0,2.1-1.6,3.5-3.9,3.5C288.7,135.9,287.3,135.1,286.4,134z"/>
	</g>
</g>
<g>
	<defs>
		<rect id="SVGID_17_" y="151.6" width="314.4" height="35.7"/>
	</defs>
	<clipPath id="SVGID_18_">
		<use xlink:href="#SVGID_17_"  style="overflow:visible;"/>
	</clipPath>
	<rect x="6.2" y="153.6" class="st13" width="303" height="31.7"/>
	<rect x="6.2" y="153.6" class="st14" width="303" height="31.7"/>
</g>
<g>
	<defs>
		<rect id="SVGID_19_" x="2.5" y="158.1" width="309.3" height="25.5"/>
	</defs>
	<clipPath id="SVGID_20_">
		<use xlink:href="#SVGID_19_"  style="overflow:visible;"/>
	</clipPath>
	<g class="st15">
		<path class="st3" d="M13.5,163.2h4.1c2.4,0,4,1.4,4,3.5v0c0,2.4-1.9,3.6-4.2,3.6h-2.1v3.4h-1.8V163.2z M17.5,168.7
			c1.4,0,2.3-0.8,2.3-1.9v0c0-1.2-0.9-1.9-2.3-1.9h-2.1v3.8H17.5z"/>
		<path class="st3" d="M23.3,165.8h1.8v1.8c0.5-1.2,1.4-2,2.8-1.9v1.9h-0.1c-1.6,0-2.7,1-2.7,3.1v3h-1.8V165.8z"/>
		<path class="st3" d="M28.8,169.8L28.8,169.8c0-2.3,1.8-4.2,4.2-4.2c2.4,0,4.2,1.8,4.2,4.1v0c0,2.2-1.8,4.1-4.2,4.1
			C30.6,173.9,28.8,172.1,28.8,169.8z M35.5,169.8L35.5,169.8c0-1.4-1-2.6-2.4-2.6c-1.5,0-2.4,1.1-2.4,2.5v0c0,1.4,1,2.6,2.4,2.6
			C34.5,172.4,35.5,171.2,35.5,169.8z"/>
		<path class="st3" d="M37.9,176.1v-1.5c0.2,0,0.3,0,0.5,0c0.5,0,0.9-0.3,0.9-1v-7.9H41v8c0,1.6-0.8,2.3-2.3,2.3
			C38.4,176.2,38.1,176.2,37.9,176.1z M39.1,162.9h2v1.7h-2V162.9z"/>
		<path class="st3" d="M43,169.8L43,169.8c0-2.3,1.6-4.2,3.9-4.2c2.5,0,3.8,2,3.8,4.3c0,0.2,0,0.3,0,0.5h-5.8c0.2,1.3,1.1,2,2.3,2
			c0.9,0,1.5-0.3,2.1-0.9l1.1,0.9c-0.8,0.9-1.8,1.5-3.2,1.5C44.7,173.9,43,172.3,43,169.8z M48.8,169.2c-0.1-1.2-0.8-2.1-2-2.1
			c-1.1,0-1.9,0.9-2.1,2.1H48.8z"/>
		<path class="st3" d="M59.8,165h-3.3v-1.7h8.5v1.7h-3.3v8.8h-1.9V165z"/>
		<path class="st3" d="M69.8,173.7v-1c-0.5,0.6-1.4,1.1-2.6,1.1c-1.5,0-2.8-0.9-2.8-2.4v0c0-1.8,1.4-2.6,3.2-2.6
			c1,0,1.6,0.1,2.2,0.3V169c0-1.1-0.7-1.7-2-1.7c-0.9,0-1.5,0.2-2.3,0.5l-0.5-1.5c0.9-0.4,1.7-0.7,3-0.7c2.3,0,3.5,1.2,3.5,3.3v4.7
			H69.8z M69.9,170.4c-0.5-0.2-1.1-0.3-1.8-0.3c-1.1,0-1.8,0.5-1.8,1.2v0c0,0.8,0.7,1.2,1.5,1.2c1.2,0,2.1-0.7,2.1-1.7V170.4z"/>
		<path class="st3" d="M73.8,165.8h1.8v1.2c0.5-0.7,1.2-1.4,2.4-1.4c1.1,0,1.9,0.6,2.4,1.4c0.6-0.8,1.5-1.4,2.7-1.4
			c1.7,0,2.8,1.1,2.8,3v5.1H84v-4.5c0-1.3-0.6-1.9-1.6-1.9c-1,0-1.7,0.7-1.7,2v4.5h-1.8v-4.5c0-1.2-0.6-1.9-1.6-1.9s-1.7,0.8-1.7,2
			v4.5h-1.8V165.8z"/>
		<path class="st3" d="M92.9,173.7v-1c-0.5,0.6-1.4,1.1-2.6,1.1c-1.5,0-2.8-0.9-2.8-2.4v0c0-1.8,1.4-2.6,3.2-2.6
			c1,0,1.6,0.1,2.2,0.3V169c0-1.1-0.7-1.7-1.9-1.7c-0.9,0-1.5,0.2-2.3,0.5l-0.5-1.5c0.9-0.4,1.7-0.7,3-0.7c2.3,0,3.5,1.2,3.5,3.3
			v4.7H92.9z M92.9,170.4c-0.5-0.2-1.1-0.3-1.8-0.3c-1.1,0-1.8,0.5-1.8,1.2v0c0,0.8,0.7,1.2,1.5,1.2c1.2,0,2.1-0.7,2.1-1.7V170.4z"
			/>
		<path class="st3" d="M96.8,165.8h1.8v1.2c0.5-0.7,1.2-1.4,2.4-1.4c1.1,0,1.9,0.6,2.4,1.4c0.6-0.8,1.5-1.4,2.7-1.4
			c1.7,0,2.8,1.1,2.8,3v5.1h-1.8v-4.5c0-1.3-0.6-1.9-1.6-1.9c-1,0-1.7,0.7-1.7,2v4.5h-1.8v-4.5c0-1.2-0.6-1.9-1.6-1.9
			s-1.7,0.8-1.7,2v4.5h-1.8V165.8z"/>
		<path class="st3" d="M111.2,162.8h1.8v10.9h-1.8V162.8z"/>
		<path class="st3" d="M120.2,173.7v-1c-0.5,0.6-1.4,1.1-2.6,1.1c-1.5,0-2.8-0.9-2.8-2.4v0c0-1.8,1.4-2.6,3.2-2.6
			c1,0,1.6,0.1,2.2,0.3V169c0-1.1-0.7-1.7-1.9-1.7c-0.9,0-1.5,0.2-2.3,0.5l-0.5-1.5c0.9-0.4,1.7-0.7,3-0.7c2.3,0,3.5,1.2,3.5,3.3
			v4.7H120.2z M120.3,170.4c-0.5-0.2-1.1-0.3-1.8-0.3c-1.1,0-1.8,0.5-1.8,1.2v0c0,0.8,0.7,1.2,1.5,1.2c1.2,0,2.1-0.7,2.1-1.7V170.4z
			"/>
		<path class="st3" d="M124.2,165.8h1.8v1.2c0.5-0.7,1.2-1.4,2.4-1.4c1.1,0,1.9,0.6,2.4,1.4c0.6-0.8,1.5-1.4,2.7-1.4
			c1.7,0,2.8,1.1,2.8,3v5.1h-1.8v-4.5c0-1.3-0.6-1.9-1.6-1.9c-1,0-1.7,0.7-1.7,2v4.5h-1.8v-4.5c0-1.2-0.6-1.9-1.6-1.9
			s-1.7,0.8-1.7,2v4.5h-1.8V165.8z"/>
		<path class="st3" d="M143.3,173.7v-1c-0.5,0.6-1.4,1.1-2.6,1.1c-1.5,0-2.8-0.9-2.8-2.4v0c0-1.8,1.4-2.6,3.2-2.6
			c1,0,1.6,0.1,2.2,0.3V169c0-1.1-0.7-1.7-1.9-1.7c-0.9,0-1.5,0.2-2.3,0.5l-0.5-1.5c0.9-0.4,1.7-0.7,3-0.7c2.3,0,3.5,1.2,3.5,3.3
			v4.7H143.3z M143.3,170.4c-0.5-0.2-1.1-0.3-1.8-0.3c-1.1,0-1.8,0.5-1.8,1.2v0c0,0.8,0.7,1.2,1.5,1.2c1.2,0,2.1-0.7,2.1-1.7V170.4z
			"/>
		<path class="st3" d="M154.5,165h-3.3v-1.7h8.5v1.7h-3.3v8.8h-1.9V165z"/>
		<path class="st3" d="M164.6,173.7v-1c-0.5,0.6-1.4,1.1-2.6,1.1c-1.5,0-2.8-0.9-2.8-2.4v0c0-1.8,1.4-2.6,3.2-2.6
			c1,0,1.6,0.1,2.2,0.3V169c0-1.1-0.7-1.7-1.9-1.7c-0.9,0-1.5,0.2-2.3,0.5l-0.5-1.5c0.9-0.4,1.7-0.7,3-0.7c2.3,0,3.5,1.2,3.5,3.3
			v4.7H164.6z M164.6,170.4c-0.5-0.2-1.1-0.3-1.8-0.3c-1.1,0-1.8,0.5-1.8,1.2v0c0,0.8,0.7,1.2,1.5,1.2c1.2,0,2.1-0.7,2.1-1.7V170.4z
			"/>
		<path class="st3" d="M168.5,165.8h1.8v1.8c0.5-1.2,1.4-2,2.8-1.9v1.9h-0.1c-1.6,0-2.7,1-2.7,3.1v3h-1.8V165.8z"/>
		<path class="st3" d="M174.8,162.9h1.9v1.7h-1.9V162.9z M174.8,165.8h1.8v7.9h-1.8V165.8z"/>
		<path class="st3" d="M179,162.8h1.8v4.3c0.5-0.8,1.2-1.4,2.5-1.4c1.8,0,2.8,1.2,2.8,3v5h-1.8v-4.5c0-1.2-0.6-1.9-1.7-1.9
			c-1,0-1.8,0.7-1.8,2v4.5H179V162.8z"/>
		<path class="st3" d="M188.4,162.9h1.9v1.7h-1.9V162.9z M188.4,165.8h1.8v7.9h-1.8V165.8z"/>
		<path class="st3" d="M192.6,165.8h2v2.1h-2V165.8z M192.6,171.7h2v2.1h-2V171.7z"/>
		<path class="st3" d="M204.1,165h-3.3v-1.7h8.5v1.7H206v8.8h-1.9V165z"/>
		<path class="st3" d="M208.9,169.8L208.9,169.8c0-2.3,1.6-4.2,3.9-4.2c2.5,0,3.8,2,3.8,4.3c0,0.2,0,0.3,0,0.5h-5.8
			c0.2,1.3,1.1,2,2.3,2c0.9,0,1.5-0.3,2.1-0.9l1.1,0.9c-0.8,0.9-1.8,1.5-3.2,1.5C210.7,173.9,208.9,172.3,208.9,169.8z M214.7,169.2
			c-0.1-1.2-0.8-2.1-2-2.1c-1.1,0-1.9,0.9-2.1,2.1H214.7z"/>
		<path class="st3" d="M218.4,165.8h1.8v1.2c0.5-0.7,1.2-1.4,2.4-1.4c1.1,0,1.9,0.6,2.4,1.4c0.6-0.8,1.5-1.4,2.7-1.4
			c1.7,0,2.8,1.1,2.8,3v5.1h-1.8v-4.5c0-1.3-0.6-1.9-1.6-1.9c-1,0-1.7,0.7-1.7,2v4.5h-1.8v-4.5c0-1.2-0.6-1.9-1.6-1.9
			s-1.7,0.8-1.7,2v4.5h-1.8V165.8z"/>
		<path class="st3" d="M232.6,165.8h1.8v1.2c0.5-0.7,1.2-1.4,2.4-1.4c1.1,0,1.9,0.6,2.4,1.4c0.6-0.8,1.5-1.4,2.7-1.4
			c1.7,0,2.8,1.1,2.8,3v5.1h-1.8v-4.5c0-1.3-0.6-1.9-1.6-1.9c-1,0-1.7,0.7-1.7,2v4.5h-1.8v-4.5c0-1.2-0.6-1.9-1.6-1.9
			s-1.7,0.8-1.7,2v4.5h-1.8V165.8z"/>
		<path class="st3" d="M246.8,170.9v-5h1.8v4.5c0,1.2,0.6,1.9,1.7,1.9c1.1,0,1.8-0.7,1.8-2v-4.5h1.8v7.9h-1.8v-1.2
			c-0.5,0.7-1.2,1.4-2.5,1.4C247.8,173.9,246.8,172.7,246.8,170.9z"/>
		<path class="st3" d="M255.8,172.5l4.6-5.2H256v-1.5h6.7v1.2l-4.6,5.2h4.6v1.5h-6.9V172.5z"/>
		<path class="st3" d="M268.7,172.3l3.6-3.1c1.4-1.2,2-1.9,2-2.8c0-1-0.7-1.6-1.7-1.6s-1.6,0.5-2.4,1.6l-1.3-1c1-1.4,2-2.2,3.9-2.2
			c2.1,0,3.5,1.3,3.5,3.1v0c0,1.6-0.9,2.5-2.7,4.1l-2.2,1.8h5v1.6h-7.6V172.3z"/>
		<path class="st3" d="M278,168.5L278,168.5c0-3,1.8-5.5,4.6-5.5c2.7,0,4.6,2.4,4.6,5.4v0c0,3-1.8,5.4-4.6,5.4
			C279.8,173.9,278,171.5,278,168.5z M285.2,168.5L285.2,168.5c0-2.1-1.1-3.8-2.7-3.8c-1.6,0-2.7,1.7-2.7,3.7v0
			c0,2.1,1.1,3.8,2.7,3.8S285.2,170.6,285.2,168.5z"/>
		<path class="st3" d="M290.6,165l-1.9,0.5l-0.4-1.5l2.8-0.9h1.3v10.6h-1.8V165z"/>
		<path class="st3" d="M294.6,172.3l1.1-1.3c0.8,0.8,1.7,1.3,2.7,1.3c1.3,0,2.1-0.7,2.1-1.8v0c0-1.1-0.9-1.7-2.2-1.7
			c-0.7,0-1.4,0.2-1.9,0.5l-1.1-0.7l0.3-5.1h6.3v1.6h-4.7l-0.2,2.5c0.5-0.2,1-0.3,1.7-0.3c2,0,3.6,1.1,3.6,3.3v0
			c0,2.1-1.6,3.6-3.9,3.6C296.8,173.9,295.6,173.3,294.6,172.3z"/>
	</g>
</g>
<g>
	<defs>
		<rect id="SVGID_21_" y="189.4" width="314.4" height="35.7"/>
	</defs>
	<clipPath id="SVGID_22_">
		<use xlink:href="#SVGID_21_"  style="overflow:visible;"/>
	</clipPath>
	<rect x="6.2" y="191.4" class="st16" width="303" height="31.7"/>
	<rect x="6.2" y="191.4" class="st17" width="303" height="31.7"/>
</g>
<g>
	<defs>
		<rect id="SVGID_23_" x="2.3" y="195.4" width="309.8" height="27"/>
	</defs>
	<clipPath id="SVGID_24_">
		<use xlink:href="#SVGID_23_"  style="overflow:visible;"/>
	</clipPath>
	<g class="st18">
		<path class="st3" d="M30.6,200.5H35c2.6,0,4.3,1.5,4.3,3.7v0c0,2.5-2,3.8-4.5,3.8h-2.2v3.6h-2V200.5z M34.9,206.4
			c1.5,0,2.4-0.8,2.4-2v0c0-1.3-0.9-2-2.4-2h-2.3v4H34.9z"/>
		<path class="st3" d="M41.1,203.3H43v1.9c0.5-1.3,1.5-2.1,3-2.1v2h-0.1c-1.7,0-2.9,1.1-2.9,3.3v3.2h-1.9V203.3z"/>
		<path class="st3" d="M46.9,207.6L46.9,207.6c0-2.4,1.9-4.5,4.5-4.5s4.5,2,4.5,4.4v0c0,2.4-1.9,4.4-4.5,4.4
			C48.8,211.9,46.9,210,46.9,207.6z M54,207.6L54,207.6c0-1.5-1.1-2.8-2.6-2.8c-1.6,0-2.5,1.2-2.5,2.7v0c0,1.5,1.1,2.7,2.6,2.7
			C53,210.3,54,209,54,207.6z"/>
		<path class="st3" d="M56.6,214.3v-1.6c0.2,0,0.4,0,0.5,0c0.5,0,0.9-0.3,0.9-1v-8.5H60v8.6c0,1.7-0.9,2.5-2.5,2.5
			C57.1,214.4,56.9,214.3,56.6,214.3z M57.9,200.2H60v1.8h-2.1V200.2z"/>
		<path class="st3" d="M62,207.6L62,207.6c0-2.4,1.7-4.4,4.1-4.4c2.7,0,4,2.1,4,4.5c0,0.2,0,0.4,0,0.5H64c0.2,1.4,1.2,2.1,2.4,2.1
			c0.9,0,1.6-0.4,2.3-1l1.1,1c-0.8,1-1.9,1.6-3.5,1.6C63.9,211.9,62,210.2,62,207.6z M68.3,206.9c-0.1-1.2-0.9-2.2-2.1-2.2
			c-1.2,0-2,0.9-2.2,2.2H68.3z"/>
		<path class="st3" d="M76.2,200.5h2.2l3.4,8.6l3.4-8.6h2.1l-4.7,11.3h-1.7L76.2,200.5z"/>
		<path class="st3" d="M93,211.7v-1c-0.6,0.7-1.5,1.2-2.7,1.2c-1.6,0-3-0.9-3-2.6v0c0-1.9,1.5-2.8,3.4-2.8c1,0,1.7,0.1,2.3,0.4v-0.2
			c0-1.2-0.7-1.8-2.1-1.8c-0.9,0-1.6,0.2-2.4,0.5l-0.5-1.6c0.9-0.4,1.8-0.7,3.2-0.7c2.5,0,3.7,1.3,3.7,3.6v5H93z M93.1,208.2
			c-0.5-0.2-1.2-0.3-1.9-0.3c-1.2,0-1.9,0.5-1.9,1.3v0c0,0.8,0.7,1.2,1.6,1.2c1.3,0,2.2-0.7,2.2-1.8V208.2z"/>
		<path class="st3" d="M97.2,203.3h1.9v1.3c0.5-0.8,1.3-1.5,2.6-1.5c1.9,0,3,1.3,3,3.2v5.4h-1.9v-4.8c0-1.3-0.7-2.1-1.8-2.1
			c-1.1,0-1.9,0.8-1.9,2.1v4.8h-1.9V203.3z"/>
		<path class="st3" d="M111.7,206.2L111.7,206.2c0-3.2,2.4-5.8,5.9-5.8s5.8,2.6,5.8,5.8v0c0,3.2-2.4,5.8-5.9,5.8
			S111.7,209.3,111.7,206.2z M121.3,206.2L121.3,206.2c0-2.2-1.6-4-3.8-4c-2.2,0-3.8,1.8-3.8,4v0c0,2.2,1.6,4,3.8,4
			C119.8,210.1,121.3,208.4,121.3,206.2z"/>
		<path class="st3" d="M125,210.1l1.2-1.4c1.1,0.9,2.1,1.5,3.5,1.5c1.2,0,2-0.6,2-1.4v0c0-0.8-0.4-1.2-2.5-1.7
			c-2.4-0.6-3.7-1.3-3.7-3.3v0c0-1.9,1.6-3.2,3.8-3.2c1.6,0,2.9,0.5,4.1,1.4l-1.1,1.5c-1-0.8-2-1.2-3-1.2c-1.2,0-1.8,0.6-1.8,1.3v0
			c0,0.9,0.5,1.2,2.7,1.8c2.4,0.6,3.6,1.4,3.6,3.3v0c0,2.1-1.6,3.3-4,3.3C127.9,211.9,126.3,211.3,125,210.1z"/>
		<path class="st3" d="M136,200.5h5c1.3,0,2.3,0.4,2.9,1c0.5,0.5,0.8,1.1,0.8,1.9v0c0,1.3-0.8,2.1-1.6,2.5c1.3,0.4,2.2,1.2,2.2,2.7
			v0c0,2-1.6,3.1-4.1,3.1H136V200.5z M140.6,205.3c1.3,0,2.1-0.5,2.1-1.5v0c0-0.9-0.7-1.4-2-1.4h-2.8v3H140.6z M141.2,210
			c1.3,0,2.2-0.5,2.2-1.5v0c0-0.9-0.8-1.5-2.3-1.5h-3.1v3.1H141.2z"/>
		<path class="st3" d="M146.7,204.2c1-0.2,1.4-0.7,1.4-1.5h-0.8v-2.2h2.1v1.9c0,1.8-0.8,2.5-2.5,2.7L146.7,204.2z"/>
		<path class="st3" d="M151.3,213.8l0.7-1.4c0.4,0.2,0.7,0.3,1.1,0.3c0.5,0,0.9-0.2,1.2-1l-3.5-8.5h2.1l2.4,6.3l2.2-6.3h2l-3.4,8.7
			c-0.7,1.7-1.4,2.4-2.8,2.4C152.5,214.4,151.9,214.2,151.3,213.8z"/>
		<path class="st3" d="M160.2,207.6L160.2,207.6c0-2.4,1.7-4.4,4.1-4.4c2.7,0,4,2.1,4,4.5c0,0.2,0,0.4,0,0.5h-6.2
			c0.2,1.4,1.2,2.1,2.4,2.1c0.9,0,1.6-0.4,2.3-1l1.1,1c-0.8,1-1.9,1.6-3.5,1.6C162.1,211.9,160.2,210.2,160.2,207.6z M166.5,206.9
			c-0.1-1.2-0.9-2.2-2.1-2.2c-1.2,0-2,0.9-2.2,2.2H166.5z"/>
		<path class="st3" d="M174.7,207.5L174.7,207.5c0-2.8,1.9-4.4,3.9-4.4c1.4,0,2.3,0.7,2.9,1.5v-4.5h1.9v11.7h-1.9v-1.4
			c-0.6,0.9-1.5,1.6-2.9,1.6C176.6,211.9,174.7,210.3,174.7,207.5z M181.5,207.5L181.5,207.5c0-1.7-1.2-2.7-2.4-2.7
			c-1.3,0-2.4,1-2.4,2.7v0c0,1.6,1.1,2.7,2.4,2.7C180.4,210.2,181.5,209.2,181.5,207.5z"/>
		<path class="st3" d="M185.4,207.6L185.4,207.6c0-2.4,1.7-4.4,4.1-4.4c2.7,0,4,2.1,4,4.5c0,0.2,0,0.4,0,0.5h-6.2
			c0.2,1.4,1.2,2.1,2.4,2.1c0.9,0,1.6-0.4,2.3-1l1.1,1c-0.8,1-1.9,1.6-3.5,1.6C187.3,211.9,185.4,210.2,185.4,207.6z M191.6,206.9
			c-0.1-1.2-0.9-2.2-2.1-2.2c-1.2,0-2,0.9-2.2,2.2H191.6z"/>
		<path class="st3" d="M194.3,203.3h2.1l2.3,6.2l2.3-6.2h2l-3.5,8.5h-1.7L194.3,203.3z"/>
		<path class="st3" d="M204.6,203.3h1.9v1.9c0.5-1.3,1.5-2.1,3-2.1v2h-0.1c-1.7,0-2.9,1.1-2.9,3.3v3.2h-1.9V203.3z"/>
		<path class="st3" d="M210.5,207.6L210.5,207.6c0-2.4,1.7-4.4,4.1-4.4c2.7,0,4,2.1,4,4.5c0,0.2,0,0.4,0,0.5h-6.2
			c0.2,1.4,1.2,2.1,2.4,2.1c0.9,0,1.6-0.4,2.3-1l1.1,1c-0.8,1-1.9,1.6-3.5,1.6C212.4,211.9,210.5,210.2,210.5,207.6z M216.8,206.9
			c-0.1-1.2-0.9-2.2-2.1-2.2c-1.2,0-2,0.9-2.2,2.2H216.8z"/>
		<path class="st3" d="M220.2,207.5L220.2,207.5c0-2.8,1.9-4.4,3.9-4.4c1.4,0,2.3,0.7,2.9,1.5v-4.5h1.9v11.7H227v-1.4
			c-0.6,0.9-1.5,1.6-2.9,1.6C222.2,211.9,220.2,210.3,220.2,207.5z M227,207.5L227,207.5c0-1.7-1.2-2.7-2.4-2.7
			c-1.3,0-2.4,1-2.4,2.7v0c0,1.6,1.1,2.7,2.4,2.7C225.9,210.2,227,209.2,227,207.5z"/>
		<path class="st3" d="M231.4,200.2h2.1v1.8h-2.1V200.2z M231.5,203.3h1.9v8.5h-1.9V203.3z"/>
		<path class="st3" d="M236.1,200.1h1.9v11.7h-1.9V200.1z"/>
		<path class="st3" d="M240.5,203.3h1.9v1.3c0.5-0.8,1.3-1.5,2.6-1.5c1.2,0,2.1,0.6,2.5,1.5c0.7-0.9,1.6-1.5,2.9-1.5
			c1.8,0,3,1.2,3,3.2v5.4h-1.9v-4.8c0-1.3-0.6-2.1-1.7-2.1c-1.1,0-1.8,0.7-1.8,2.1v4.8H246v-4.8c0-1.3-0.6-2-1.7-2
			c-1.1,0-1.8,0.8-1.8,2.1v4.8h-1.9V203.3z"/>
		<path class="st3" d="M255.7,200.2h2.1v1.8h-2.1V200.2z M255.8,203.3h1.9v8.5h-1.9V203.3z"/>
	</g>
	<g class="st18">
		<path class="st3" d="M260.9,213.7l1.3-1.9c-0.9-0.2-1.9-0.6-2.7-1.2l0.9-1.3c0.9,0.7,1.9,1,2.8,1c0.8,0,1.3-0.4,1.3-0.9v0
			c0-0.7-0.9-0.9-1.9-1.2c-1.2-0.4-2.6-0.9-2.6-2.5v0c0-1.6,1.3-2.6,3-2.6c1.1,0,2.2,0.4,3.1,1l-0.8,1.4c-0.8-0.5-1.7-0.8-2.4-0.8
			c-0.8,0-1.2,0.4-1.2,0.8v0c0,0.6,0.9,0.9,1.9,1.2c1.2,0.4,2.6,0.9,2.6,2.5v0c0,1.6-1.1,2.4-2.6,2.6l-1.1,2.5L260.9,213.7z"/>
	</g>
	<g class="st18">
		<path class="st3" d="M268.5,209.4V205h-1.1v-1.7h1.1V201h1.9v2.3h2.3v1.7h-2.3v4.1c0,0.8,0.4,1.1,1,1.1c0.4,0,0.8-0.1,1.2-0.3v1.6
			c-0.5,0.3-1,0.4-1.7,0.4C269.5,211.9,268.5,211.3,268.5,209.4z"/>
		<path class="st3" d="M274.7,200.2h2.1v1.8h-2.1V200.2z M274.7,203.3h1.9v8.5h-1.9V203.3z"/>
		<path class="st3" d="M279.2,203.3h1.9v1.9c0.5-1.3,1.5-2.1,3-2.1v2H284c-1.7,0-2.9,1.1-2.9,3.3v3.2h-1.9V203.3z"/>
	</g>
</g>
</svg>
