<!-- Generator: Adobe Illustrator 21.0.2, SVG Export Plug-In  -->
<svg version="1.1"
	 xmlns="http://www.w3.org/2000/svg" xmlns:xlink="http://www.w3.org/1999/xlink" xmlns:a="http://ns.adobe.com/AdobeSVGViewerExtensions/3.0/"
	 x="0px" y="0px" width="522.4px" height="372.7px" viewBox="0 0 522.4 372.7" style="enable-background:new 0 0 522.4 372.7;"
	 xml:space="preserve">
<style type="text/css">
	.st0{clip-path:url(#SVGID_2_);fill:#4F81BD;}
	.st1{clip-path:url(#SVGID_2_);fill:none;stroke:#FFFFFF;stroke-width:2;stroke-linejoin:round;}
	.st2{clip-path:url(#SVGID_4_);}
	.st3{fill:#FFFFFF;}
	.st4{clip-path:url(#SVGID_6_);fill:#4F81BD;}
	.st5{clip-path:url(#SVGID_6_);fill:none;stroke:#FFFFFF;stroke-width:2;stroke-linejoin:round;}
	.st6{clip-path:url(#SVGID_8_);}
	.st7{clip-path:url(#SVGID_10_);fill:#4F81BD;}
	.st8{clip-path:url(#SVGID_10_);fill:none;stroke:#FFFFFF;stroke-width:2;stroke-linejoin:round;}
	.st9{clip-path:url(#SVGID_12_);}
	.st10{clip-path:url(#SVGID_14_);fill:#4F81BD;}
	.st11{clip-path:url(#SVGID_14_);fill:none;stroke:#FFFFFF;stroke-width:2;stroke-linejoin:round;}
	.st12{clip-path:url(#SVGID_16_);}
	.st13{clip-path:url(#SVGID_18_);fill:#4F81BD;}
	.st14{clip-path:url(#SVGID_18_);fill:none;stroke:#FFFFFF;stroke-width:2;stroke-linejoin:round;}
	.st15{clip-path:url(#SVGID_20_);}
	.st16{clip-path:url(#SVGID_22_);fill:#4F81BD;}
	.st17{clip-path:url(#SVGID_22_);fill:none;stroke:#FFFFFF;stroke-width:2;stroke-linejoin:round;}
	.st18{clip-path:url(#SVGID_24_);}
	.st19{clip-path:url(#SVGID_26_);fill:#4F81BD;}
	.st20{clip-path:url(#SVGID_26_);fill:none;stroke:#FFFFFF;stroke-width:2;stroke-linejoin:round;}
	.st21{clip-path:url(#SVGID_28_);}
	.st22{clip-path:url(#SVGID_30_);fill:#4F81BD;}
	.st23{clip-path:url(#SVGID_30_);fill:none;stroke:#FFFFFF;stroke-width:2;stroke-linejoin:round;}
	.st24{clip-path:url(#SVGID_32_);}
	.st25{clip-path:url(#SVGID_34_);fill:#4F81BD;}
	.st26{clip-path:url(#SVGID_34_);fill:none;stroke:#FFFFFF;stroke-width:2;stroke-linejoin:round;}
	.st27{clip-path:url(#SVGID_36_);}
	.st28{clip-path:url(#SVGID_38_);fill:#4F81BD;}
	.st29{clip-path:url(#SVGID_38_);fill:none;stroke:#FFFFFF;stroke-width:2;stroke-linejoin:round;}
	.st30{clip-path:url(#SVGID_40_);}
	.st31{clip-path:url(#SVGID_42_);fill:#4F81BD;}
	.st32{clip-path:url(#SVGID_42_);fill:none;stroke:#FFFFFF;stroke-width:2;stroke-linejoin:round;}
	.st33{clip-path:url(#SVGID_44_);}
	.st34{clip-path:url(#SVGID_46_);fill:#4F81BD;}
	.st35{clip-path:url(#SVGID_46_);fill:none;stroke:#FFFFFF;stroke-width:2;stroke-linejoin:round;}
	.st36{clip-path:url(#SVGID_48_);}
	.st37{clip-path:url(#SVGID_50_);fill:#4F81BD;}
	.st38{clip-path:url(#SVGID_50_);fill:none;stroke:#FFFFFF;stroke-width:2;stroke-linejoin:round;}
	.st39{clip-path:url(#SVGID_52_);}
	.st40{clip-path:url(#SVGID_54_);fill:#4F81BD;}
	.st41{clip-path:url(#SVGID_54_);fill:none;stroke:#FFFFFF;stroke-width:2;stroke-linejoin:round;}
	.st42{clip-path:url(#SVGID_56_);}
	.st43{clip-path:url(#SVGID_58_);fill:#4F81BD;}
	.st44{clip-path:url(#SVGID_58_);fill:none;stroke:#FFFFFF;stroke-width:2;stroke-linejoin:round;}
	.st45{clip-path:url(#SVGID_60_);}
	.st46{clip-path:url(#SVGID_62_);fill:#4F81BD;}
	.st47{clip-path:url(#SVGID_62_);fill:none;stroke:#FFFFFF;stroke-width:2;stroke-linejoin:round;}
	.st48{clip-path:url(#SVGID_64_);}
	.st49{clip-path:url(#SVGID_66_);fill:#4F81BD;}
	.st50{clip-path:url(#SVGID_66_);fill:none;stroke:#FFFFFF;stroke-width:2;stroke-linejoin:round;}
	.st51{clip-path:url(#SVGID_68_);}
	.st52{clip-path:url(#SVGID_70_);fill:#4F81BD;}
	.st53{clip-path:url(#SVGID_70_);fill:none;stroke:#FFFFFF;stroke-width:2;stroke-linejoin:round;}
	.st54{clip-path:url(#SVGID_72_);}
</style>
<defs>
</defs>
<g>
	<defs>
		<rect id="SVGID_1_" x="3.2" y="3.8" width="519.2" height="41.2"/>
	</defs>
	<clipPath id="SVGID_2_">
		<use xlink:href="#SVGID_1_"  style="overflow:visible;"/>
	</clipPath>
	<rect x="21.6" y="5.8" class="st0" width="457" height="37.2"/>
	<rect x="21.6" y="5.8" class="st1" width="457" height="37.2"/>
</g>
<g>
	<defs>
		<rect id="SVGID_3_" x="5.6" width="514.4" height="48.7"/>
	</defs>
	<clipPath id="SVGID_4_">
		<use xlink:href="#SVGID_3_"  style="overflow:visible;"/>
	</clipPath>
	<g class="st2">
		<path class="st3" d="M127,18.1h4.4c2.6,0,4.3,1.5,4.3,3.7v0c0,2.5-2,3.8-4.5,3.8H129v3.6h-2V18.1z M131.3,23.9
			c1.5,0,2.4-0.8,2.4-2v0c0-1.3-0.9-2-2.4-2H129v4H131.3z"/>
		<path class="st3" d="M137.5,20.9h1.9v1.9c0.5-1.3,1.5-2.1,3-2.1v2h-0.1c-1.7,0-2.9,1.1-2.9,3.3v3.2h-1.9V20.9z"/>
		<path class="st3" d="M143.3,25.1L143.3,25.1c0-2.4,1.9-4.5,4.5-4.5s4.5,2,4.5,4.4v0c0,2.4-1.9,4.4-4.5,4.4
			C145.2,29.5,143.3,27.5,143.3,25.1z M150.4,25.1L150.4,25.1c0-1.5-1.1-2.8-2.6-2.8c-1.6,0-2.5,1.2-2.5,2.7v0
			c0,1.5,1.1,2.7,2.6,2.7C149.4,27.8,150.4,26.6,150.4,25.1z"/>
		<path class="st3" d="M153,31.8v-1.6c0.2,0,0.4,0,0.5,0c0.5,0,0.9-0.3,0.9-1v-8.5h1.9v8.6c0,1.7-0.9,2.5-2.5,2.5
			C153.5,31.9,153.3,31.9,153,31.8z M154.3,17.7h2.1v1.8h-2.1V17.7z"/>
		<path class="st3" d="M158.4,25.1L158.4,25.1c0-2.4,1.7-4.4,4.1-4.4c2.7,0,4,2.1,4,4.5c0,0.2,0,0.4,0,0.5h-6.2
			c0.2,1.4,1.2,2.1,2.4,2.1c0.9,0,1.6-0.4,2.3-1l1.1,1c-0.8,1-1.9,1.6-3.5,1.6C160.3,29.5,158.4,27.7,158.4,25.1z M164.7,24.5
			c-0.1-1.2-0.9-2.2-2.1-2.2c-1.2,0-2,0.9-2.2,2.2H164.7z"/>
		<path class="st3" d="M173.1,23.7L173.1,23.7c0-3.2,2.4-5.8,5.9-5.8s5.8,2.6,5.8,5.8v0c0,3.2-2.4,5.8-5.9,5.8
			S173.1,26.9,173.1,23.7z M182.7,23.7L182.7,23.7c0-2.2-1.6-4-3.8-4c-2.2,0-3.8,1.8-3.8,4v0c0,2.2,1.6,4,3.8,4
			C181.2,27.7,182.7,25.9,182.7,23.7z"/>
		<path class="st3" d="M187,20.9h1.9v1.3c0.5-0.8,1.3-1.5,2.6-1.5c1.9,0,3,1.3,3,3.2v5.4h-1.9v-4.8c0-1.3-0.7-2.1-1.8-2.1
			c-1.1,0-1.9,0.8-1.9,2.1v4.8H187V20.9z"/>
		<path class="st3" d="M202,29.3v-1c-0.6,0.7-1.5,1.2-2.7,1.2c-1.6,0-3-0.9-3-2.6v0c0-1.9,1.5-2.8,3.4-2.8c1,0,1.7,0.1,2.3,0.4v-0.2
			c0-1.2-0.7-1.8-2.1-1.8c-0.9,0-1.6,0.2-2.4,0.5l-0.5-1.6c0.9-0.4,1.8-0.7,3.2-0.7c2.5,0,3.7,1.3,3.7,3.6v5H202z M202.1,25.8
			c-0.5-0.2-1.2-0.3-1.9-0.3c-1.2,0-1.9,0.5-1.9,1.3v0c0,0.8,0.7,1.2,1.6,1.2c1.3,0,2.2-0.7,2.2-1.8V25.8z"/>
		<path class="st3" d="M205.7,31.4l0.7-1.4c0.4,0.2,0.7,0.3,1.1,0.3c0.5,0,0.9-0.2,1.2-1l-3.5-8.5h2.1l2.4,6.3l2.2-6.3h2l-3.4,8.7
			c-0.7,1.7-1.4,2.4-2.8,2.4C206.9,31.9,206.3,31.7,205.7,31.4z"/>
		<path class="st3" d="M215.6,17.6h1.9v11.7h-1.9V17.6z"/>
		<path class="st3" d="M220.2,20.9h1.9v8.5h-1.9V20.9z"/>
		<path class="st3" d="M229.7,18.1h5c1.3,0,2.3,0.4,2.9,1c0.5,0.5,0.8,1.1,0.8,1.9v0c0,1.3-0.8,2.1-1.6,2.5c1.3,0.4,2.2,1.2,2.2,2.7
			v0c0,2-1.6,3.1-4.1,3.1h-5.2V18.1z M234.3,22.8c1.3,0,2.1-0.5,2.1-1.5v0c0-0.9-0.7-1.4-2-1.4h-2.8v3H234.3z M234.9,27.6
			c1.3,0,2.2-0.5,2.2-1.5v0c0-0.9-0.8-1.5-2.3-1.5h-3.1v3.1H234.9z"/>
		<path class="st3" d="M240.9,26.2v-5.4h1.9v4.8c0,1.3,0.7,2.1,1.8,2.1c1.1,0,1.9-0.8,1.9-2.1v-4.8h1.9v8.5h-1.9V28
			c-0.5,0.8-1.3,1.5-2.6,1.5C242,29.5,240.9,28.2,240.9,26.2z M242.1,17.9h2v1.9h-2V17.9z M245.3,17.9h2v1.9h-2V17.9z"/>
		<path class="st3" d="M251.3,27v-4.5h-1.1v-1.7h1.1v-2.3h1.9v2.3h2.3v1.7h-2.3v4.1c0,0.8,0.4,1.1,1,1.1c0.4,0,0.8-0.1,1.2-0.3V29
			c-0.5,0.3-1,0.4-1.7,0.4C252.3,29.5,251.3,28.8,251.3,27z"/>
		<path class="st3" d="M258.8,31.2l1.3-1.9c-1.9-0.5-3.2-2.2-3.2-4.2v0c0-2.4,1.9-4.4,4.4-4.4c1.6,0,2.6,0.6,3.4,1.5l-1.2,1.3
			c-0.6-0.6-1.2-1.1-2.2-1.1c-1.4,0-2.4,1.2-2.4,2.7v0c0,1.5,1,2.7,2.5,2.7c0.9,0,1.6-0.4,2.2-1.1l1.2,1.2c-0.8,0.9-1.7,1.5-3.1,1.6
			l-1.1,2.5L258.8,31.2z"/>
		<path class="st3" d="M265.7,25.1L265.7,25.1c0-2.4,1.7-4.4,4.1-4.4c2.7,0,4,2.1,4,4.5c0,0.2,0,0.4,0,0.5h-6.2
			c0.2,1.4,1.2,2.1,2.4,2.1c0.9,0,1.6-0.4,2.3-1l1.1,1c-0.8,1-1.9,1.6-3.5,1.6C267.6,29.5,265.7,27.7,265.7,25.1z M271.9,24.5
			c-0.1-1.2-0.9-2.2-2.1-2.2c-1.2,0-2,0.9-2.2,2.2H271.9z"/>
		<path class="st3" d="M275.1,28.2l0.9-1.3c0.9,0.7,1.9,1,2.8,1c0.8,0,1.3-0.4,1.3-0.9v0c0-0.7-0.9-0.9-1.9-1.2
			c-1.2-0.4-2.6-0.9-2.6-2.5v0c0-1.6,1.3-2.6,3-2.6c1.1,0,2.2,0.4,3.1,1l-0.8,1.4c-0.8-0.5-1.7-0.8-2.4-0.8c-0.8,0-1.2,0.4-1.2,0.8
			v0c0,0.6,0.9,0.9,1.9,1.2c1.2,0.4,2.6,0.9,2.6,2.5v0c0,1.8-1.4,2.7-3.1,2.7C277.5,29.5,276.2,29,275.1,28.2z"/>
		<path class="st3" d="M283.9,17.7h2.1v1.8h-2.1V17.7z M283.9,20.9h1.9v8.5h-1.9V20.9z"/>
		<path class="st3" d="M288.3,20.9h2.1v2.2h-2.1V20.9z M288.3,27.1h2.1v2.2h-2.1V27.1z"/>
		<path class="st3" d="M292.4,27.8l3.9-3.3c1.5-1.3,2.1-2,2.1-3c0-1.1-0.8-1.7-1.8-1.7s-1.7,0.6-2.6,1.7l-1.4-1.1
			c1.1-1.5,2.1-2.4,4.1-2.4c2.2,0,3.7,1.3,3.7,3.3v0c0,1.8-0.9,2.7-2.9,4.3l-2.3,1.9h5.3v1.7h-8.1V27.8z"/>
		<path class="st3" d="M304.3,20l-2,0.6l-0.4-1.6l3-1h1.4v11.3h-2V20z"/>
		<path class="st3" d="M308.9,27.1h2.1v2.2h-2.1V27.1z"/>
		<path class="st3" d="M312.9,26.3L312.9,26.3c0-1.4,0.8-2.2,2-2.8c-0.9-0.5-1.6-1.2-1.6-2.5v0c0-1.7,1.6-3,3.9-3s3.9,1.3,3.9,3v0
			c0,1.2-0.7,2-1.6,2.5c1.2,0.6,2,1.4,2,2.7v0c0,2-1.8,3.2-4.3,3.2C314.7,29.5,312.9,28.2,312.9,26.3z M319.5,26.1L319.5,26.1
			c0-1.1-1-1.7-2.4-1.7s-2.4,0.7-2.4,1.7v0c0,0.9,0.9,1.7,2.4,1.7S319.5,27.1,319.5,26.1z M319.1,21.2L319.1,21.2
			c0-0.9-0.8-1.6-2-1.6s-2,0.7-2,1.6v0c0,1,0.8,1.7,2,1.7S319.1,22.2,319.1,21.2z"/>
		<path class="st3" d="M322.9,27.5l1.4-1.3c0.8,0.9,1.7,1.5,2.9,1.5c1.1,0,1.9-0.7,1.9-1.7v0c0-1.1-1-1.7-2.6-1.7h-0.9l-0.3-1.2
			l3-3.2h-4.9v-1.7h7.4v1.5l-3.1,3.2c1.7,0.2,3.3,1.1,3.3,3.2v0c0,2.1-1.6,3.5-3.9,3.5C325.2,29.5,323.8,28.7,322.9,27.5z"/>
		<path class="st3" d="M333.2,28.2l1.1-1.5c0.8,0.7,1.6,1.1,2.6,1.1c1.6,0,2.6-1.5,2.7-3.5c-0.6,0.7-1.4,1.2-2.6,1.2
			c-2.4,0-4-1.4-4-3.6v0c0-2.2,1.7-3.9,4.2-3.9c1.4,0,2.3,0.4,3.1,1.2c0.8,0.8,1.4,2.1,1.4,4.3v0c0,3.6-1.8,6.1-4.8,6.1
			C335.2,29.5,334.1,28.9,333.2,28.2z M339.5,21.7L339.5,21.7c0-1.2-0.9-2.1-2.3-2.1c-1.4,0-2.2,0.9-2.2,2.1v0c0,1.2,0.9,2,2.3,2
			C338.6,23.7,339.5,22.8,339.5,21.7z"/>
		<path class="st3" d="M343.4,27.1h2.1v2.2h-2.1V27.1z"/>
		<path class="st3" d="M353,19.8h-5.6v-1.7h7.9v1.5l-5.1,9.7H348L353,19.8z"/>
		<path class="st3" d="M356.7,26.3L356.7,26.3c0-1.4,0.8-2.2,2-2.8c-0.9-0.5-1.6-1.2-1.6-2.5v0c0-1.7,1.6-3,3.9-3
			c2.2,0,3.9,1.3,3.9,3v0c0,1.2-0.7,2-1.6,2.5c1.2,0.6,2,1.4,2,2.7v0c0,2-1.8,3.2-4.3,3.2S356.7,28.2,356.7,26.3z M363.3,26.1
			L363.3,26.1c0-1.1-1-1.7-2.4-1.7c-1.3,0-2.4,0.7-2.4,1.7v0c0,0.9,0.9,1.7,2.4,1.7S363.3,27.1,363.3,26.1z M362.9,21.2L362.9,21.2
			c0-0.9-0.8-1.6-2-1.6c-1.2,0-2,0.7-2,1.6v0c0,1,0.8,1.7,2,1.7S362.9,22.2,362.9,21.2z"/>
		<path class="st3" d="M366.7,27.5l1.4-1.3c0.8,0.9,1.7,1.5,2.9,1.5c1.1,0,1.9-0.7,1.9-1.7v0c0-1.1-1-1.7-2.6-1.7h-0.9l-0.3-1.2
			l3-3.2h-4.9v-1.7h7.4v1.5l-3.1,3.2c1.7,0.2,3.3,1.1,3.3,3.2v0c0,2.1-1.6,3.5-3.9,3.5C369,29.5,367.6,28.7,366.7,27.5z"/>
		<path class="st3" d="M384.9,19.9h-3.6v-1.8h9.1v1.8h-3.6v9.4h-2V19.9z"/>
		<path class="st3" d="M392.5,18.1h2v9.4h5.9v1.8h-7.9V18.1z"/>
	</g>
</g>
<g>
	<defs>
		<rect id="SVGID_5_" x="3.2" y="42.2" width="519.2" height="41.2"/>
	</defs>
	<clipPath id="SVGID_6_">
		<use xlink:href="#SVGID_5_"  style="overflow:visible;"/>
	</clipPath>
	<rect x="21.6" y="44.2" class="st4" width="457" height="37.2"/>
	<rect x="21.6" y="44.2" class="st5" width="457" height="37.2"/>
</g>
<g>
	<defs>
		<rect id="SVGID_7_" x="5.6" y="38.4" width="514.4" height="48.7"/>
	</defs>
	<clipPath id="SVGID_8_">
		<use xlink:href="#SVGID_7_"  style="overflow:visible;"/>
	</clipPath>
	<g class="st6">
		<path class="st3" d="M134,56.1h4.4c2.6,0,4.3,1.5,4.3,3.7v0c0,2.5-2,3.8-4.5,3.8H136v3.6h-2V56.1z M138.3,61.9
			c1.5,0,2.4-0.8,2.4-2v0c0-1.3-0.9-2-2.4-2H136v4H138.3z"/>
		<path class="st3" d="M144.5,58.9h1.9v1.9c0.5-1.3,1.5-2.1,3-2.1v2h-0.1c-1.7,0-2.9,1.1-2.9,3.3v3.2h-1.9V58.9z"/>
		<path class="st3" d="M150.3,63.1L150.3,63.1c0-2.4,1.9-4.5,4.5-4.5s4.5,2,4.5,4.4v0c0,2.4-1.9,4.4-4.5,4.4
			C152.2,67.5,150.3,65.5,150.3,63.1z M157.4,63.1L157.4,63.1c0-1.5-1.1-2.8-2.6-2.8c-1.6,0-2.5,1.2-2.5,2.7v0
			c0,1.5,1.1,2.7,2.6,2.7C156.4,65.8,157.4,64.6,157.4,63.1z"/>
		<path class="st3" d="M160,69.8v-1.6c0.2,0,0.4,0,0.5,0c0.5,0,0.9-0.3,0.9-1v-8.5h1.9v8.6c0,1.7-0.9,2.5-2.5,2.5
			C160.5,69.9,160.3,69.9,160,69.8z M161.3,55.7h2.1v1.8h-2.1V55.7z"/>
		<path class="st3" d="M165.4,63.1L165.4,63.1c0-2.4,1.7-4.4,4.1-4.4c2.7,0,4,2.1,4,4.5c0,0.2,0,0.4,0,0.5h-6.2
			c0.2,1.4,1.2,2.1,2.4,2.1c0.9,0,1.6-0.4,2.3-1l1.1,1c-0.8,1-1.9,1.6-3.5,1.6C167.3,67.5,165.4,65.7,165.4,63.1z M171.7,62.5
			c-0.1-1.2-0.9-2.2-2.1-2.2c-1.2,0-2,0.9-2.2,2.2H171.7z"/>
		<path class="st3" d="M183.9,62.9l-4.4-6.8h2.3l3.1,5l3.2-5h2.3l-4.4,6.7v4.5h-2V62.9z"/>
		<path class="st3" d="M189.6,63.1L189.6,63.1c0-2.4,1.7-4.4,4.1-4.4c2.7,0,4,2.1,4,4.5c0,0.2,0,0.4,0,0.5h-6.2
			c0.2,1.4,1.2,2.1,2.4,2.1c0.9,0,1.6-0.4,2.3-1l1.1,1c-0.8,1-1.9,1.6-3.5,1.6C191.5,67.5,189.6,65.7,189.6,63.1z M195.9,62.5
			c-0.1-1.2-0.9-2.2-2.1-2.2c-1.2,0-2,0.9-2.2,2.2H195.9z"/>
		<path class="st3" d="M199.7,58.9h1.9v1.9c0.5-1.3,1.5-2.1,3-2.1v2h-0.1c-1.7,0-2.9,1.1-2.9,3.3v3.2h-1.9V58.9z"/>
		<path class="st3" d="M206.4,55.7h2.1v1.8h-2.1V55.7z M206.5,58.9h1.9v8.5h-1.9V58.9z"/>
		<path class="st3" d="M210.9,58.9h2.1v2.2h-2.1V58.9z M210.9,65.1h2.1v2.2h-2.1V65.1z"/>
		<path class="st3" d="M219.4,56.1h2.2l3.4,8.6l3.4-8.6h2.1l-4.7,11.3h-1.7L219.4,56.1z"/>
		<path class="st3" d="M236.2,67.3v-1c-0.6,0.7-1.5,1.2-2.7,1.2c-1.6,0-3-0.9-3-2.6v0c0-1.9,1.5-2.8,3.4-2.8c1,0,1.7,0.1,2.3,0.4
			v-0.2c0-1.2-0.7-1.8-2.1-1.8c-0.9,0-1.6,0.2-2.4,0.5l-0.5-1.6c0.9-0.4,1.8-0.7,3.2-0.7c2.5,0,3.7,1.3,3.7,3.6v5H236.2z
			 M236.3,63.8c-0.5-0.2-1.2-0.3-1.9-0.3c-1.2,0-1.9,0.5-1.9,1.3v0c0,0.8,0.7,1.2,1.6,1.2c1.3,0,2.2-0.7,2.2-1.8V63.8z"/>
		<path class="st3" d="M240.5,58.9h1.9v1.3c0.5-0.8,1.3-1.5,2.6-1.5c1.9,0,3,1.3,3,3.2v5.4h-1.9v-4.8c0-1.3-0.7-2.1-1.8-2.1
			c-1.1,0-1.9,0.8-1.9,2.1v4.8h-1.9V58.9z"/>
		<path class="st3" d="M255.4,56.1h2v5.6l5.3-5.6h2.4l-4.7,4.8l4.9,6.4h-2.4l-3.8-5l-1.7,1.8v3.2h-2V56.1z"/>
		<path class="st3" d="M271.8,67.3v-1c-0.6,0.7-1.5,1.2-2.7,1.2c-1.6,0-3-0.9-3-2.6v0c0-1.9,1.5-2.8,3.4-2.8c1,0,1.7,0.1,2.3,0.4
			v-0.2c0-1.2-0.7-1.8-2.1-1.8c-0.9,0-1.6,0.2-2.4,0.5l-0.5-1.6c0.9-0.4,1.8-0.7,3.2-0.7c2.5,0,3.7,1.3,3.7,3.6v5H271.8z
			 M271.8,63.8c-0.5-0.2-1.2-0.3-1.9-0.3c-1.2,0-1.9,0.5-1.9,1.3v0c0,0.8,0.7,1.2,1.6,1.2c1.3,0,2.2-0.7,2.2-1.8V63.8z"/>
		<path class="st3" d="M276.1,55.6h1.9v11.7h-1.9V55.6z"/>
		<path class="st3" d="M280.1,63.1L280.1,63.1c0-2.4,1.7-4.4,4.1-4.4c2.7,0,4,2.1,4,4.5c0,0.2,0,0.4,0,0.5h-6.2
			c0.2,1.4,1.2,2.1,2.4,2.1c0.9,0,1.6-0.4,2.3-1l1.1,1c-0.8,1-1.9,1.6-3.5,1.6C282,67.5,280.1,65.7,280.1,63.1z M286.4,62.5
			c-0.1-1.2-0.9-2.2-2.1-2.2c-1.2,0-2,0.9-2.2,2.2H286.4z"/>
		<path class="st3" d="M289.6,66.2l0.9-1.3c0.9,0.7,1.9,1,2.8,1c0.8,0,1.3-0.4,1.3-0.9v0c0-0.7-0.9-0.9-1.9-1.2
			c-1.2-0.4-2.6-0.9-2.6-2.5v0c0-1.6,1.3-2.6,3-2.6c1.1,0,2.2,0.4,3.1,1l-0.8,1.4c-0.8-0.5-1.7-0.8-2.4-0.8c-0.8,0-1.2,0.4-1.2,0.8
			v0c0,0.6,0.9,0.9,1.9,1.2c1.2,0.4,2.6,0.9,2.6,2.5v0c0,1.8-1.4,2.7-3.1,2.7C292,67.5,290.6,67,289.6,66.2z"/>
		<path class="st3" d="M298.3,55.7h2.1v1.8h-2.1V55.7z M298.4,58.9h1.9v8.5h-1.9V58.9z"/>
		<path class="st3" d="M307.9,56.1h2v9.4h5.9v1.8h-7.9V56.1z"/>
		<path class="st3" d="M316.9,63.1L316.9,63.1c0-2.4,1.9-4.5,4.5-4.5s4.5,2,4.5,4.4v0c0,2.4-1.9,4.4-4.5,4.4
			C318.8,67.5,316.9,65.5,316.9,63.1z M324,63.1L324,63.1c0-1.5-1.1-2.8-2.6-2.8c-1.6,0-2.5,1.2-2.5,2.7v0c0,1.5,1.1,2.7,2.6,2.7
			C323,65.8,324,64.6,324,63.1z"/>
		<path class="st3" d="M327.9,55.6h1.9v7l3.5-3.7h2.4l-3.4,3.4l3.5,5h-2.2l-2.5-3.6l-1.2,1.2v2.4h-1.9V55.6z"/>
		<path class="st3" d="M342.2,67.3v-1c-0.6,0.7-1.5,1.2-2.7,1.2c-1.6,0-3-0.9-3-2.6v0c0-1.9,1.5-2.8,3.4-2.8c1,0,1.7,0.1,2.3,0.4
			v-0.2c0-1.2-0.7-1.8-2.1-1.8c-0.9,0-1.6,0.2-2.4,0.5l-0.5-1.6c0.9-0.4,1.8-0.7,3.2-0.7c2.5,0,3.7,1.3,3.7,3.6v5H342.2z
			 M342.3,63.8c-0.5-0.2-1.2-0.3-1.9-0.3c-1.2,0-1.9,0.5-1.9,1.3v0c0,0.8,0.7,1.2,1.6,1.2c1.3,0,2.2-0.7,2.2-1.8V63.8z"/>
		<path class="st3" d="M345.8,66.2l0.9-1.3c0.9,0.7,1.9,1,2.8,1c0.8,0,1.3-0.4,1.3-0.9v0c0-0.7-0.9-0.9-1.9-1.2
			c-1.2-0.4-2.6-0.9-2.6-2.5v0c0-1.6,1.3-2.6,3-2.6c1.1,0,2.2,0.4,3.1,1l-0.8,1.4c-0.8-0.5-1.7-0.8-2.4-0.8c-0.8,0-1.2,0.4-1.2,0.8
			v0c0,0.6,0.9,0.9,1.9,1.2c1.2,0.4,2.6,0.9,2.6,2.5v0c0,1.8-1.4,2.7-3.1,2.7C348.2,67.5,346.8,67,345.8,66.2z"/>
		<path class="st3" d="M354,69.4l0.7-1.4c0.4,0.2,0.7,0.3,1.1,0.3c0.5,0,0.9-0.2,1.2-1l-3.5-8.5h2.1l2.4,6.3l2.2-6.3h2l-3.4,8.7
			c-0.7,1.7-1.4,2.4-2.8,2.4C355.1,69.9,354.5,69.7,354,69.4z"/>
		<path class="st3" d="M362.8,63.1L362.8,63.1c0-2.4,1.9-4.5,4.5-4.5s4.5,2,4.5,4.4v0c0,2.4-1.9,4.4-4.5,4.4
			C364.7,67.5,362.8,65.5,362.8,63.1z M369.9,63.1L369.9,63.1c0-1.5-1.1-2.8-2.6-2.8c-1.6,0-2.5,1.2-2.5,2.7v0
			c0,1.5,1.1,2.7,2.6,2.7C368.9,65.8,369.9,64.6,369.9,63.1z"/>
		<path class="st3" d="M373.8,58.9h1.9v1.3c0.5-0.8,1.3-1.5,2.6-1.5c1.9,0,3,1.3,3,3.2v5.4h-1.9v-4.8c0-1.3-0.7-2.1-1.8-2.1
			c-1.1,0-1.9,0.8-1.9,2.1v4.8h-1.9V58.9z"/>
		<path class="st3" d="M383.6,64.2v-5.4h1.9v4.8c0,1.3,0.7,2.1,1.8,2.1c1.1,0,1.9-0.8,1.9-2.1v-4.8h1.9v8.5h-1.9V66
			c-0.5,0.8-1.3,1.5-2.6,1.5C384.7,67.5,383.6,66.2,383.6,64.2z"/>
	</g>
</g>
<g>
	<defs>
		<rect id="SVGID_9_" x="2.2" y="80.9" width="519.2" height="41.2"/>
	</defs>
	<clipPath id="SVGID_10_">
		<use xlink:href="#SVGID_9_"  style="overflow:visible;"/>
	</clipPath>
	<rect x="21.6" y="82.9" class="st7" width="457" height="37.2"/>
	<rect x="21.6" y="82.9" class="st8" width="457" height="37.2"/>
</g>
<g>
	<defs>
		<rect id="SVGID_11_" x="4.6" y="77.1" width="514.4" height="48.7"/>
	</defs>
	<clipPath id="SVGID_12_">
		<use xlink:href="#SVGID_11_"  style="overflow:visible;"/>
	</clipPath>
	<g class="st9">
		<path class="st3" d="M169,95.1h4.4c2.6,0,4.3,1.5,4.3,3.7v0c0,2.5-2,3.8-4.5,3.8H171v3.6h-2V95.1z M173.3,100.9
			c1.5,0,2.4-0.8,2.4-2v0c0-1.3-0.9-2-2.4-2H171v4H173.3z"/>
		<path class="st3" d="M179.5,97.9h1.9v1.9c0.5-1.3,1.5-2.1,3-2.1v2h-0.1c-1.7,0-2.9,1.1-2.9,3.3v3.2h-1.9V97.9z"/>
		<path class="st3" d="M185.3,102.1L185.3,102.1c0-2.4,1.9-4.5,4.5-4.5s4.5,2,4.5,4.4v0c0,2.4-1.9,4.4-4.5,4.4
			C187.2,106.5,185.3,104.5,185.3,102.1z M192.4,102.1L192.4,102.1c0-1.5-1.1-2.8-2.6-2.8c-1.6,0-2.5,1.2-2.5,2.7v0
			c0,1.5,1.1,2.7,2.6,2.7C191.4,104.8,192.4,103.6,192.4,102.1z"/>
		<path class="st3" d="M195,108.8v-1.6c0.2,0,0.4,0,0.5,0c0.5,0,0.9-0.3,0.9-1v-8.5h1.9v8.6c0,1.7-0.9,2.5-2.5,2.5
			C195.5,108.9,195.3,108.9,195,108.8z M196.3,94.7h2.1v1.8h-2.1V94.7z"/>
		<path class="st3" d="M200.4,102.1L200.4,102.1c0-2.4,1.7-4.4,4.1-4.4c2.7,0,4,2.1,4,4.5c0,0.2,0,0.4,0,0.5h-6.2
			c0.2,1.4,1.2,2.1,2.4,2.1c0.9,0,1.6-0.4,2.3-1l1.1,1c-0.8,1-1.9,1.6-3.5,1.6C202.3,106.5,200.4,104.7,200.4,102.1z M206.7,101.5
			c-0.1-1.2-0.9-2.2-2.1-2.2c-1.2,0-2,0.9-2.2,2.2H206.7z"/>
		<path class="st3" d="M214.8,104.7l1.2-1.4c1.1,0.9,2.1,1.5,3.5,1.5c1.2,0,2-0.6,2-1.4v0c0-0.8-0.4-1.2-2.5-1.7
			c-2.4-0.6-3.7-1.3-3.7-3.3v0c0-1.9,1.6-3.2,3.8-3.2c1.6,0,2.9,0.5,4.1,1.4l-1.1,1.5c-1-0.8-2-1.2-3-1.2c-1.2,0-1.8,0.6-1.8,1.3v0
			c0,0.9,0.5,1.2,2.7,1.8c2.4,0.6,3.6,1.4,3.6,3.3v0c0,2.1-1.6,3.3-4,3.3C217.8,106.5,216.2,105.9,214.8,104.7z"/>
		<path class="st3" d="M230.8,106.3v-1c-0.6,0.7-1.5,1.2-2.7,1.2c-1.6,0-3-0.9-3-2.6v0c0-1.9,1.5-2.8,3.4-2.8c1,0,1.7,0.1,2.3,0.4
			v-0.2c0-1.2-0.7-1.8-2.1-1.8c-0.9,0-1.6,0.2-2.4,0.5l-0.5-1.6c0.9-0.4,1.8-0.7,3.2-0.7c2.5,0,3.7,1.3,3.7,3.6v5H230.8z
			 M230.8,102.8c-0.5-0.2-1.2-0.3-1.9-0.3c-1.2,0-1.9,0.5-1.9,1.3v0c0,0.8,0.7,1.2,1.6,1.2c1.3,0,2.2-0.7,2.2-1.8V102.8z"/>
		<path class="st3" d="M235,94.6h1.9v4.5c0.5-0.8,1.3-1.5,2.6-1.5c1.9,0,3,1.3,3,3.2v5.4h-1.9v-4.8c0-1.3-0.7-2.1-1.8-2.1
			c-1.1,0-1.9,0.8-1.9,2.1v4.8H235V94.6z"/>
		<path class="st3" d="M250.1,106.3v-1c-0.6,0.7-1.5,1.2-2.7,1.2c-1.6,0-3-0.9-3-2.6v0c0-1.9,1.5-2.8,3.4-2.8c1,0,1.7,0.1,2.3,0.4
			v-0.2c0-1.2-0.7-1.8-2.1-1.8c-0.9,0-1.6,0.2-2.4,0.5l-0.5-1.6c0.9-0.4,1.8-0.7,3.2-0.7c2.5,0,3.7,1.3,3.7,3.6v5H250.1z
			 M250.1,102.8c-0.5-0.2-1.2-0.3-1.9-0.3c-1.2,0-1.9,0.5-1.9,1.3v0c0,0.8,0.7,1.2,1.6,1.2c1.3,0,2.2-0.7,2.2-1.8V102.8z"/>
		<path class="st3" d="M253.6,105.2l0.9-1.3c0.9,0.7,1.9,1,2.8,1c0.8,0,1.3-0.4,1.3-0.9v0c0-0.7-0.9-0.9-1.9-1.2
			c-1.2-0.4-2.6-0.9-2.6-2.5v0c0-1.6,1.3-2.6,3-2.6c1.1,0,2.2,0.4,3.1,1l-0.8,1.4c-0.8-0.5-1.7-0.8-2.4-0.8c-0.8,0-1.2,0.4-1.2,0.8
			v0c0,0.6,0.9,0.9,1.9,1.2c1.2,0.4,2.6,0.9,2.6,2.5v0c0,1.8-1.4,2.7-3.1,2.7C256,106.5,254.7,106,253.6,105.2z"/>
		<path class="st3" d="M262.4,97.9h1.9v8.5h-1.9V97.9z"/>
		<path class="st3" d="M271.6,97.9h2.1v2.2h-2.1V97.9z M271.6,104.1h2.1v2.2h-2.1V104.1z"/>
		<path class="st3" d="M275.7,104.8l1.2-1.4c0.9,0.8,1.8,1.3,2.9,1.3c1.3,0,2.2-0.8,2.2-1.9v0c0-1.1-1-1.9-2.3-1.9
			c-0.8,0-1.5,0.2-2.1,0.5l-1.2-0.8l0.3-5.5h6.7v1.7h-5l-0.2,2.6c0.5-0.2,1-0.3,1.8-0.3c2.2,0,3.9,1.2,3.9,3.5v0
			c0,2.3-1.7,3.8-4.1,3.8C278.1,106.5,276.7,105.8,275.7,104.8z"/>
		<path class="st3" d="M285.5,104.8l3.9-3.3c1.5-1.3,2.1-2,2.1-3c0-1.1-0.8-1.7-1.8-1.7s-1.7,0.6-2.6,1.7l-1.4-1.1
			c1.1-1.5,2.1-2.4,4.1-2.4c2.2,0,3.7,1.3,3.7,3.3v0c0,1.8-0.9,2.7-2.9,4.3l-2.3,1.9h5.3v1.7h-8.1V104.8z"/>
		<path class="st3" d="M295.6,104.1h2.1v2.2h-2.1V104.1z"/>
		<path class="st3" d="M300,105.2l1.1-1.5c0.8,0.7,1.6,1.1,2.6,1.1c1.6,0,2.6-1.5,2.7-3.5c-0.6,0.7-1.4,1.2-2.6,1.2
			c-2.4,0-4-1.4-4-3.6v0c0-2.2,1.7-3.9,4.2-3.9c1.4,0,2.3,0.4,3.1,1.2c0.8,0.8,1.4,2.1,1.4,4.3v0c0,3.6-1.8,6.1-4.8,6.1
			C302.1,106.5,301,105.9,300,105.2z M306.3,98.7L306.3,98.7c0-1.2-0.9-2.1-2.3-2.1c-1.4,0-2.2,0.9-2.2,2.1v0c0,1.2,0.9,2,2.3,2
			C305.5,100.7,306.3,99.8,306.3,98.7z"/>
		<path class="st3" d="M315.9,103.8h-5.7l-0.4-1.4l6.2-7.4h1.7v7.2h1.6v1.6h-1.6v2.5h-1.9V103.8z M315.9,102.2v-4.4l-3.7,4.4H315.9z
			"/>
		<path class="st3" d="M321,103.3L321,103.3c0-1.4,0.8-2.2,2-2.8c-0.9-0.5-1.6-1.2-1.6-2.5v0c0-1.7,1.6-3,3.9-3s3.9,1.3,3.9,3v0
			c0,1.2-0.7,2-1.6,2.5c1.2,0.6,2,1.4,2,2.7v0c0,2-1.8,3.2-4.3,3.2C322.8,106.5,321,105.2,321,103.3z M327.6,103.1L327.6,103.1
			c0-1.1-1-1.7-2.4-1.7s-2.4,0.7-2.4,1.7v0c0,0.9,0.9,1.7,2.4,1.7S327.6,104.1,327.6,103.1z M327.3,98.2L327.3,98.2
			c0-0.9-0.8-1.6-2-1.6c-1.2,0-2,0.7-2,1.6v0c0,1,0.8,1.7,2,1.7S327.3,99.2,327.3,98.2z"/>
		<path class="st3" d="M331.5,97.9h1.9v1.3c0.5-0.8,1.3-1.5,2.6-1.5c1.2,0,2.1,0.6,2.5,1.5c0.7-0.9,1.6-1.5,2.9-1.5
			c1.8,0,3,1.2,3,3.2v5.4h-1.9v-4.8c0-1.3-0.6-2.1-1.7-2.1c-1.1,0-1.8,0.7-1.8,2.1v4.8H337v-4.8c0-1.3-0.6-2-1.7-2
			c-1.1,0-1.8,0.8-1.8,2.1v4.8h-1.9V97.9z"/>
		<path class="st3" d="M346.3,104.8l3.9-3.3c1.5-1.3,2.1-2,2.1-3c0-1.1-0.8-1.7-1.8-1.7s-1.7,0.6-2.6,1.7l-1.4-1.1
			c1.1-1.5,2.1-2.4,4.1-2.4c2.2,0,3.7,1.3,3.7,3.3v0c0,1.8-0.9,2.7-2.9,4.3l-2.3,1.9h5.3v1.7h-8.1V104.8z"/>
	</g>
</g>
<g>
	<defs>
		<rect id="SVGID_13_" x="0.8" y="118.9" width="519.2" height="41.2"/>
	</defs>
	<clipPath id="SVGID_14_">
		<use xlink:href="#SVGID_13_"  style="overflow:visible;"/>
	</clipPath>
	<rect x="21.6" y="120.9" class="st10" width="457" height="37.2"/>
	<rect x="21.6" y="120.9" class="st11" width="457" height="37.2"/>
</g>
<g>
	<defs>
		<rect id="SVGID_15_" x="3.2" y="115.2" width="514.4" height="48.7"/>
	</defs>
	<clipPath id="SVGID_16_">
		<use xlink:href="#SVGID_15_"  style="overflow:visible;"/>
	</clipPath>
	<g class="st12">
		<path class="st3" d="M151,133.1h4.4c2.6,0,4.3,1.5,4.3,3.7v0c0,2.5-2,3.8-4.5,3.8H153v3.6h-2V133.1z M155.3,138.9
			c1.5,0,2.4-0.8,2.4-2v0c0-1.3-0.9-2-2.4-2H153v4H155.3z"/>
		<path class="st3" d="M161.5,135.9h1.9v1.9c0.5-1.3,1.5-2.1,3-2.1v2h-0.1c-1.7,0-2.9,1.1-2.9,3.3v3.2h-1.9V135.9z"/>
		<path class="st3" d="M167.3,140.1L167.3,140.1c0-2.4,1.9-4.5,4.5-4.5s4.5,2,4.5,4.4v0c0,2.4-1.9,4.4-4.5,4.4
			C169.2,144.5,167.3,142.5,167.3,140.1z M174.4,140.1L174.4,140.1c0-1.5-1.1-2.8-2.6-2.8c-1.6,0-2.5,1.2-2.5,2.7v0
			c0,1.5,1.1,2.7,2.6,2.7C173.4,142.8,174.4,141.6,174.4,140.1z"/>
		<path class="st3" d="M177,146.8v-1.6c0.2,0,0.4,0,0.5,0c0.5,0,0.9-0.3,0.9-1v-8.5h1.9v8.6c0,1.7-0.9,2.5-2.5,2.5
			C177.5,146.9,177.3,146.9,177,146.8z M178.3,132.7h2.1v1.8h-2.1V132.7z"/>
		<path class="st3" d="M182.4,140.1L182.4,140.1c0-2.4,1.7-4.4,4.1-4.4c2.7,0,4,2.1,4,4.5c0,0.2,0,0.4,0,0.5h-6.2
			c0.2,1.4,1.2,2.1,2.4,2.1c0.9,0,1.6-0.4,2.3-1l1.1,1c-0.8,1-1.9,1.6-3.5,1.6C184.3,144.5,182.4,142.7,182.4,140.1z M188.7,139.5
			c-0.1-1.2-0.9-2.2-2.1-2.2c-1.2,0-2,0.9-2.2,2.2H188.7z"/>
		<path class="st3" d="M197.4,132.6h1.9v7l3.5-3.7h2.4l-3.4,3.4l3.5,5H203l-2.5-3.6l-1.2,1.2v2.4h-1.9V132.6z"/>
		<path class="st3" d="M211.7,144.3v-1c-0.6,0.7-1.5,1.2-2.7,1.2c-1.6,0-3-0.9-3-2.6v0c0-1.9,1.5-2.8,3.4-2.8c1,0,1.7,0.1,2.3,0.4
			v-0.2c0-1.2-0.7-1.8-2.1-1.8c-0.9,0-1.6,0.2-2.4,0.5l-0.5-1.6c0.9-0.4,1.8-0.7,3.2-0.7c2.5,0,3.7,1.3,3.7,3.6v5H211.7z
			 M211.7,140.8c-0.5-0.2-1.2-0.3-1.9-0.3c-1.2,0-1.9,0.5-1.9,1.3v0c0,0.8,0.7,1.2,1.6,1.2c1.3,0,2.2-0.7,2.2-1.8V140.8z"/>
		<path class="st3" d="M215.9,135.9h1.9v1.4c0.6-0.9,1.5-1.6,2.9-1.6c2,0,3.9,1.6,3.9,4.4v0c0,2.8-1.9,4.4-3.9,4.4
			c-1.4,0-2.3-0.7-2.9-1.5v3.9h-1.9V135.9z M222.7,140.1L222.7,140.1c0-1.7-1.1-2.7-2.4-2.7s-2.5,1.1-2.5,2.7v0
			c0,1.6,1.2,2.7,2.5,2.7C221.6,142.8,222.7,141.8,222.7,140.1z"/>
		<path class="st3" d="M231.8,144.3v-1c-0.6,0.7-1.5,1.2-2.7,1.2c-1.6,0-3-0.9-3-2.6v0c0-1.9,1.5-2.8,3.4-2.8c1,0,1.7,0.1,2.3,0.4
			v-0.2c0-1.2-0.7-1.8-2.1-1.8c-0.9,0-1.6,0.2-2.4,0.5l-0.5-1.6c0.9-0.4,1.8-0.7,3.2-0.7c2.5,0,3.7,1.3,3.7,3.6v5H231.8z
			 M231.9,140.8c-0.5-0.2-1.2-0.3-1.9-0.3c-1.2,0-1.9,0.5-1.9,1.3v0c0,0.8,0.7,1.2,1.6,1.2c1.3,0,2.2-0.7,2.2-1.8V140.8z"/>
		<path class="st3" d="M236.1,132.6h1.9v11.7h-1.9V132.6z"/>
		<path class="st3" d="M240.7,135.9h1.9v8.5h-1.9V135.9z"/>
		<path class="st3" d="M255.1,144.3v-1c-0.6,0.7-1.5,1.2-2.7,1.2c-1.6,0-3-0.9-3-2.6v0c0-1.9,1.5-2.8,3.4-2.8c1,0,1.7,0.1,2.3,0.4
			v-0.2c0-1.2-0.7-1.8-2.1-1.8c-0.9,0-1.6,0.2-2.4,0.5l-0.5-1.6c0.9-0.4,1.8-0.7,3.2-0.7c2.5,0,3.7,1.3,3.7,3.6v5H255.1z
			 M255.2,140.8c-0.5-0.2-1.2-0.3-1.9-0.3c-1.2,0-1.9,0.5-1.9,1.3v0c0,0.8,0.7,1.2,1.6,1.2c1.3,0,2.2-0.7,2.2-1.8V140.8z"/>
		<path class="st3" d="M259.5,132.6h1.9v11.7h-1.9V132.6z"/>
		<path class="st3" d="M269.1,144.3v-1c-0.6,0.7-1.5,1.2-2.7,1.2c-1.6,0-3-0.9-3-2.6v0c0-1.9,1.5-2.8,3.4-2.8c1,0,1.7,0.1,2.3,0.4
			v-0.2c0-1.2-0.7-1.8-2.1-1.8c-0.9,0-1.6,0.2-2.4,0.5l-0.5-1.6c0.9-0.4,1.8-0.7,3.2-0.7c2.5,0,3.7,1.3,3.7,3.6v5H269.1z
			 M269.2,140.8c-0.5-0.2-1.2-0.3-1.9-0.3c-1.2,0-1.9,0.5-1.9,1.3v0c0,0.8,0.7,1.2,1.6,1.2c1.3,0,2.2-0.7,2.2-1.8V140.8z"/>
		<path class="st3" d="M273.3,135.9h1.9v1.3c0.5-0.8,1.3-1.5,2.6-1.5c1.9,0,3,1.3,3,3.2v5.4H279v-4.8c0-1.3-0.7-2.1-1.8-2.1
			c-1.1,0-1.9,0.8-1.9,2.1v4.8h-1.9V135.9z"/>
		<path class="st3" d="M283.4,135.9h1.9v8.5h-1.9V135.9z"/>
		<path class="st3" d="M287.8,135.9h2.1v2.2h-2.1V135.9z M287.8,142.1h2.1v2.2h-2.1V142.1z"/>
		<path class="st3" d="M293.9,135l-2,0.6l-0.4-1.6l3-1h1.4v11.3h-2V135z"/>
		<path class="st3" d="M298.1,142.5l1.4-1.3c0.8,0.9,1.7,1.5,2.9,1.5c1.1,0,1.9-0.7,1.9-1.7v0c0-1.1-1-1.7-2.6-1.7h-0.9l-0.3-1.2
			l3-3.2h-4.9v-1.7h7.4v1.5l-3.1,3.2c1.7,0.2,3.3,1.1,3.3,3.2v0c0,2.1-1.6,3.5-3.9,3.5C300.4,144.5,299.1,143.7,298.1,142.5z"/>
		<path class="st3" d="M308.4,142.1h2.1v2.2h-2.1V142.1z"/>
		<path class="st3" d="M312.2,138.7L312.2,138.7c0-3.2,2-5.8,4.9-5.8c2.9,0,4.9,2.6,4.9,5.8v0c0,3.2-2,5.8-4.9,5.8
			S312.2,141.9,312.2,138.7z M319.9,138.7L319.9,138.7c0-2.2-1.1-4-2.9-4s-2.8,1.8-2.8,4v0c0,2.2,1.1,4,2.9,4
			C318.8,142.7,319.9,140.9,319.9,138.7z"/>
		<path class="st3" d="M323.8,138.7L323.8,138.7c0-3.2,2-5.8,4.9-5.8c2.9,0,4.9,2.6,4.9,5.8v0c0,3.2-2,5.8-4.9,5.8
			S323.8,141.9,323.8,138.7z M331.5,138.7L331.5,138.7c0-2.2-1.1-4-2.9-4s-2.8,1.8-2.8,4v0c0,2.2,1.1,4,2.9,4
			C330.4,142.7,331.5,140.9,331.5,138.7z"/>
		<path class="st3" d="M335.4,138.7L335.4,138.7c0-3.2,2-5.8,4.9-5.8c2.9,0,4.9,2.6,4.9,5.8v0c0,3.2-2,5.8-4.9,5.8
			S335.4,141.9,335.4,138.7z M343.1,138.7L343.1,138.7c0-2.2-1.1-4-2.9-4s-2.8,1.8-2.8,4v0c0,2.2,1.1,4,2.9,4
			C342,142.7,343.1,140.9,343.1,138.7z"/>
		<path class="st3" d="M347.3,135.9h1.9v1.3c0.5-0.8,1.3-1.5,2.6-1.5c1.2,0,2.1,0.6,2.5,1.5c0.7-0.9,1.6-1.5,2.9-1.5
			c1.8,0,3,1.2,3,3.2v5.4h-1.9v-4.8c0-1.3-0.6-2.1-1.7-2.1c-1.1,0-1.8,0.7-1.8,2.1v4.8h-1.9v-4.8c0-1.3-0.6-2-1.7-2
			s-1.8,0.8-1.8,2.1v4.8h-1.9V135.9z"/>
		<path class="st3" d="M362,142.8l3.9-3.3c1.5-1.3,2.1-2,2.1-3c0-1.1-0.8-1.7-1.8-1.7s-1.7,0.6-2.6,1.7l-1.4-1.1
			c1.1-1.5,2.1-2.4,4.1-2.4c2.2,0,3.7,1.3,3.7,3.3v0c0,1.8-0.9,2.7-2.9,4.3l-2.3,1.9h5.3v1.7H362V142.8z"/>
	</g>
</g>
<g>
	<defs>
		<rect id="SVGID_17_" x="0.8" y="157.3" width="519.2" height="41.2"/>
	</defs>
	<clipPath id="SVGID_18_">
		<use xlink:href="#SVGID_17_"  style="overflow:visible;"/>
	</clipPath>
	<rect x="21.6" y="159.3" class="st13" width="457" height="37.2"/>
	<rect x="21.6" y="159.3" class="st14" width="457" height="37.2"/>
</g>
<g>
	<defs>
		<rect id="SVGID_19_" x="3.2" y="135.8" width="514.4" height="84"/>
	</defs>
	<clipPath id="SVGID_20_">
		<use xlink:href="#SVGID_19_"  style="overflow:visible;"/>
	</clipPath>
	<g class="st15">
		<path class="st3" d="M100,172.1h8.3v1.8H102v2.9h5.6v1.8H102v3h6.4v1.8H100V172.1z"/>
		<path class="st3" d="M109.8,182.2l0.9-1.3c0.9,0.7,1.9,1,2.8,1c0.8,0,1.3-0.4,1.3-0.9v0c0-0.7-0.9-0.9-1.9-1.2
			c-1.2-0.4-2.6-0.9-2.6-2.5v0c0-1.6,1.3-2.6,3-2.6c1.1,0,2.2,0.4,3.1,1l-0.8,1.4c-0.8-0.5-1.7-0.8-2.4-0.8c-0.8,0-1.2,0.4-1.2,0.8
			v0c0,0.6,0.9,0.9,1.9,1.2c1.2,0.4,2.6,0.9,2.6,2.5v0c0,1.8-1.4,2.7-3.1,2.7C112.2,183.5,110.9,183,109.8,182.2z"/>
		<path class="st3" d="M118.1,179.1L118.1,179.1c0-2.4,1.7-4.4,4.1-4.4c2.7,0,4,2.1,4,4.5c0,0.2,0,0.4,0,0.5H120
			c0.2,1.4,1.2,2.1,2.4,2.1c0.9,0,1.6-0.4,2.3-1l1.1,1c-0.8,1-1.9,1.6-3.5,1.6C119.9,183.5,118.1,181.7,118.1,179.1z M124.3,178.5
			c-0.1-1.2-0.9-2.2-2.1-2.2c-1.2,0-2,0.9-2.2,2.2H124.3z"/>
		<path class="st3" d="M128.2,174.9h1.9v1.9c0.5-1.3,1.5-2.1,3-2.1v2H133c-1.7,0-2.9,1.1-2.9,3.3v3.2h-1.9V174.9z"/>
		<path class="st3" d="M139.1,181.7l1.2-1.4c1.1,0.9,2.1,1.5,3.5,1.5c1.2,0,2-0.6,2-1.4v0c0-0.8-0.4-1.2-2.5-1.7
			c-2.4-0.6-3.7-1.3-3.7-3.3v0c0-1.9,1.6-3.2,3.8-3.2c1.6,0,2.9,0.5,4.1,1.4l-1.1,1.5c-1-0.8-2-1.2-3-1.2c-1.2,0-1.8,0.6-1.8,1.3v0
			c0,0.9,0.5,1.2,2.7,1.8c2.4,0.6,3.6,1.4,3.6,3.3v0c0,2.1-1.6,3.3-4,3.3C142,183.5,140.4,182.9,139.1,181.7z"/>
		<path class="st3" d="M149.4,179.1L149.4,179.1c0-2.4,1.7-4.4,4.1-4.4c2.7,0,4,2.1,4,4.5c0,0.2,0,0.4,0,0.5h-6.2
			c0.2,1.4,1.2,2.1,2.4,2.1c0.9,0,1.6-0.4,2.3-1l1.1,1c-0.8,1-1.9,1.6-3.5,1.6C151.3,183.5,149.4,181.7,149.4,179.1z M155.6,178.5
			c-0.1-1.2-0.9-2.2-2.1-2.2c-1.2,0-2,0.9-2.2,2.2H155.6z"/>
		<path class="st3" d="M159.5,174.9h1.9v1.9c0.5-1.3,1.5-2.1,3-2.1v2h-0.1c-1.7,0-2.9,1.1-2.9,3.3v3.2h-1.9V174.9z"/>
		<path class="st3" d="M165.9,184.9l0.7-1.5c0.9,0.6,1.9,0.9,3,0.9c1.7,0,2.7-0.9,2.7-2.6v-0.7c-0.7,0.9-1.6,1.6-3,1.6
			c-2,0-3.8-1.5-3.8-4v0c0-2.5,1.9-4,3.8-4c1.4,0,2.3,0.7,3,1.4v-1.3h1.9v6.7c0,1.4-0.4,2.5-1.1,3.2c-0.8,0.8-2,1.1-3.5,1.1
			C168.2,185.9,166.9,185.6,165.9,184.9z M172.3,178.7L172.3,178.7c0-1.4-1.1-2.4-2.5-2.4c-1.3,0-2.4,0.9-2.4,2.3v0
			c0,1.4,1.1,2.3,2.4,2.3C171.1,181,172.3,180,172.3,178.7z"/>
		<path class="st3" d="M176.6,171.7h2.1v1.8h-2.1V171.7z M176.7,174.9h1.9v8.5h-1.9V174.9z"/>
		<path class="st3" d="M181.3,171.6h1.9v11.7h-1.9V171.6z"/>
		<path class="st3" d="M185.3,179.1L185.3,179.1c0-2.4,1.7-4.4,4.1-4.4c2.7,0,4,2.1,4,4.5c0,0.2,0,0.4,0,0.5h-6.2
			c0.2,1.4,1.2,2.1,2.4,2.1c0.9,0,1.6-0.4,2.3-1l1.1,1c-0.8,1-1.9,1.6-3.5,1.6C187.2,183.5,185.3,181.7,185.3,179.1z M191.5,178.5
			c-0.1-1.2-0.9-2.2-2.1-2.2c-1.2,0-2,0.9-2.2,2.2H191.5z"/>
		<path class="st3" d="M195.4,174.9h1.9v1.3c0.5-0.8,1.3-1.5,2.6-1.5c1.2,0,2.1,0.6,2.5,1.5c0.7-0.9,1.6-1.5,2.9-1.5
			c1.8,0,3,1.2,3,3.2v5.4h-1.9v-4.8c0-1.3-0.6-2.1-1.7-2.1c-1.1,0-1.8,0.7-1.8,2.1v4.8h-1.9v-4.8c0-1.3-0.6-2-1.7-2
			c-1.1,0-1.8,0.8-1.8,2.1v4.8h-1.9V174.9z"/>
		<path class="st3" d="M210.1,179.1L210.1,179.1c0-2.4,1.7-4.4,4.1-4.4c2.7,0,4,2.1,4,4.5c0,0.2,0,0.4,0,0.5h-6.2
			c0.2,1.4,1.2,2.1,2.4,2.1c0.9,0,1.6-0.4,2.3-1l1.1,1c-0.8,1-1.9,1.6-3.5,1.6C212,183.5,210.1,181.7,210.1,179.1z M216.4,178.5
			c-0.1-1.2-0.9-2.2-2.1-2.2c-1.2,0-2,0.9-2.2,2.2H216.4z"/>
		<path class="st3" d="M225.3,172.1h2v5.6l5.3-5.6h2.4l-4.7,4.8l4.9,6.4h-2.4l-3.8-5l-1.7,1.8v3.2h-2V172.1z"/>
		<path class="st3" d="M241.7,183.3v-1c-0.6,0.7-1.5,1.2-2.7,1.2c-1.6,0-3-0.9-3-2.6v0c0-1.9,1.5-2.8,3.4-2.8c1,0,1.7,0.1,2.3,0.4
			v-0.2c0-1.2-0.7-1.8-2.1-1.8c-0.9,0-1.6,0.2-2.4,0.5l-0.5-1.6c0.9-0.4,1.8-0.7,3.2-0.7c2.5,0,3.7,1.3,3.7,3.6v5H241.7z
			 M241.7,179.8c-0.5-0.2-1.2-0.3-1.9-0.3c-1.2,0-1.9,0.5-1.9,1.3v0c0,0.8,0.7,1.2,1.6,1.2c1.3,0,2.2-0.7,2.2-1.8V179.8z"/>
		<path class="st3" d="M245.9,174.9h1.9v1.4c0.6-0.9,1.5-1.6,2.9-1.6c2,0,3.9,1.6,3.9,4.4v0c0,2.8-1.9,4.4-3.9,4.4
			c-1.4,0-2.3-0.7-2.9-1.5v3.9h-1.9V174.9z M252.7,179.1L252.7,179.1c0-1.7-1.1-2.7-2.4-2.7s-2.5,1.1-2.5,2.7v0
			c0,1.6,1.2,2.7,2.5,2.7C251.6,181.8,252.7,180.8,252.7,179.1z"/>
		<path class="st3" d="M261.8,183.3v-1c-0.6,0.7-1.5,1.2-2.7,1.2c-1.6,0-3-0.9-3-2.6v0c0-1.9,1.5-2.8,3.4-2.8c1,0,1.7,0.1,2.3,0.4
			v-0.2c0-1.2-0.7-1.8-2.1-1.8c-0.9,0-1.6,0.2-2.4,0.5l-0.5-1.6c0.9-0.4,1.8-0.7,3.2-0.7c2.5,0,3.7,1.3,3.7,3.6v5H261.8z
			 M261.9,179.8c-0.5-0.2-1.2-0.3-1.9-0.3c-1.2,0-1.9,0.5-1.9,1.3v0c0,0.8,0.7,1.2,1.6,1.2c1.3,0,2.2-0.7,2.2-1.8V179.8z"/>
		<path class="st3" d="M265.3,182.2l0.9-1.3c0.9,0.7,1.9,1,2.8,1c0.8,0,1.3-0.4,1.3-0.9v0c0-0.7-0.9-0.9-1.9-1.2
			c-1.2-0.4-2.6-0.9-2.6-2.5v0c0-1.6,1.3-2.6,3-2.6c1.1,0,2.2,0.4,3.1,1l-0.8,1.4c-0.8-0.5-1.7-0.8-2.4-0.8c-0.8,0-1.2,0.4-1.2,0.8
			v0c0,0.6,0.9,0.9,1.9,1.2c1.2,0.4,2.6,0.9,2.6,2.5v0c0,1.8-1.4,2.7-3.1,2.7C267.7,183.5,266.4,183,265.3,182.2z"/>
		<path class="st3" d="M274.1,171.7h2.1v1.8h-2.1V171.7z M274.1,174.9h1.9v8.5h-1.9V174.9z"/>
		<path class="st3" d="M279,181v-4.5h-1.1v-1.7h1.1v-2.3h1.9v2.3h2.3v1.7h-2.3v4.1c0,0.8,0.4,1.1,1,1.1c0.4,0,0.8-0.1,1.2-0.3v1.6
			c-0.5,0.3-1,0.4-1.7,0.4C280,183.5,279,182.8,279,181z"/>
		<path class="st3" d="M284.5,179.1L284.5,179.1c0-2.4,1.7-4.4,4.1-4.4c2.7,0,4,2.1,4,4.5c0,0.2,0,0.4,0,0.5h-6.2
			c0.2,1.4,1.2,2.1,2.4,2.1c0.9,0,1.6-0.4,2.3-1l1.1,1c-0.8,1-1.9,1.6-3.5,1.6C286.4,183.5,284.5,181.7,284.5,179.1z M290.7,178.5
			c-0.1-1.2-0.9-2.2-2.1-2.2c-1.2,0-2,0.9-2.2,2.2H290.7z"/>
		<path class="st3" d="M293.9,182.2l0.9-1.3c0.9,0.7,1.9,1,2.8,1c0.8,0,1.3-0.4,1.3-0.9v0c0-0.7-0.9-0.9-1.9-1.2
			c-1.2-0.4-2.6-0.9-2.6-2.5v0c0-1.6,1.3-2.6,3-2.6c1.1,0,2.2,0.4,3.1,1l-0.8,1.4c-0.8-0.5-1.7-0.8-2.4-0.8c-0.8,0-1.2,0.4-1.2,0.8
			v0c0,0.6,0.9,0.9,1.9,1.2c1.2,0.4,2.6,0.9,2.6,2.5v0c0,1.8-1.4,2.7-3.1,2.7C296.3,183.5,295,183,293.9,182.2z"/>
		<path class="st3" d="M302.6,171.7h2.1v1.8h-2.1V171.7z M302.7,174.9h1.9v8.5h-1.9V174.9z"/>
		<path class="st3" d="M307.1,174.9h2.1v2.2h-2.1V174.9z M307.1,181.1h2.1v2.2h-2.1V181.1z"/>
		<path class="st3" d="M313.3,174l-2,0.6l-0.4-1.6l3-1h1.4v11.3h-2V174z"/>
		<path class="st3" d="M317.7,177.7L317.7,177.7c0-3.2,2-5.8,4.9-5.8c2.9,0,4.9,2.6,4.9,5.8v0c0,3.2-2,5.8-4.9,5.8
			S317.7,180.9,317.7,177.7z M325.4,177.7L325.4,177.7c0-2.2-1.1-4-2.9-4s-2.8,1.8-2.8,4v0c0,2.2,1.1,4,2.9,4
			C324.3,181.7,325.4,179.9,325.4,177.7z"/>
		<path class="st3" d="M329.3,177.7L329.3,177.7c0-3.2,2-5.8,4.9-5.8c2.9,0,4.9,2.6,4.9,5.8v0c0,3.2-2,5.8-4.9,5.8
			S329.3,180.9,329.3,177.7z M337,177.7L337,177.7c0-2.2-1.1-4-2.9-4s-2.8,1.8-2.8,4v0c0,2.2,1.1,4,2.9,4
			C335.9,181.7,337,179.9,337,177.7z"/>
		<path class="st3" d="M340.7,181.1h2.1v2.2h-2.1V181.1z"/>
		<path class="st3" d="M344.5,177.7L344.5,177.7c0-3.2,2-5.8,4.9-5.8c2.9,0,4.9,2.6,4.9,5.8v0c0,3.2-2,5.8-4.9,5.8
			S344.5,180.9,344.5,177.7z M352.3,177.7L352.3,177.7c0-2.2-1.1-4-2.9-4s-2.8,1.8-2.8,4v0c0,2.2,1.1,4,2.9,4
			C351.2,181.7,352.3,179.9,352.3,177.7z"/>
		<path class="st3" d="M356.1,177.7L356.1,177.7c0-3.2,2-5.8,4.9-5.8c2.9,0,4.9,2.6,4.9,5.8v0c0,3.2-2,5.8-4.9,5.8
			S356.1,180.9,356.1,177.7z M363.8,177.7L363.8,177.7c0-2.2-1.1-4-2.9-4s-2.8,1.8-2.8,4v0c0,2.2,1.1,4,2.9,4
			C362.8,181.7,363.8,179.9,363.8,177.7z"/>
		<path class="st3" d="M367.7,177.7L367.7,177.7c0-3.2,2-5.8,4.9-5.8c2.9,0,4.9,2.6,4.9,5.8v0c0,3.2-2,5.8-4.9,5.8
			S367.7,180.9,367.7,177.7z M375.4,177.7L375.4,177.7c0-2.2-1.1-4-2.9-4s-2.8,1.8-2.8,4v0c0,2.2,1.1,4,2.9,4
			C374.3,181.7,375.4,179.9,375.4,177.7z"/>
		<path class="st3" d="M388.6,172h1.8l4.9,11.3h-2.1l-1.1-2.7h-5.3l-1.2,2.7h-2L388.6,172z M391.4,178.9l-1.9-4.5l-1.9,4.5H391.4z"
			/>
		<path class="st3" d="M396.2,179.1L396.2,179.1c0-2.8,1.9-4.4,3.9-4.4c1.4,0,2.3,0.7,2.9,1.5v-4.5h1.9v11.7H403v-1.4
			c-0.6,0.9-1.5,1.6-2.9,1.6C398.1,183.5,396.2,181.9,396.2,179.1z M403,179.1L403,179.1c0-1.7-1.2-2.7-2.4-2.7
			c-1.3,0-2.4,1-2.4,2.7v0c0,1.6,1.1,2.7,2.4,2.7C401.9,181.8,403,180.7,403,179.1z"/>
		<path class="st3" d="M406.9,179.1L406.9,179.1c0-2.4,1.7-4.4,4.1-4.4c2.7,0,4,2.1,4,4.5c0,0.2,0,0.4,0,0.5h-6.2
			c0.2,1.4,1.2,2.1,2.4,2.1c0.9,0,1.6-0.4,2.3-1l1.1,1c-0.8,1-1.9,1.6-3.5,1.6C408.8,183.5,406.9,181.7,406.9,179.1z M413.2,178.5
			c-0.1-1.2-0.9-2.2-2.1-2.2c-1.2,0-2,0.9-2.2,2.2H413.2z"/>
		<path class="st3" d="M417.4,181v-4.5h-1.1v-1.7h1.1v-2.3h1.9v2.3h2.3v1.7h-2.3v4.1c0,0.8,0.4,1.1,1,1.1c0.4,0,0.8-0.1,1.2-0.3v1.6
			c-0.5,0.3-1,0.4-1.7,0.4C418.4,183.5,417.4,182.8,417.4,181z"/>
	</g>
</g>
<g>
	<defs>
		<rect id="SVGID_21_" x="1.2" y="195.5" width="519.2" height="41.2"/>
	</defs>
	<clipPath id="SVGID_22_">
		<use xlink:href="#SVGID_21_"  style="overflow:visible;"/>
	</clipPath>
	<rect x="21.6" y="197.5" class="st16" width="457" height="37.2"/>
	<rect x="21.6" y="197.5" class="st17" width="457" height="37.2"/>
</g>
<g>
	<defs>
		<rect id="SVGID_23_" x="3.6" y="174.1" width="514.4" height="84"/>
	</defs>
	<clipPath id="SVGID_24_">
		<use xlink:href="#SVGID_23_"  style="overflow:visible;"/>
	</clipPath>
	<g class="st18">
		<path class="st3" d="M104.6,219.9l6.6-8h-6.4v-1.7h9v1.5l-6.6,8h6.6v1.7h-9.2V219.9z"/>
		<path class="st3" d="M116.1,209.7h2.1v1.8h-2.1V209.7z M116.1,212.9h1.9v8.5h-1.9V212.9z"/>
		<path class="st3" d="M120.3,223.4l0.7-1.4c0.4,0.2,0.7,0.3,1.1,0.3c0.5,0,0.9-0.2,1.2-1l-3.5-8.5h2.1l2.4,6.3l2.2-6.3h2l-3.4,8.7
			c-0.7,1.7-1.4,2.4-2.8,2.4C121.5,223.9,120.9,223.7,120.3,223.4z"/>
		<path class="st3" d="M134.9,221.3v-1c-0.6,0.7-1.5,1.2-2.7,1.2c-1.6,0-3-0.9-3-2.6v0c0-1.9,1.5-2.8,3.4-2.8c1,0,1.7,0.1,2.3,0.4
			v-0.2c0-1.2-0.7-1.8-2.1-1.8c-0.9,0-1.6,0.2-2.4,0.5l-0.5-1.6c0.9-0.4,1.8-0.7,3.2-0.7c2.5,0,3.7,1.3,3.7,3.6v5H134.9z M135,217.8
			c-0.5-0.2-1.2-0.3-1.9-0.3c-1.2,0-1.9,0.5-1.9,1.3v0c0,0.8,0.7,1.2,1.6,1.2c1.3,0,2.2-0.7,2.2-1.8V217.8z"/>
		<path class="st3" d="M139.1,212.9h1.9v1.9c0.5-1.3,1.5-2.1,3-2.1v2H144c-1.7,0-2.9,1.1-2.9,3.3v3.2h-1.9V212.9z"/>
		<path class="st3" d="M145,217.1L145,217.1c0-2.4,1.7-4.4,4.1-4.4c2.7,0,4,2.1,4,4.5c0,0.2,0,0.4,0,0.5h-6.2
			c0.2,1.4,1.2,2.1,2.4,2.1c0.9,0,1.6-0.4,2.3-1l1.1,1c-0.8,1-1.9,1.6-3.5,1.6C146.9,221.5,145,219.7,145,217.1z M151.3,216.5
			c-0.1-1.2-0.9-2.2-2.1-2.2c-1.2,0-2,0.9-2.2,2.2H151.3z"/>
		<path class="st3" d="M155.5,219v-4.5h-1.1v-1.7h1.1v-2.3h1.9v2.3h2.3v1.7h-2.3v4.1c0,0.8,0.4,1.1,1,1.1c0.4,0,0.8-0.1,1.2-0.3v1.6
			c-0.5,0.3-1,0.4-1.7,0.4C156.5,221.5,155.5,220.8,155.5,219z"/>
		<path class="st3" d="M163,223.2l1.3-1.9c-1.9-0.5-3.2-2.2-3.2-4.2v0c0-2.4,1.9-4.4,4.4-4.4c1.6,0,2.6,0.6,3.4,1.5l-1.2,1.3
			c-0.6-0.6-1.2-1.1-2.2-1.1c-1.4,0-2.4,1.2-2.4,2.7v0c0,1.5,1,2.7,2.5,2.7c0.9,0,1.6-0.4,2.2-1.1l1.2,1.2c-0.8,0.9-1.7,1.5-3.1,1.6
			l-1.1,2.5L163,223.2z"/>
		<path class="st3" d="M170.6,209.7h2.1v1.8h-2.1V209.7z M170.7,212.9h1.9v8.5h-1.9V212.9z"/>
		<path class="st3" d="M183,211.9h-3.6v-1.8h9.1v1.8h-3.6v9.4h-2V211.9z"/>
		<path class="st3" d="M193.7,221.3v-1c-0.6,0.7-1.5,1.2-2.7,1.2c-1.6,0-3-0.9-3-2.6v0c0-1.9,1.5-2.8,3.4-2.8c1,0,1.7,0.1,2.3,0.4
			v-0.2c0-1.2-0.7-1.8-2.1-1.8c-0.9,0-1.6,0.2-2.4,0.5l-0.5-1.6c0.9-0.4,1.8-0.7,3.2-0.7c2.5,0,3.7,1.3,3.7,3.6v5H193.7z
			 M193.8,217.8c-0.5-0.2-1.2-0.3-1.9-0.3c-1.2,0-1.9,0.5-1.9,1.3v0c0,0.8,0.7,1.2,1.6,1.2c1.3,0,2.2-0.7,2.2-1.8V217.8z"/>
		<path class="st3" d="M197.9,212.9h1.9v1.3c0.5-0.8,1.3-1.5,2.6-1.5c1.2,0,2.1,0.6,2.5,1.5c0.7-0.9,1.6-1.5,2.9-1.5
			c1.8,0,3,1.2,3,3.2v5.4h-1.9v-4.8c0-1.3-0.6-2.1-1.7-2.1c-1.1,0-1.8,0.7-1.8,2.1v4.8h-1.9v-4.8c0-1.3-0.6-2-1.7-2
			c-1.1,0-1.8,0.8-1.8,2.1v4.8h-1.9V212.9z"/>
		<path class="st3" d="M218.2,210.1h2v5.6l5.3-5.6h2.4l-4.7,4.8l4.9,6.4h-2.4l-3.8-5l-1.7,1.8v3.2h-2V210.1z"/>
		<path class="st3" d="M234.6,221.3v-1c-0.6,0.7-1.5,1.2-2.7,1.2c-1.6,0-3-0.9-3-2.6v0c0-1.9,1.5-2.8,3.4-2.8c1,0,1.7,0.1,2.3,0.4
			v-0.2c0-1.2-0.7-1.8-2.1-1.8c-0.9,0-1.6,0.2-2.4,0.5l-0.5-1.6c0.9-0.4,1.8-0.7,3.2-0.7c2.5,0,3.7,1.3,3.7,3.6v5H234.6z
			 M234.6,217.8c-0.5-0.2-1.2-0.3-1.9-0.3c-1.2,0-1.9,0.5-1.9,1.3v0c0,0.8,0.7,1.2,1.6,1.2c1.3,0,2.2-0.7,2.2-1.8V217.8z"/>
		<path class="st3" d="M238.8,212.9h1.9v1.4c0.6-0.9,1.5-1.6,2.9-1.6c2,0,3.9,1.6,3.9,4.4v0c0,2.8-1.9,4.4-3.9,4.4
			c-1.4,0-2.3-0.7-2.9-1.5v3.9h-1.9V212.9z M245.5,217.1L245.5,217.1c0-1.7-1.1-2.7-2.4-2.7s-2.5,1.1-2.5,2.7v0
			c0,1.6,1.2,2.7,2.5,2.7C244.5,219.8,245.5,218.8,245.5,217.1z"/>
		<path class="st3" d="M254.7,221.3v-1c-0.6,0.7-1.5,1.2-2.7,1.2c-1.6,0-3-0.9-3-2.6v0c0-1.9,1.5-2.8,3.4-2.8c1,0,1.7,0.1,2.3,0.4
			v-0.2c0-1.2-0.7-1.8-2.1-1.8c-0.9,0-1.6,0.2-2.4,0.5l-0.5-1.6c0.9-0.4,1.8-0.7,3.2-0.7c2.5,0,3.7,1.3,3.7,3.6v5H254.7z
			 M254.7,217.8c-0.5-0.2-1.2-0.3-1.9-0.3c-1.2,0-1.9,0.5-1.9,1.3v0c0,0.8,0.7,1.2,1.6,1.2c1.3,0,2.2-0.7,2.2-1.8V217.8z"/>
		<path class="st3" d="M258.2,220.2l0.9-1.3c0.9,0.7,1.9,1,2.8,1c0.8,0,1.3-0.4,1.3-0.9v0c0-0.7-0.9-0.9-1.9-1.2
			c-1.2-0.4-2.6-0.9-2.6-2.5v0c0-1.6,1.3-2.6,3-2.6c1.1,0,2.2,0.4,3.1,1l-0.8,1.4c-0.8-0.5-1.7-0.8-2.4-0.8c-0.8,0-1.2,0.4-1.2,0.8
			v0c0,0.6,0.9,0.9,1.9,1.2c1.2,0.4,2.6,0.9,2.6,2.5v0c0,1.8-1.4,2.7-3.1,2.7C260.6,221.5,259.3,221,258.2,220.2z"/>
		<path class="st3" d="M266.9,209.7h2.1v1.8h-2.1V209.7z M267,212.9h1.9v8.5H267V212.9z"/>
		<path class="st3" d="M271.9,219v-4.5h-1.1v-1.7h1.1v-2.3h1.9v2.3h2.3v1.7h-2.3v4.1c0,0.8,0.4,1.1,1,1.1c0.4,0,0.8-0.1,1.2-0.3v1.6
			c-0.5,0.3-1,0.4-1.7,0.4C272.9,221.5,271.9,220.8,271.9,219z"/>
		<path class="st3" d="M277.3,217.1L277.3,217.1c0-2.4,1.7-4.4,4.1-4.4c2.7,0,4,2.1,4,4.5c0,0.2,0,0.4,0,0.5h-6.2
			c0.2,1.4,1.2,2.1,2.4,2.1c0.9,0,1.6-0.4,2.3-1l1.1,1c-0.8,1-1.9,1.6-3.5,1.6C279.2,221.5,277.3,219.7,277.3,217.1z M283.6,216.5
			c-0.1-1.2-0.9-2.2-2.1-2.2c-1.2,0-2,0.9-2.2,2.2H283.6z"/>
		<path class="st3" d="M286.8,220.2l0.9-1.3c0.9,0.7,1.9,1,2.8,1c0.8,0,1.3-0.4,1.3-0.9v0c0-0.7-0.9-0.9-1.9-1.2
			c-1.2-0.4-2.6-0.9-2.6-2.5v0c0-1.6,1.3-2.6,3-2.6c1.1,0,2.2,0.4,3.1,1l-0.8,1.4c-0.8-0.5-1.7-0.8-2.4-0.8c-0.8,0-1.2,0.4-1.2,0.8
			v0c0,0.6,0.9,0.9,1.9,1.2c1.2,0.4,2.6,0.9,2.6,2.5v0c0,1.8-1.4,2.7-3.1,2.7C289.2,221.5,287.8,221,286.8,220.2z"/>
		<path class="st3" d="M295.5,209.7h2.1v1.8h-2.1V209.7z M295.6,212.9h1.9v8.5h-1.9V212.9z"/>
		<path class="st3" d="M300,212.9h2.1v2.2H300V212.9z M300,219.1h2.1v2.2H300V219.1z"/>
		<path class="st3" d="M306.1,212l-2,0.6l-0.4-1.6l3-1h1.4v11.3h-2V212z"/>
		<path class="st3" d="M310.7,219.1h2.1v2.2h-2.1V219.1z"/>
		<path class="st3" d="M314.7,219.8l1.2-1.4c0.9,0.8,1.8,1.3,2.9,1.3c1.3,0,2.2-0.8,2.2-1.9v0c0-1.1-1-1.9-2.3-1.9
			c-0.8,0-1.5,0.2-2.1,0.5l-1.2-0.8l0.3-5.5h6.7v1.7h-5l-0.2,2.6c0.5-0.2,1-0.3,1.8-0.3c2.2,0,3.9,1.2,3.9,3.5v0
			c0,2.3-1.7,3.8-4.1,3.8C317.1,221.5,315.7,220.8,314.7,219.8z"/>
		<path class="st3" d="M324.8,215.7L324.8,215.7c0-3.2,2-5.8,4.9-5.8c2.9,0,4.9,2.6,4.9,5.8v0c0,3.2-2,5.8-4.9,5.8
			S324.8,218.9,324.8,215.7z M332.5,215.7L332.5,215.7c0-2.2-1.1-4-2.9-4s-2.8,1.8-2.8,4v0c0,2.2,1.1,4,2.9,4
			C331.4,219.7,332.5,217.9,332.5,215.7z"/>
		<path class="st3" d="M336.4,215.7L336.4,215.7c0-3.2,2-5.8,4.9-5.8c2.9,0,4.9,2.6,4.9,5.8v0c0,3.2-2,5.8-4.9,5.8
			S336.4,218.9,336.4,215.7z M344.1,215.7L344.1,215.7c0-2.2-1.1-4-2.9-4s-2.8,1.8-2.8,4v0c0,2.2,1.1,4,2.9,4
			C343,219.7,344.1,217.9,344.1,215.7z"/>
		<path class="st3" d="M347.8,219.1h2.1v2.2h-2.1V219.1z"/>
		<path class="st3" d="M351.6,215.7L351.6,215.7c0-3.2,2-5.8,4.9-5.8c2.9,0,4.9,2.6,4.9,5.8v0c0,3.2-2,5.8-4.9,5.8
			S351.6,218.9,351.6,215.7z M359.4,215.7L359.4,215.7c0-2.2-1.1-4-2.9-4s-2.8,1.8-2.8,4v0c0,2.2,1.1,4,2.9,4
			C358.3,219.7,359.4,217.9,359.4,215.7z"/>
		<path class="st3" d="M363.2,215.7L363.2,215.7c0-3.2,2-5.8,4.9-5.8c2.9,0,4.9,2.6,4.9,5.8v0c0,3.2-2,5.8-4.9,5.8
			S363.2,218.9,363.2,215.7z M370.9,215.7L370.9,215.7c0-2.2-1.1-4-2.9-4s-2.8,1.8-2.8,4v0c0,2.2,1.1,4,2.9,4
			C369.9,219.7,370.9,217.9,370.9,215.7z"/>
		<path class="st3" d="M374.8,215.7L374.8,215.7c0-3.2,2-5.8,4.9-5.8c2.9,0,4.9,2.6,4.9,5.8v0c0,3.2-2,5.8-4.9,5.8
			S374.8,218.9,374.8,215.7z M382.5,215.7L382.5,215.7c0-2.2-1.1-4-2.9-4s-2.8,1.8-2.8,4v0c0,2.2,1.1,4,2.9,4
			C381.4,219.7,382.5,217.9,382.5,215.7z"/>
		<path class="st3" d="M391.7,210.1h2v5.6l5.3-5.6h2.4l-4.7,4.8l4.9,6.4h-2.4l-3.8-5l-1.7,1.8v3.2h-2V210.1z"/>
		<path class="st3" d="M403.1,209.7h2.1v1.8h-2.1V209.7z M403.2,212.9h1.9v8.5h-1.9V212.9z"/>
	</g>
	<g class="st18">
		<path class="st3" d="M408.3,223.2l1.3-1.9c-0.9-0.2-1.9-0.6-2.7-1.2l0.9-1.3c0.9,0.7,1.9,1,2.8,1c0.8,0,1.3-0.4,1.3-0.9v0
			c0-0.7-0.9-0.9-1.9-1.2c-1.2-0.4-2.6-0.9-2.6-2.5v0c0-1.6,1.3-2.6,3-2.6c1.1,0,2.2,0.4,3.1,1l-0.8,1.4c-0.8-0.5-1.7-0.8-2.4-0.8
			c-0.8,0-1.2,0.4-1.2,0.8v0c0,0.6,0.9,0.9,1.9,1.2c1.2,0.4,2.6,0.9,2.6,2.5v0c0,1.6-1.1,2.4-2.6,2.6L410,224L408.3,223.2z"/>
	</g>
	<g class="st18">
		<path class="st3" d="M415.6,209.7h2.1v1.8h-2.1V209.7z M415.7,212.9h1.9v8.5h-1.9V212.9z"/>
	</g>
</g>
<g>
	<defs>
		<rect id="SVGID_25_" y="233.2" width="519.2" height="41.2"/>
	</defs>
	<clipPath id="SVGID_26_">
		<use xlink:href="#SVGID_25_"  style="overflow:visible;"/>
	</clipPath>
	<rect x="21.6" y="235.2" class="st19" width="457" height="37.2"/>
	<rect x="21.6" y="235.2" class="st20" width="457" height="37.2"/>
</g>
<g>
	<defs>
		<rect id="SVGID_27_" x="2.4" y="229.4" width="514.4" height="48.7"/>
	</defs>
	<clipPath id="SVGID_28_">
		<use xlink:href="#SVGID_27_"  style="overflow:visible;"/>
	</clipPath>
	<g class="st21">
		<path class="st3" d="M113,247.1h4.4c2.6,0,4.3,1.5,4.3,3.7v0c0,2.5-2,3.8-4.5,3.8H115v3.6h-2V247.1z M117.3,252.9
			c1.5,0,2.4-0.8,2.4-2v0c0-1.3-0.9-2-2.4-2H115v4H117.3z"/>
		<path class="st3" d="M123.5,249.9h1.9v1.9c0.5-1.3,1.5-2.1,3-2.1v2h-0.1c-1.7,0-2.9,1.1-2.9,3.3v3.2h-1.9V249.9z"/>
		<path class="st3" d="M129.3,254.1L129.3,254.1c0-2.4,1.9-4.5,4.5-4.5s4.5,2,4.5,4.4v0c0,2.4-1.9,4.4-4.5,4.4
			C131.2,258.5,129.3,256.5,129.3,254.1z M136.4,254.1L136.4,254.1c0-1.5-1.1-2.8-2.6-2.8c-1.6,0-2.5,1.2-2.5,2.7v0
			c0,1.5,1.1,2.7,2.6,2.7C135.4,256.8,136.4,255.6,136.4,254.1z"/>
		<path class="st3" d="M139,260.8v-1.6c0.2,0,0.4,0,0.5,0c0.5,0,0.9-0.3,0.9-1v-8.5h1.9v8.6c0,1.7-0.9,2.5-2.5,2.5
			C139.5,260.9,139.3,260.9,139,260.8z M140.3,246.7h2.1v1.8h-2.1V246.7z"/>
		<path class="st3" d="M144.4,254.1L144.4,254.1c0-2.4,1.7-4.4,4.1-4.4c2.7,0,4,2.1,4,4.5c0,0.2,0,0.4,0,0.5h-6.2
			c0.2,1.4,1.2,2.1,2.4,2.1c0.9,0,1.6-0.4,2.3-1l1.1,1c-0.8,1-1.9,1.6-3.5,1.6C146.3,258.5,144.4,256.7,144.4,254.1z M150.7,253.5
			c-0.1-1.2-0.9-2.2-2.1-2.2c-1.2,0-2,0.9-2.2,2.2H150.7z"/>
		<path class="st3" d="M162.9,253.9l-4.4-6.8h2.3l3.1,5l3.2-5h2.3l-4.4,6.7v4.5h-2V253.9z"/>
		<path class="st3" d="M168.6,254.1L168.6,254.1c0-2.4,1.7-4.4,4.1-4.4c2.7,0,4,2.1,4,4.5c0,0.2,0,0.4,0,0.5h-6.2
			c0.2,1.4,1.2,2.1,2.4,2.1c0.9,0,1.6-0.4,2.3-1l1.1,1c-0.8,1-1.9,1.6-3.5,1.6C170.5,258.5,168.6,256.7,168.6,254.1z M174.9,253.5
			c-0.1-1.2-0.9-2.2-2.1-2.2c-1.2,0-2,0.9-2.2,2.2H174.9z"/>
		<path class="st3" d="M178.7,249.9h1.9v1.9c0.5-1.3,1.5-2.1,3-2.1v2h-0.1c-1.7,0-2.9,1.1-2.9,3.3v3.2h-1.9V249.9z"/>
		<path class="st3" d="M193.1,248.9h-3.6v-1.8h9.1v1.8h-3.6v9.4h-2V248.9z"/>
		<path class="st3" d="M198.2,254.1L198.2,254.1c0-2.4,1.7-4.4,4.1-4.4c2.7,0,4,2.1,4,4.5c0,0.2,0,0.4,0,0.5h-6.2
			c0.2,1.4,1.2,2.1,2.4,2.1c0.9,0,1.6-0.4,2.3-1l1.1,1c-0.8,1-1.9,1.6-3.5,1.6C200.1,258.5,198.2,256.7,198.2,254.1z M204.5,253.5
			c-0.1-1.2-0.9-2.2-2.1-2.2c-1.2,0-2,0.9-2.2,2.2H204.5z"/>
		<path class="st3" d="M207.7,257.2l0.9-1.3c0.9,0.7,1.9,1,2.8,1c0.8,0,1.3-0.4,1.3-0.9v0c0-0.7-0.9-0.9-1.9-1.2
			c-1.2-0.4-2.6-0.9-2.6-2.5v0c0-1.6,1.3-2.6,3-2.6c1.1,0,2.2,0.4,3.1,1l-0.8,1.4c-0.8-0.5-1.7-0.8-2.4-0.8c-0.8,0-1.2,0.4-1.2,0.8
			v0c0,0.6,0.9,0.9,1.9,1.2c1.2,0.4,2.6,0.9,2.6,2.5v0c0,1.8-1.4,2.7-3.1,2.7C210.1,258.5,208.7,258,207.7,257.2z"/>
		<path class="st3" d="M216.5,246.6h1.9v11.7h-1.9V246.6z"/>
		<path class="st3" d="M221,246.7h2.1v1.8H221V246.7z M221.1,249.9h1.9v8.5h-1.9V249.9z"/>
		<path class="st3" d="M225.5,249.9h1.9v1.3c0.5-0.8,1.3-1.5,2.6-1.5c1.2,0,2.1,0.6,2.5,1.5c0.7-0.9,1.6-1.5,2.9-1.5
			c1.8,0,3,1.2,3,3.2v5.4h-1.9v-4.8c0-1.3-0.6-2.1-1.7-2.1c-1.1,0-1.8,0.7-1.8,2.1v4.8H231v-4.8c0-1.3-0.6-2-1.7-2
			c-1.1,0-1.8,0.8-1.8,2.1v4.8h-1.9V249.9z"/>
		<path class="st3" d="M248.5,248.9h-3.6v-1.8h9.1v1.8h-3.6v9.4h-2V248.9z"/>
		<path class="st3" d="M259.2,258.3v-1c-0.6,0.7-1.5,1.2-2.7,1.2c-1.6,0-3-0.9-3-2.6v0c0-1.9,1.5-2.8,3.4-2.8c1,0,1.7,0.1,2.3,0.4
			v-0.2c0-1.2-0.7-1.8-2.1-1.8c-0.9,0-1.6,0.2-2.4,0.5l-0.5-1.6c0.9-0.4,1.8-0.7,3.2-0.7c2.5,0,3.7,1.3,3.7,3.6v5H259.2z
			 M259.3,254.8c-0.5-0.2-1.2-0.3-1.9-0.3c-1.2,0-1.9,0.5-1.9,1.3v0c0,0.8,0.7,1.2,1.6,1.2c1.3,0,2.2-0.7,2.2-1.8V254.8z"/>
		<path class="st3" d="M263.5,249.9h1.9v1.9c0.5-1.3,1.5-2.1,3-2.1v2h-0.1c-1.7,0-2.9,1.1-2.9,3.3v3.2h-1.9V249.9z"/>
		<path class="st3" d="M270.1,246.7h2.1v1.8h-2.1V246.7z M270.2,249.9h1.9v8.5h-1.9V249.9z"/>
		<path class="st3" d="M274.6,246.6h1.9v4.5c0.5-0.8,1.3-1.5,2.6-1.5c1.9,0,3,1.3,3,3.2v5.4h-1.9v-4.8c0-1.3-0.7-2.1-1.8-2.1
			c-1.1,0-1.9,0.8-1.9,2.1v4.8h-1.9V246.6z"/>
		<path class="st3" d="M284.6,246.7h2.1v1.8h-2.1V246.7z M284.7,249.9h1.9v8.5h-1.9V249.9z"/>
		<path class="st3" d="M289.1,249.9h2.1v2.2h-2.1V249.9z M289.1,256.1h2.1v2.2h-2.1V256.1z"/>
		<path class="st3" d="M301.4,248.9h-3.6v-1.8h9.1v1.8h-3.6v9.4h-2V248.9z"/>
		<path class="st3" d="M306.5,254.1L306.5,254.1c0-2.4,1.7-4.4,4.1-4.4c2.7,0,4,2.1,4,4.5c0,0.2,0,0.4,0,0.5h-6.2
			c0.2,1.4,1.2,2.1,2.4,2.1c0.9,0,1.6-0.4,2.3-1l1.1,1c-0.8,1-1.9,1.6-3.5,1.6C308.4,258.5,306.5,256.7,306.5,254.1z M312.7,253.5
			c-0.1-1.2-0.9-2.2-2.1-2.2c-1.2,0-2,0.9-2.2,2.2H312.7z"/>
		<path class="st3" d="M316.6,249.9h1.9v1.3c0.5-0.8,1.3-1.5,2.6-1.5c1.2,0,2.1,0.6,2.5,1.5c0.7-0.9,1.6-1.5,2.9-1.5
			c1.8,0,3,1.2,3,3.2v5.4h-1.9v-4.8c0-1.3-0.6-2.1-1.7-2.1c-1.1,0-1.8,0.7-1.8,2.1v4.8h-1.9v-4.8c0-1.3-0.6-2-1.7-2
			c-1.1,0-1.8,0.8-1.8,2.1v4.8h-1.9V249.9z"/>
		<path class="st3" d="M331.8,249.9h1.9v1.3c0.5-0.8,1.3-1.5,2.6-1.5c1.2,0,2.1,0.6,2.5,1.5c0.7-0.9,1.6-1.5,2.9-1.5
			c1.8,0,3,1.2,3,3.2v5.4h-1.9v-4.8c0-1.3-0.6-2.1-1.7-2.1c-1.1,0-1.8,0.7-1.8,2.1v4.8h-1.9v-4.8c0-1.3-0.6-2-1.7-2
			s-1.8,0.8-1.8,2.1v4.8h-1.9V249.9z"/>
		<path class="st3" d="M346.9,255.2v-5.4h1.9v4.8c0,1.3,0.7,2.1,1.8,2.1c1.1,0,1.9-0.8,1.9-2.1v-4.8h1.9v8.5h-1.9V257
			c-0.5,0.8-1.3,1.5-2.6,1.5C348,258.5,346.9,257.2,346.9,255.2z"/>
		<path class="st3" d="M356.5,257l4.9-5.5h-4.7v-1.6h7.2v1.3l-4.9,5.5h4.9v1.6h-7.3V257z"/>
		<path class="st3" d="M370.2,256.8l3.9-3.3c1.5-1.3,2.1-2,2.1-3c0-1.1-0.8-1.7-1.8-1.7c-1,0-1.7,0.6-2.6,1.7l-1.4-1.1
			c1.1-1.5,2.1-2.4,4.1-2.4c2.2,0,3.7,1.3,3.7,3.3v0c0,1.8-0.9,2.7-2.9,4.3l-2.3,1.9h5.3v1.7h-8.1V256.8z"/>
		<path class="st3" d="M380.2,252.7L380.2,252.7c0-3.2,2-5.8,4.9-5.8c2.9,0,4.9,2.6,4.9,5.8v0c0,3.2-2,5.8-4.9,5.8
			S380.2,255.9,380.2,252.7z M387.9,252.7L387.9,252.7c0-2.2-1.1-4-2.9-4s-2.8,1.8-2.8,4v0c0,2.2,1.1,4,2.9,4
			S387.9,254.9,387.9,252.7z"/>
		<path class="st3" d="M393.6,249l-2,0.6l-0.4-1.6l3-1h1.4v11.3h-2V249z"/>
		<path class="st3" d="M397.9,256.8l3.9-3.3c1.5-1.3,2.1-2,2.1-3c0-1.1-0.8-1.7-1.8-1.7s-1.7,0.6-2.6,1.7l-1.4-1.1
			c1.1-1.5,2.1-2.4,4.1-2.4c2.2,0,3.7,1.3,3.7,3.3v0c0,1.8-0.9,2.7-2.9,4.3l-2.3,1.9h5.3v1.7h-8.1V256.8z"/>
	</g>
</g>
<g>
	<defs>
		<rect id="SVGID_29_" x="0.5" y="271.1" width="519.2" height="41.2"/>
	</defs>
	<clipPath id="SVGID_30_">
		<use xlink:href="#SVGID_29_"  style="overflow:visible;"/>
	</clipPath>
	<rect x="21.6" y="273.1" class="st22" width="457" height="37.2"/>
	<rect x="21.6" y="273.1" class="st23" width="457" height="37.2"/>
</g>
<g>
	<defs>
		<rect id="SVGID_31_" x="3" y="249.6" width="514.4" height="84"/>
	</defs>
	<clipPath id="SVGID_32_">
		<use xlink:href="#SVGID_31_"  style="overflow:visible;"/>
	</clipPath>
	<g class="st24">
		<path class="st3" d="M75,286.1h4.4c2.6,0,4.3,1.5,4.3,3.7v0c0,2.5-2,3.8-4.5,3.8H77v3.6h-2V286.1z M79.3,291.9
			c1.5,0,2.4-0.8,2.4-2v0c0-1.3-0.9-2-2.4-2H77v4H79.3z"/>
		<path class="st3" d="M85.5,288.9h1.9v1.9c0.5-1.3,1.5-2.1,3-2.1v2h-0.1c-1.7,0-2.9,1.1-2.9,3.3v3.2h-1.9V288.9z"/>
		<path class="st3" d="M91.3,293.1L91.3,293.1c0-2.4,1.9-4.5,4.5-4.5s4.5,2,4.5,4.4v0c0,2.4-1.9,4.4-4.5,4.4
			C93.2,297.5,91.3,295.5,91.3,293.1z M98.4,293.1L98.4,293.1c0-1.5-1.1-2.8-2.6-2.8c-1.6,0-2.5,1.2-2.5,2.7v0
			c0,1.5,1.1,2.7,2.6,2.7C97.4,295.8,98.4,294.6,98.4,293.1z"/>
		<path class="st3" d="M101,299.8v-1.6c0.2,0,0.4,0,0.5,0c0.5,0,0.9-0.3,0.9-1v-8.5h1.9v8.6c0,1.7-0.9,2.5-2.5,2.5
			C101.5,299.9,101.3,299.9,101,299.8z M102.3,285.7h2.1v1.8h-2.1V285.7z"/>
		<path class="st3" d="M106.4,293.1L106.4,293.1c0-2.4,1.7-4.4,4.1-4.4c2.7,0,4,2.1,4,4.5c0,0.2,0,0.4,0,0.5h-6.2
			c0.2,1.4,1.2,2.1,2.4,2.1c0.9,0,1.6-0.4,2.3-1l1.1,1c-0.8,1-1.9,1.6-3.5,1.6C108.3,297.5,106.4,295.7,106.4,293.1z M112.7,292.5
			c-0.1-1.2-0.9-2.2-2.1-2.2c-1.2,0-2,0.9-2.2,2.2H112.7z"/>
		<path class="st3" d="M116.6,288.9h1.9v1.3c0.5-0.8,1.3-1.5,2.6-1.5c1.9,0,3,1.3,3,3.2v5.4h-1.9v-4.8c0-1.3-0.7-2.1-1.8-2.1
			c-1.1,0-1.9,0.8-1.9,2.1v4.8h-1.9V288.9z"/>
		<path class="st3" d="M126.5,285.7h2.1v1.8h-2.1V285.7z M126.6,288.9h1.9v8.5h-1.9V288.9z"/>
		<path class="st3" d="M131.1,288.9h1.9v1.3c0.5-0.8,1.3-1.5,2.6-1.5c1.9,0,3,1.3,3,3.2v5.4h-1.9v-4.8c0-1.3-0.7-2.1-1.8-2.1
			c-1.1,0-1.9,0.8-1.9,2.1v4.8h-1.9V288.9z"/>
		<path class="st3" d="M146.2,295v-4.5h-1.1v-1.7h1.1v-2.3h1.9v2.3h2.3v1.7h-2.3v4.1c0,0.8,0.4,1.1,1,1.1c0.4,0,0.8-0.1,1.2-0.3v1.6
			c-0.5,0.3-1,0.4-1.7,0.4C147.2,297.5,146.2,296.8,146.2,295z"/>
		<path class="st3" d="M151.6,293.1L151.6,293.1c0-2.4,1.7-4.4,4.1-4.4c2.7,0,4,2.1,4,4.5c0,0.2,0,0.4,0,0.5h-6.2
			c0.2,1.4,1.2,2.1,2.4,2.1c0.9,0,1.6-0.4,2.3-1l1.1,1c-0.8,1-1.9,1.6-3.5,1.6C153.5,297.5,151.6,295.7,151.6,293.1z M157.9,292.5
			c-0.1-1.2-0.9-2.2-2.1-2.2c-1.2,0-2,0.9-2.2,2.2H157.9z"/>
	</g>
	<g class="st24">
		<path class="st3" d="M162.5,299.2l1.3-1.9c-0.9-0.2-1.9-0.6-2.7-1.2l0.9-1.3c0.9,0.7,1.9,1,2.8,1c0.8,0,1.3-0.4,1.3-0.9v0
			c0-0.7-0.9-0.9-1.9-1.2c-1.2-0.4-2.6-0.9-2.6-2.5v0c0-1.6,1.3-2.6,3-2.6c1.1,0,2.2,0.4,3.1,1l-0.8,1.4c-0.8-0.5-1.7-0.8-2.4-0.8
			c-0.8,0-1.2,0.4-1.2,0.8v0c0,0.6,0.9,0.9,1.9,1.2c1.2,0.4,2.6,0.9,2.6,2.5v0c0,1.6-1.1,2.4-2.6,2.6l-1.1,2.5L162.5,299.2z"/>
	</g>
	<g class="st24">
		<path class="st3" d="M169.8,285.6h1.9v4.5c0.5-0.8,1.3-1.5,2.6-1.5c1.9,0,3,1.3,3,3.2v5.4h-1.9v-4.8c0-1.3-0.7-2.1-1.8-2.1
			c-1.1,0-1.9,0.8-1.9,2.1v4.8h-1.9V285.6z"/>
		<path class="st3" d="M179.7,285.7h2.1v1.8h-2.1V285.7z M179.8,288.9h1.9v8.5h-1.9V288.9z"/>
		<path class="st3" d="M184.3,288.9h1.9v1.9c0.5-1.3,1.5-2.1,3-2.1v2h-0.1c-1.7,0-2.9,1.1-2.9,3.3v3.2h-1.9V288.9z"/>
		<path class="st3" d="M196.1,295v-4.5H195v-1.7h1.1v-2.3h1.9v2.3h2.3v1.7H198v4.1c0,0.8,0.4,1.1,1,1.1c0.4,0,0.8-0.1,1.2-0.3v1.6
			c-0.5,0.3-1,0.4-1.7,0.4C197.1,297.5,196.1,296.8,196.1,295z"/>
		<path class="st3" d="M207.4,297.3v-1c-0.6,0.7-1.5,1.2-2.7,1.2c-1.6,0-3-0.9-3-2.6v0c0-1.9,1.5-2.8,3.4-2.8c1,0,1.7,0.1,2.3,0.4
			v-0.2c0-1.2-0.7-1.8-2.1-1.8c-0.9,0-1.6,0.2-2.4,0.5l-0.5-1.6c0.9-0.4,1.8-0.7,3.2-0.7c2.5,0,3.7,1.3,3.7,3.6v5H207.4z
			 M207.5,293.8c-0.5-0.2-1.2-0.3-1.9-0.3c-1.2,0-1.9,0.5-1.9,1.3v0c0,0.8,0.7,1.2,1.6,1.2c1.3,0,2.2-0.7,2.2-1.8V293.8z"/>
		<path class="st3" d="M211.6,288.9h1.9v1.3c0.5-0.8,1.3-1.5,2.6-1.5c1.9,0,3,1.3,3,3.2v5.4h-1.9v-4.8c0-1.3-0.7-2.1-1.8-2.1
			c-1.1,0-1.9,0.8-1.9,2.1v4.8h-1.9V288.9z"/>
		<path class="st3" d="M221.2,296l4.9-5.5h-4.7v-1.6h7.2v1.3l-4.9,5.5h4.9v1.6h-7.3V296z"/>
		<path class="st3" d="M230.5,285.7h2.1v1.8h-2.1V285.7z M230.6,288.9h1.9v8.5h-1.9V288.9z"/>
		<path class="st3" d="M235.1,288.9h1.9v1.3c0.5-0.8,1.3-1.5,2.6-1.5c1.2,0,2.1,0.6,2.5,1.5c0.7-0.9,1.6-1.5,2.9-1.5
			c1.8,0,3,1.2,3,3.2v5.4H246v-4.8c0-1.3-0.6-2.1-1.7-2.1c-1.1,0-1.8,0.7-1.8,2.1v4.8h-1.9v-4.8c0-1.3-0.6-2-1.7-2
			c-1.1,0-1.8,0.8-1.8,2.1v4.8h-1.9V288.9z"/>
		<path class="st3" d="M255.1,285.7h2.1v1.8h-2.1V285.7z M255.2,288.9h1.9v8.5h-1.9V288.9z"/>
	</g>
	<g class="st24">
		<path class="st3" d="M260.4,299.2l1.3-1.9c-0.9-0.2-1.9-0.6-2.7-1.2l0.9-1.3c0.9,0.7,1.9,1,2.8,1c0.8,0,1.3-0.4,1.3-0.9v0
			c0-0.7-0.9-0.9-1.9-1.2c-1.2-0.4-2.6-0.9-2.6-2.5v0c0-1.6,1.3-2.6,3-2.6c1.1,0,2.2,0.4,3.1,1l-0.8,1.4c-0.8-0.5-1.7-0.8-2.4-0.8
			c-0.8,0-1.2,0.4-1.2,0.8v0c0,0.6,0.9,0.9,1.9,1.2c1.2,0.4,2.6,0.9,2.6,2.5v0c0,1.6-1.1,2.4-2.6,2.6l-1.1,2.5L260.4,299.2z"/>
	</g>
	<g class="st24">
		<path class="st3" d="M267.8,285.6h1.9v11.7h-1.9V285.6z"/>
		<path class="st3" d="M271.8,293.1L271.8,293.1c0-2.4,1.7-4.4,4.1-4.4c2.7,0,4,2.1,4,4.5c0,0.2,0,0.4,0,0.5h-6.2
			c0.2,1.4,1.2,2.1,2.4,2.1c0.9,0,1.6-0.4,2.3-1l1.1,1c-0.8,1-1.9,1.6-3.5,1.6C273.7,297.5,271.8,295.7,271.8,293.1z M278,292.5
			c-0.1-1.2-0.9-2.2-2.1-2.2c-1.2,0-2,0.9-2.2,2.2H278z"/>
		<path class="st3" d="M281.9,288.9h1.9v1.9c0.5-1.3,1.5-2.1,3-2.1v2h-0.1c-1.7,0-2.9,1.1-2.9,3.3v3.2h-1.9V288.9z"/>
		<path class="st3" d="M288.6,285.7h2.1v1.8h-2.1V285.7z M288.6,288.9h1.9v8.5h-1.9V288.9z"/>
		<path class="st3" d="M297.5,293.1L297.5,293.1c0-2.8,1.9-4.4,3.9-4.4c1.4,0,2.3,0.7,2.9,1.5v-4.5h1.9v11.7h-1.9v-1.4
			c-0.6,0.9-1.5,1.6-2.9,1.6C299.4,297.5,297.5,295.9,297.5,293.1z M304.3,293.1L304.3,293.1c0-1.7-1.2-2.7-2.4-2.7
			c-1.3,0-2.4,1-2.4,2.7v0c0,1.6,1.1,2.7,2.4,2.7C303.2,295.8,304.3,294.7,304.3,293.1z"/>
		<path class="st3" d="M308.2,293.1L308.2,293.1c0-2.4,1.7-4.4,4.1-4.4c2.7,0,4,2.1,4,4.5c0,0.2,0,0.4,0,0.5h-6.2
			c0.2,1.4,1.2,2.1,2.4,2.1c0.9,0,1.6-0.4,2.3-1l1.1,1c-0.8,1-1.9,1.6-3.5,1.6C310,297.5,308.2,295.7,308.2,293.1z M314.4,292.5
			c-0.1-1.2-0.9-2.2-2.1-2.2c-1.2,0-2,0.9-2.2,2.2H314.4z"/>
		<path class="st3" d="M317.1,288.9h2.1l2.3,6.2l2.3-6.2h2l-3.5,8.5h-1.7L317.1,288.9z"/>
		<path class="st3" d="M332.2,297.3v-1c-0.6,0.7-1.5,1.2-2.7,1.2c-1.6,0-3-0.9-3-2.6v0c0-1.9,1.5-2.8,3.4-2.8c1,0,1.7,0.1,2.3,0.4
			v-0.2c0-1.2-0.7-1.8-2.1-1.8c-0.9,0-1.6,0.2-2.4,0.5l-0.5-1.6c0.9-0.4,1.8-0.7,3.2-0.7c2.5,0,3.7,1.3,3.7,3.6v5H332.2z
			 M332.3,293.8c-0.5-0.2-1.2-0.3-1.9-0.3c-1.2,0-1.9,0.5-1.9,1.3v0c0,0.8,0.7,1.2,1.6,1.2c1.3,0,2.2-0.7,2.2-1.8V293.8z"/>
		<path class="st3" d="M336.4,288.9h1.9v1.3c0.5-0.8,1.3-1.5,2.6-1.5c1.2,0,2.1,0.6,2.5,1.5c0.7-0.9,1.6-1.5,2.9-1.5
			c1.8,0,3,1.2,3,3.2v5.4h-1.9v-4.8c0-1.3-0.6-2.1-1.7-2.1c-1.1,0-1.8,0.7-1.8,2.1v4.8h-1.9v-4.8c0-1.3-0.6-2-1.7-2
			s-1.8,0.8-1.8,2.1v4.8h-1.9V288.9z"/>
		<path class="st3" d="M356,293.1L356,293.1c0-2.4,1.7-4.4,4.1-4.4c2.7,0,4,2.1,4,4.5c0,0.2,0,0.4,0,0.5h-6.2
			c0.2,1.4,1.2,2.1,2.4,2.1c0.9,0,1.6-0.4,2.3-1l1.1,1c-0.8,1-1.9,1.6-3.5,1.6C357.9,297.5,356,295.7,356,293.1z M362.2,292.5
			c-0.1-1.2-0.9-2.2-2.1-2.2c-1.2,0-2,0.9-2.2,2.2H362.2z"/>
		<path class="st3" d="M366.5,295v-4.5h-1.1v-1.7h1.1v-2.3h1.9v2.3h2.3v1.7h-2.3v4.1c0,0.8,0.4,1.1,1,1.1c0.4,0,0.8-0.1,1.2-0.3v1.6
			c-0.5,0.3-1,0.4-1.7,0.4C367.5,297.5,366.5,296.8,366.5,295z"/>
		<path class="st3" d="M372.7,288.9h1.9v1.3c0.5-0.8,1.3-1.5,2.6-1.5c1.2,0,2.1,0.6,2.5,1.5c0.7-0.9,1.6-1.5,2.9-1.5
			c1.8,0,3,1.2,3,3.2v5.4h-1.9v-4.8c0-1.3-0.6-2.1-1.7-2.1c-1.1,0-1.8,0.7-1.8,2.1v4.8h-1.9v-4.8c0-1.3-0.6-2-1.7-2
			c-1.1,0-1.8,0.8-1.8,2.1v4.8h-1.9V288.9z"/>
		<path class="st3" d="M387.4,293.1L387.4,293.1c0-2.4,1.7-4.4,4.1-4.4c2.7,0,4,2.1,4,4.5c0,0.2,0,0.4,0,0.5h-6.2
			c0.2,1.4,1.2,2.1,2.4,2.1c0.9,0,1.6-0.4,2.3-1l1.1,1c-0.8,1-1.9,1.6-3.5,1.6C389.3,297.5,387.4,295.7,387.4,293.1z M393.6,292.5
			c-0.1-1.2-0.9-2.2-2.1-2.2c-1.2,0-2,0.9-2.2,2.2H393.6z"/>
		<path class="st3" d="M397.5,285.6h1.9v7l3.5-3.7h2.4l-3.4,3.4l3.5,5h-2.2l-2.5-3.6l-1.2,1.2v2.4h-1.9V285.6z"/>
		<path class="st3" d="M407.1,295v-4.5H406v-1.7h1.1v-2.3h1.9v2.3h2.3v1.7H409v4.1c0,0.8,0.4,1.1,1,1.1c0.4,0,0.8-0.1,1.2-0.3v1.6
			c-0.5,0.3-1,0.4-1.7,0.4C408.1,297.5,407.1,296.8,407.1,295z"/>
		<path class="st3" d="M412.6,293.1L412.6,293.1c0-2.4,1.7-4.4,4.1-4.4c2.7,0,4,2.1,4,4.5c0,0.2,0,0.4,0,0.5h-6.2
			c0.2,1.4,1.2,2.1,2.4,2.1c0.9,0,1.6-0.4,2.3-1l1.1,1c-0.8,1-1.9,1.6-3.5,1.6C414.4,297.5,412.6,295.7,412.6,293.1z M418.8,292.5
			c-0.1-1.2-0.9-2.2-2.1-2.2c-1.2,0-2,0.9-2.2,2.2H418.8z"/>
		<path class="st3" d="M422.2,293.1L422.2,293.1c0-2.8,1.9-4.4,3.9-4.4c1.4,0,2.3,0.7,2.9,1.5v-4.5h1.9v11.7h-1.9v-1.4
			c-0.6,0.9-1.5,1.6-2.9,1.6C424.2,297.5,422.2,295.9,422.2,293.1z M429.1,293.1L429.1,293.1c0-1.7-1.2-2.7-2.4-2.7
			c-1.3,0-2.4,1-2.4,2.7v0c0,1.6,1.1,2.7,2.4,2.7C427.9,295.8,429.1,294.7,429.1,293.1z"/>
		<path class="st3" d="M433.4,285.7h2.1v1.8h-2.1V285.7z M433.5,288.9h1.9v8.5h-1.9V288.9z"/>
		<path class="st3" d="M438,288.9h1.9v1.9c0.5-1.3,1.5-2.1,3-2.1v2h-0.1c-1.7,0-2.9,1.1-2.9,3.3v3.2H438V288.9z"/>
		<path class="st3" d="M443,295.1h2.1v2.2H443V295.1z"/>
	</g>
</g>
<g>
	<defs>
		<rect id="SVGID_33_" x="0.5" y="310.1" width="519.2" height="41.2"/>
	</defs>
	<clipPath id="SVGID_34_">
		<use xlink:href="#SVGID_33_"  style="overflow:visible;"/>
	</clipPath>
	<rect x="21.6" y="312.1" class="st25" width="457" height="37.2"/>
	<rect x="21.6" y="312.1" class="st26" width="457" height="37.2"/>
</g>
<g>
	<defs>
		<rect id="SVGID_35_" x="3" y="288.6" width="514.4" height="84"/>
	</defs>
	<clipPath id="SVGID_36_">
		<use xlink:href="#SVGID_35_"  style="overflow:visible;"/>
	</clipPath>
	<g class="st27">
		<path class="st3" d="M57,325.1h4.4c2.6,0,4.3,1.5,4.3,3.7v0c0,2.5-2,3.8-4.5,3.8H59v3.6h-2V325.1z M61.3,330.9
			c1.5,0,2.4-0.8,2.4-2v0c0-1.3-0.9-2-2.4-2H59v4H61.3z"/>
		<path class="st3" d="M67.5,327.9h1.9v1.9c0.5-1.3,1.5-2.1,3-2.1v2h-0.1c-1.7,0-2.9,1.1-2.9,3.3v3.2h-1.9V327.9z"/>
		<path class="st3" d="M73.3,332.1L73.3,332.1c0-2.4,1.9-4.5,4.5-4.5s4.5,2,4.5,4.4v0c0,2.4-1.9,4.4-4.5,4.4
			C75.2,336.5,73.3,334.5,73.3,332.1z M80.4,332.1L80.4,332.1c0-1.5-1.1-2.8-2.6-2.8c-1.6,0-2.5,1.2-2.5,2.7v0
			c0,1.5,1.1,2.7,2.6,2.7C79.4,334.8,80.4,333.6,80.4,332.1z"/>
		<path class="st3" d="M83,338.8v-1.6c0.2,0,0.4,0,0.5,0c0.5,0,0.9-0.3,0.9-1v-8.5h1.9v8.6c0,1.7-0.9,2.5-2.5,2.5
			C83.5,338.9,83.3,338.9,83,338.8z M84.3,324.7h2.1v1.8h-2.1V324.7z"/>
		<path class="st3" d="M88.4,332.1L88.4,332.1c0-2.4,1.7-4.4,4.1-4.4c2.7,0,4,2.1,4,4.5c0,0.2,0,0.4,0,0.5h-6.2
			c0.2,1.4,1.2,2.1,2.4,2.1c0.9,0,1.6-0.4,2.3-1l1.1,1c-0.8,1-1.9,1.6-3.5,1.6C90.3,336.5,88.4,334.7,88.4,332.1z M94.7,331.5
			c-0.1-1.2-0.9-2.2-2.1-2.2c-1.2,0-2,0.9-2.2,2.2H94.7z"/>
		<path class="st3" d="M103.6,325.1h2v5.6l5.3-5.6h2.4l-4.7,4.8l4.9,6.4h-2.4l-3.8-5l-1.7,1.8v3.2h-2V325.1z"/>
		<path class="st3" d="M114.6,333.2v-5.4h1.9v4.8c0,1.3,0.7,2.1,1.8,2.1c1.1,0,1.9-0.8,1.9-2.1v-4.8h1.9v8.5h-1.9V335
			c-0.5,0.8-1.3,1.5-2.6,1.5C115.7,336.5,114.6,335.2,114.6,333.2z M115.8,324.9h2v1.9h-2V324.9z M118.9,324.9h2v1.9h-2V324.9z"/>
		<path class="st3" d="M124.7,324.6h1.9v11.7h-1.9V324.6z"/>
		<path class="st3" d="M129.5,334v-4.5h-1.1v-1.7h1.1v-2.3h1.9v2.3h2.3v1.7h-2.3v4.1c0,0.8,0.4,1.1,1,1.1c0.4,0,0.8-0.1,1.2-0.3v1.6
			c-0.5,0.3-1,0.4-1.7,0.4C130.6,336.5,129.5,335.8,129.5,334z"/>
		<path class="st3" d="M135.6,333.2v-5.4h1.9v4.8c0,1.3,0.7,2.1,1.8,2.1c1.1,0,1.9-0.8,1.9-2.1v-4.8h1.9v8.5h-1.9V335
			c-0.5,0.8-1.3,1.5-2.6,1.5C136.7,336.5,135.6,335.2,135.6,333.2z M136.8,324.9h2v1.9h-2V324.9z M140,324.9h2v1.9h-2V324.9z"/>
		<path class="st3" d="M145.6,327.9h1.9v1.9c0.5-1.3,1.5-2.1,3-2.1v2h-0.1c-1.7,0-2.9,1.1-2.9,3.3v3.2h-1.9V327.9z"/>
		<path class="st3" d="M160,326.9h-3.6v-1.8h9.1v1.8H162v9.4h-2V326.9z"/>
		<path class="st3" d="M166.3,333.2v-5.4h1.9v4.8c0,1.3,0.7,2.1,1.8,2.1c1.1,0,1.9-0.8,1.9-2.1v-4.8h1.9v8.5h-1.9V335
			c-0.5,0.8-1.3,1.5-2.6,1.5C167.4,336.5,166.3,335.2,166.3,333.2z"/>
		<path class="st3" d="M176.3,327.9h1.9v1.9c0.5-1.3,1.5-2.1,3-2.1v2h-0.1c-1.7,0-2.9,1.1-2.9,3.3v3.2h-1.9V327.9z"/>
		<path class="st3" d="M182.9,324.7h2.1v1.8h-2.1V324.7z M183,327.9h1.9v8.5H183V327.9z"/>
		<path class="st3" d="M187.1,335l4.9-5.5h-4.7v-1.6h7.2v1.3l-4.9,5.5h4.9v1.6h-7.3V335z"/>
		<path class="st3" d="M196.4,327.9h1.9v1.3c0.5-0.8,1.3-1.5,2.6-1.5c1.2,0,2.1,0.6,2.5,1.5c0.7-0.9,1.6-1.5,2.9-1.5
			c1.8,0,3,1.2,3,3.2v5.4h-1.9v-4.8c0-1.3-0.6-2.1-1.7-2.1c-1.1,0-1.8,0.7-1.8,2.1v4.8h-1.9v-4.8c0-1.3-0.6-2-1.7-2
			c-1.1,0-1.8,0.8-1.8,2.1v4.8h-1.9V327.9z"/>
	</g>
	<g class="st27">
		<path class="st3" d="M216.7,322.4h2v1.8h-2V322.4z M216.7,325.1h2v11.2h-2V325.1z"/>
	</g>
	<g class="st27">
		<path class="st3" d="M221.6,324.6h1.9v11.7h-1.9V324.6z"/>
		<path class="st3" d="M231.1,325.1h2.1l3.4,5.3l3.4-5.3h2.1v11.2h-2v-8l-3.5,5.3h-0.1l-3.5-5.2v8h-1.9V325.1z"/>
		<path class="st3" d="M244.7,333.2v-5.4h1.9v4.8c0,1.3,0.7,2.1,1.8,2.1c1.1,0,1.9-0.8,1.9-2.1v-4.8h1.9v8.5h-1.9V335
			c-0.5,0.8-1.3,1.5-2.6,1.5C245.8,336.5,244.7,335.2,244.7,333.2z M245.9,324.9h2v1.9h-2V324.9z M249,324.9h2v1.9h-2V324.9z"/>
		<path class="st3" d="M254.2,332.1L254.2,332.1c0-2.8,1.9-4.4,3.9-4.4c1.4,0,2.3,0.7,2.9,1.5v-4.5h1.9v11.7H261v-1.4
			c-0.6,0.9-1.5,1.6-2.9,1.6C256.2,336.5,254.2,334.9,254.2,332.1z M261.1,332.1L261.1,332.1c0-1.7-1.2-2.7-2.4-2.7
			c-1.3,0-2.4,1-2.4,2.7v0c0,1.6,1.1,2.7,2.4,2.7C259.9,334.8,261.1,333.7,261.1,332.1z"/>
		<path class="st3" d="M265.3,333.2v-5.4h1.9v4.8c0,1.3,0.7,2.1,1.8,2.1c1.1,0,1.9-0.8,1.9-2.1v-4.8h1.9v8.5h-1.9V335
			c-0.5,0.8-1.3,1.5-2.6,1.5C266.4,336.5,265.3,335.2,265.3,333.2z M266.5,324.9h2v1.9h-2V324.9z M269.6,324.9h2v1.9h-2V324.9z"/>
		<path class="st3" d="M275.3,327.9h1.9v1.9c0.5-1.3,1.5-2.1,3-2.1v2h-0.1c-1.7,0-2.9,1.1-2.9,3.3v3.2h-1.9V327.9z"/>
		<path class="st3" d="M282,324.6h1.9v11.7H282V324.6z"/>
		<path class="st3" d="M286.4,333.2v-5.4h1.9v4.8c0,1.3,0.7,2.1,1.8,2.1c1.1,0,1.9-0.8,1.9-2.1v-4.8h1.9v8.5H292V335
			c-0.5,0.8-1.3,1.5-2.6,1.5C287.5,336.5,286.4,335.2,286.4,333.2z M287.6,324.9h2v1.9h-2V324.9z M290.7,324.9h2v1.9h-2V324.9z"/>
	</g>
	<g class="st27">
		<path class="st3" d="M296.4,337.9l0.7-1.5c0.9,0.6,1.9,0.9,3,0.9c1.7,0,2.7-0.9,2.7-2.6v-0.7c-0.7,0.9-1.6,1.6-3,1.6
			c-2,0-3.8-1.5-3.8-4v0c0-2.5,1.9-4,3.8-4c1.4,0,2.3,0.7,3,1.4v-1.3h1.9v6.7c0,1.4-0.4,2.5-1.1,3.2c-0.8,0.8-2,1.1-3.5,1.1
			C298.8,338.9,297.5,338.6,296.4,337.9z M297.9,324.5h1.3c0.2,0.6,0.6,1,1.4,1c0.8,0,1.2-0.4,1.4-1h1.3c-0.1,1.5-1.2,2.3-2.8,2.3
			S298,326,297.9,324.5z M302.8,331.7L302.8,331.7c0-1.4-1.1-2.4-2.5-2.4c-1.3,0-2.4,0.9-2.4,2.3v0c0,1.4,1.1,2.3,2.4,2.3
			C301.7,334,302.8,333,302.8,331.7z"/>
	</g>
	<g class="st27">
		<path class="st3" d="M307.1,333.2v-5.4h1.9v4.8c0,1.3,0.7,2.1,1.8,2.1c1.1,0,1.9-0.8,1.9-2.1v-4.8h1.9v8.5h-1.9V335
			c-0.5,0.8-1.3,1.5-2.6,1.5C308.2,336.5,307.1,335.2,307.1,333.2z M308.3,324.9h2v1.9h-2V324.9z M311.4,324.9h2v1.9h-2V324.9z"/>
		<path class="st3" d="M317.1,327.9h1.9v1.3c0.5-0.8,1.3-1.5,2.6-1.5c1.9,0,3,1.3,3,3.2v5.4h-1.9v-4.8c0-1.3-0.7-2.1-1.8-2.1
			c-1.1,0-1.9,0.8-1.9,2.1v4.8h-1.9V327.9z"/>
		<path class="st3" d="M326.5,332.1L326.5,332.1c0-2.4,1.7-4.4,4.1-4.4c2.7,0,4,2.1,4,4.5c0,0.2,0,0.4,0,0.5h-6.2
			c0.2,1.4,1.2,2.1,2.4,2.1c0.9,0,1.6-0.4,2.3-1l1.1,1c-0.8,1-1.9,1.6-3.5,1.6C328.4,336.5,326.5,334.7,326.5,332.1z M332.8,331.5
			c-0.1-1.2-0.9-2.2-2.1-2.2c-1.2,0-2,0.9-2.2,2.2H332.8z"/>
		<path class="st3" d="M341.7,325.1h4.2c3.5,0,6,2.4,6,5.6v0c0,3.2-2.4,5.6-6,5.6h-4.2V325.1z M345.9,334.5c2.4,0,3.9-1.6,3.9-3.8v0
			c0-2.2-1.5-3.8-3.9-3.8h-2.2v7.6H345.9z"/>
		<path class="st3" d="M353.5,332.1L353.5,332.1c0-2.4,1.7-4.4,4.1-4.4c2.7,0,4,2.1,4,4.5c0,0.2,0,0.4,0,0.5h-6.2
			c0.2,1.4,1.2,2.1,2.4,2.1c0.9,0,1.6-0.4,2.3-1l1.1,1c-0.8,1-1.9,1.6-3.5,1.6C355.4,336.5,353.5,334.7,353.5,332.1z M359.8,331.5
			c-0.1-1.2-0.9-2.2-2.1-2.2c-1.2,0-2,0.9-2.2,2.2H359.8z"/>
		<path class="st3" d="M362.4,327.9h2.1l2.3,6.2l2.3-6.2h2l-3.5,8.5h-1.7L362.4,327.9z"/>
		<path class="st3" d="M372.8,327.9h1.9v1.9c0.5-1.3,1.5-2.1,3-2.1v2h-0.1c-1.7,0-2.9,1.1-2.9,3.3v3.2h-1.9V327.9z"/>
		<path class="st3" d="M378.6,332.1L378.6,332.1c0-2.4,1.7-4.4,4.1-4.4c2.7,0,4.1,2.1,4.1,4.5c0,0.2,0,0.4,0,0.5h-6.2
			c0.2,1.4,1.2,2.1,2.4,2.1c0.9,0,1.6-0.4,2.3-1l1.1,1c-0.8,1-1.9,1.6-3.5,1.6C380.5,336.5,378.6,334.7,378.6,332.1z M384.9,331.5
			c-0.1-1.2-0.9-2.2-2.1-2.2c-1.2,0-2,0.9-2.2,2.2H384.9z"/>
		<path class="st3" d="M388.3,332.1L388.3,332.1c0-2.8,1.9-4.4,3.9-4.4c1.4,0,2.3,0.7,2.9,1.5v-4.5h1.9v11.7h-1.9v-1.4
			c-0.6,0.9-1.5,1.6-2.9,1.6C390.3,336.5,388.3,334.9,388.3,332.1z M395.2,332.1L395.2,332.1c0-1.7-1.2-2.7-2.4-2.7
			c-1.3,0-2.4,1-2.4,2.7v0c0,1.6,1.1,2.7,2.4,2.7C394,334.8,395.2,333.7,395.2,332.1z"/>
		<path class="st3" d="M399.5,324.7h2.1v1.8h-2.1V324.7z M399.6,327.9h1.9v8.5h-1.9V327.9z"/>
		<path class="st3" d="M404.2,324.6h1.9v11.7h-1.9V324.6z"/>
		<path class="st3" d="M408.2,332.1L408.2,332.1c0-2.4,1.7-4.4,4.1-4.4c2.7,0,4,2.1,4,4.5c0,0.2,0,0.4,0,0.5h-6.2
			c0.2,1.4,1.2,2.1,2.4,2.1c0.9,0,1.6-0.4,2.3-1l1.1,1c-0.8,1-1.9,1.6-3.5,1.6C410.1,336.5,408.2,334.7,408.2,332.1z M414.4,331.5
			c-0.1-1.2-0.9-2.2-2.1-2.2c-1.2,0-2,0.9-2.2,2.2H414.4z"/>
		<path class="st3" d="M417.8,332.1L417.8,332.1c0-2.4,1.9-4.5,4.4-4.5c1.6,0,2.6,0.6,3.4,1.5l-1.2,1.3c-0.6-0.6-1.2-1.1-2.2-1.1
			c-1.4,0-2.4,1.2-2.4,2.7v0c0,1.5,1,2.7,2.5,2.7c0.9,0,1.6-0.4,2.2-1.1l1.2,1.2c-0.8,0.9-1.8,1.6-3.5,1.6
			C419.7,336.5,417.8,334.5,417.8,332.1z"/>
		<path class="st3" d="M426.7,332.1L426.7,332.1c0-2.4,1.7-4.4,4.1-4.4c2.7,0,4,2.1,4,4.5c0,0.2,0,0.4,0,0.5h-6.2
			c0.2,1.4,1.2,2.1,2.4,2.1c0.9,0,1.6-0.4,2.3-1l1.1,1c-0.8,1-1.9,1.6-3.5,1.6C428.6,336.5,426.7,334.7,426.7,332.1z M433,331.5
			c-0.1-1.2-0.9-2.2-2.1-2.2c-1.2,0-2,0.9-2.2,2.2H433z"/>
		<path class="st3" d="M436.9,324.6h1.9v7l3.5-3.7h2.4l-3.4,3.4l3.5,5h-2.2l-2.5-3.6l-1.2,1.2v2.4h-1.9V324.6z"/>
		<path class="st3" d="M446.4,334v-4.5h-1.1v-1.7h1.1v-2.3h1.9v2.3h2.3v1.7h-2.3v4.1c0,0.8,0.4,1.1,1,1.1c0.4,0,0.8-0.1,1.2-0.3v1.6
			c-0.5,0.3-1,0.4-1.7,0.4C447.4,336.5,446.4,335.8,446.4,334z"/>
		<path class="st3" d="M452.6,324.7h2.1v1.8h-2.1V324.7z M452.7,327.9h1.9v8.5h-1.9V327.9z"/>
		<path class="st3" d="M457.2,327.9h1.9v1.9c0.5-1.3,1.5-2.1,3-2.1v2H462c-1.7,0-2.9,1.1-2.9,3.3v3.2h-1.9V327.9z"/>
		<path class="st3" d="M462.2,334.1h2.1v2.2h-2.1V334.1z"/>
	</g>
</g>
</svg>
