<!-- Generator: Adobe Illustrator 21.0.2, SVG Export Plug-In  -->
<svg version="1.1"
	 xmlns="http://www.w3.org/2000/svg" xmlns:xlink="http://www.w3.org/1999/xlink" xmlns:a="http://ns.adobe.com/AdobeSVGViewerExtensions/3.0/"
	 x="0px" y="0px" width="47.9px" height="47.9px" viewBox="0 0 47.9 47.9" style="enable-background:new 0 0 47.9 47.9;"
	 xml:space="preserve">
<style type="text/css">
	.st0{fill:#FFFFFF;stroke:#000000;stroke-miterlimit:10;}
</style>
<defs>
</defs>
<g>
	<g>
		<path class="st0" d="M44.3,10c1.9-2.6,3.1-5.2,3.1-7.2c0-0.6-0.1-1.1-0.4-1.5c0,0-0.1-0.2-0.2-0.3c-0.1-0.1-0.2-0.2-0.3-0.2
			c-0.4-0.3-0.9-0.4-1.5-0.4c-1.9,0-4.6,1.2-7.2,3.1c-2.1,1.6-4.2,3.8-7,6.8c-0.5,0.5-1,1.1-1.6,1.6l-5.6-1.7l0,0
			c0.2-0.2,0.4-0.6,0.4-0.9c0-0.3-0.1-0.7-0.4-0.9l-1-1c-0.2-0.2-0.6-0.4-0.9-0.4c-0.3,0-0.7,0.1-0.9,0.4L19.4,9l-0.8-0.2
			c0.2-0.2,0.3-0.5,0.3-0.8c0-0.3-0.1-0.7-0.4-0.9l-1-1c-0.2-0.2-0.6-0.4-0.9-0.4S16,5.9,15.8,6.1l-1.4,1.4L8.7,5.8
			c-0.1,0-0.3-0.1-0.4-0.1c-0.4,0-0.8,0.2-1.1,0.4l-2,2C5,8.4,4.9,8.7,4.9,9c0,0.4,0.2,0.8,0.6,1l11.9,6.7c0.1,0,0.2,0.2,0.3,0.2
			l3.4,3.4c-3.2,3.4-6,6.6-8.2,9.4c-0.2,0.3-0.4,0.5-0.6,0.8l-9.2-0.8c0,0-0.1,0-0.2,0c-0.4,0-0.8,0.2-1.1,0.5l-0.9,0.9
			c-0.2,0.2-0.4,0.5-0.4,0.8c0,0.4,0.3,0.9,0.7,1L7.7,36c0.1,0,0.2,0.1,0.2,0.2l0.5,0.5c-0.2,0.5-0.3,0.9-0.3,1.2
			c0,0.5,0.2,0.9,0.5,1.2l0,0l0,0c0.3,0.3,0.7,0.4,1.2,0.4c0.4,0,0.8-0.1,1.2-0.3l0.5,0.5c0,0,0.1,0.2,0.2,0.2l3.1,6.5
			c0.2,0.4,0.6,0.7,1,0.7h0c0.3,0,0.6-0.1,0.8-0.3l1-1c0.3-0.3,0.4-0.7,0.5-1.1c0-0.1,0-0.1,0-0.1l-0.8-9.3c0.3-0.2,0.5-0.4,0.8-0.6
			c2.8-2.2,6.1-5.1,9.4-8.2l3.4,3.4c0.1,0.1,0.2,0.2,0.2,0.3l6.7,11.9c0.2,0.4,0.6,0.6,1,0.6c0.3,0,0.6-0.1,0.8-0.4l2-2
			c0.3-0.3,0.4-0.6,0.4-1c0-0.1,0-0.3-0.1-0.4l-1.7-5.7l1.4-1.4c0.2-0.2,0.4-0.6,0.4-0.9c0-0.3-0.1-0.6-0.4-0.9l-1-1
			c-0.2-0.2-0.6-0.4-0.9-0.4c-0.3,0-0.6,0.1-0.8,0.3l-0.2-0.8l1.5-1.5c0.2-0.2,0.4-0.6,0.4-0.9s-0.1-0.6-0.4-0.9l-1-1
			c-0.2-0.2-0.6-0.4-0.9-0.4c-0.3,0-0.7,0.1-0.9,0.4l0,0l-1.7-5.6c0.6-0.6,1.1-1.1,1.6-1.6C40.5,14.1,42.7,12,44.3,10L44.3,10z
			 M44.3,10"/>
	</g>
</g>
</svg>
