<!-- Generator: Adobe Illustrator 21.0.2, SVG Export Plug-In  -->
<svg version="1.1"
	 xmlns="http://www.w3.org/2000/svg" xmlns:xlink="http://www.w3.org/1999/xlink" xmlns:a="http://ns.adobe.com/AdobeSVGViewerExtensions/3.0/"
	 x="0px" y="0px" width="312.7px" height="218.3px" viewBox="0 0 312.7 218.3" style="enable-background:new 0 0 312.7 218.3;"
	 xml:space="preserve">
<style type="text/css">
	.st0{clip-path:url(#SVGID_2_);fill:#4F81BD;}
	.st1{clip-path:url(#SVGID_2_);fill:none;stroke:#FFFFFF;stroke-width:2;stroke-linejoin:round;}
	.st2{clip-path:url(#SVGID_4_);}
	.st3{fill:#FFFFFF;}
	.st4{font-family:'Gotham-Medium';}
	.st5{font-size:16px;}
	.st6{letter-spacing:-1;}
	.st7{clip-path:url(#SVGID_6_);fill:#4F81BD;}
	.st8{clip-path:url(#SVGID_6_);fill:none;stroke:#FFFFFF;stroke-width:2;stroke-linejoin:round;}
	.st9{clip-path:url(#SVGID_8_);}
	.st10{clip-path:url(#SVGID_10_);fill:#4F81BD;}
	.st11{clip-path:url(#SVGID_10_);fill:none;stroke:#FFFFFF;stroke-width:2;stroke-linejoin:round;}
	.st12{clip-path:url(#SVGID_12_);}
	.st13{clip-path:url(#SVGID_14_);fill:#4F81BD;}
	.st14{clip-path:url(#SVGID_14_);fill:none;stroke:#FFFFFF;stroke-width:2;stroke-linejoin:round;}
	.st15{clip-path:url(#SVGID_16_);}
	.st16{clip-path:url(#SVGID_18_);fill:#4F81BD;}
	.st17{clip-path:url(#SVGID_18_);fill:none;stroke:#FFFFFF;stroke-width:2;stroke-linejoin:round;}
	.st18{clip-path:url(#SVGID_20_);}
	.st19{clip-path:url(#SVGID_22_);fill:#4F81BD;}
	.st20{clip-path:url(#SVGID_22_);fill:none;stroke:#FFFFFF;stroke-width:2;stroke-linejoin:round;}
	.st21{clip-path:url(#SVGID_24_);}
	.st22{clip-path:url(#SVGID_26_);fill:#4F81BD;}
	.st23{clip-path:url(#SVGID_26_);fill:none;stroke:#FFFFFF;stroke-width:2;stroke-linejoin:round;}
	.st24{clip-path:url(#SVGID_28_);}
	.st25{clip-path:url(#SVGID_30_);fill:#4F81BD;}
	.st26{clip-path:url(#SVGID_30_);fill:none;stroke:#FFFFFF;stroke-width:2;stroke-linejoin:round;}
	.st27{clip-path:url(#SVGID_32_);}
	.st28{clip-path:url(#SVGID_34_);fill:#4F81BD;}
	.st29{clip-path:url(#SVGID_34_);fill:none;stroke:#FFFFFF;stroke-width:2;stroke-linejoin:round;}
	.st30{clip-path:url(#SVGID_36_);}
	.st31{clip-path:url(#SVGID_38_);fill:#4F81BD;}
	.st32{clip-path:url(#SVGID_38_);fill:none;stroke:#FFFFFF;stroke-width:2;stroke-linejoin:round;}
	.st33{clip-path:url(#SVGID_40_);}
</style>
<defs>
</defs>
<g>
	<defs>
		<rect id="SVGID_1_" x="1" width="305.7" height="40"/>
	</defs>
	<clipPath id="SVGID_2_">
		<use xlink:href="#SVGID_1_"  style="overflow:visible;"/>
	</clipPath>
	<path class="st0" d="M3,35.3V4.7C3,3.2,4.3,2,5.7,2h296.3c1.5,0,2.7,1.2,2.7,2.7v30.6c0,1.5-1.2,2.7-2.7,2.7H5.7
		C4.3,38,3,36.8,3,35.3z"/>
	<path class="st1" d="M3,35.3V4.7C3,3.2,4.3,2,5.7,2h296.3c1.5,0,2.7,1.2,2.7,2.7v30.6c0,1.5-1.2,2.7-2.7,2.7H5.7
		C4.3,38,3,36.8,3,35.3z"/>
</g>
<g>
	<defs>
		<rect id="SVGID_3_" x="3.4" y="8.1" width="301" height="27"/>
	</defs>
	<clipPath id="SVGID_4_">
		<use xlink:href="#SVGID_3_"  style="overflow:visible;"/>
	</clipPath>
	<g class="st2">
		<text transform="matrix(1 0 0 1 46.2918 24.3284)"><tspan x="0" y="0" class="st3 st4 st5">P</tspan><tspan x="10.7" y="0" class="st3 st4 st5">r</tspan><tspan x="17" y="0" class="st3 st4 st5">oje Bü</tspan><tspan x="68" y="0" class="st3 st4 st5">tç</tspan><tspan x="83.3" y="0" class="st3 st4 st5">esi:4.</tspan><tspan x="125.2" y="0" class="st3 st4 st5">8</tspan><tspan x="135.1" y="0" class="st3 st4 st5 st6">7</tspan><tspan x="143.5" y="0" class="st3 st4 st5">4.420 TL</tspan></text>
	</g>
</g>
<g>
	<defs>
		<rect id="SVGID_5_" x="1" y="42.2" width="305.7" height="40"/>
	</defs>
	<clipPath id="SVGID_6_">
		<use xlink:href="#SVGID_5_"  style="overflow:visible;"/>
	</clipPath>
	<path class="st7" d="M3,77.5V46.9c0-1.5,1.2-2.7,2.7-2.7h296.3c1.5,0,2.7,1.2,2.7,2.7v30.6c0,1.5-1.2,2.7-2.7,2.7H5.7
		C4.3,80.2,3,79,3,77.5z"/>
	<path class="st8" d="M3,77.5V46.9c0-1.5,1.2-2.7,2.7-2.7h296.3c1.5,0,2.7,1.2,2.7,2.7v30.6c0,1.5-1.2,2.7-2.7,2.7H5.7
		C4.3,80.2,3,79,3,77.5z"/>
</g>
<g>
	<defs>
		<rect id="SVGID_7_" x="3.4" y="50.3" width="301" height="27"/>
	</defs>
	<clipPath id="SVGID_8_">
		<use xlink:href="#SVGID_7_"  style="overflow:visible;"/>
	</clipPath>
	<g class="st9">
		<text transform="matrix(1 0 0 1 31.2918 67.3284)"><tspan x="0" y="0" class="st3 st4 st5 st6">T</tspan><tspan x="8.5" y="0" class="st3 st4 st5">oplam Ha</tspan><tspan x="85.3" y="0" class="st3 st4 st5">r</tspan><tspan x="91.6" y="0" class="st3 st4 st5">cama:4.</tspan><tspan x="154.4" y="0" class="st3 st4 st5">8</tspan><tspan x="164.3" y="0" class="st3 st4 st5 st6">7</tspan><tspan x="172.7" y="0" class="st3 st4 st5">4.420 TL</tspan></text>
	</g>
</g>
<g>
	<defs>
		<rect id="SVGID_9_" x="1" y="84" width="305.7" height="40"/>
	</defs>
	<clipPath id="SVGID_10_">
		<use xlink:href="#SVGID_9_"  style="overflow:visible;"/>
	</clipPath>
	<path class="st10" d="M3,119.3V88.7C3,87.2,4.3,86,5.7,86h296.3c1.5,0,2.7,1.2,2.7,2.7v30.6c0,1.5-1.2,2.7-2.7,2.7H5.7
		C4.3,122,3,120.8,3,119.3z"/>
	<path class="st11" d="M3,119.3V88.7C3,87.2,4.3,86,5.7,86h296.3c1.5,0,2.7,1.2,2.7,2.7v30.6c0,1.5-1.2,2.7-2.7,2.7H5.7
		C4.3,122,3,120.8,3,119.3z"/>
</g>
<g>
	<defs>
		<rect id="SVGID_11_" x="3.4" y="92.1" width="301" height="27"/>
	</defs>
	<clipPath id="SVGID_12_">
		<use xlink:href="#SVGID_11_"  style="overflow:visible;"/>
	</clipPath>
	<g class="st12">
		<text transform="matrix(1 0 0 1 65.2918 108.3284)"><tspan x="0" y="0" class="st3 st4 st5">P</tspan><tspan x="10.7" y="0" class="st3 st4 st5">r</tspan><tspan x="17" y="0" class="st3 st4 st5">oje </tspan><tspan x="46.6" y="0" class="st3 st4 st5 st6">Y</tspan><tspan x="56.3" y="0" class="st3 st4 st5">eri: G</tspan><tspan x="98.9" y="0" class="st3 st4 st5">ev</tspan><tspan x="117.3" y="0" class="st3 st4 st5">a</tspan></text>
	</g>
	<g class="st12">
		<text transform="matrix(1 0 0 1 191.9798 108.3284)" class="st3 st4 st5">ş</text>
	</g>
	<g class="st12">
		<text transform="matrix(1 0 0 1 199.9959 108.3284)"><tspan x="0" y="0" class="st3 st4 st5">-</tspan><tspan x="5.9" y="0" class="st3 st4 st5 st6">V</tspan><tspan x="16.3" y="0" class="st3 st4 st5">AN</tspan></text>
	</g>
</g>
<g>
	<defs>
		<rect id="SVGID_13_" x="1" y="126.2" width="305.7" height="40"/>
	</defs>
	<clipPath id="SVGID_14_">
		<use xlink:href="#SVGID_13_"  style="overflow:visible;"/>
	</clipPath>
	<path class="st13" d="M3,161.5v-30.6c0-1.5,1.2-2.7,2.7-2.7h296.3c1.5,0,2.7,1.2,2.7,2.7v30.6c0,1.5-1.2,2.7-2.7,2.7H5.7
		C4.3,164.2,3,163,3,161.5z"/>
	<path class="st14" d="M3,161.5v-30.6c0-1.5,1.2-2.7,2.7-2.7h296.3c1.5,0,2.7,1.2,2.7,2.7v30.6c0,1.5-1.2,2.7-2.7,2.7H5.7
		C4.3,164.2,3,163,3,161.5z"/>
</g>
<g>
	<defs>
		<rect id="SVGID_15_" x="3.4" y="134.3" width="301" height="27"/>
	</defs>
	<clipPath id="SVGID_16_">
		<use xlink:href="#SVGID_15_"  style="overflow:visible;"/>
	</clipPath>
	<g class="st15">
		<text transform="matrix(1 0 0 1 66.2918 151.3284)"><tspan x="0" y="0" class="st3 st4 st5">P</tspan><tspan x="10.7" y="0" class="st3 st4 st5">r</tspan><tspan x="17" y="0" class="st3 st4 st5">oje tamamlanmı</tspan></text>
	</g>
	<g class="st15">
		<text transform="matrix(1 0 0 1 212.2596 151.3284)" class="st3 st4 st5">ş</text>
	</g>
	<g class="st15">
		<text transform="matrix(1 0 0 1 220.116 151.3284)"><tspan x="0" y="0" class="st3 st4 st5">tı</tspan><tspan x="11.1" y="0" class="st3 st4 st5 st6">r</tspan><tspan x="16.3" y="0" class="st3 st4 st5">.</tspan></text>
	</g>
</g>
<g>
	<defs>
		<rect id="SVGID_17_" y="172.7" width="312.7" height="40.8"/>
	</defs>
	<clipPath id="SVGID_18_">
		<use xlink:href="#SVGID_17_"  style="overflow:visible;"/>
	</clipPath>
	<path class="st16" d="M2,208.8v-31.3c0-1.5,1.2-2.8,2.8-2.8H308c1.5,0,2.8,1.2,2.8,2.8v31.3c0,1.5-1.2,2.8-2.8,2.8H4.8
		C3.2,211.6,2,210.3,2,208.8z"/>
	<path class="st17" d="M2,208.8v-31.3c0-1.5,1.2-2.8,2.8-2.8H308c1.5,0,2.8,1.2,2.8,2.8v31.3c0,1.5-1.2,2.8-2.8,2.8H4.8
		C3.2,211.6,2,210.3,2,208.8z"/>
</g>
<g>
	<defs>
		<rect id="SVGID_19_" x="2.4" y="171.7" width="307.9" height="46.6"/>
	</defs>
	<clipPath id="SVGID_20_">
		<use xlink:href="#SVGID_19_"  style="overflow:visible;"/>
	</clipPath>
	<g class="st18">
		<text transform="matrix(1 0 0 1 70.2918 189.3284)"><tspan x="0" y="0" class="st3 st4 st5">P</tspan><tspan x="10.7" y="0" class="st3 st4 st5">r</tspan><tspan x="17" y="0" class="st3 st4 st5">oje Gençlik </tspan><tspan x="111.1" y="0" class="st3 st4 st5">v</tspan><tspan x="120.1" y="0" class="st3 st4 st5">e Spor  </tspan></text>
	</g>
	<g class="st18">
		<text transform="matrix(1 0 0 1 252.5638 189.3284)" class="st3 st4 st5"> </text>
	</g>
	<g class="st18">
		<text transform="matrix(1 0 0 1 38.2918 208.3284)" class="st3 st4 st5">İ</text>
	</g>
	<g class="st18">
		<text transform="matrix(1 0 0 1 43.3641 208.3284)" class="st3 st4 st5">l Müdürlü</text>
	</g>
	<g class="st18">
		<text transform="matrix(1 0 0 1 118.2913 208.3284)" class="st3 st4 st5">ğ</text>
	</g>
	<g class="st18">
		<text transform="matrix(1 0 0 1 129.0272 208.3284)"><tspan x="0" y="0" class="st3 st4 st5">üne d</tspan><tspan x="45" y="0" class="st3 st4 st5">e</tspan><tspan x="54.3" y="0" class="st3 st4 st5">v</tspan><tspan x="63.8" y="0" class="st3 st4 st5">r</tspan><tspan x="70.1" y="0" class="st3 st4 st5">edilmi</tspan></text>
	</g>
	<g class="st18">
		<text transform="matrix(1 0 0 1 248.4671 208.3284)" class="st3 st4 st5">ş</text>
	</g>
	<g class="st18">
		<text transform="matrix(1 0 0 1 256.323 208.3284)" class="st3 st4 st5">tir</text>
	</g>
</g>
</svg>
