<!-- Generator: Adobe Illustrator 21.0.2, SVG Export Plug-In  -->
<svg version="1.1"
	 xmlns="http://www.w3.org/2000/svg" xmlns:xlink="http://www.w3.org/1999/xlink" xmlns:a="http://ns.adobe.com/AdobeSVGViewerExtensions/3.0/"
	 x="0px" y="0px" width="28.6px" height="17.2px" viewBox="0 0 28.6 17.2" style="enable-background:new 0 0 28.6 17.2;"
	 xml:space="preserve">
<style type="text/css">
	.st0{fill:#FFFFFF;}
</style>
<defs>
</defs>
<path class="st0" d="M28.6,6.1c0-0.2-0.1-0.4-0.1-0.6c-0.1-0.2-0.2-0.3-0.3-0.5c0,0-0.1,0-0.2-0.1c0,0-0.1-0.1-0.2-0.1
	c-0.1-0.1-0.2-0.2-0.2-0.2s0,0,0.1-0.1c0,0,0-0.1,0.1-0.1c0-0.1,0.2-0.1,0.2-0.2c0-0.1,0-0.1-0.1-0.2c-0.1-0.1-0.2-0.2-0.2-0.3
	c0-0.1,0-0.1,0-0.2c0-0.1,0-0.2,0-0.3c0-0.1-0.1-0.2-0.2-0.3c-0.1-0.1-0.2-0.2-0.3-0.3c-0.1-0.1-0.3-0.1-0.5-0.2
	c-0.2-0.1-0.4,0-0.5,0.1c-0.1,0-0.2,0.1-0.3,0.2c-0.1,0.1-0.2,0.3-0.2,0.4c0,0.1-0.1,0.4-0.1,0.4s0,0-0.1,0c0,0-0.1,0-0.1,0
	s0.1-0.1,0.1-0.1c0,0,0-0.1,0-0.1c0-0.1,0-0.1-0.1-0.2c0-0.1,0.1-0.2,0.1-0.3c0,0,0.1-0.1,0.1-0.2c0-0.1-0.1-0.3-0.1-0.4
	c0-0.1-0.1-0.3-0.1-0.4c-0.1-0.1-0.3-0.4-0.5-0.5c-0.2-0.1-0.5,0-0.6,0c-0.1,0.1-0.3,0.2-0.3,0.3c-0.1,0.1-0.2,0.4-0.2,0.4
	c0,0,0,0,0,0.1c0,0,0,0.1-0.1,0.2c0,0.1,0,0.3,0,0.3c0,0,0.1,0.1,0.1,0.1s0,0-0.1,0c0,0-0.1,0-0.1,0s0,0,0.1,0c0,0,0.1,0,0.1,0
	l0,0.1c0,0,0,0-0.1,0c0,0-0.1,0-0.1,0s0,0,0.1,0c0,0,0.1,0,0.1,0l0,0c0,0,0,0.1-0.1,0.1c0,0-0.2,0.1-0.2,0.1s0.1,0,0.1-0.1
	c0.1,0,0.1,0,0.1,0s0,0-0.1,0.1C23.8,3,23.8,3,23.8,3s0,0,0.1,0c0,0,0.1,0,0.1,0s-0.1,0.1-0.1,0.1c0,0,0,0,0,0s0.1,0,0.1,0
	c0,0,0.1,0,0.1-0.1c0.1,0,0,0,0.1,0c0,0,0.1,0,0.1,0c0.1,0,0.1,0,0.1,0s0,0.1,0.1,0.2c0,0,0,0.1,0,0.1c0,0-0.2,0.2-0.2,0.2
	c0,0-0.2,0.1-0.2,0.1c0,0-0.1,0-0.2,0.1c-0.1,0.1-0.2,0.2-0.2,0.2s-0.1-0.2-0.2-0.3c-0.1-0.1-0.2-0.3-0.3-0.4
	c-0.1-0.1-0.3-0.2-0.5-0.3c-0.1,0-0.5-0.2-0.5-0.2c-0.1-0.1-0.2-0.2-0.2-0.2c0,0,0,0,0-0.1c0-0.1,0-0.2,0-0.2c0-0.1,0-0.1,0-0.1
	s0.1,0,0.1,0c0,0,0,0,0.1-0.1c0-0.1,0-0.2,0-0.2c0-0.1,0-0.2,0-0.2c0,0-0.1,0-0.1,0s0,0,0-0.1c0,0,0-0.1,0-0.2c0-0.1,0-0.2,0-0.3
	c0-0.1,0-0.1,0-0.3c0-0.1-0.1-0.2-0.1-0.2c0,0-0.1-0.1-0.1-0.1c0,0-0.1-0.1-0.1,0c0,0,0,0.1,0,0.1s-0.1,0-0.1,0c0,0-0.1,0-0.1-0.1
	c-0.1-0.1-0.1,0-0.2,0c-0.1,0-0.1,0-0.1,0c0,0-0.2,0-0.2,0c0,0-0.1,0-0.1,0c0,0,0,0.1-0.1,0.1c0,0,0,0.1,0,0.1s0,0-0.1,0.1
	c0,0-0.1,0.2-0.1,0.2c0,0-0.1,0.2-0.1,0.2c0,0-0.1,0.4-0.1,0.4c0,0,0,0.2,0,0.2s0,0.2,0,0.2c0,0.1,0,0.2,0.1,0.3
	c0,0.1,0.1,0.3,0.1,0.3c0,0,0,0.1,0,0.1s0,0.1,0,0.1c0,0,0,0.1,0,0.1S20.2,3,20,3.1c-0.2,0.1-0.5,0.2-0.7,0.3
	c-0.1,0.1-0.2,0.3-0.2,0.3l-0.3-0.1c0,0,0-0.1,0-0.1c0-0.1,0-0.1,0-0.1c0,0,0-0.1,0-0.1s0,0,0-0.1c0-0.1,0.1-0.2,0.1-0.2
	s0.1,0,0.1,0c0,0,0,0,0.1-0.1c0-0.1,0-0.2,0-0.3c0,0,0-0.1,0-0.1s0-0.1,0-0.2c0-0.1,0-0.1,0-0.2c0-0.1,0-0.2-0.1-0.3
	c-0.1-0.1-0.1-0.2-0.2-0.3c-0.1-0.1-0.4-0.2-0.6-0.2c-0.3,0-0.4,0.2-0.4,0.2c0,0-0.2,0.2-0.2,0.2c0,0.1-0.1,0.3-0.1,0.4
	c0,0,0,0.2,0,0.3c0,0,0,0.1,0,0.1s0,0,0,0.1c0,0.1,0,0.2,0,0.2s0,0-0.1-0.1c-0.1-0.1-0.4-0.2-0.4-0.2s0,0,0-0.1c0-0.1,0-0.1,0-0.2
	c0-0.1,0-0.2,0-0.2s0,0,0,0c0,0,0,0,0,0c0,0,0-0.1,0-0.1c0-0.1,0-0.1,0-0.1s0-0.1,0.1-0.1c0-0.1,0,0,0-0.2C17,1,17,1,17,0.9
	c0-0.1,0,0,0-0.1c0-0.1,0-0.2-0.1-0.2c0,0-0.1-0.1-0.2-0.2c-0.1-0.1-0.1-0.1-0.1-0.1c0,0-0.1,0-0.1,0c0,0-0.1,0-0.2,0
	c-0.1,0-0.1,0-0.1,0c0,0-0.2,0-0.3,0c-0.1,0-0.1,0.2-0.1,0.2c0,0-0.1,0.2-0.1,0.3c0,0.1-0.1,0.2-0.1,0.3c0,0.1,0,0.2,0,0.2
	s0,0.1,0,0.1c0,0,0,0.1,0,0.1c0,0,0,0.1,0.1,0.1c0,0,0.1,0,0.1,0s0,0.1,0,0.1c0,0,0.1,0.2,0.1,0.3c0,0,0,0.2,0,0.2s-0.1,0-0.1,0.1
	c0,0-0.1,0.1-0.2,0.1c-0.1,0-0.3,0.2-0.4,0.2c-0.1,0-0.5,0.2-0.5,0.2s0-0.1,0.1-0.1c0,0,0-0.1,0.1-0.2c0-0.1,0-0.1,0-0.2
	c0-0.1,0-0.3,0-0.4c0-0.1-0.1-0.2-0.1-0.3c-0.1,0-0.3-0.2-0.3-0.2c0,0-0.2-0.1-0.2-0.1c-0.1,0-0.3,0-0.4,0c-0.1,0-0.3,0.1-0.4,0.4
	c-0.1,0.2,0,0.6,0,0.6s0,0,0,0c0,0,0.1,0.1,0.1,0.2c0,0,0,0.1,0.1,0.2c0,0,0.1,0.1,0.1,0.1s0,0.1,0.1,0.2c0,0.1,0.1,0.1,0.1,0.1
	s0,0.1,0,0.2c0,0.1-0.1,0.1-0.1,0.2c0,0-0.3,0.2-0.3,0.2c-0.1,0-0.3,0.1-0.5,0.2c-0.2,0.1-0.3,0.2-0.3,0.2s0,0-0.1,0
	c-0.1,0-0.2-0.1-0.3-0.2c0,0-0.3-0.1-0.3-0.2c0,0-0.1-0.1-0.1-0.2c0-0.1,0-0.3,0-0.3c0-0.1,0-0.1,0-0.1s0,0,0,0.1c0,0,0,0.1,0,0.1
	s0,0,0-0.1c0,0,0-0.1,0-0.1s0,0.1,0,0.1c0,0-0.1,0.3-0.1,0.3s0,0,0.1-0.1c0-0.1,0.1-0.2,0.1-0.3c0-0.1,0-0.1,0.1-0.1
	C12,3,12,2.8,12,2.6c0-0.1,0-0.4-0.1-0.5c-0.1-0.1-0.3-0.3-0.4-0.4c-0.1,0-0.2,0-0.3,0c-0.1,0-0.2,0-0.3,0.1
	c-0.2,0.1-0.3,0.2-0.4,0.4c-0.1,0.3,0.1,0.4,0.1,0.4s0,0.1,0,0.1c0,0,0,0.2,0,0.2c0,0,0.1,0.1,0.1,0.1s0,0,0,0.1
	c0,0.1,0.1,0.2,0.1,0.3c0,0,0,0.1,0,0.1s-0.1,0-0.3,0.1C10.4,3.7,10.3,4,10.3,4S10.1,4,10.1,4.1c-0.1,0-0.4,0.1-0.4,0.1s0-0.2,0-0.3
	c0-0.1-0.1-0.2-0.1-0.3c0-0.1-0.2-0.2-0.3-0.3c-0.1,0-0.4-0.1-0.4-0.1c0,0-0.2-0.1-0.2-0.1c0,0-0.1,0-0.1,0s0.1,0,0.1-0.1
	c0-0.1,0.1-0.1,0.1-0.2c0-0.1,0.1-0.1,0.1-0.2c0-0.1,0-0.2,0-0.2s0,0,0-0.1c0-0.1,0-0.1,0-0.1c0-0.1,0-0.1,0-0.2c0-0.1,0-0.1,0-0.1
	c0-0.1,0,0,0-0.1c0,0,0,0,0-0.1c0-0.1,0-0.1,0-0.1C8.8,1.3,8.8,1.2,8.8,1.2C8.7,1.1,8.7,1,8.6,1C8.5,1,8.5,1,8.4,1
	c-0.1,0-0.2-0.1-0.3-0.1c-0.1,0-0.3,0-0.3,0c0,0-0.2,0.1-0.2,0.1c0,0-0.1,0.1-0.1,0.1c0,0-0.1,0.1-0.1,0.1c0,0,0,0.3-0.1,0.3
	c0,0,0,0.2,0,0.2s0,0,0,0c0,0,0,0-0.1,0c0,0,0,0,0,0S7.1,1.8,7,1.8c-0.1,0-0.2,0-0.3,0c-0.1,0-0.2,0-0.3,0C6.3,1.8,6.2,1.9,6.1,2
	C5.9,2.2,5.8,2.7,5.8,2.8c0,0-0.1,0.2-0.1,0.3c0,0.1-0.1,0.3-0.1,0.3c0,0.1,0,0.2,0,0.3c0,0-0.1,0.2-0.1,0.3c0,0,0,0.1,0,0.1
	S5.3,4.1,5.1,4.2C4.9,4.3,4.9,4.4,4.9,4.4l0-0.1l-0.1,0c0,0,0-0.1-0.1-0.2c0-0.1-0.1-0.3-0.1-0.4c0-0.1-0.1-0.2-0.1-0.2
	C4.4,3.2,4.4,3.1,4.3,3c0,0-0.1-0.1-0.2-0.2C4.1,2.7,3.4,2.4,3.4,2.4s0-0.1,0.1-0.2c0.1-0.1,0.3-0.1,0.3-0.2C3.8,2,3.8,1.8,3.8,1.7
	c0-0.1,0.1-0.2,0.1-0.2S4,1.3,4,1.3C4,1.2,4,1.2,4,1c0-0.1,0-0.3,0-0.3c0-0.1,0-0.1,0-0.2c0-0.1-0.1-0.2-0.2-0.2
	C3.8,0.2,3.7,0.2,3.6,0.1c-0.1-0.1-0.3,0-0.3,0C3.2,0.1,3.1,0,3,0C3,0,2.9,0,2.8,0.1C2.6,0.1,2.4,0.3,2.3,0.4
	C2.2,0.6,2.2,0.9,2.2,0.9S2,1,2.1,1.2c0,0.2,0.1,0.3,0.1,0.3S2.1,1.6,2,1.7C2,1.8,1.8,2,1.7,2C1.6,2.1,1.4,2.2,1.1,2.3
	C1,2.3,1,2.3,0.9,2.3c-0.1,0-0.2,0-0.2,0C0.6,2.5,0.5,2.7,0.5,2.9c-0.2,0.5-0.3,1-0.4,1.6C0,4.8,0,5.2,0,5.6c0,0.6,0.1,1.2,0.3,1.8
	c0.1,0.3,0.2,0.7,0.3,1c0.1,0.5,0.1,1,0.1,1.5c0,0.5,0.1,1,0.1,1.5c0,0.7-0.1,1.4-0.1,2.1c0,0.5,0.2,1,0.3,1.5
	c0,0.2,0.2,0.4,0.1,0.7c0,0.1,0.2,0.1,0.3,0.1c0.1,0,0.2,0,0.2,0.1c0,0,0.1,0.1,0.1,0.1c0,0.1,0.1,0.2,0.1,0.4c0,0.1,0,0.2,0.1,0.3
	c0.3,0.2,0.8,0.1,1.1,0.1c0.3,0,0.7,0.1,1,0.1c0.2,0,0.3-0.2,0.3-0.3c0-0.1,0-0.2-0.1-0.3c-0.2-0.1-0.6-0.1-0.8-0.2L5,16.3
	c0,0,0.1,0,0.1,0c0,0,0.1-0.1,0.2-0.1c0,0,0-0.1,0-0.1c0-0.1,0-0.2-0.1-0.3c-0.1-0.1-0.4,0-0.5-0.1c-0.1,0-0.2-0.1-0.3-0.2
	c-0.1-0.1-0.1-0.1-0.2-0.1c0,0,0-0.1,0-0.1c0-0.1,0.1-0.1,0.1-0.2c0-0.1,0-0.3,0-0.5c0-0.2-0.1-0.4-0.1-0.5c-0.1-0.1,0-0.3,0-0.4
	c0-0.1,0.2-0.7,0.3-0.9c0.1-0.2,0.1-0.8,0.1-0.9c0-0.1,0-0.4,0-0.6c0-0.2,0-1,0-1l0.3,0.6c0,0,0.1,0.2,0.1,0.3
	c0.1,0.1,0.1,0.1,0.2,0.2c0.1,0.1,0.1,0.3,0.2,0.4c0.1,0.1,0.1,0.4,0.1,0.5c0,0.2,0.1,0.1,0.1,0.3c0,0.1,0,0.1,0,0.2
	c0,0.1,0,0.2,0,0.3c0,0.1,0.1,0.7,0.1,0.9c0,0.1,0.2,0.8,0.3,0.9c0,0.1,0.2,0.6,0.3,0.7c0,0.1,0,0.2,0,0.3c0,0.1,0,0.1,0,0.1
	s0,0.1,0.1,0.3c0,0.1,0.1,0.4,0,0.5c0,0.2,0.2,0.2,0.3,0.2c0.1,0,0.5-0.1,0.5-0.2c0.1-0.1,0-0.2-0.1-0.4c0-0.1-0.1-0.3-0.1-0.4
	c0-0.1,0-0.3,0-0.3c0,0,0.1-0.5,0.1-0.7s0-0.3-0.1-0.4c0-0.1,0-0.6,0-0.9c0-0.3,0-0.5,0-0.5s0,0.1,0,0.2c0,0.1,0.1,0.6,0.1,0.6
	c0,0.1,0,0.3,0.1,0.4c0.1,0.2,0.2,0.6,0.2,0.7c0,0.1,0.1,0.3,0.1,0.3s0,0.1,0.1,0.1c0,0,0.1,0.3,0.1,0.3c0,0,0,0.2,0,0.2
	c0,0.1,0.1,0.2,0.2,0.3c0.1,0.1,0.3,0.1,0.4,0.1c0.1,0,0.2-0.1,0.2-0.3c0-0.1,0-0.3-0.1-0.4c-0.1-0.1-0.3-0.4-0.3-0.4s0-0.1,0-0.1
	c0-0.1,0-0.2,0-0.3c0-0.1,0-0.3,0-0.3S8.5,15,8.5,15c0,0,0,0.1,0.1,0.2c0,0.1,0.2,0.1,0.3,0.2c0.1,0.1,0.3,0,0.4,0
	c0.1,0,0.1-0.1,0.1-0.1c0-0.1,0-0.2-0.1-0.3C9.3,14.8,9,14.5,9,14.5s0-0.2,0-0.2c0,0,0-0.2,0-0.2C9,14,9,14,9,14
	c0-0.1,0.2-0.2,0.3-0.3c0-0.1,0-0.1,0-0.3s0-0.4,0-0.5c0-0.1,0-0.2,0-0.3c0-0.1,0.1-0.5,0.1-0.6c0-0.1,0-0.6,0-0.7
	c0-0.1,0-0.5,0-0.5s0,0,0.1,0c0,0,0.1,0,0.1-0.1c0,0,0-0.1,0-0.2c0-0.1-0.2-0.7-0.3-0.8c-0.1-0.1,0-0.4,0-0.4s0,0.1,0.1,0.1
	c0.1,0.1,0.1,0.1,0.1,0.2c0,0.1,0,0.1,0,0.1s0.1,0,0.1-0.1c0,0,0.2-0.1,0.2-0.1s0,0.1,0,0.2c0,0,0,0.1-0.1,0.2c0,0,0,0.2,0,0.3
	c0,0.1,0,0.2,0,0.3c0,0.1,0,0.3,0,0.4c0,0.1,0,0.4,0,0.4c0,0,0,0.3,0,0.5c0,0.1,0,0.6,0,0.8c0,0.2,0,1.1,0,1.1c0,0,0,0.3,0,0.3
	l0,0.1c0,0,0,0.1,0,0.1c0,0.1,0,0.3,0,0.3c0,0.1,0,0.2,0.1,0.3c0,0.1,0.1,0.2,0.1,0.2s0,0-0.1,0.1c0,0-0.1,0.3-0.1,0.3
	c0,0.1,0.1,0.1,0.2,0.1c0.1,0,0.1,0,0.1,0s0,0.1,0,0.2c0,0,0.1,0.1,0.1,0.1s-0.1,0.2-0.2,0.2c0,0-0.1,0.1-0.1,0.2
	c0,0-0.2,0.2-0.2,0.3c0,0,0,0.2,0.2,0.3c0.2,0.1,0.4,0,0.5,0c0.1,0,0.2-0.2,0.2-0.3c0.1-0.1,0.2-0.3,0.2-0.3c0,0,0-0.1,0-0.1l0-0.1
	c0,0,0,0,0.1,0c0,0,0,0,0-0.1c0,0,0-0.1,0-0.2c0-0.1,0-0.2,0-0.3c0-0.1,0-0.3,0-0.4c0-0.1,0-0.4,0-0.5c0-0.1,0-0.4,0-0.4l0.3,0
	c0,0,0,0.3,0,0.4c0,0.1,0,0.1,0,0.2c0,0,0.1,0.1,0.1,0.2c0,0,0.1,0.1,0.1,0.1s0,0.1,0,0.1c0,0.1,0,0.2,0.1,0.3c0,0,0.1,0.1,0.2,0.2
	c0.1,0.1,0.4-0.1,0.4-0.1c0,0,0.1-0.1,0.1-0.1s0.1,0.2,0.1,0.2c0,0,0.1,0.3,0.1,0.3l0,0.1c0,0,0.1,0.1,0.2,0.1
	c0.1,0,0.2,0.1,0.3,0.1c0.1,0.1,0.2,0.2,0.4,0.2c0.2,0.1,0.3,0,0.4,0c0.1,0,0.2-0.1,0.2-0.1c0,0,0-0.1,0-0.2c0-0.1-0.3-0.2-0.3-0.2
	s0.1-0.1,0.1-0.3c0-0.1,0-0.3,0-0.4c0-0.1,0-0.2,0-0.3c0-0.1,0.1-0.1,0.1-0.2c0.1-0.1,0-0.1,0-0.1c0-0.1-0.1-0.2-0.1-0.3
	c0-0.1,0.1-0.1,0.1-0.1c0,0,0-0.1,0-0.2c0-0.1,0-0.3,0-0.4c0-0.1-0.1-0.4-0.1-0.4c0-0.1,0-0.2,0-0.3c0-0.1,0-0.2,0-0.3
	c0-0.1,0-0.1,0.1-0.2c0.1-0.1,0-0.4,0.1-0.6c0-0.2,0.1-0.7,0.1-0.8c0-0.1,0.1-0.5,0.1-0.5s0,0.4,0,0.5c0,0.1-0.1,0.4,0,0.5
	c0,0.1,0,0.2,0,0.3c0,0.1,0,0.4,0,0.5c0,0.1,0,0.2,0.1,0.3c0,0,0,0.3,0,0.4c0,0.1,0,0.3,0,0.3c0,0,0,0.3,0,0.4c0,0.1,0,0.5,0,0.5
	c0,0.1-0.1,0.1-0.1,0.2c0,0.1,0,0.3,0,0.4c0,0.1,0,0.1,0.1,0.2c0,0.1,0,0.1,0,0.1l0,0.2l0,0.1c0,0,0,0,0.1,0.1c0.1,0,0.1,0,0.1,0.1
	c0,0,0.1,0,0.1,0.1c0,0,0,0.1,0,0.1c0,0.1,0,0.2,0.1,0.2c0,0.1,0.2,0.1,0.4,0.1c0.2,0,0.3-0.1,0.3-0.1c0-0.1,0.1-0.1,0.1-0.2
	c0-0.1-0.3-0.4-0.3-0.4c0,0-0.2-0.2-0.2-0.3c0,0,0.1-0.2,0.1-0.2s0.3-0.1,0.4-0.1c0.1,0,0.2-0.1,0.2-0.1c0-0.1,0-0.1,0-0.2
	c0-0.1,0-0.1,0-0.1c0,0,0-0.1,0-0.2c0-0.1,0.1-0.3,0.1-0.4c0-0.1,0-0.4,0-0.6c0-0.1,0-0.3,0-0.4c0-0.1,0-0.2,0-0.2
	c0-0.1,0-0.1,0-0.2c0-0.1,0-0.1,0-0.2c0-0.1,0-0.2,0-0.3c0-0.1,0-0.2,0-0.3c0-0.1,0-0.1,0-0.1c0-0.1,0-0.1,0-0.2c0-0.1,0-0.1,0-0.2
	c0-0.1,0-0.2,0.1-0.3c0-0.1,0-0.2,0-0.2c0,0,0.1-0.2,0.1-0.2s0-0.1,0.1-0.1c0,0,0.1,0,0.1,0s0,0.3,0,0.4c0,0.1,0,0.2,0,0.3
	c0,0.1,0,0.2-0.1,0.3c0,0.1,0,0.5,0,0.6c0,0.1,0,0.3,0,0.5c0,0.1,0,0.7,0,0.8c0,0,0,0.6,0,0.6c0,0.1,0,0.3-0.1,0.4
	c0,0.1-0.1,0.6-0.1,0.7c0,0.1,0,1,0,1.1c0,0.1,0,0.1,0,0.2c0,0,0.1,0.1,0.2,0.1c0.1,0,0.2,0.1,0.2,0.1s-0.1,0.3-0.1,0.4
	c0,0.1,0.1,0.2,0.1,0.2c0,0,0.3,0.1,0.4,0c0.1-0.1,0.5-0.2,0.5-0.3c0,0,0-0.1,0-0.1s0.1,0,0.2,0c0.1,0.1,0.2,0.2,0.3,0.2
	c0.1,0,0.2-0.1,0.3-0.2c0,0,0.3-0.1,0.3-0.1s0,0.2,0,0.2c0,0.1,0,0.1-0.1,0.2c0,0.1,0,0.2,0,0.3c0,0.1,0.1,0.2,0.2,0.2
	c0.1,0.1,0.4,0,0.6-0.2c0.2-0.1,0.1-0.4,0.1-0.5c0-0.1-0.1-0.3-0.1-0.3s0.1,0,0.3,0c0.2,0,0.3,0,0.3,0c0.1,0,0,0,0-0.1
	c0,0,0-0.2,0-0.3c0-0.1,0-0.1,0-0.2c0-0.1,0-0.2,0.1-0.3c0-0.1,0-0.2,0-0.3c0-0.1,0-0.6,0-0.6s0.5,0.1,0.6,0.1c0.1,0,0.3,0,0.3,0
	s0,0.3,0,0.3c0,0.1,0,0.2,0,0.3c0,0.1,0.1,0.1,0.1,0.1c0.1,0,0,0,0,0.1c0,0,0.1,0.1,0.1,0.1c0,0,0,0,0,0l0,0.1c0,0,0.1,0.2,0.2,0.2
	c0.1,0.1,0.1,0.1,0.1,0.2c0.1,0.1,0.1,0.2,0.2,0.3c0.1,0.1,0.2,0.1,0.3,0.2c0.1,0.1,0.4,0,0.5,0c0.1,0,0.1-0.1,0.1-0.1
	c0-0.1,0-0.2,0-0.3c-0.1-0.1-0.3-0.5-0.3-0.5s0-0.1,0-0.1c0,0-0.2-0.2-0.2-0.2c0,0,0.1,0,0.2-0.1c0.1-0.1,0-0.1,0-0.1
	c0-0.1,0-0.1,0-0.1c0,0,0.1,0,0.1-0.1c0,0-0.1-0.2-0.1-0.2s0.2,0,0.3,0c0.1,0,0.2-0.1,0.2-0.1c0.1-0.1,0-0.1,0-0.1
	c0-0.1,0-0.6,0-0.7c0-0.1,0-1.2,0-1.4c0-0.1,0-1.2,0-1.4c0-0.1,0-0.8,0-0.8s0-0.1,0.1-0.1c0-0.1,0-0.1,0-0.2c0-0.1,0-0.1,0-0.2
	c0-0.1,0-0.3,0-0.4c0-0.1,0.1-0.2,0.1-0.2c0-0.1,0.2-0.6,0.3-0.9c0.1-0.3,0.1-1,0.1-1s0,0,0.1,0c0,0,0-0.1,0-0.1v0.1
	c0,0,0,0.1,0,0.2c0,0,0,0.2,0,0.3c0,0.1,0,0.1,0,0.2c0,0.1,0,0.1,0,0.1c0,0,0,0-0.1,0.1c0,0.1,0,0.1,0,0.1c0,0,0,0.1,0,0.2
	c0,0.1,0,0.3,0,0.5c0,0.2,0.1,1,0.2,1.4c0.1,0.4,0.2,1,0.3,1.1c0,0.1,0,0.3,0,0.4c0,0.1,0,0.4,0,0.5c0,0.1,0,0.2,0,0.4
	c0,0.2,0.1,0.9,0.1,1c0,0.1,0.2,0.8,0.2,0.9c0,0,0,0.1,0,0.2c0,0.1-0.1,0.3-0.1,0.4c0,0.1,0,0.1,0,0.1c0,0-0.1,0.1-0.1,0.1
	s0,0-0.1,0c-0.1,0-0.2,0.1-0.3,0.2c-0.1,0.1-0.2,0.2-0.2,0.2c0,0.1,0.1,0.2,0.2,0.2c0.1,0,0.2,0,0.2,0s-0.1,0.1,0.1,0.3
	c0.2,0.2,0.8,0.1,0.9,0.1c0.1,0,0.3-0.1,0.4-0.1c0.1,0,0.2,0,0.2,0l0.1,0l0.2,0c0,0,0,0,0,0.1c0,0-0.1,0.3-0.1,0.4
	c0,0.1,0,0.2,0,0.4c0,0.2,0.1,0.2,0.1,0.2s0.3,0.2,0.6,0c0.2-0.1,0.4-0.8,0.4-0.8c0.1,0,0.2-0.1,0.3,0c0.1,0.1,0,0.3,0,0.4
	c0,0.2-0.1,0.4,0,0.5c0,0.1,0.1,0.2,0.2,0.2c0.1,0.1,0.2,0.1,0.3,0.1c0.1,0,0.1-0.1,0.2-0.1c0.1-0.1,0.2-0.1,0.3-0.3
	c0.1-0.1,0-0.3,0-0.5c0-0.2,0-0.4,0.1-0.6c0-0.1,0-0.1,0-0.1c0-0.1,0.1-0.1,0.1-0.2c0-0.5-0.1-1,0-1.4c0.1-1,0.3-2.1,0.4-3.1
	c0-0.3-0.1-0.6,0-1c0-0.4,0.2-0.8,0.3-1.3c0-0.3-0.1-0.5,0-0.8c0-0.3,0.1-0.6,0.1-0.9C28.6,6.5,28.6,6.3,28.6,6.1z M26.7,14.4
	c0,0.2-0.1,0.9-0.1,1c0,0,0-0.4-0.1-0.6c0-0.2,0-0.2,0-0.4c0-0.2,0.1-0.8,0.1-0.8s0,0,0,0c0,0.1,0,0.1,0,0.2c0,0.1,0,0.1,0,0.1
	C26.8,13.9,26.7,14.3,26.7,14.4z"/>
</svg>
