<!-- Generator: Adobe Illustrator 21.0.2, SVG Export Plug-In  -->
<svg version="1.1"
	 xmlns="http://www.w3.org/2000/svg" xmlns:xlink="http://www.w3.org/1999/xlink" xmlns:a="http://ns.adobe.com/AdobeSVGViewerExtensions/3.0/"
	 x="0px" y="0px" width="274.5px" height="186.9px" viewBox="0 0 274.5 186.9" style="enable-background:new 0 0 274.5 186.9;"
	 xml:space="preserve">
<style type="text/css">
	.st0{clip-path:url(#SVGID_2_);fill:#4F81BD;}
	.st1{clip-path:url(#SVGID_2_);fill:none;stroke:#FFFFFF;stroke-width:2;stroke-linejoin:round;}
	.st2{clip-path:url(#SVGID_4_);}
	.st3{fill:#FFFFFF;}
	.st4{font-family:'TrebuchetMS';}
	.st5{font-size:16px;}
	.st6{clip-path:url(#SVGID_6_);fill:#4F81BD;}
	.st7{clip-path:url(#SVGID_6_);fill:none;stroke:#FFFFFF;stroke-width:2;stroke-linejoin:round;}
	.st8{clip-path:url(#SVGID_8_);}
	.st9{letter-spacing:-1;}
	.st10{clip-path:url(#SVGID_10_);fill:#4F81BD;}
	.st11{clip-path:url(#SVGID_10_);fill:none;stroke:#FFFFFF;stroke-width:2;stroke-linejoin:round;}
	.st12{clip-path:url(#SVGID_12_);}
	.st13{clip-path:url(#SVGID_12_);fill:#FFFFFF;}
	.st14{letter-spacing:-2;}
	.st15{clip-path:url(#SVGID_14_);fill:#4F81BD;}
	.st16{clip-path:url(#SVGID_14_);fill:none;stroke:#FFFFFF;stroke-width:2;stroke-linejoin:round;}
	.st17{clip-path:url(#SVGID_16_);}
	.st18{clip-path:url(#SVGID_16_);fill:#FFFFFF;}
	.st19{clip-path:url(#SVGID_18_);fill:#4F81BD;}
	.st20{clip-path:url(#SVGID_18_);fill:none;stroke:#FFFFFF;stroke-width:2;stroke-linejoin:round;}
	.st21{clip-path:url(#SVGID_20_);}
	.st22{clip-path:url(#SVGID_22_);fill:#4F81BD;}
	.st23{clip-path:url(#SVGID_22_);fill:none;stroke:#FFFFFF;stroke-width:2;stroke-linejoin:round;}
	.st24{clip-path:url(#SVGID_24_);}
	.st25{clip-path:url(#SVGID_26_);fill:#4F81BD;}
	.st26{clip-path:url(#SVGID_26_);fill:none;stroke:#FFFFFF;stroke-width:2;stroke-linejoin:round;}
	.st27{clip-path:url(#SVGID_28_);}
	.st28{clip-path:url(#SVGID_28_);fill:#FFFFFF;}
	.st29{clip-path:url(#SVGID_30_);fill:#4F81BD;}
	.st30{clip-path:url(#SVGID_30_);fill:none;stroke:#FFFFFF;stroke-width:2;stroke-linejoin:round;}
	.st31{clip-path:url(#SVGID_32_);}
	.st32{clip-path:url(#SVGID_32_);fill:#FFFFFF;}
</style>
<defs>
</defs>
<g>
	<defs>
		<rect id="SVGID_1_" width="273.3" height="45.5"/>
	</defs>
	<clipPath id="SVGID_2_">
		<use xlink:href="#SVGID_1_"  style="overflow:visible;"/>
	</clipPath>
	<path class="st0" d="M2,40.4V5.1C2,3.4,3.4,2,5.1,2h263.1c1.7,0,3.1,1.4,3.1,3.1v35.2c0,1.7-1.4,3.1-3.1,3.1H5.1
		C3.4,43.5,2,42.1,2,40.4z"/>
	<path class="st1" d="M2,40.4V5.1C2,3.4,3.4,2,5.1,2h263.1c1.7,0,3.1,1.4,3.1,3.1v35.2c0,1.7-1.4,3.1-3.1,3.1H5.1
		C3.4,43.5,2,42.1,2,40.4z"/>
</g>
<g>
	<defs>
		<rect id="SVGID_3_" x="4.9" y="7.6" width="269.6" height="28.3"/>
	</defs>
	<clipPath id="SVGID_4_">
		<use xlink:href="#SVGID_3_"  style="overflow:visible;"/>
	</clipPath>
	<g class="st2">
		<text transform="matrix(1 0 0 1 43.8456 28.0023)"><tspan x="0" y="0" class="st3 st4 st5">P</tspan><tspan x="8.2" y="0" class="st3 st4 st5">roje Bütçesi:2.672.000</tspan><tspan x="170.6" y="0" class="st3 st4 st5"> </tspan><tspan x="175.1" y="0" class="st3 st4 st5">TL</tspan></text>
	</g>
</g>
<g>
	<defs>
		<rect id="SVGID_5_" y="46.9" width="273.3" height="45.5"/>
	</defs>
	<clipPath id="SVGID_6_">
		<use xlink:href="#SVGID_5_"  style="overflow:visible;"/>
	</clipPath>
	<path class="st6" d="M2,87.2V52c0-1.7,1.4-3.1,3.1-3.1h263.1c1.7,0,3.1,1.4,3.1,3.1v35.2c0,1.7-1.4,3.1-3.1,3.1H5.1
		C3.4,90.3,2,88.9,2,87.2z"/>
	<path class="st7" d="M2,87.2V52c0-1.7,1.4-3.1,3.1-3.1h263.1c1.7,0,3.1,1.4,3.1,3.1v35.2c0,1.7-1.4,3.1-3.1,3.1H5.1
		C3.4,90.3,2,88.9,2,87.2z"/>
</g>
<g>
	<defs>
		<rect id="SVGID_7_" x="1.9" y="55.4" width="269.6" height="28.3"/>
	</defs>
	<clipPath id="SVGID_8_">
		<use xlink:href="#SVGID_7_"  style="overflow:visible;"/>
	</clipPath>
	<g class="st8">
		<text transform="matrix(1 0 0 1 27.8456 76.0023)"><tspan x="0" y="0" class="st3 st4 st5 st9">T</tspan><tspan x="7.3" y="0" class="st3 st4 st5">oplam Harcama:2.545.510</tspan><tspan x="195.5" y="0" class="st3 st4 st5"> </tspan><tspan x="200" y="0" class="st3 st4 st5">TL</tspan></text>
	</g>
</g>
<g>
	<defs>
		<rect id="SVGID_9_" y="93.7" width="273.3" height="45.5"/>
	</defs>
	<clipPath id="SVGID_10_">
		<use xlink:href="#SVGID_9_"  style="overflow:visible;"/>
	</clipPath>
	<path class="st10" d="M2,134.1V98.8c0-1.7,1.4-3.1,3.1-3.1h263.1c1.7,0,3.1,1.4,3.1,3.1v35.2c0,1.7-1.4,3.1-3.1,3.1H5.1
		C3.4,137.2,2,135.8,2,134.1z"/>
	<path class="st11" d="M2,134.1V98.8c0-1.7,1.4-3.1,3.1-3.1h263.1c1.7,0,3.1,1.4,3.1,3.1v35.2c0,1.7-1.4,3.1-3.1,3.1H5.1
		C3.4,137.2,2,135.8,2,134.1z"/>
</g>
<g>
	<defs>
		<rect id="SVGID_11_" x="1.9" y="102.3" width="269.6" height="28.3"/>
	</defs>
	<clipPath id="SVGID_12_">
		<use xlink:href="#SVGID_11_"  style="overflow:visible;"/>
	</clipPath>
	<g class="st12">
		<text transform="matrix(1 0 0 1 56.8456 122.0023)"><tspan x="0" y="0" class="st3 st4 st5">P</tspan><tspan x="8.2" y="0" class="st3 st4 st5">roje tamamlanmı</tspan></text>
	</g>
	<path class="st13" d="M191.7,122.2c-0.9,0-1.7-0.2-2.5-0.7l0.5-1.4c0.8,0.5,1.5,0.8,2,0.8c0.9,0,1.4-0.4,1.4-1.2
		c0-0.6-0.4-1-1.3-1.4c-0.7-0.3-1.1-0.5-1.4-0.7c-0.2-0.2-0.4-0.3-0.6-0.6c-0.2-0.2-0.3-0.4-0.4-0.7c-0.1-0.2-0.1-0.5-0.1-0.7
		c0-0.7,0.2-1.2,0.8-1.6c0.5-0.4,1.2-0.6,2-0.6c0.6,0,1.4,0.2,2.3,0.6l-0.4,1.4c-0.6-0.5-1.2-0.7-1.8-0.7c-0.4,0-0.7,0.1-0.9,0.2
		c-0.2,0.2-0.4,0.4-0.4,0.6c0,0.5,0.3,0.9,0.9,1.2l1.1,0.5c0.7,0.3,1.1,0.6,1.4,1c0.3,0.4,0.4,0.9,0.4,1.4c0,0.8-0.3,1.3-0.8,1.8
		C193.3,121.9,192.6,122.2,191.7,122.2L191.7,122.2z M190.4,125.6l-0.2-0.8c0.4,0,0.7-0.1,1-0.2c0.3-0.1,0.4-0.3,0.4-0.6
		c0-0.4-0.2-0.6-0.7-0.6v-0.9c0.5,0,0.9,0.1,1.2,0.4c0.3,0.3,0.4,0.6,0.4,1.1c0,0.5-0.2,0.9-0.6,1.2
		C191.7,125.4,191.1,125.6,190.4,125.6z"/>
	<g class="st12">
		<text transform="matrix(1 0 0 1 195.1639 122.0023)"><tspan x="0" y="0" class="st3 st4 st5">tı</tspan><tspan x="10.9" y="0" class="st3 st4 st5 st14">r</tspan><tspan x="15" y="0" class="st3 st4 st5">.</tspan></text>
	</g>
</g>
<g>
	<defs>
		<rect id="SVGID_13_" y="140.6" width="273.3" height="45.5"/>
	</defs>
	<clipPath id="SVGID_14_">
		<use xlink:href="#SVGID_13_"  style="overflow:visible;"/>
	</clipPath>
	<path class="st15" d="M2,180.9v-35.2c0-1.7,1.4-3.1,3.1-3.1h263.1c1.7,0,3.1,1.4,3.1,3.1v35.2c0,1.7-1.4,3.1-3.1,3.1H5.1
		C3.4,184,2,182.6,2,180.9z"/>
	<path class="st16" d="M2,180.9v-35.2c0-1.7,1.4-3.1,3.1-3.1h263.1c1.7,0,3.1,1.4,3.1,3.1v35.2c0,1.7-1.4,3.1-3.1,3.1H5.1
		C3.4,184,2,182.6,2,180.9z"/>
</g>
<g>
	<defs>
		<rect id="SVGID_15_" x="1.9" y="139.7" width="269.6" height="47.3"/>
	</defs>
	<clipPath id="SVGID_16_">
		<use xlink:href="#SVGID_15_"  style="overflow:visible;"/>
	</clipPath>
	<g class="st17">
		<text transform="matrix(1 0 0 1 45.8456 160.0023)" class="st3 st4 st5">Büyük </text>
	</g>
	<path class="st18" d="M96.2,160.2c-0.9,0-1.7-0.2-2.5-0.7l0.5-1.4c0.8,0.5,1.5,0.8,2,0.8c0.9,0,1.4-0.4,1.4-1.2
		c0-0.6-0.4-1-1.3-1.4c-0.7-0.3-1.1-0.5-1.4-0.7c-0.2-0.2-0.4-0.3-0.6-0.6c-0.2-0.2-0.3-0.4-0.4-0.7c-0.1-0.2-0.1-0.5-0.1-0.7
		c0-0.7,0.2-1.2,0.8-1.6c0.5-0.4,1.2-0.6,2-0.6c0.6,0,1.4,0.2,2.3,0.6l-0.4,1.4c-0.6-0.5-1.2-0.7-1.8-0.7c-0.4,0-0.7,0.1-0.9,0.2
		c-0.2,0.2-0.4,0.4-0.4,0.6c0,0.5,0.3,0.9,0.9,1.2l1.1,0.5c0.7,0.3,1.1,0.6,1.4,1c0.3,0.4,0.4,0.9,0.4,1.4c0,0.8-0.3,1.3-0.8,1.8
		C97.8,159.9,97.1,160.2,96.2,160.2L96.2,160.2z M94.9,163.6l-0.2-0.8c0.4,0,0.7-0.1,1-0.2c0.3-0.1,0.4-0.3,0.4-0.6
		c0-0.4-0.2-0.6-0.7-0.6v-0.9c0.5,0,0.9,0.1,1.2,0.4c0.3,0.3,0.4,0.6,0.4,1.1c0,0.5-0.2,0.9-0.6,1.2
		C96.2,163.4,95.6,163.6,94.9,163.6z"/>
	<g class="st17">
		<text transform="matrix(1 0 0 1 99.6581 160.0023)" class="st3 st4 st5">ehir Belediyesi’ne </text>
	</g>
	<g class="st17">
		<text transform="matrix(1 0 0 1 86.8456 179.0023)" class="st3 st4 st5">devredilmi</text>
	</g>
	<path class="st18" d="M166.3,179.2c-0.9,0-1.7-0.2-2.5-0.7l0.5-1.4c0.8,0.5,1.5,0.8,2,0.8c0.9,0,1.4-0.4,1.4-1.2
		c0-0.6-0.4-1-1.3-1.4c-0.7-0.3-1.1-0.5-1.4-0.7c-0.2-0.2-0.4-0.3-0.6-0.6c-0.2-0.2-0.3-0.4-0.4-0.7c-0.1-0.2-0.1-0.5-0.1-0.7
		c0-0.7,0.2-1.2,0.8-1.6c0.5-0.4,1.2-0.6,2-0.6c0.6,0,1.4,0.2,2.3,0.6l-0.4,1.4c-0.6-0.5-1.2-0.7-1.8-0.7c-0.4,0-0.7,0.1-0.9,0.2
		c-0.2,0.2-0.4,0.4-0.4,0.6c0,0.5,0.3,0.9,0.9,1.2l1.1,0.5c0.7,0.3,1.1,0.6,1.4,1c0.3,0.4,0.4,0.9,0.4,1.4c0,0.8-0.3,1.3-0.8,1.8
		C168,178.9,167.2,179.2,166.3,179.2L166.3,179.2z M165.1,182.6l-0.2-0.8c0.4,0,0.7-0.1,1-0.2c0.3-0.1,0.4-0.3,0.4-0.6
		c0-0.4-0.2-0.6-0.7-0.6v-0.9c0.5,0,0.9,0.1,1.2,0.4c0.3,0.3,0.4,0.6,0.4,1.1c0,0.5-0.2,0.9-0.6,1.2
		C166.3,182.4,165.8,182.6,165.1,182.6z"/>
	<g class="st17">
		<text transform="matrix(1 0 0 1 169.7919 179.0023)" class="st3 st4 st5">tir</text>
	</g>
</g>
</svg>
