<!-- Generator: Adobe Illustrator 21.0.2, SVG Export Plug-In  -->
<svg version="1.1"
	 xmlns="http://www.w3.org/2000/svg" xmlns:xlink="http://www.w3.org/1999/xlink" xmlns:a="http://ns.adobe.com/AdobeSVGViewerExtensions/3.0/"
	 x="0px" y="0px" width="513.1px" height="194.8px" viewBox="0 0 513.1 194.8" style="enable-background:new 0 0 513.1 194.8;"
	 xml:space="preserve">
<style type="text/css">
	.st0{fill:#007790;}
	.st1{fill:#CBE1E9;}
	.st2{fill:#EAF3F7;}
	.st3{fill:none;stroke:#FFFFFF;stroke-width:3;stroke-miterlimit:10;}
	.st4{fill:none;stroke:#FFFFFF;stroke-miterlimit:10;}
	.st5{fill:#FFFFFF;}
</style>
<defs>
</defs>
<path class="st0" d="M256.5,149h255v44.3h-255V149z M1.5,149h255v44.3H1.5V149z M1.5,1.5h510.1v49.8H1.5V1.5z"/>
<path class="st1" d="M256.5,51.3h255v44.3h-255V51.3z M1.5,51.3h255v44.3H1.5V51.3z"/>
<path class="st2" d="M256.5,95.6h255V149h-255V95.6z M1.5,95.6h255V149H1.5V95.6z"/>
<line class="st3" x1="0" y1="1.5" x2="256.5" y2="1.5"/>
<line class="st3" x1="1.5" y1="49.8" x2="1.5" y2="3"/>
<line class="st3" x1="256.5" y1="1.5" x2="513.1" y2="1.5"/>
<line class="st3" x1="511.6" y1="49.8" x2="511.6" y2="3"/>
<line class="st3" x1="1.5" y1="147.5" x2="1.5" y2="97.1"/>
<line class="st3" x1="256.5" y1="147.5" x2="256.5" y2="97.1"/>
<line class="st3" x1="0" y1="149" x2="258" y2="149"/>
<line class="st3" x1="1.5" y1="191.8" x2="1.5" y2="150.5"/>
<line class="st3" x1="256.5" y1="191.8" x2="256.5" y2="150.5"/>
<line class="st3" x1="0" y1="193.3" x2="258" y2="193.3"/>
<line class="st4" x1="511.6" y1="148.5" x2="511.6" y2="97.1"/>
<line class="st4" x1="258" y1="149" x2="512.1" y2="149"/>
<line class="st4" x1="511.6" y1="192.8" x2="511.6" y2="149.5"/>
<line class="st4" x1="258" y1="193.3" x2="512.1" y2="193.3"/>
<line class="st3" x1="0" y1="51.3" x2="256.5" y2="51.3"/>
<line class="st3" x1="1.5" y1="94.1" x2="1.5" y2="52.8"/>
<line class="st3" x1="256.5" y1="51.3" x2="513.1" y2="51.3"/>
<line class="st3" x1="256.5" y1="94.1" x2="256.5" y2="52.8"/>
<line class="st3" x1="511.6" y1="94.1" x2="511.6" y2="52.8"/>
<line class="st3" x1="0" y1="95.6" x2="256.5" y2="95.6"/>
<line class="st3" x1="256.5" y1="95.6" x2="513.1" y2="95.6"/>
<g>
	<path class="st5" d="M100,27.3L100,27.3c0-3.3,2.5-5.9,5.9-5.9c2.3,0,3.8,1,4.8,2.3l-2.3,1.8c-0.6-0.8-1.4-1.3-2.4-1.3
		c-1.6,0-2.7,1.3-2.7,3v0c0,1.7,1.1,3,2.7,3c1.2,0,1.9-0.5,2.5-1.4l2.3,1.7c-1.1,1.5-2.5,2.5-5,2.5C102.6,33,100,30.6,100,27.3z"/>
	<path class="st5" d="M115.9,21.5h3l4.8,11.3h-3.3l-0.8-2h-4.3l-0.8,2h-3.3L115.9,21.5z M118.6,28.4l-1.2-3.2l-1.3,3.2H118.6z"/>
	<path class="st5" d="M124.4,30.6l5.6-6.3h-5.4v-2.6h9.7v2.3l-5.6,6.3h5.6v2.6h-9.9V30.6z"/>
	<path class="st5" d="M136,21.6h3.1v11.2H136V21.6z M136.2,18.6h2.7v2.2h-2.7V18.6z"/>
	<path class="st5" d="M141.1,21.6h5.7c1.4,0,2.4,0.4,3.1,1c0.4,0.4,0.7,1,0.7,1.8v0c0,1.3-0.7,2.1-1.7,2.5c1.4,0.4,2.2,1.2,2.2,2.7
		v0c0,1.9-1.6,3.1-4.2,3.1h-5.8V21.6z M146.1,26.1c0.9,0,1.5-0.3,1.5-1v0c0-0.6-0.5-1-1.4-1h-2v2H146.1z M146.6,30.3
		c0.9,0,1.5-0.4,1.5-1v0c0-0.6-0.5-1-1.5-1h-2.4v2.1H146.6z"/>
	<path class="st5" d="M152.6,21.6h9v2.6h-5.9V26h5.4v2.4h-5.4v1.8h6v2.6h-9.1V21.6z"/>
	<path class="st5" d="M167.7,21.6h3.3l2.7,4.3l2.7-4.3h3.3v11.2h-3.1v-6.4l-2.9,4.4h-0.1l-2.8-4.4v6.4h-3V21.6z"/>
	<path class="st5" d="M181.6,21.6h9v2.6h-5.9V26h5.4v2.4h-5.4v1.8h6v2.6h-9.1V21.6z"/>
	<path class="st5" d="M192.2,21.6h5.3c1.7,0,2.9,0.4,3.6,1.2c0.7,0.6,1,1.5,1,2.6v0c0,1.7-0.9,2.8-2.3,3.4l2.7,3.9H199l-2.3-3.4
		h-1.4v3.4h-3.1V21.6z M197.4,27c1.1,0,1.7-0.5,1.7-1.3v0c0-0.9-0.6-1.3-1.7-1.3h-2V27H197.4z"/>
	<path class="st5" d="M203.8,21.6h3.1v4.5l3.9-4.5h3.7l-4.2,4.8l4.4,6.4h-3.7l-2.8-4.2l-1.1,1.3v2.9h-3.1V21.6z"/>
	<path class="st5" d="M215.4,21.6h9v2.6h-5.9V26h5.4v2.4h-5.4v1.8h6v2.6h-9.1V21.6z"/>
	<path class="st5" d="M225.8,30.6l5.6-6.3h-5.4v-2.6h9.7v2.3l-5.6,6.3h5.6v2.6h-9.9V30.6z"/>
	<path class="st5" d="M237.3,21.6h3.1v8.5h5.4v2.7h-8.5V21.6z"/>
	<path class="st5" d="M247.1,21.6h9v2.6h-5.9V26h5.4v2.4h-5.4v1.8h6v2.6h-9.1V21.6z"/>
	<path class="st5" d="M257.8,21.6h5.3c1.7,0,2.9,0.4,3.6,1.2c0.7,0.6,1,1.5,1,2.6v0c0,1.7-0.9,2.8-2.3,3.4l2.7,3.9h-3.6l-2.3-3.4
		h-1.4v3.4h-3.1V21.6z M263,27c1.1,0,1.7-0.5,1.7-1.3v0c0-0.9-0.6-1.3-1.7-1.3h-2V27H263z"/>
	<path class="st5" d="M269.4,21.6h3.1v11.2h-3.1V21.6z M269.6,18.6h2.7v2.2h-2.7V18.6z"/>
	<path class="st5" d="M279,21.6h4.8c2.8,0,4.7,1.5,4.7,3.9v0c0,2.6-2,4-4.8,4h-1.5v3.2H279V21.6z M283.5,27.2c1.1,0,1.8-0.6,1.8-1.5
		v0c0-1-0.7-1.5-1.8-1.5h-1.5v3H283.5z"/>
	<path class="st5" d="M289.7,21.6h5.3c1.7,0,2.9,0.4,3.6,1.2c0.7,0.6,1,1.5,1,2.6v0c0,1.7-0.9,2.8-2.3,3.4l2.7,3.9h-3.6l-2.3-3.4
		h-1.4v3.4h-3.1V21.6z M294.9,27c1.1,0,1.7-0.5,1.7-1.3v0c0-0.9-0.6-1.3-1.7-1.3h-2V27H294.9z"/>
	<path class="st5" d="M300.9,27.3L300.9,27.3c0-3.2,2.6-5.9,6-5.9c3.5,0,6,2.6,6,5.8v0c0,3.2-2.6,5.8-6,5.8
		C303.4,33,300.9,30.5,300.9,27.3z M309.8,27.3L309.8,27.3c0-1.6-1.2-3.1-2.9-3.1c-1.7,0-2.8,1.4-2.8,3v0c0,1.6,1.2,3,2.9,3
		C308.6,30.2,309.8,28.9,309.8,27.3z"/>
	<path class="st5" d="M314.2,27.3L314.2,27.3c0-3.3,2.6-5.9,6-5.9c2,0,3.4,0.6,4.5,1.6l-1.8,2.2c-0.8-0.7-1.6-1.1-2.7-1.1
		c-1.6,0-2.9,1.4-2.9,3.1v0c0,1.8,1.3,3.1,3,3.1c0.8,0,1.3-0.2,1.8-0.5v-1.4H320v-2.3h5.2v5c-1.2,1-2.8,1.7-4.9,1.7
		C316.8,33,314.2,30.6,314.2,27.3z"/>
	<path class="st5" d="M326.8,21.6h5.3c1.7,0,2.9,0.4,3.6,1.2c0.7,0.6,1,1.5,1,2.6v0c0,1.7-0.9,2.8-2.3,3.4l2.7,3.9h-3.6l-2.3-3.4
		h-1.4v3.4h-3.1V21.6z M332,27c1.1,0,1.7-0.5,1.7-1.3v0c0-0.9-0.6-1.3-1.7-1.3h-2V27H332z"/>
	<path class="st5" d="M342,21.5h3l4.8,11.3h-3.3l-0.8-2h-4.3l-0.8,2h-3.3L342,21.5z M344.7,28.4l-1.2-3.2l-1.3,3.2H344.7z"/>
	<path class="st5" d="M350.9,21.6h3.3l2.7,4.3l2.7-4.3h3.3v11.2h-3.1v-6.4l-2.9,4.4h-0.1l-2.8-4.4v6.4h-3V21.6z"/>
	<path class="st5" d="M364.8,21.6h3.1v11.2h-3.1V21.6z"/>
	<path class="st5" d="M374.1,28.2c0-3.2,1.7-5.3,4.7-6.9l1.3,1.9c-2.1,1.4-3,2.9-3,5s0.9,3.5,3,5l-1.3,1.9
		C375.8,33.5,374.1,31.5,374.1,28.2z"/>
	<path class="st5" d="M380.7,27.3L380.7,27.3c0-3.3,2.5-5.9,5.9-5.9c2.3,0,3.8,1,4.8,2.3l-2.3,1.8c-0.6-0.8-1.4-1.3-2.4-1.3
		c-1.6,0-2.7,1.3-2.7,3v0c0,1.7,1.1,3,2.7,3c1.2,0,1.9-0.5,2.5-1.4l2.3,1.7c-1.1,1.5-2.5,2.5-5,2.5C383.3,33,380.7,30.6,380.7,27.3z
		"/>
	<path class="st5" d="M392.7,21.6h3.3l2.7,4.3l2.7-4.3h3.3v11.2h-3.1v-6.4l-2.9,4.4h-0.1l-2.8-4.4v6.4h-3V21.6z"/>
	<path class="st5" d="M406.6,21.6h4.8c2.8,0,4.7,1.5,4.7,3.9v0c0,2.6-2,4-4.8,4h-1.5v3.2h-3.1V21.6z M411.2,27.2
		c1.1,0,1.8-0.6,1.8-1.5v0c0-1-0.7-1.5-1.8-1.5h-1.5v3H411.2z"/>
	<path class="st5" d="M416.9,33.2c2.1-1.4,3-2.9,3-5s-0.9-3.5-3-5l1.3-1.9c3,1.6,4.7,3.6,4.7,6.9s-1.7,5.3-4.7,6.9L416.9,33.2z"/>
</g>
<g>
	<path d="M13.8,69.9h3.9c1,0,1.7,0.3,2.2,0.7c0.4,0.4,0.6,0.9,0.6,1.4v0c0,0.9-0.5,1.5-1.1,1.8c1,0.4,1.6,0.9,1.6,2.1v0
		c0,1.5-1.2,2.3-3.1,2.3h-4V69.9z M17.3,73.3c0.8,0,1.3-0.3,1.3-0.9v0c0-0.6-0.4-0.9-1.2-0.9h-1.8v1.8H17.3z M17.8,76.7
		c0.8,0,1.3-0.3,1.3-0.9v0c0-0.6-0.4-0.9-1.4-0.9h-2.1v1.8H17.8z"/>
	<path d="M25.4,69.8h1.7l3.6,8.5h-1.9L28,76.4h-3.5l-0.8,1.9h-1.9L25.4,69.8z M27.3,74.8L26.2,72l-1.1,2.7H27.3z"/>
	<path d="M33.1,79.7l0.9-1.4c-1-0.1-2-0.6-2.8-1.3l1.1-1.3c0.8,0.6,1.5,1,2.5,1c0.8,0,1.2-0.3,1.2-0.8v0c0-0.5-0.3-0.7-1.7-1.1
		c-1.7-0.4-2.8-0.9-2.8-2.6v0c0-1.5,1.2-2.5,2.9-2.5c1.2,0,2.3,0.4,3.1,1.1l-1,1.4c-0.7-0.5-1.5-0.8-2.2-0.8c-0.7,0-1.1,0.3-1.1,0.7
		v0c0,0.6,0.4,0.7,1.8,1.1c1.7,0.4,2.7,1.1,2.7,2.5v0c0,1.5-1,2.4-2.5,2.6l-0.8,2L33.1,79.7z"/>
	<path d="M38.5,69.9h2l2.2,5.9l2.2-5.9h2l-3.4,8.5h-1.6L38.5,69.9z"/>
	<path d="M48.1,74.7v-4.8h1.8v4.7c0,1.4,0.7,2.1,1.8,2.1s1.8-0.7,1.8-2v-4.8h1.8v4.7c0,2.5-1.4,3.8-3.7,3.8
		C49.4,78.4,48.1,77.2,48.1,74.7z"/>
	<path d="M57.3,69.9h3.8c1.1,0,1.9,0.3,2.4,0.9c0.5,0.5,0.7,1.1,0.7,1.9v0c0,1.4-0.7,2.2-1.8,2.6l2.1,3h-2.2l-1.8-2.7h-1.5v2.7h-1.8
		V69.9z M61,74c0.9,0,1.4-0.5,1.4-1.2v0c0-0.8-0.6-1.2-1.5-1.2h-1.8V74H61z"/>
	<path d="M65.8,74.7v-4.8h1.8v4.7c0,1.4,0.7,2.1,1.8,2.1s1.8-0.7,1.8-2v-4.8h1.8v4.7c0,2.5-1.4,3.8-3.7,3.8
		C67.2,78.4,65.8,77.2,65.8,74.7z"/>
	<path d="M78,77.1l1.1-1.3c0.8,0.6,1.5,1,2.5,1c0.8,0,1.2-0.3,1.2-0.8v0c0-0.5-0.3-0.7-1.7-1.1c-1.7-0.4-2.8-0.9-2.8-2.6v0
		c0-1.5,1.2-2.5,2.9-2.5c1.2,0,2.3,0.4,3.1,1.1l-1,1.4c-0.7-0.5-1.5-0.8-2.2-0.8c-0.7,0-1.1,0.3-1.1,0.7v0c0,0.6,0.4,0.7,1.8,1.1
		c1.7,0.4,2.7,1.1,2.7,2.5v0c0,1.7-1.3,2.6-3.1,2.6C80.3,78.4,79,78,78,77.1z"/>
	<path d="M89,69.8h1.7l3.6,8.5h-1.9l-0.8-1.9H88l-0.8,1.9h-1.9L89,69.8z M90.9,74.8L89.8,72l-1.1,2.7H90.9z"/>
	<path d="M96.6,75l-3.2-5.1h2.2l2,3.4l2-3.4h2.1l-3.2,5v3.3h-1.8V75z"/>
	<path d="M103,69.9h1.8v8.4H103V69.9z"/>
	<path d="M106.3,77.1l1.1-1.3c0.8,0.6,1.5,1,2.5,1c0.8,0,1.2-0.3,1.2-0.8v0c0-0.5-0.3-0.7-1.7-1.1c-1.7-0.4-2.8-0.9-2.8-2.6v0
		c0-1.5,1.2-2.5,2.9-2.5c1.2,0,2.3,0.4,3.1,1.1l-1,1.4c-0.7-0.5-1.5-0.8-2.2-0.8c-0.7,0-1.1,0.3-1.1,0.7v0c0,0.6,0.4,0.7,1.8,1.1
		c1.7,0.4,2.7,1.1,2.7,2.5v0c0,1.7-1.3,2.6-3.1,2.6C108.6,78.4,107.3,78,106.3,77.1z"/>
	<path d="M114.7,69.9h1.8v8.4h-1.8V69.9z"/>
</g>
<g>
	<path d="M270,71.7l-1.5,0.4l-0.4-1.5l2.4-0.7h1.3v8.5H270V71.7z"/>
	<path d="M273.5,77.2l1.1-1.3c0.6,0.6,1.3,0.9,2,0.9c0.9,0,1.4-0.4,1.4-1.2v0c0-0.7-0.6-1.1-1.5-1.1c-0.5,0-1,0.1-1.4,0.3L274,74
		l0.2-4.1h5.2v1.6h-3.6l-0.1,1.5c0.3-0.1,0.6-0.1,1.1-0.1c1.6,0,2.9,0.8,2.9,2.7v0c0,1.8-1.3,2.9-3.2,2.9
		C275.3,78.4,274.3,77.9,273.5,77.2z"/>
	<path d="M282.2,77.5c-0.6-0.6-1-1.5-1-3.2v0c0-2.6,1.2-4.6,3.7-4.6c1.1,0,1.9,0.3,2.6,0.9l-1,1.4c-0.6-0.4-1-0.7-1.7-0.7
		c-1,0-1.6,0.8-1.7,1.9c0.4-0.3,0.9-0.5,1.7-0.5c1.7,0,3,0.9,3,2.7v0c0,1.7-1.4,2.9-3.2,2.9C283.5,78.4,282.7,78.1,282.2,77.5z
		 M285.9,75.6L285.9,75.6c0-0.7-0.6-1.2-1.5-1.2s-1.4,0.5-1.4,1.2v0c0,0.7,0.6,1.2,1.5,1.2C285.4,76.8,285.9,76.3,285.9,75.6z"/>
</g>
<g>
	<path d="M13.5,122.9L13.5,122.9c0-2.4,1.9-4.4,4.5-4.4c2.6,0,4.4,1.9,4.4,4.3v0c0,2.4-1.9,4.3-4.5,4.3
		C15.3,127.3,13.5,125.3,13.5,122.9z M20.5,122.9L20.5,122.9c0-1.5-1.1-2.7-2.5-2.7c-1.5,0-2.5,1.2-2.5,2.6v0c0,1.4,1.1,2.6,2.5,2.6
		C19.4,125.6,20.5,124.4,20.5,122.9z M15.8,116.4h1.8v1.5h-1.8V116.4z M18.4,116.4h1.8v1.5h-1.8V116.4z"/>
	<path d="M24,118.7h1.7l3.9,5.2v-5.2h1.8v8.4h-1.6l-4.1-5.3v5.3H24V118.7z"/>
	<path d="M33.2,122.9L33.2,122.9c0-2.4,1.9-4.4,4.4-4.4c1.5,0,2.4,0.4,3.3,1.2l-1.2,1.4c-0.6-0.5-1.2-0.9-2.2-0.9
		c-1.3,0-2.4,1.2-2.4,2.6v0c0,1.5,1.1,2.7,2.5,2.7c0.7,0,1.3-0.2,1.7-0.5v-1.2h-1.9v-1.6h3.6v3.6c-0.9,0.7-2.1,1.3-3.6,1.3
		C35,127.3,33.2,125.4,33.2,122.9z"/>
	<path d="M42.6,122.9L42.6,122.9c0-2.4,1.9-4.4,4.5-4.4c2.6,0,4.4,1.9,4.4,4.3v0c0,2.4-1.9,4.3-4.5,4.3
		C44.4,127.3,42.6,125.3,42.6,122.9z M49.6,122.9L49.6,122.9c0-1.5-1.1-2.7-2.5-2.7c-1.5,0-2.5,1.2-2.5,2.6v0c0,1.4,1.1,2.6,2.5,2.6
		C48.5,125.6,49.6,124.4,49.6,122.9z M44.8,116.4h1.8v1.5h-1.8V116.4z M47.5,116.4h1.8v1.5h-1.8V116.4z"/>
	<path d="M53.1,118.7H57c1.1,0,1.9,0.3,2.4,0.9c0.5,0.5,0.7,1.1,0.7,1.9v0c0,1.4-0.7,2.2-1.8,2.6l2.1,3h-2.2l-1.8-2.7H55v2.7h-1.8
		V118.7z M56.9,122.8c0.9,0,1.4-0.5,1.4-1.2v0c0-0.8-0.6-1.2-1.5-1.2H55v2.4H56.9z"/>
	<path d="M61.7,123.5v-4.8h1.8v4.7c0,1.4,0.7,2.1,1.8,2.1c1.1,0,1.8-0.7,1.8-2v-4.8H69v4.7c0,2.5-1.4,3.8-3.7,3.8
		C63.1,127.3,61.7,126,61.7,123.5z M63.2,116.5h1.8v1.5h-1.8V116.5z M65.8,116.5h1.8v1.5h-1.8V116.5z"/>
	<path d="M70.9,118.7h1.8v6.7h4.2v1.7h-6V118.7z"/>
	<path d="M78.3,118.7h6.3v1.6h-4.5v1.7h4v1.6h-4v1.8h4.6v1.6h-6.4V118.7z"/>
	<path d="M86.3,118.7h1.7l3.9,5.2v-5.2h1.8v8.4h-1.6l-4.1-5.3v5.3h-1.8V118.7z"/>
	<path d="M99.5,118.7h1.8v8.4h-1.8V118.7z M99.5,116.5h1.8v1.5h-1.8V116.5z"/>
	<path d="M102.9,125.9l1.1-1.3c0.8,0.6,1.5,1,2.5,1c0.8,0,1.2-0.3,1.2-0.8v0c0-0.5-0.3-0.7-1.7-1.1c-1.7-0.4-2.8-0.9-2.8-2.6v0
		c0-1.5,1.2-2.5,2.9-2.5c1.2,0,2.3,0.4,3.1,1.1l-1,1.4c-0.7-0.5-1.5-0.8-2.2-0.8s-1.1,0.3-1.1,0.7v0c0,0.6,0.4,0.7,1.8,1.1
		c1.7,0.4,2.7,1.1,2.7,2.5v0c0,1.7-1.3,2.6-3.1,2.6C105.2,127.2,103.9,126.8,102.9,125.9z"/>
	<path d="M112.9,120.4h-2.6v-1.7h7v1.7h-2.6v6.7h-1.8V120.4z"/>
	<path d="M118.8,118.7h1.8v8.4h-1.8V118.7z M118.8,116.5h1.8v1.5h-1.8V116.5z"/>
	<path d="M122.8,118.7h1.8v3.3h3.4v-3.3h1.8v8.4H128v-3.4h-3.4v3.4h-1.8V118.7z"/>
	<path d="M131.9,118.7h3.3c2.6,0,4.5,1.8,4.5,4.2v0c0,2.4-1.8,4.2-4.5,4.2h-3.3V118.7z M135.2,125.5c1.5,0,2.5-1,2.5-2.5v0
		c0-1.5-1-2.5-2.5-2.5h-1.4v5.1H135.2z"/>
	<path d="M143.6,118.7h1.7l3.6,8.5h-1.9l-0.8-1.9h-3.5l-0.8,1.9H140L143.6,118.7z M145.5,123.6l-1.1-2.7l-1.1,2.7H145.5z"/>
	<path d="M150.2,118.7h2l2.2,3.5l2.2-3.5h2v8.4h-1.8v-5.5l-2.4,3.6h0l-2.3-3.6v5.4h-1.8V118.7z"/>
</g>
<g>
	<path d="M270,120.5l-1.5,0.4l-0.4-1.5l2.4-0.7h1.3v8.5H270V120.5z"/>
	<path d="M273.5,126l1.1-1.3c0.6,0.6,1.3,0.9,2,0.9c0.9,0,1.4-0.4,1.4-1.2v0c0-0.7-0.6-1.1-1.5-1.1c-0.5,0-1,0.1-1.4,0.3l-1.1-0.7
		l0.2-4.1h5.2v1.6h-3.6l-0.1,1.5c0.3-0.1,0.6-0.1,1.1-0.1c1.6,0,2.9,0.8,2.9,2.7v0c0,1.8-1.3,2.9-3.2,2.9
		C275.3,127.3,274.3,126.8,273.5,126z"/>
	<path d="M281.3,125.2h1.9v1.9h-1.9V125.2z"/>
	<path d="M284.5,126l1.1-1.3c0.6,0.6,1.3,0.9,2,0.9c0.9,0,1.4-0.4,1.4-1.2v0c0-0.7-0.6-1.1-1.5-1.1c-0.5,0-1,0.1-1.4,0.3l-1.1-0.7
		l0.2-4.1h5.2v1.6h-3.6l-0.1,1.5c0.3-0.1,0.6-0.1,1.1-0.1c1.6,0,2.9,0.8,2.9,2.7v0c0,1.8-1.3,2.9-3.2,2.9
		C286.3,127.3,285.3,126.8,284.5,126z"/>
	<path d="M296.3,125.3h-4.1l-0.3-1.3l4.6-5.3h1.6v5.1h1.1v1.5H298v1.8h-1.8V125.3z M296.3,123.8v-2.6l-2.2,2.6H296.3z"/>
	<path d="M300.4,125.7l2.8-2.3c1-0.9,1.5-1.3,1.5-2c0-0.7-0.5-1.1-1.1-1.1c-0.6,0-1.1,0.4-1.7,1.1l-1.3-1c0.8-1.1,1.6-1.7,3.1-1.7
		c1.7,0,2.9,1,2.9,2.6v0c0,1.4-0.7,2.1-2.2,3.2l-1.4,1.1h3.7v1.6h-6.2V125.7z"/>
</g>
<g>
	<path d="M15.8,169.3h-2.6v-1.7h7v1.7h-2.6v6.7h-1.8V169.3z"/>
	<path d="M20.9,171.8L20.9,171.8c0-2.4,1.9-4.4,4.5-4.4c2.6,0,4.4,1.9,4.4,4.3v0c0,2.4-1.9,4.3-4.5,4.3
		C22.7,176.1,20.9,174.2,20.9,171.8z M27.9,171.8L27.9,171.8c0-1.5-1.1-2.7-2.5-2.7c-1.5,0-2.5,1.2-2.5,2.6v0c0,1.4,1.1,2.6,2.5,2.6
		C26.9,174.4,27.9,173.2,27.9,171.8z"/>
	<path d="M31.5,167.6h3.4c2,0,3.2,1.2,3.2,2.9v0c0,1.9-1.5,3-3.4,3h-1.4v2.5h-1.8V167.6z M34.8,171.8c0.9,0,1.5-0.6,1.5-1.3v0
		c0-0.8-0.6-1.3-1.5-1.3h-1.4v2.6H34.8z"/>
	<path d="M39.5,167.6h1.8v6.7h4.2v1.7h-6V167.6z"/>
	<path d="M49.8,167.5h1.7l3.6,8.5h-1.9l-0.8-1.9h-3.5l-0.8,1.9h-1.9L49.8,167.5z M51.7,172.4l-1.1-2.7l-1.1,2.7H51.7z"/>
	<path d="M56.4,167.6h2l2.2,3.5l2.2-3.5h2v8.4h-1.8v-5.5l-2.4,3.6h0l-2.3-3.6v5.4h-1.8V167.6z"/>
	<path d="M72.8,172.7l-3.2-5.1h2.2l2,3.4l2-3.4h2.1l-3.2,5v3.3h-1.8V172.7z"/>
	<path d="M80.6,167.5h1.7l3.6,8.5h-1.9l-0.8-1.9h-3.5l-0.8,1.9H77L80.6,167.5z M82.5,172.4l-1.1-2.7l-1.1,2.7H82.5z"/>
	<path d="M88,169.3h-2.6v-1.7h7v1.7h-2.6v6.7H88V169.3z"/>
	<path d="M93.9,167.6h1.8v8.4h-1.8V167.6z"/>
	<path d="M97.9,167.6h3.8c1.1,0,1.9,0.3,2.4,0.9c0.5,0.5,0.7,1.1,0.7,1.9v0c0,1.4-0.7,2.2-1.8,2.6l2.1,3H103l-1.8-2.7h-1.5v2.7h-1.8
		V167.6z M101.6,171.6c0.9,0,1.4-0.5,1.4-1.2v0c0-0.8-0.6-1.2-1.5-1.2h-1.8v2.4H101.6z"/>
	<path d="M106.7,167.6h1.8v8.4h-1.8V167.6z"/>
	<path d="M110.6,167.6h2l2.2,3.5l2.2-3.5h2v8.4h-1.8v-5.5l-2.4,3.6h0l-2.3-3.6v5.4h-1.8V167.6z"/>
	<path d="M124.3,172.5c0-2.3,1.1-3.9,3.3-5.1l0.8,1.2c-1.6,1.1-2.3,2.2-2.3,3.9c0,1.7,0.7,2.8,2.3,3.9l-0.8,1.2
		C125.4,176.5,124.3,174.8,124.3,172.5z"/>
	<path d="M131.9,169.3h-2.6v-1.7h7v1.7h-2.6v6.7h-1.8V169.3z"/>
	<path d="M137.7,167.6h1.8v6.7h4.2v1.7h-6V167.6z"/>
	<path d="M144.7,176.4c1.6-1.1,2.3-2.2,2.3-3.9c0-1.7-0.7-2.8-2.3-3.9l0.8-1.2c2.2,1.2,3.3,2.8,3.3,5.1s-1.1,3.9-3.3,5.1
		L144.7,176.4z"/>
</g>
<g>
	<path d="M268.5,174.5l2.8-2.3c1-0.9,1.5-1.3,1.5-2c0-0.7-0.5-1.1-1.1-1.1c-0.6,0-1.1,0.4-1.7,1.1l-1.3-1c0.8-1.1,1.6-1.7,3.1-1.7
		c1.7,0,2.9,1,2.9,2.6v0c0,1.4-0.7,2.1-2.2,3.2l-1.4,1.1h3.7v1.6h-6.2V174.5z"/>
	<path d="M276.1,174h1.9v1.9h-1.9V174z"/>
	<path d="M279.3,174.7l1.3-1.2c0.6,0.6,1.2,1,2,1c0.7,0,1.2-0.4,1.2-1v0c0-0.7-0.6-1.1-1.6-1.1h-0.8l-0.3-1.2l2-2h-3.3v-1.6h5.7v1.4
		l-2.1,2c1.1,0.2,2.3,0.8,2.3,2.4v0c0,1.6-1.2,2.7-3,2.7C281,176.1,280,175.5,279.3,174.7z"/>
	<path d="M286.8,173.7L286.8,173.7c0-1,0.5-1.6,1.4-2.1c-0.6-0.4-1.1-0.9-1.1-1.8v0c0-1.3,1.2-2.3,3-2.3c1.8,0,3,1,3,2.3v0
		c0,0.9-0.4,1.4-1.1,1.8c0.9,0.4,1.4,1,1.4,2v0c0,1.6-1.4,2.5-3.2,2.5C288.2,176.1,286.8,175.1,286.8,173.7z M291.5,173.5
		L291.5,173.5c0-0.7-0.6-1.1-1.5-1.1c-0.8,0-1.5,0.4-1.5,1v0c0,0.6,0.5,1,1.5,1C290.9,174.6,291.5,174.1,291.5,173.5z M291.2,170
		L291.2,170c0-0.5-0.4-1-1.2-1c-0.8,0-1.2,0.5-1.2,1v0c0,0.6,0.5,1,1.2,1C290.8,171,291.2,170.6,291.2,170z"/>
	<path d="M294.4,174.5l2.8-2.3c1-0.9,1.5-1.3,1.5-2c0-0.7-0.5-1.1-1.1-1.1c-0.6,0-1.1,0.4-1.7,1.1l-1.3-1c0.8-1.1,1.6-1.7,3.1-1.7
		c1.7,0,2.9,1,2.9,2.6v0c0,1.4-0.7,2.1-2.2,3.2l-1.4,1.1h3.7v1.6h-6.2V174.5z"/>
	<path d="M302,174h1.9v1.9H302V174z"/>
	<path d="M306.4,175.2c-0.6-0.6-1-1.5-1-3.2v0c0-2.6,1.2-4.6,3.7-4.6c1.1,0,1.9,0.3,2.6,0.9l-1,1.4c-0.6-0.4-1-0.7-1.7-0.7
		c-1,0-1.6,0.8-1.7,1.9c0.4-0.3,0.9-0.5,1.7-0.5c1.7,0,3,0.9,3,2.7v0c0,1.7-1.4,2.9-3.2,2.9C307.7,176.1,306.9,175.8,306.4,175.2z
		 M310.1,173.3L310.1,173.3c0-0.7-0.6-1.2-1.5-1.2s-1.4,0.5-1.4,1.2v0c0,0.7,0.6,1.2,1.5,1.2C309.6,174.5,310.1,174,310.1,173.3z"/>
	<path d="M313,174.7l1.3-1.2c0.6,0.6,1.2,1,2,1c0.7,0,1.2-0.4,1.2-1v0c0-0.7-0.6-1.1-1.6-1.1h-0.8l-0.3-1.2l2-2h-3.3v-1.6h5.7v1.4
		l-2.1,2c1.1,0.2,2.3,0.8,2.3,2.4v0c0,1.6-1.2,2.7-3,2.7C314.8,176.1,313.7,175.5,313,174.7z"/>
	<path d="M320.4,174.7l1.3-1.2c0.6,0.6,1.2,1,2,1c0.7,0,1.2-0.4,1.2-1v0c0-0.7-0.6-1.1-1.6-1.1h-0.8l-0.3-1.2l2-2h-3.3v-1.6h5.7v1.4
		l-2.1,2c1.1,0.2,2.3,0.8,2.3,2.4v0c0,1.6-1.2,2.7-3,2.7C322.2,176.1,321.2,175.5,320.4,174.7z"/>
	<path d="M328.2,174h1.9v1.9h-1.9V174z"/>
	<path d="M331.3,171.8L331.3,171.8c0-2.5,1.5-4.4,3.7-4.4c2.2,0,3.7,1.9,3.7,4.3v0c0,2.4-1.5,4.3-3.7,4.3
		C332.8,176.1,331.3,174.2,331.3,171.8z M336.8,171.8L336.8,171.8c0-1.5-0.7-2.7-1.8-2.7c-1.1,0-1.8,1.1-1.8,2.7v0
		c0,1.5,0.7,2.7,1.8,2.7S336.8,173.3,336.8,171.8z"/>
	<path d="M341.5,169.4l-1.5,0.4l-0.4-1.5l2.4-0.7h1.3v8.5h-1.8V169.4z"/>
	<path d="M345.3,175.1l1-1.4c0.6,0.5,1.1,0.7,1.8,0.7c1,0,1.6-0.8,1.7-1.9c-0.4,0.3-1,0.6-1.7,0.6c-1.8,0-3-1-3-2.7v0
		c0-1.7,1.3-2.9,3.2-2.9c1.1,0,1.8,0.3,2.4,0.9c0.6,0.6,1,1.5,1,3.2v0c0,2.7-1.3,4.6-3.7,4.6C346.8,176.1,346,175.7,345.3,175.1z
		 M349.8,170.3L349.8,170.3c0-0.8-0.6-1.3-1.5-1.3c-0.9,0-1.4,0.5-1.4,1.3v0c0,0.7,0.6,1.3,1.5,1.3S349.8,171,349.8,170.3z"/>
	<path d="M362.5,169.3H360v-1.7h7v1.7h-2.6v6.7h-1.8V169.3z"/>
	<path d="M368.3,167.6h1.8v6.7h4.2v1.7h-6V167.6z"/>
</g>
</svg>
