<!-- Generator: Adobe Illustrator 21.0.2, SVG Export Plug-In  -->
<svg version="1.1"
	 xmlns="http://www.w3.org/2000/svg" xmlns:xlink="http://www.w3.org/1999/xlink" xmlns:a="http://ns.adobe.com/AdobeSVGViewerExtensions/3.0/"
	 x="0px" y="0px" width="1139.4px" height="729.1px" viewBox="0 0 1139.4 729.1" style="enable-background:new 0 0 1139.4 729.1;"
	 xml:space="preserve">
<style type="text/css">
	.st0{fill:#E5C7B1;stroke:#1D77BD;stroke-width:1.5;stroke-miterlimit:10;}
	.st1{fill:#C7D9E2;stroke:#367BAF;stroke-width:2;stroke-miterlimit:10;}
	.st2{fill:#F6E4E1;stroke:#367BAF;stroke-width:2;stroke-miterlimit:10;}
	.st3{fill:#E74229;stroke:#367BAF;stroke-width:2;stroke-miterlimit:10;}
	.st4{fill:#EECC3E;stroke:#367BAF;stroke-width:2;stroke-miterlimit:10;}
	.st5{fill:#3A2A26;stroke:#367BAF;stroke-width:2;stroke-miterlimit:10;}
	.st6{fill:#D73D27;stroke:#367BAF;stroke-width:2;stroke-miterlimit:10;}
	.st7{fill:#E9EFF1;stroke:#367BAF;stroke-width:2;stroke-miterlimit:10;}
	.st8{fill:#EA8B77;stroke:#367BAF;stroke-width:2;stroke-miterlimit:10;}
	.st9{fill:#B4C7CC;}
	.st10{fill:#367BAF;}
	.st11{fill:#F2C345;}
	.st12{fill:#FAF5E8;}
	.st13{fill:#7A6D67;}
	.st14{fill:#EC5A99;}
	.st15{fill:#E22E2D;}
	.st16{fill:#57BB60;}
	.st17{fill:#AEC2CE;stroke:#367BAF;stroke-width:2;stroke-miterlimit:10;}
	.st18{fill:#F6E4E1;}
	.st19{fill:#3A2A26;stroke:#367BAF;stroke-width:2;stroke-linejoin:round;stroke-miterlimit:10;}
	.st20{fill:#EFA758;stroke:#367BAF;stroke-width:2;stroke-linejoin:round;stroke-miterlimit:10;}
	.st21{fill:#513E39;stroke:#367BAF;stroke-width:2;stroke-linejoin:round;stroke-miterlimit:10;}
	.st22{fill:#758289;stroke:#367BAF;stroke-width:2;stroke-miterlimit:10;}
	.st23{fill:none;}
	.st24{font-family:'Gotham-Ultra';}
	.st25{font-size:28px;}
	.st26{letter-spacing:-1;}
</style>
<defs>
</defs>
<path class="st0" d="M1138.7,718.3c0,5.5-4.5,10-10,10H10.8c-5.5,0-10-4.5-10-10v-23c0-5.5,4.5-10,10-10h1117.9c5.5,0,10,4.5,10,10
	V718.3z"/>
<g>
	<polygon class="st1" points="21.7,664.1 212.4,426.3 921.5,426.3 1125,664.1 	"/>
	<g>
		<path class="st2" d="M417.4,9.3c0-4.6-3.7-8.3-8.3-8.3h-22c-4.6,0-8.3,3.7-8.3,8.3V29c0,4.6,3.7,8.3,8.3,8.3h22
			c4.6,0,8.3-3.7,8.3-8.3V9.3z"/>
		<circle class="st3" cx="398" cy="19.1" r="12"/>
	</g>
	<g>
		<path class="st2" d="M753.5,9.3c0-4.6-3.7-8.3-8.3-8.3h-22c-4.6,0-8.3,3.7-8.3,8.3V29c0,4.6,3.7,8.3,8.3,8.3h22
			c4.6,0,8.3-3.7,8.3-8.3V9.3z"/>
		<circle class="st4" cx="734.1" cy="19.1" r="12"/>
	</g>
	<path class="st2" d="M827.1,165.9c0,5.2-3.8,9.5-8.5,9.5H319.8c-4.7,0-8.5-4.2-8.5-9.5V46.7c0-5.2,3.8-9.5,8.5-9.5h498.7
		c4.7,0,8.5,4.2,8.5,9.5V165.9z"/>
	<path class="st5" d="M819.8,157.1c0,4.6-3.7,8.3-8.3,8.3H326.7c-4.6,0-8.3-3.7-8.3-8.3V53.3c0-4.6,3.7-8.3,8.3-8.3h484.8
		c4.6,0,8.3,3.7,8.3,8.3V157.1z"/>
	<g>
		<rect x="523.6" y="375.5" class="st6" width="147.2" height="11.1"/>
		<g>
			<path class="st7" d="M596.9,386.7h10.2c2.5-3.5,5.3-7.4,8.1-11.1h-10.2C601.4,380.3,598.8,384,596.9,386.7z"/>
			<path class="st7" d="M573.4,386.7h10.2c2.5-3.5,5.3-7.4,8.1-11.1h-10.2C577.9,380.3,575.3,384,573.4,386.7z"/>
			<path class="st7" d="M628.5,375.5c-3.5,4.8-6.1,8.4-8.1,11.1h10.2c2.5-3.5,5.3-7.4,8.1-11.1H628.5z"/>
			<path class="st7" d="M662.2,375.5H652c-3.5,4.8-6.1,8.4-8.1,11.1h10.2C656.7,383.2,659.5,379.3,662.2,375.5z"/>
			<path class="st7" d="M526.3,386.7h10.2c2.5-3.5,5.3-7.4,8.1-11.1h-10.2C530.9,380.3,528.3,384,526.3,386.7z"/>
			<path class="st7" d="M549.8,386.7h10.2c2.5-3.5,5.3-7.4,8.1-11.1h-10.2C554.4,380.3,551.8,384,549.8,386.7z"/>
		</g>
	</g>
	<g>
		<rect x="719.2" y="375.5" class="st6" width="147.2" height="11.1"/>
		<g>
			<path class="st7" d="M792.5,386.7h10.2c2.5-3.5,5.3-7.4,8.1-11.1h-10.2C797,380.3,794.4,384,792.5,386.7z"/>
			<path class="st7" d="M768.9,386.7h10.2c2.5-3.5,5.3-7.4,8.1-11.1H777C773.5,380.3,770.9,384,768.9,386.7z"/>
			<path class="st7" d="M824.1,375.5c-3.5,4.8-6.1,8.4-8.1,11.1h10.2c2.5-3.5,5.3-7.4,8.1-11.1H824.1z"/>
			<path class="st7" d="M857.8,375.5h-10.2c-3.5,4.8-6.1,8.4-8.1,11.1h10.2C852.3,383.2,855.1,379.3,857.8,375.5z"/>
			<path class="st7" d="M721.9,386.7h10.2c2.5-3.5,5.3-7.4,8.1-11.1H730C726.5,380.3,723.8,384,721.9,386.7z"/>
			<path class="st7" d="M745.4,386.7h10.2c2.5-3.5,5.3-7.4,8.1-11.1h-10.2C750,380.3,747.4,384,745.4,386.7z"/>
		</g>
	</g>
	<rect x="643.9" y="291.7" class="st8" width="65.6" height="149"/>
	<rect x="651.2" y="316.9" class="st7" width="49.1" height="58.6"/>
	<rect x="655.7" y="291.7" class="st7" width="39.3" height="25.2"/>
	<rect x="658.2" y="325" class="st5" width="35.1" height="32.8"/>
	<rect x="658.2" y="361.2" class="st5" width="36.8" height="6.7"/>
	<rect x="445.1" y="291.7" class="st8" width="65.6" height="149"/>
	<g>
		<g>
			<path class="st9" d="M269.2,429.8V184.2c0-4.1-2.8-7.3-6.3-7.3c-3.5,0-6.3,3.3-6.3,7.3v245.6H269.2z"/>
			<path class="st10" d="M270.1,430.7h-14.4V184.2c0-4.5,3.2-8.2,7.2-8.2c4,0,7.2,3.7,7.2,8.2V430.7z M257.5,428.9h10.8V184.2
				c0-3.5-2.4-6.4-5.4-6.4c-3,0-5.4,2.9-5.4,6.4V428.9z"/>
		</g>
		<g>
			<g>
				<line class="st9" x1="262.9" y1="185.6" x2="346" y2="185.6"/>
				<path class="st10" d="M346,186.5h-83.1c-0.5,0-0.9-0.4-0.9-0.9c0-0.5,0.4-0.9,0.9-0.9H346c0.5,0,0.9,0.4,0.9,0.9
					C346.9,186.1,346.5,186.5,346,186.5z"/>
			</g>
			<g>
				<line class="st9" x1="262.9" y1="216.4" x2="346" y2="216.4"/>
				<path class="st10" d="M346,217.4h-83.1c-0.5,0-0.9-0.4-0.9-0.9c0-0.5,0.4-0.9,0.9-0.9H346c0.5,0,0.9,0.4,0.9,0.9
					C346.9,216.9,346.5,217.4,346,217.4z"/>
			</g>
			<g>
				<line class="st9" x1="266.6" y1="216.4" x2="289.8" y2="185.6"/>
				<path class="st10" d="M266.6,217.4c-0.2,0-0.4-0.1-0.5-0.2c-0.4-0.3-0.5-0.9-0.2-1.3l23.2-30.8c0.3-0.4,0.9-0.5,1.3-0.2
					c0.4,0.3,0.5,0.9,0.2,1.3L267.3,217C267.1,217.2,266.8,217.4,266.6,217.4z"/>
			</g>
			<g>
				<line class="st9" x1="289.8" y1="216.4" x2="266.6" y2="185.6"/>
				<path class="st10" d="M289.8,217.4c-0.3,0-0.5-0.1-0.7-0.4l-23.2-30.8c-0.3-0.4-0.2-1,0.2-1.3c0.4-0.3,1-0.2,1.3,0.2l23.2,30.8
					c0.3,0.4,0.2,1-0.2,1.3C290.2,217.3,290,217.4,289.8,217.4z"/>
			</g>
			<g>
				<line class="st9" x1="292.8" y1="216.4" x2="316.1" y2="185.6"/>
				<path class="st10" d="M292.8,217.4c-0.2,0-0.4-0.1-0.5-0.2c-0.4-0.3-0.5-0.9-0.2-1.3l23.2-30.8c0.3-0.4,0.9-0.5,1.3-0.2
					c0.4,0.3,0.5,0.9,0.2,1.3L293.6,217C293.4,217.2,293.1,217.4,292.8,217.4z"/>
			</g>
			<g>
				<line class="st9" x1="316.1" y1="216.4" x2="292.8" y2="185.6"/>
				<path class="st10" d="M316.1,217.4c-0.3,0-0.5-0.1-0.7-0.4l-23.2-30.8c-0.3-0.4-0.2-1,0.2-1.3c0.4-0.3,1-0.2,1.3,0.2l23.2,30.8
					c0.3,0.4,0.2,1-0.2,1.3C316.4,217.3,316.2,217.4,316.1,217.4z"/>
			</g>
			<g>
				<line class="st9" x1="319.1" y1="216.4" x2="342.3" y2="185.6"/>
				<path class="st10" d="M319.1,217.4c-0.2,0-0.4-0.1-0.5-0.2c-0.4-0.3-0.5-0.9-0.2-1.3l23.2-30.8c0.3-0.4,0.9-0.5,1.3-0.2
					c0.4,0.3,0.5,0.9,0.2,1.3L319.8,217C319.6,217.2,319.4,217.4,319.1,217.4z"/>
			</g>
			<g>
				<line class="st9" x1="342.3" y1="216.4" x2="319.1" y2="185.6"/>
				<path class="st10" d="M342.3,217.4c-0.3,0-0.5-0.1-0.7-0.4l-23.2-30.8c-0.3-0.4-0.2-1,0.2-1.3c0.4-0.3,1-0.2,1.3,0.2l23.2,30.8
					c0.3,0.4,0.2,1-0.2,1.3C342.7,217.3,342.5,217.4,342.3,217.4z"/>
			</g>
		</g>
		<g>
			<path class="st9" d="M272,184.4c0,1.8-1.3,3.3-2.8,3.3h-12.4c-1.6,0-2.8-1.5-2.8-3.3l0,0c0-1.8,1.3-3.3,2.8-3.3h12.4
				C270.7,181.1,272,182.5,272,184.4L272,184.4z"/>
			<path class="st10" d="M269.1,188.6h-12.4c-2.1,0-3.7-1.9-3.7-4.2c0-2.3,1.7-4.2,3.7-4.2h12.4c2.1,0,3.7,1.9,3.7,4.2
				C272.9,186.7,271.2,188.6,269.1,188.6z M256.7,182c-1.1,0-1.9,1.1-1.9,2.4c0,1.3,0.9,2.4,1.9,2.4h12.4c1.1,0,1.9-1.1,1.9-2.4
				c0-1.3-0.9-2.4-1.9-2.4H256.7z"/>
		</g>
		<g>
			<path class="st9" d="M272,216.4c0,1.8-1.3,3.3-2.8,3.3h-12.4c-1.6,0-2.8-1.5-2.8-3.3l0,0c0-1.8,1.3-3.3,2.8-3.3h12.4
				C270.7,213.1,272,214.6,272,216.4L272,216.4z"/>
			<path class="st10" d="M269.1,220.7h-12.4c-2.1,0-3.7-1.9-3.7-4.2c0-2.3,1.7-4.2,3.7-4.2h12.4c2.1,0,3.7,1.9,3.7,4.2
				C272.9,218.8,271.2,220.7,269.1,220.7z M256.7,214c-1.1,0-1.9,1.1-1.9,2.4c0,1.3,0.9,2.4,1.9,2.4h12.4c1.1,0,1.9-1.1,1.9-2.4
				c0-1.3-0.9-2.4-1.9-2.4H256.7z"/>
		</g>
		<g>
			<path class="st9" d="M866.4,429.8V184.2c0-4.1,2.8-7.3,6.3-7.3c3.5,0,6.3,3.3,6.3,7.3v245.6H866.4z"/>
			<path class="st10" d="M879.9,430.7h-14.4V184.2c0-4.5,3.2-8.2,7.2-8.2c4,0,7.2,3.7,7.2,8.2V430.7z M867.3,428.9h10.8V184.2
				c0-3.5-2.4-6.4-5.4-6.4c-3,0-5.4,2.9-5.4,6.4V428.9z"/>
		</g>
		<g>
			<g>
				<line class="st9" x1="872.7" y1="185.6" x2="789.7" y2="185.6"/>
				<path class="st10" d="M872.7,186.5h-83.1c-0.5,0-0.9-0.4-0.9-0.9c0-0.5,0.4-0.9,0.9-0.9h83.1c0.5,0,0.9,0.4,0.9,0.9
					C873.6,186.1,873.2,186.5,872.7,186.5z"/>
			</g>
			<g>
				<line class="st9" x1="872.7" y1="216.4" x2="789.7" y2="216.4"/>
				<path class="st10" d="M872.7,217.4h-83.1c-0.5,0-0.9-0.4-0.9-0.9c0-0.5,0.4-0.9,0.9-0.9h83.1c0.5,0,0.9,0.4,0.9,0.9
					C873.6,216.9,873.2,217.4,872.7,217.4z"/>
			</g>
			<g>
				<line class="st9" x1="869.1" y1="216.4" x2="845.8" y2="185.6"/>
				<path class="st10" d="M869.1,217.4c-0.3,0-0.5-0.1-0.7-0.4l-23.2-30.8c-0.3-0.4-0.2-1,0.2-1.3c0.4-0.3,1-0.2,1.3,0.2l23.2,30.8
					c0.3,0.4,0.2,1-0.2,1.3C869.4,217.3,869.3,217.4,869.1,217.4z"/>
			</g>
			<g>
				<line class="st9" x1="845.8" y1="216.4" x2="869.1" y2="185.6"/>
				<path class="st10" d="M845.8,217.4c-0.2,0-0.4-0.1-0.5-0.2c-0.4-0.3-0.5-0.9-0.2-1.3l23.2-30.8c0.3-0.4,0.9-0.5,1.3-0.2
					c0.4,0.3,0.5,0.9,0.2,1.3L846.6,217C846.4,217.2,846.1,217.4,845.8,217.4z"/>
			</g>
			<g>
				<line class="st9" x1="842.8" y1="216.4" x2="819.6" y2="185.6"/>
				<path class="st10" d="M842.8,217.4c-0.3,0-0.5-0.1-0.7-0.4l-23.2-30.8c-0.3-0.4-0.2-1,0.2-1.3c0.4-0.3,1-0.2,1.3,0.2l23.2,30.8
					c0.3,0.4,0.2,1-0.2,1.3C843.2,217.3,843,217.4,842.8,217.4z"/>
			</g>
			<g>
				<line class="st9" x1="819.6" y1="216.4" x2="842.8" y2="185.6"/>
				<path class="st10" d="M819.6,217.4c-0.2,0-0.4-0.1-0.5-0.2c-0.4-0.3-0.5-0.9-0.2-1.3l23.2-30.8c0.3-0.4,0.9-0.5,1.3-0.2
					c0.4,0.3,0.5,0.9,0.2,1.3L820.3,217C820.1,217.2,819.8,217.4,819.6,217.4z"/>
			</g>
			<g>
				<line class="st9" x1="816.5" y1="216.4" x2="793.3" y2="185.6"/>
				<path class="st10" d="M816.5,217.4c-0.3,0-0.5-0.1-0.7-0.4l-23.2-30.8c-0.3-0.4-0.2-1,0.2-1.3c0.4-0.3,1-0.2,1.3,0.2l23.2,30.8
					c0.3,0.4,0.2,1-0.2,1.3C816.9,217.3,816.7,217.4,816.5,217.4z"/>
			</g>
			<g>
				<line class="st9" x1="793.3" y1="216.4" x2="816.5" y2="185.6"/>
				<path class="st10" d="M793.3,217.4c-0.2,0-0.4-0.1-0.5-0.2c-0.4-0.3-0.5-0.9-0.2-1.3l23.2-30.8c0.3-0.4,0.9-0.5,1.3-0.2
					c0.4,0.3,0.5,0.9,0.2,1.3L794,217C793.8,217.2,793.6,217.4,793.3,217.4z"/>
			</g>
		</g>
		<g>
			<g>
				<line class="st9" x1="696.9" y1="185.6" x2="613.9" y2="185.6"/>
				<path class="st10" d="M696.9,186.5h-83.1c-0.5,0-0.9-0.4-0.9-0.9c0-0.5,0.4-0.9,0.9-0.9h83.1c0.5,0,0.9,0.4,0.9,0.9
					C697.8,186.1,697.4,186.5,696.9,186.5z"/>
			</g>
			<g>
				<line class="st9" x1="696.9" y1="216.4" x2="613.9" y2="216.4"/>
				<path class="st10" d="M696.9,217.4h-83.1c-0.5,0-0.9-0.4-0.9-0.9c0-0.5,0.4-0.9,0.9-0.9h83.1c0.5,0,0.9,0.4,0.9,0.9
					C697.8,216.9,697.4,217.4,696.9,217.4z"/>
			</g>
			<g>
				<line class="st9" x1="693.3" y1="216.4" x2="670" y2="185.6"/>
				<path class="st10" d="M693.3,217.4c-0.3,0-0.5-0.1-0.7-0.4l-23.2-30.8c-0.3-0.4-0.2-1,0.2-1.3c0.4-0.3,1-0.2,1.3,0.2l23.2,30.8
					c0.3,0.4,0.2,1-0.2,1.3C693.7,217.3,693.5,217.4,693.3,217.4z"/>
			</g>
			<g>
				<line class="st9" x1="670" y1="216.4" x2="693.3" y2="185.6"/>
				<path class="st10" d="M670,217.4c-0.2,0-0.4-0.1-0.5-0.2c-0.4-0.3-0.5-0.9-0.2-1.3l23.2-30.8c0.3-0.4,0.9-0.5,1.3-0.2
					c0.4,0.3,0.5,0.9,0.2,1.3L670.8,217C670.6,217.2,670.3,217.4,670,217.4z"/>
			</g>
			<g>
				<line class="st9" x1="667" y1="216.4" x2="643.8" y2="185.6"/>
				<path class="st10" d="M667,217.4c-0.3,0-0.5-0.1-0.7-0.4l-23.2-30.8c-0.3-0.4-0.2-1,0.2-1.3c0.4-0.3,1-0.2,1.3,0.2l23.2,30.8
					c0.3,0.4,0.2,1-0.2,1.3C667.4,217.3,667.2,217.4,667,217.4z"/>
			</g>
			<g>
				<line class="st9" x1="643.8" y1="216.4" x2="667" y2="185.6"/>
				<path class="st10" d="M643.8,217.4c-0.2,0-0.4-0.1-0.5-0.2c-0.4-0.3-0.5-0.9-0.2-1.3l23.2-30.8c0.3-0.4,0.9-0.5,1.3-0.2
					c0.4,0.3,0.5,0.9,0.2,1.3L644.5,217C644.3,217.2,644.1,217.4,643.8,217.4z"/>
			</g>
			<g>
				<line class="st9" x1="640.7" y1="216.4" x2="617.5" y2="185.6"/>
				<path class="st10" d="M640.7,217.4c-0.3,0-0.5-0.1-0.7-0.4l-23.2-30.8c-0.3-0.4-0.2-1,0.2-1.3c0.4-0.3,1-0.2,1.3,0.2l23.2,30.8
					c0.3,0.4,0.2,1-0.2,1.3C641.1,217.3,640.9,217.4,640.7,217.4z"/>
			</g>
			<g>
				<line class="st9" x1="617.5" y1="216.4" x2="640.7" y2="185.6"/>
				<path class="st10" d="M617.5,217.4c-0.2,0-0.4-0.1-0.5-0.2c-0.4-0.3-0.5-0.9-0.2-1.3l23.2-30.8c0.3-0.4,0.9-0.5,1.3-0.2
					c0.4,0.3,0.5,0.9,0.2,1.3L618.2,217C618.1,217.2,617.8,217.4,617.5,217.4z"/>
			</g>
		</g>
		<g>
			<g>
				<line class="st9" x1="525" y1="185.6" x2="442" y2="185.6"/>
				<path class="st10" d="M525,186.5H442c-0.5,0-0.9-0.4-0.9-0.9c0-0.5,0.4-0.9,0.9-0.9H525c0.5,0,0.9,0.4,0.9,0.9
					C525.9,186.1,525.5,186.5,525,186.5z"/>
			</g>
			<g>
				<line class="st9" x1="525" y1="216.4" x2="442" y2="216.4"/>
				<path class="st10" d="M525,217.4H442c-0.5,0-0.9-0.4-0.9-0.9c0-0.5,0.4-0.9,0.9-0.9H525c0.5,0,0.9,0.4,0.9,0.9
					C525.9,216.9,525.5,217.4,525,217.4z"/>
			</g>
			<g>
				<line class="st9" x1="521.4" y1="216.4" x2="498.2" y2="185.6"/>
				<path class="st10" d="M521.4,217.4c-0.3,0-0.5-0.1-0.7-0.4l-23.2-30.8c-0.3-0.4-0.2-1,0.2-1.3c0.4-0.3,1-0.2,1.3,0.2l23.2,30.8
					c0.3,0.4,0.2,1-0.2,1.3C521.8,217.3,521.6,217.4,521.4,217.4z"/>
			</g>
			<g>
				<line class="st9" x1="498.2" y1="216.4" x2="521.4" y2="185.6"/>
				<path class="st10" d="M498.2,217.4c-0.2,0-0.4-0.1-0.5-0.2c-0.4-0.3-0.5-0.9-0.2-1.3l23.2-30.8c0.3-0.4,0.9-0.5,1.3-0.2
					c0.4,0.3,0.5,0.9,0.2,1.3L498.9,217C498.7,217.2,498.4,217.4,498.2,217.4z"/>
			</g>
			<g>
				<line class="st9" x1="495.1" y1="216.4" x2="471.9" y2="185.6"/>
				<path class="st10" d="M495.1,217.4c-0.3,0-0.5-0.1-0.7-0.4l-23.2-30.8c-0.3-0.4-0.2-1,0.2-1.3c0.4-0.3,1-0.2,1.3,0.2l23.2,30.8
					c0.3,0.4,0.2,1-0.2,1.3C495.5,217.3,495.3,217.4,495.1,217.4z"/>
			</g>
			<g>
				<line class="st9" x1="471.9" y1="216.4" x2="495.1" y2="185.6"/>
				<path class="st10" d="M471.9,217.4c-0.2,0-0.4-0.1-0.5-0.2c-0.4-0.3-0.5-0.9-0.2-1.3l23.2-30.8c0.3-0.4,0.9-0.5,1.3-0.2
					c0.4,0.3,0.5,0.9,0.2,1.3L472.6,217C472.4,217.2,472.2,217.4,471.9,217.4z"/>
			</g>
			<g>
				<line class="st9" x1="468.9" y1="216.4" x2="445.6" y2="185.6"/>
				<path class="st10" d="M468.9,217.4c-0.3,0-0.5-0.1-0.7-0.4l-23.2-30.8c-0.3-0.4-0.2-1,0.2-1.3c0.4-0.3,1-0.2,1.3,0.2l23.2,30.8
					c0.3,0.4,0.2,1-0.2,1.3C469.2,217.3,469,217.4,468.9,217.4z"/>
			</g>
			<g>
				<line class="st9" x1="445.6" y1="216.4" x2="468.9" y2="185.6"/>
				<path class="st10" d="M445.6,217.4c-0.2,0-0.4-0.1-0.5-0.2c-0.4-0.3-0.5-0.9-0.2-1.3l23.2-30.8c0.3-0.4,0.9-0.5,1.3-0.2
					c0.4,0.3,0.5,0.9,0.2,1.3L446.3,217C446.2,217.2,445.9,217.4,445.6,217.4z"/>
			</g>
		</g>
		<g>
			<path class="st9" d="M863.7,184.4c0,1.8,1.3,3.3,2.8,3.3h12.4c1.6,0,2.8-1.5,2.8-3.3l0,0c0-1.8-1.3-3.3-2.8-3.3h-12.4
				C864.9,181.1,863.7,182.5,863.7,184.4L863.7,184.4z"/>
			<path class="st10" d="M878.9,188.6h-12.4c-2.1,0-3.7-1.9-3.7-4.2c0-2.3,1.7-4.2,3.7-4.2h12.4c2.1,0,3.7,1.9,3.7,4.2
				C882.7,186.7,881,188.6,878.9,188.6z M866.5,182c-1.1,0-1.9,1.1-1.9,2.4c0,1.3,0.9,2.4,1.9,2.4h12.4c1.1,0,1.9-1.1,1.9-2.4
				c0-1.3-0.9-2.4-1.9-2.4H866.5z"/>
		</g>
		<g>
			<path class="st9" d="M863.7,216.4c0,1.8,1.3,3.3,2.8,3.3h12.4c1.6,0,2.8-1.5,2.8-3.3l0,0c0-1.8-1.3-3.3-2.8-3.3h-12.4
				C864.9,213.1,863.7,214.6,863.7,216.4L863.7,216.4z"/>
			<path class="st10" d="M878.9,220.7h-12.4c-2.1,0-3.7-1.9-3.7-4.2c0-2.3,1.7-4.2,3.7-4.2h12.4c2.1,0,3.7,1.9,3.7,4.2
				C882.7,218.8,881,220.7,878.9,220.7z M866.5,214c-1.1,0-1.9,1.1-1.9,2.4c0,1.3,0.9,2.4,1.9,2.4h12.4c1.1,0,1.9-1.1,1.9-2.4
				c0-1.3-0.9-2.4-1.9-2.4H866.5z"/>
		</g>
		<g>
			<g>
				<path class="st10" d="M885.3,427.7c0,1.9-1.6,3.5-3.5,3.5H851c-1.9,0-3.5-1.6-3.5-3.5v-2.8c0-1.9,1.6-3.5,3.5-3.5h30.8
					c1.9,0,3.5,1.6,3.5,3.5V427.7z"/>
				<path class="st10" d="M881.8,432.6H851c-2.7,0-4.8-2.2-4.8-4.8v-2.8c0-2.7,2.2-4.8,4.8-4.8h30.8c2.7,0,4.8,2.2,4.8,4.8v2.8
					C886.7,430.4,884.5,432.6,881.8,432.6z M851,422.8c-1.2,0-2.1,1-2.1,2.1v2.8c0,1.2,1,2.1,2.1,2.1h30.8c1.2,0,2.1-1,2.1-2.1v-2.8
					c0-1.2-1-2.1-2.1-2.1H851z"/>
			</g>
		</g>
		<g>
			<rect x="350.7" y="138.3" class="st10" width="4.1" height="23.6"/>
		</g>
		<g>
			<g>
				<path class="st11" d="M453.3,221.6c0,8.7-6,15.7-13.5,15.7h-94.4c-7.5,0-13.5-7.1-13.5-15.7v-47.9c0-8.7,6-15.8,13.5-15.8h94.4
					c7.5,0,13.5,7.1,13.5,15.8V221.6z"/>
				<path class="st10" d="M439.8,238.3h-94.4c-7.9,0-14.4-7.5-14.4-16.7v-47.9c0-9.2,6.5-16.7,14.4-16.7h94.4
					c7.9,0,14.4,7.5,14.4,16.7v47.9C454.2,230.8,447.7,238.3,439.8,238.3z M345.4,158.9c-7,0-12.6,6.7-12.6,14.8v47.9
					c0,8.2,5.7,14.8,12.6,14.8h94.4c6.9,0,12.6-6.7,12.6-14.8v-47.9c0-8.2-5.7-14.8-12.6-14.8H345.4z"/>
			</g>
			<g>
				<path class="st12" d="M449,219.2c0,7.8-5.4,14.2-12.2,14.2h-89.3c-6.7,0-12.2-6.3-12.2-14.2v-43.1c0-7.8,5.4-14.2,12.2-14.2
					h89.3c6.7,0,12.2,6.3,12.2,14.2V219.2z"/>
				<path class="st10" d="M436.8,234.3h-89.3c-7.2,0-13.1-6.8-13.1-15.1v-43.1c0-8.3,5.9-15.1,13.1-15.1h89.3
					c7.2,0,13.1,6.8,13.1,15.1v43.1C449.9,227.5,444,234.3,436.8,234.3z M347.5,162.8c-6.2,0-11.3,6-11.3,13.3v43.1
					c0,7.3,5,13.3,11.3,13.3h89.3c6.2,0,11.3-6,11.3-13.3v-43.1c0-7.3-5-13.3-11.3-13.3H347.5z"/>
			</g>
		</g>
		<g>
			<g>
				<path class="st11" d="M629.5,221.6c0,8.7-6,15.7-13.5,15.7h-94.4c-7.5,0-13.5-7.1-13.5-15.7v-47.9c0-8.7,6-15.8,13.5-15.8H616
					c7.5,0,13.5,7.1,13.5,15.8V221.6z"/>
				<path class="st10" d="M616,238.3h-94.4c-7.9,0-14.4-7.5-14.4-16.7v-47.9c0-9.2,6.5-16.7,14.4-16.7H616c7.9,0,14.4,7.5,14.4,16.7
					v47.9C630.4,230.8,623.9,238.3,616,238.3z M521.6,158.9c-7,0-12.6,6.7-12.6,14.8v47.9c0,8.2,5.7,14.8,12.6,14.8H616
					c7,0,12.6-6.7,12.6-14.8v-47.9c0-8.2-5.7-14.8-12.6-14.8H521.6z"/>
			</g>
			<g>
				<path class="st12" d="M625.2,219.2c0,7.8-5.4,14.2-12.2,14.2h-89.3c-6.7,0-12.2-6.3-12.2-14.2v-43.1c0-7.8,5.4-14.2,12.2-14.2
					H613c6.7,0,12.2,6.3,12.2,14.2V219.2z"/>
				<path class="st10" d="M613,234.3h-89.3c-7.2,0-13.1-6.8-13.1-15.1v-43.1c0-8.3,5.9-15.1,13.1-15.1H613c7.2,0,13.1,6.8,13.1,15.1
					v43.1C626.1,227.5,620.2,234.3,613,234.3z M523.7,162.8c-6.2,0-11.3,6-11.3,13.3v43.1c0,7.3,5,13.3,11.3,13.3H613
					c6.2,0,11.3-6,11.3-13.3v-43.1c0-7.3-5-13.3-11.3-13.3H523.7z"/>
			</g>
		</g>
		<g>
			<g>
				<path class="st11" d="M805.7,221.6c0,8.7-6,15.7-13.5,15.7h-94.4c-7.5,0-13.5-7.1-13.5-15.7v-47.9c0-8.7,6-15.8,13.5-15.8h94.4
					c7.5,0,13.5,7.1,13.5,15.8V221.6z"/>
				<path class="st10" d="M792.2,238.3h-94.4c-7.9,0-14.4-7.5-14.4-16.7v-47.9c0-9.2,6.5-16.7,14.4-16.7h94.4
					c7.9,0,14.4,7.5,14.4,16.7v47.9C806.6,230.8,800.1,238.3,792.2,238.3z M697.8,158.9c-6.9,0-12.6,6.7-12.6,14.8v47.9
					c0,8.2,5.7,14.8,12.6,14.8h94.4c6.9,0,12.6-6.7,12.6-14.8v-47.9c0-8.2-5.7-14.8-12.6-14.8H697.8z"/>
			</g>
			<g>
				<path class="st12" d="M801.4,219.2c0,7.8-5.4,14.2-12.2,14.2h-89.3c-6.7,0-12.2-6.3-12.2-14.2v-43.1c0-7.8,5.4-14.2,12.2-14.2
					h89.3c6.7,0,12.2,6.3,12.2,14.2V219.2z"/>
				<path class="st10" d="M789.2,234.3h-89.3c-7.2,0-13.1-6.8-13.1-15.1v-43.1c0-8.3,5.9-15.1,13.1-15.1h89.3
					c7.2,0,13.1,6.8,13.1,15.1v43.1C802.3,227.5,796.4,234.3,789.2,234.3z M699.9,162.8c-6.2,0-11.3,6-11.3,13.3v43.1
					c0,7.3,5,13.3,11.3,13.3h89.3c6.2,0,11.3-6,11.3-13.3v-43.1c0-7.3-5.1-13.3-11.3-13.3H699.9z"/>
			</g>
		</g>
		<g>
			<path class="st13" d="M435.1,143.2c0,1.5-1.2,2.7-2.7,2.7h-68.7c-1.5,0-2.7-1.2-2.7-2.7v-17.4c0-1.5,1.2-2.7,2.7-2.7h68.7
				c1.5,0,2.7,1.2,2.7,2.7V143.2z"/>
		</g>
		<g>
			<g>
				<path class="st14" d="M366.8,147.4c0,1.5-1.2,2.7-2.7,2.7h-22.7c-1.5,0-2.7-1.2-2.7-2.7v-24.9c0-1.5,1.2-2.7,2.7-2.7h22.7
					c1.5,0,2.7,1.2,2.7,2.7V147.4z"/>
				<path class="st14" d="M364.1,150.2h-22.7c-1.6,0-2.8-1.3-2.8-2.8v-24.9c0-1.6,1.3-2.8,2.8-2.8h22.7c1.6,0,2.8,1.3,2.8,2.8v24.9
					C366.9,149,365.6,150.2,364.1,150.2z M341.4,119.9c-1.4,0-2.6,1.2-2.6,2.6v24.9c0,1.4,1.2,2.6,2.6,2.6h22.7
					c1.4,0,2.6-1.2,2.6-2.6v-24.9c0-1.4-1.2-2.6-2.6-2.6H341.4z"/>
			</g>
			<g>
				<path class="st12" d="M351.4,128.4L351.4,128.4l-3.9,1.8l-0.8-3.6l5.4-2.5h3.9v20.3h-4.6V128.4z"/>
			</g>
		</g>
		<g>
			<circle class="st15" cx="378.9" cy="133.8" r="8.1"/>
		</g>
		<g>
			<circle class="st11" cx="401.8" cy="133.8" r="8.1"/>
		</g>
		<g>
			<circle class="st16" cx="424.6" cy="133.8" r="8.1"/>
		</g>
		<g>
			<rect x="529.4" y="138.3" class="st10" width="4.1" height="23.6"/>
		</g>
		<g>
			<path class="st13" d="M613.9,143.2c0,1.5-1.2,2.7-2.7,2.7h-68.7c-1.5,0-2.7-1.2-2.7-2.7v-17.4c0-1.5,1.2-2.7,2.7-2.7h68.7
				c1.5,0,2.7,1.2,2.7,2.7V143.2z"/>
		</g>
		<g>
			<g>
				<path class="st14" d="M545.6,147.4c0,1.5-1.2,2.7-2.7,2.7h-22.7c-1.5,0-2.7-1.2-2.7-2.7v-24.9c0-1.5,1.2-2.7,2.7-2.7h22.7
					c1.5,0,2.7,1.2,2.7,2.7V147.4z"/>
				<path class="st14" d="M542.8,150.2h-22.7c-1.6,0-2.8-1.3-2.8-2.8v-24.9c0-1.6,1.3-2.8,2.8-2.8h22.7c1.6,0,2.8,1.3,2.8,2.8v24.9
					C545.7,149,544.4,150.2,542.8,150.2z M520.2,119.9c-1.4,0-2.6,1.2-2.6,2.6v24.9c0,1.4,1.2,2.6,2.6,2.6h22.7
					c1.4,0,2.6-1.2,2.6-2.6v-24.9c0-1.4-1.2-2.6-2.6-2.6H520.2z"/>
			</g>
			<g>
				<path class="st12" d="M524.2,144.5v-2.9l2.6-2.4c4.4-4,6.6-6.2,6.6-8.6c0-1.7-1-3-3.3-3c-1.7,0-3.3,0.9-4.3,1.7l-1.3-3.4
					c1.5-1.2,3.9-2.1,6.6-2.1c4.6,0,7.1,2.7,7.1,6.4c0,3.4-2.5,6.1-5.4,8.7l-1.9,1.6v0.1h7.6v3.9H524.2z"/>
			</g>
		</g>
		<g>
			<circle class="st15" cx="557.7" cy="133.8" r="8.1"/>
		</g>
		<g>
			<circle class="st11" cx="580.5" cy="133.8" r="8.1"/>
		</g>
		<g>
			<circle class="st16" cx="603.4" cy="133.8" r="8.1"/>
		</g>
		<g>
			<rect x="708.2" y="138.3" class="st10" width="4.1" height="23.6"/>
		</g>
		<g>
			<path class="st13" d="M792.6,143.2c0,1.5-1.2,2.7-2.7,2.7h-68.7c-1.5,0-2.7-1.2-2.7-2.7v-17.4c0-1.5,1.2-2.7,2.7-2.7h68.7
				c1.5,0,2.7,1.2,2.7,2.7V143.2z"/>
		</g>
		<g>
			<g>
				<path class="st14" d="M724.3,147.4c0,1.5-1.2,2.7-2.7,2.7h-22.7c-1.5,0-2.7-1.2-2.7-2.7v-24.9c0-1.5,1.2-2.7,2.7-2.7h22.7
					c1.5,0,2.7,1.2,2.7,2.7V147.4z"/>
				<path class="st14" d="M721.6,150.2h-22.7c-1.6,0-2.8-1.3-2.8-2.8v-24.9c0-1.6,1.3-2.8,2.8-2.8h22.7c1.6,0,2.8,1.3,2.8,2.8v24.9
					C724.4,149,723.2,150.2,721.6,150.2z M698.9,119.9c-1.4,0-2.6,1.2-2.6,2.6v24.9c0,1.4,1.2,2.6,2.6,2.6h22.7
					c1.4,0,2.6-1.2,2.6-2.6v-24.9c0-1.4-1.2-2.6-2.6-2.6H698.9z"/>
			</g>
			<g>
				<path class="st12" d="M703.8,139.8c0.8,0.4,2.8,1.2,4.7,1.2c2.5,0,3.7-1.2,3.7-2.7c0-2-2-2.9-4.1-2.9h-1.9v-3.4h1.8
					c1.6,0,3.6-0.6,3.6-2.3c0-1.2-1-2.1-3-2.1c-1.7,0-3.4,0.7-4.2,1.2l-1-3.4c1.2-0.8,3.6-1.5,6.3-1.5c4.3,0,6.7,2.3,6.7,5
					c0,2.2-1.2,3.8-3.7,4.7v0.1c2.4,0.4,4.4,2.3,4.4,4.9c0,3.6-3.1,6.2-8.3,6.2c-2.6,0-4.8-0.7-6-1.4L703.8,139.8z"/>
			</g>
		</g>
		<g>
			<circle class="st15" cx="736.5" cy="133.8" r="8.1"/>
		</g>
		<g>
			<circle class="st11" cx="759.3" cy="133.8" r="8.1"/>
		</g>
		<g>
			<circle class="st16" cx="782.2" cy="133.8" r="8.1"/>
		</g>
		<g>
			<path d="M607.7,213.2c3.4,0.8,6.2,3.4,6.2,6.6c0,3.8-3,5.6-6.6,5.6c-1,0-1.9-0.1-2.6-0.2c-0.8-0.4-1.5-1.1-2.2-1.6l0-0.1
				c1.1,0.2,2.3,0.3,3.5,0.3c3.8,0,6.8-1.6,6.8-4.5c0-1.8-2.1-3.5-5.1-4.6c-0.6-0.2-2.7-0.8-3.7-0.9l-0.8-1.4l0,0l1.2,0
				c1,0,1.7-0.2,2.3-0.4c2.1-0.9,3.6-1.2,4.5-1.2c1.6,0,2.9,0.9,3,2.5l-0.8,2.2l-0.2,0l-0.4-1.1l0.3-1.1c-0.4-0.4-1-0.7-1.7-0.7
				C610.3,212.4,609.3,212.6,607.7,213.2L607.7,213.2z M609,219c-0.5,0.5-1.1,0.9-1.6,1.4c-0.5-0.4-0.8-0.8-1.1-1.3
				c0.5-0.6,1.1-1.1,1.6-1.5C608.3,218,608.7,218.5,609,219z"/>
			<path d="M594.8,215.9c0.1,0.8,0.7,1.6,1.3,2.3c1.3,1.4,2.6,2.1,4,2.1c0.7,0,1.3-0.1,2-0.5l0.2,0.4c-1.4,0.9-2.7,1.3-3.9,1.3
				c-1.1,0-2.3-0.8-3.5-2.6c-0.7-1.1-1-2.3-1-3.6c0-1.5,0.4-2.8,0.9-3.8c0.5-1,1.3-1.5,2.1-1.5c0.6,0,1.3,0.5,2,1.1
				c0.5,0.7,0.9,1.4,0.9,2.4c0,1.8-1.4,2.6-3,2.6C596,216.2,595.4,216.1,594.8,215.9z M594.9,214.3c0.5,0.1,1,0.2,1.5,0.2
				c1.1,0,2.3-0.6,2.3-1.4c0-0.5-0.9-1.2-1.5-1.2C596.1,211.8,595.3,213,594.9,214.3z"/>
			<path d="M587,210.5c0.3,0.6,0.7,1.1,1,1.7c-0.6,0.9-1.1,1.9-1.6,3c-0.1,0.2-0.2,0.5-0.2,0.7c0,0.2,0,0.4,0.2,0.6
				c0.9,2,2.9,3.7,4.8,3.7c0.6,0,1.1-0.1,1.5-0.2l0.2,0.5c-1.3,0.7-2.5,1.1-3.5,1.1c-0.7,0-1.4-0.4-2.3-1.2
				c-1.1-1.3-1.7-2.6-1.7-3.8V215c0-1.2,0.3-1.9,0.7-2.6L587,210.5L587,210.5z"/>
			<path d="M576.5,213.2c3.4,0.8,6.2,3.4,6.2,6.6c0,3.8-3,5.6-6.6,5.6c-1,0-1.9-0.1-2.6-0.2c-0.8-0.4-1.5-1.1-2.2-1.6l0-0.1
				c1.1,0.2,2.3,0.3,3.5,0.3c3.8,0,6.8-1.6,6.8-4.5c0-1.8-2.1-3.5-5.1-4.6c-0.6-0.2-2.7-0.8-3.7-0.9l-0.8-1.4l0,0l1.2,0
				c1,0,1.7-0.2,2.3-0.4c2.1-0.9,3.6-1.2,4.5-1.2c1.6,0,2.9,0.9,3,2.5l-0.8,2.2l-0.2,0l-0.4-1.1l0.3-1.1c-0.4-0.4-1-0.7-1.7-0.7
				C579,212.4,578.1,212.6,576.5,213.2L576.5,213.2z M577.8,219c-0.5,0.5-1.1,0.9-1.6,1.4c-0.5-0.4-0.8-0.8-1.1-1.3
				c0.5-0.6,1.1-1.1,1.6-1.5C577.1,218,577.4,218.5,577.8,219z"/>
			<path d="M546.3,216.5c-0.4-0.6-0.7-1.3-0.7-2.3c0-1.4,0.7-3.1,1.4-4.2h0.1c0.4,0.4,0.7,1,1,1.5c-0.7,1.4-1.4,2.7-1.4,3.4
				c0,0,0,0.1,0.1,0.2c0.6,0.2,1.2,0.4,1.8,0.6c1.5,0.4,3.1,0.6,4.7,0.6c3.4,0,6.2-1.1,6.2-3.9c0-0.6-0.1-1.3-0.4-2.1l0.5-0.2
				c0.6,1.1,0.8,2.2,0.8,3.3c0,3.4-2.9,4.8-6.7,4.8C551,218.2,547.5,217.3,546.3,216.5z M554.4,222c-0.5,0.5-1.1,0.9-1.6,1.4
				c-0.5-0.4-0.8-0.8-1.1-1.3c0.5-0.6,1.1-1.1,1.6-1.5C553.6,221,554,221.5,554.4,222z"/>
			<path d="M537,215.9c0.1,0.8,0.7,1.6,1.3,2.3c1.3,1.4,2.6,2.1,4,2.1c0.7,0,1.3-0.1,2-0.5l0.2,0.4c-1.4,0.9-2.7,1.3-3.9,1.3
				c-1.1,0-2.3-0.8-3.5-2.6c-0.7-1.1-1-2.3-1-3.6c0-1.5,0.4-2.8,0.9-3.8c0.5-1,1.3-1.5,2.1-1.5c0.6,0,1.3,0.5,2,1.1
				c0.5,0.7,0.9,1.4,0.9,2.4c0,1.8-1.4,2.6-3,2.6C538.2,216.2,537.5,216.1,537,215.9z M537,214.3c0.5,0.1,1,0.2,1.5,0.2
				c1.1,0,2.3-0.6,2.3-1.4c0-0.5-0.9-1.2-1.5-1.2C538.2,211.8,537.4,213,537,214.3z"/>
			<path d="M525.9,212.2c0.4,0.5,0.7,1,0.9,1.5c-0.8,1.4-1.3,2.2-1.4,3.7c0.4,1.4,2.4,2.7,4.1,2.7c1.8,0,3.3-1.1,3.3-3.3
				c0-0.8-0.3-1.7-0.7-2.6l0.5-0.2c0.6,1,1,2.4,1,3.8c0,2.4-1.3,4.2-4,4.2c-1.9,0-3.9-1.1-4.6-2.7c-0.2-0.6-0.4-1.2-0.5-2.1h-0.4
				c-1.1,0-1.9-0.6-2.3-1.3h0c-0.5,0.7-1.2,1.1-1.8,1.1c-0.8,0-1.5-0.7-1.9-1.6c-0.2-0.5-0.4-1.1-0.4-1.8c0-0.6,0.1-1.6,0.3-2.5
				l0.1,0c0.4,0.4,0.8,0.8,1.2,1.3c-0.2,0.8-0.4,1.7-0.4,2.2c0,0.4,0.3,0.6,0.7,0.6c0.7,0,1.5-0.4,1.5-1.5c0-0.4,0-0.9-0.1-1.4
				l0.1-0.1l0.8,0.5l0.3,1.3c0.1,0.5,0.4,0.8,0.8,1.1c0.3,0.2,0.7,0.3,0.9,0.3c0.8,0,0.9-0.8,1.1-1.2
				C525.2,213.6,525.4,212.9,525.9,212.2L525.9,212.2z M522,209c0.5-0.6,1-1,1.6-1.5c0.3,0.4,0.7,0.8,1.1,1.3
				c-0.5,0.5-1,0.9-1.6,1.4C522.7,209.9,522.4,209.6,522,209z M521.3,206.1c0.5-0.6,1-1,1.6-1.5c0.3,0.4,0.7,0.8,1.1,1.3
				c-0.5,0.5-1,0.9-1.6,1.4C521.9,207,521.7,206.7,521.3,206.1z M519.4,208.8c0.5-0.6,1-1,1.6-1.5c0.3,0.4,0.7,0.8,1.1,1.3
				c-0.5,0.5-1,0.9-1.6,1.4C520,209.7,519.8,209.4,519.4,208.8z"/>
		</g>
		<g>
			<path d="M433.7,213.2c3.4,0.8,6.2,3.4,6.2,6.6c0,3.8-3,5.6-6.6,5.6c-1,0-1.9-0.1-2.6-0.2c-0.8-0.4-1.5-1.1-2.2-1.6l0-0.1
				c1.1,0.2,2.3,0.3,3.5,0.3c3.8,0,6.8-1.6,6.8-4.5c0-1.8-2.1-3.5-5.1-4.6c-0.6-0.2-2.7-0.8-3.7-0.9l-0.8-1.4l0,0l1.2,0
				c1,0,1.7-0.2,2.3-0.4c2.1-0.9,3.6-1.2,4.5-1.2c1.6,0,2.9,0.9,3,2.5l-0.8,2.2l-0.2,0l-0.4-1.1l0.3-1.1c-0.4-0.4-1-0.7-1.7-0.7
				C436.3,212.4,435.3,212.6,433.7,213.2L433.7,213.2z M435,219c-0.5,0.5-1.1,0.9-1.6,1.4c-0.5-0.4-0.8-0.8-1.1-1.3
				c0.5-0.6,1.1-1.1,1.6-1.5C434.3,218,434.7,218.5,435,219z"/>
			<path d="M420.8,215.9c0.1,0.8,0.7,1.6,1.3,2.3c1.3,1.4,2.6,2.1,4,2.1c0.7,0,1.3-0.1,2-0.5l0.2,0.4c-1.4,0.9-2.7,1.3-3.9,1.3
				c-1.1,0-2.3-0.8-3.5-2.6c-0.7-1.1-1-2.3-1-3.6c0-1.5,0.4-2.8,0.9-3.8c0.5-1,1.3-1.5,2.1-1.5c0.6,0,1.3,0.5,2,1.1
				c0.5,0.7,0.9,1.4,0.9,2.4c0,1.8-1.4,2.6-3,2.6C422,216.2,421.4,216.1,420.8,215.9z M420.9,214.3c0.5,0.1,1,0.2,1.5,0.2
				c1.1,0,2.3-0.6,2.3-1.4c0-0.5-0.9-1.2-1.5-1.2C422.1,211.8,421.3,213,420.9,214.3z"/>
			<path d="M413,210.5c0.3,0.6,0.7,1.1,1,1.7c-0.6,0.9-1.1,1.9-1.6,3c-0.1,0.2-0.2,0.5-0.2,0.7c0,0.2,0,0.4,0.2,0.6
				c0.9,2,2.9,3.7,4.8,3.7c0.6,0,1.1-0.1,1.5-0.2l0.2,0.5c-1.3,0.7-2.5,1.1-3.5,1.1c-0.7,0-1.4-0.4-2.3-1.2
				c-1.1-1.3-1.7-2.6-1.7-3.8V215c0-1.2,0.3-1.9,0.7-2.6L413,210.5L413,210.5z"/>
			<path d="M402.5,213.2c3.4,0.8,6.2,3.4,6.2,6.6c0,3.8-3,5.6-6.6,5.6c-1,0-1.9-0.1-2.6-0.2c-0.8-0.4-1.5-1.1-2.2-1.6l0-0.1
				c1.1,0.2,2.3,0.3,3.5,0.3c3.8,0,6.8-1.6,6.8-4.5c0-1.8-2.1-3.5-5.1-4.6c-0.6-0.2-2.7-0.8-3.7-0.9l-0.8-1.4l0,0l1.2,0
				c1,0,1.7-0.2,2.3-0.4c2.1-0.9,3.6-1.2,4.5-1.2c1.6,0,2.9,0.9,3,2.5l-0.8,2.2l-0.2,0l-0.4-1.1l0.3-1.1c-0.4-0.4-1-0.7-1.7-0.7
				C405.1,212.4,404.1,212.6,402.5,213.2L402.5,213.2z M403.8,219c-0.5,0.5-1.1,0.9-1.6,1.4c-0.5-0.4-0.8-0.8-1.1-1.3
				c0.5-0.6,1.1-1.1,1.6-1.5C403.1,218,403.5,218.5,403.8,219z"/>
			<path d="M372.4,216.5c-0.4-0.6-0.7-1.3-0.7-2.3c0-1.4,0.7-3.1,1.4-4.2h0.1c0.4,0.4,0.7,1,1,1.5c-0.7,1.4-1.4,2.7-1.4,3.4
				c0,0,0,0.1,0.1,0.2c0.6,0.2,1.2,0.4,1.8,0.6c1.5,0.4,3.1,0.6,4.7,0.6c3.4,0,6.2-1.1,6.2-3.9c0-0.6-0.1-1.3-0.4-2.1l0.5-0.2
				c0.6,1.1,0.8,2.2,0.8,3.3c0,3.4-2.9,4.8-6.7,4.8C377.1,218.2,373.6,217.3,372.4,216.5z M380.4,222c-0.5,0.5-1.1,0.9-1.6,1.4
				c-0.5-0.4-0.8-0.8-1.1-1.3c0.5-0.6,1.1-1.1,1.6-1.5C379.6,221,380,221.5,380.4,222z"/>
			<path d="M363,215.9c0.1,0.8,0.7,1.6,1.3,2.3c1.3,1.4,2.6,2.1,4,2.1c0.7,0,1.3-0.1,2-0.5l0.2,0.4c-1.4,0.9-2.7,1.3-3.9,1.3
				c-1.1,0-2.3-0.8-3.5-2.6c-0.7-1.1-1-2.3-1-3.6c0-1.5,0.4-2.8,0.9-3.8c0.5-1,1.3-1.5,2.1-1.5c0.6,0,1.3,0.5,2,1.1
				c0.5,0.7,0.9,1.4,0.9,2.4c0,1.8-1.4,2.6-3,2.6C364.2,216.2,363.6,216.1,363,215.9z M363.1,214.3c0.5,0.1,1,0.2,1.5,0.2
				c1.1,0,2.3-0.6,2.3-1.4c0-0.5-0.9-1.2-1.5-1.2C364.2,211.8,363.4,213,363.1,214.3z"/>
			<path d="M351.9,212.2c0.4,0.5,0.7,1,0.9,1.5c-0.8,1.4-1.3,2.2-1.4,3.7c0.4,1.4,2.4,2.7,4.1,2.7c1.8,0,3.3-1.1,3.3-3.3
				c0-0.8-0.3-1.7-0.7-2.6l0.5-0.2c0.6,1,1,2.4,1,3.8c0,2.4-1.3,4.2-4,4.2c-1.9,0-3.9-1.1-4.6-2.7c-0.2-0.6-0.4-1.2-0.5-2.1h-0.4
				c-1.1,0-1.9-0.6-2.3-1.3h0c-0.5,0.7-1.2,1.1-1.8,1.1c-0.8,0-1.5-0.7-1.9-1.6c-0.2-0.5-0.4-1.1-0.4-1.8c0-0.6,0.1-1.6,0.3-2.5
				l0.1,0c0.4,0.4,0.8,0.8,1.2,1.3c-0.2,0.8-0.4,1.7-0.4,2.2c0,0.4,0.3,0.6,0.7,0.6c0.7,0,1.5-0.4,1.5-1.5c0-0.4,0-0.9-0.1-1.4
				l0.1-0.1l0.8,0.5l0.3,1.3c0.1,0.5,0.4,0.8,0.8,1.1c0.3,0.2,0.7,0.3,0.9,0.3c0.8,0,0.9-0.8,1.1-1.2
				C351.2,213.6,351.5,212.9,351.9,212.2L351.9,212.2z M348,209c0.5-0.6,1-1,1.6-1.5c0.3,0.4,0.7,0.8,1.1,1.3
				c-0.5,0.5-1,0.9-1.6,1.4C348.7,209.9,348.4,209.6,348,209z M347.3,206.1c0.5-0.6,1-1,1.6-1.5c0.3,0.4,0.7,0.8,1.1,1.3
				c-0.5,0.5-1,0.9-1.6,1.4C347.9,207,347.7,206.7,347.3,206.1z M345.4,208.8c0.5-0.6,1-1,1.6-1.5c0.3,0.4,0.7,0.8,1.1,1.3
				c-0.5,0.5-1,0.9-1.6,1.4C346,209.7,345.8,209.4,345.4,208.8z"/>
		</g>
		<g>
			<path d="M783.7,213.2c3.4,0.8,6.2,3.4,6.2,6.6c0,3.8-3,5.6-6.6,5.6c-1,0-1.9-0.1-2.6-0.2c-0.8-0.4-1.5-1.1-2.2-1.6l0-0.1
				c1.1,0.2,2.3,0.3,3.5,0.3c3.8,0,6.8-1.6,6.8-4.5c0-1.8-2.1-3.5-5.1-4.6c-0.6-0.2-2.7-0.8-3.7-0.9l-0.8-1.4l0,0l1.2,0
				c1,0,1.7-0.2,2.3-0.4c2.1-0.9,3.6-1.2,4.5-1.2c1.6,0,2.9,0.9,3,2.5l-0.8,2.2l-0.2,0l-0.4-1.1l0.3-1.1c-0.4-0.4-1-0.7-1.7-0.7
				C786.2,212.4,785.3,212.6,783.7,213.2L783.7,213.2z M785,219c-0.5,0.5-1.1,0.9-1.6,1.4c-0.5-0.4-0.8-0.8-1.1-1.3
				c0.5-0.6,1.1-1.1,1.6-1.5C784.2,218,784.6,218.5,785,219z"/>
			<path d="M770.8,215.9c0.1,0.8,0.7,1.6,1.3,2.3c1.3,1.4,2.6,2.1,4,2.1c0.7,0,1.3-0.1,2-0.5l0.2,0.4c-1.4,0.9-2.7,1.3-3.9,1.3
				c-1.1,0-2.3-0.8-3.5-2.6c-0.7-1.1-1-2.3-1-3.6c0-1.5,0.4-2.8,0.9-3.8c0.5-1,1.3-1.5,2.1-1.5c0.6,0,1.3,0.5,2,1.1
				c0.5,0.7,0.9,1.4,0.9,2.4c0,1.8-1.4,2.6-3,2.6C772,216.2,771.4,216.1,770.8,215.9z M770.9,214.3c0.5,0.1,1,0.2,1.5,0.2
				c1.1,0,2.3-0.6,2.3-1.4c0-0.5-0.9-1.2-1.5-1.2C772,211.8,771.2,213,770.9,214.3z"/>
			<path d="M763,210.5c0.3,0.6,0.7,1.1,1,1.7c-0.6,0.9-1.1,1.9-1.6,3c-0.1,0.2-0.2,0.5-0.2,0.7c0,0.2,0,0.4,0.2,0.6
				c0.9,2,2.9,3.7,4.8,3.7c0.6,0,1.1-0.1,1.5-0.2l0.2,0.5c-1.3,0.7-2.5,1.1-3.5,1.1c-0.7,0-1.4-0.4-2.3-1.2
				c-1.1-1.3-1.7-2.6-1.7-3.8V215c0-1.2,0.3-1.9,0.7-2.6L763,210.5L763,210.5z"/>
			<path d="M752.4,213.2c3.4,0.8,6.2,3.4,6.2,6.6c0,3.8-3,5.6-6.6,5.6c-1,0-1.9-0.1-2.6-0.2c-0.8-0.4-1.5-1.1-2.2-1.6l0-0.1
				c1.1,0.2,2.3,0.3,3.5,0.3c3.8,0,6.8-1.6,6.8-4.5c0-1.8-2.1-3.5-5.1-4.6c-0.6-0.2-2.7-0.8-3.7-0.9l-0.8-1.4l0,0l1.2,0
				c1,0,1.7-0.2,2.3-0.4c2.1-0.9,3.6-1.2,4.5-1.2c1.6,0,2.9,0.9,3,2.5l-0.8,2.2l-0.2,0l-0.4-1.1l0.3-1.1c-0.4-0.4-1-0.7-1.7-0.7
				C755,212.4,754,212.6,752.4,213.2L752.4,213.2z M753.8,219c-0.5,0.5-1.1,0.9-1.6,1.4c-0.5-0.4-0.8-0.8-1.1-1.3
				c0.5-0.6,1.1-1.1,1.6-1.5C753,218,753.4,218.5,753.8,219z"/>
			<path d="M722.3,216.5c-0.4-0.6-0.7-1.3-0.7-2.3c0-1.4,0.7-3.1,1.4-4.2h0.1c0.4,0.4,0.7,1,1,1.5c-0.7,1.4-1.4,2.7-1.4,3.4
				c0,0,0,0.1,0.1,0.2c0.6,0.2,1.2,0.4,1.8,0.6c1.5,0.4,3.1,0.6,4.7,0.6c3.4,0,6.2-1.1,6.2-3.9c0-0.6-0.1-1.3-0.4-2.1l0.5-0.2
				c0.6,1.1,0.8,2.2,0.8,3.3c0,3.4-2.9,4.8-6.7,4.8C727,218.2,723.5,217.3,722.3,216.5z M730.3,222c-0.5,0.5-1.1,0.9-1.6,1.4
				c-0.5-0.4-0.8-0.8-1.1-1.3c0.5-0.6,1.1-1.1,1.6-1.5C729.6,221,730,221.5,730.3,222z"/>
			<path d="M712.9,215.9c0.1,0.8,0.7,1.6,1.3,2.3c1.3,1.4,2.6,2.1,4,2.1c0.7,0,1.3-0.1,2-0.5l0.2,0.4c-1.4,0.9-2.7,1.3-3.9,1.3
				c-1.1,0-2.3-0.8-3.5-2.6c-0.7-1.1-1-2.3-1-3.6c0-1.5,0.4-2.8,0.9-3.8c0.5-1,1.3-1.5,2.1-1.5c0.6,0,1.3,0.5,2,1.1
				c0.5,0.7,0.9,1.4,0.9,2.4c0,1.8-1.4,2.6-3,2.6C714.1,216.2,713.5,216.1,712.9,215.9z M713,214.3c0.5,0.1,1,0.2,1.5,0.2
				c1.1,0,2.3-0.6,2.3-1.4c0-0.5-0.9-1.2-1.5-1.2C714.2,211.8,713.4,213,713,214.3z"/>
			<path d="M701.8,212.2c0.4,0.5,0.7,1,0.9,1.5c-0.8,1.4-1.3,2.2-1.4,3.7c0.4,1.4,2.4,2.7,4.1,2.7c1.8,0,3.3-1.1,3.3-3.3
				c0-0.8-0.3-1.7-0.7-2.6l0.5-0.2c0.6,1,1,2.4,1,3.8c0,2.4-1.3,4.2-4,4.2c-1.9,0-3.9-1.1-4.6-2.7c-0.2-0.6-0.4-1.2-0.5-2.1h-0.4
				c-1.1,0-1.9-0.6-2.3-1.3h0c-0.5,0.7-1.2,1.1-1.8,1.1c-0.8,0-1.5-0.7-1.9-1.6c-0.2-0.5-0.4-1.1-0.4-1.8c0-0.6,0.1-1.6,0.3-2.5
				l0.1,0c0.4,0.4,0.8,0.8,1.2,1.3c-0.2,0.8-0.4,1.7-0.4,2.2c0,0.4,0.3,0.6,0.7,0.6c0.7,0,1.5-0.4,1.5-1.5c0-0.4,0-0.9-0.1-1.4
				l0.1-0.1l0.8,0.5l0.3,1.3c0.1,0.5,0.4,0.8,0.8,1.1c0.3,0.2,0.7,0.3,0.9,0.3c0.8,0,0.9-0.8,1.1-1.2
				C701.2,213.6,701.4,212.9,701.8,212.2L701.8,212.2z M698,209c0.5-0.6,1-1,1.6-1.5c0.3,0.4,0.7,0.8,1.1,1.3
				c-0.5,0.5-1,0.9-1.6,1.4C698.6,209.9,698.3,209.6,698,209z M697.2,206.1c0.5-0.6,1-1,1.6-1.5c0.3,0.4,0.7,0.8,1.1,1.3
				c-0.5,0.5-1,0.9-1.6,1.4C697.9,207,697.6,206.7,697.2,206.1z M695.3,208.8c0.5-0.6,1-1,1.6-1.5c0.3,0.4,0.7,0.8,1.1,1.3
				c-0.5,0.5-1,0.9-1.6,1.4C696,209.7,695.7,209.4,695.3,208.8z"/>
		</g>
	</g>
	<rect x="244.8" y="329.5" class="st17" width="34.2" height="82.8"/>
	<path class="st17" d="M225.4,440.6c-0.3-0.8,9-36.2,9-36.2s25-10.1,55,0l8.4,36.2H225.4z"/>
	<path class="st17" d="M312.1,455.2l-6.5-14.6c0,0-34.8,0-42.3,0c-0.1,0-0.6,0-1.4,0c-7.5,0-42.3,0-42.3,0l-6.5,14.6
		c0,0.5,43.5,0.1,49.5,0C268.6,455.3,312.1,455.7,312.1,455.2z"/>
	<rect x="452.3" y="316.9" class="st7" width="49.1" height="58.6"/>
	<rect x="456.8" y="291.7" class="st7" width="39.3" height="25.2"/>
	<rect x="459.4" y="325" class="st5" width="35.1" height="32.8"/>
	<rect x="459.4" y="361.2" class="st5" width="36.8" height="6.7"/>
	<rect x="847.1" y="316.9" class="st7" width="49.1" height="58.6"/>
	<rect x="854.1" y="325" class="st5" width="35.1" height="32.8"/>
	<rect x="854.1" y="361.2" class="st5" width="36.8" height="6.7"/>
	<rect x="854.1" y="375.5" class="st17" width="33.1" height="44.7"/>
	<path class="st17" d="M835.5,440.6c-0.3-0.8,9-36.2,9-36.2s25-10.1,55,0l8.4,36.2H835.5z"/>
	<path class="st17" d="M922.2,455.2l-6.5-14.6c0,0-34.8,0-42.3,0c-0.1,0-0.6,0-1.4,0c-7.5,0-42.3,0-42.3,0l-6.5,14.6
		c0,0.5,43.5,0.1,49.5,0C878.7,455.3,922.2,455.7,922.2,455.2z"/>
	<rect x="860.7" y="298.9" class="st8" width="23.9" height="18"/>
	<path class="st17" d="M678.4,257.4l-18.2-83c-1.6-7.2-10.1-20.8-30.2-20.8h-45.7h-15.9h-45.7c-20.1,0-28.6,13.6-30.2,20.8l-18.2,83
		l-0.1,0.4v151.7h7.6V258.6l18.1-82.6c0.1-0.6,3.8-14.9,22.8-14.9h45.7h15.9h45.7c18.9,0,22.6,14.3,22.8,14.9l18.1,82.6v150.9h7.6
		V257.8L678.4,257.4z"/>
	<path class="st17" d="M440.7,440.6c-0.3-0.8,9-36.2,9-36.2s25-10.1,55,0l8.4,36.2H440.7z"/>
	<path class="st17" d="M527.4,455.2l-6.5-14.6c0,0-34.8,0-42.3,0c-0.1,0-0.6,0-1.4,0c-7.5,0-42.3,0-42.3,0l-6.5,14.6
		c0,0.5,43.5,0.1,49.5,0C483.9,455.3,527.4,455.7,527.4,455.2z"/>
	<path class="st17" d="M639.5,440.6c-0.3-0.8,9-36.2,9-36.2s25-10.1,55,0l8.4,36.2H639.5z"/>
	<path class="st17" d="M726.2,455.2l-6.5-14.6c0,0-34.8,0-42.3,0c-0.1,0-0.6,0-1.4,0c-7.5,0-42.3,0-42.3,0l-6.5,14.6
		c0,0.5,43.5,0.1,49.5,0C682.8,455.3,726.2,455.7,726.2,455.2z"/>
	<g>
		<polygon class="st6" points="139.3,548.2 174.4,548.2 159,478.4 154.2,478.4 		"/>
		<rect x="137.4" y="548.2" class="st6" width="38.7" height="6.4"/>
		<rect x="130" y="554.5" class="st6" width="52.7" height="5.3"/>
		<g>
			<g>
				<path class="st7" d="M169.8,527.1l-3.5-15.9c-7.5,4.2-15.4,8.6-21.7,12.1l-4.2,19.7C147.5,539.2,159.3,532.8,169.8,527.1z"/>
				<path class="st7" d="M147,512.2c5.2-2.8,11.4-6.2,17.4-9.5l-3.5-15.8c-3.3,1.9-6.6,3.7-9.7,5.5L147,512.2z"/>
				<path class="st7" d="M172,537.2c-6.2,3.5-13.2,7.4-19.5,10.9h21.9L172,537.2z"/>
			</g>
		</g>
	</g>
	<g>
		<polygon class="st6" points="186.4,631.7 228.9,631.7 210.3,547.1 204.4,547.1 		"/>
		<rect x="184" y="631.7" class="st6" width="46.9" height="7.7"/>
		<rect x="175" y="639.4" class="st6" width="63.9" height="6.5"/>
		<g>
			<g>
				<path class="st7" d="M223.3,606.2l-4.3-19.3c-9.1,5.1-18.6,10.4-26.3,14.7l-5.1,23.9C196.2,620.8,210.6,613,223.3,606.2z"/>
				<path class="st7" d="M195.7,588.2c6.3-3.4,13.8-7.5,21.1-11.5l-4.2-19.2c-4,2.2-8,4.5-11.8,6.6L195.7,588.2z"/>
				<path class="st7" d="M226,618.5c-7.5,4.2-16,9-23.6,13.3h26.6L226,618.5z"/>
			</g>
		</g>
	</g>
	<g>
		<polygon class="st6" points="239.6,506.1 274.7,506.1 259.3,436.3 254.5,436.3 		"/>
		<rect x="237.7" y="506.1" class="st6" width="38.7" height="6.4"/>
		<rect x="230.3" y="512.5" class="st6" width="52.7" height="5.3"/>
		<g>
			<g>
				<path class="st7" d="M270,485.1l-3.5-15.9c-7.5,4.2-15.4,8.6-21.7,12.1l-4.2,19.7C247.7,497.1,259.6,490.7,270,485.1z"/>
				<path class="st7" d="M247.3,470.2c5.2-2.8,11.4-6.2,17.4-9.5l-3.5-15.8c-3.3,1.9-6.6,3.7-9.7,5.5L247.3,470.2z"/>
				<path class="st7" d="M272.3,495.2c-6.2,3.5-13.2,7.4-19.5,10.9h21.9L272.3,495.2z"/>
			</g>
		</g>
	</g>
	<rect x="297.8" y="375.5" class="st6" width="147.2" height="11.1"/>
	<g>
		<path class="st7" d="M371.1,386.7h10.2c2.5-3.5,5.3-7.4,8.1-11.1h-10.2C375.7,380.3,373,384,371.1,386.7z"/>
		<path class="st7" d="M347.6,386.7h10.2c2.5-3.5,5.3-7.4,8.1-11.1h-10.2C352.1,380.3,349.5,384,347.6,386.7z"/>
		<path class="st7" d="M402.7,375.5c-3.5,4.8-6.1,8.4-8.1,11.1h10.2c2.5-3.5,5.3-7.4,8.1-11.1H402.7z"/>
		<path class="st7" d="M436.4,375.5h-10.2c-3.5,4.8-6.1,8.4-8.1,11.1h10.2C430.9,383.2,433.7,379.3,436.4,375.5z"/>
		<path class="st7" d="M300.5,386.7h10.2c2.5-3.5,5.3-7.4,8.1-11.1h-10.2C305.1,380.3,302.5,384,300.5,386.7z"/>
		<path class="st7" d="M324,386.7h10.2c2.5-3.5,5.3-7.4,8.1-11.1h-10.2C328.6,380.3,326,384,324,386.7z"/>
	</g>
	<g>
		<path class="st10" d="M292.3,185.5h-7.4V115c0-19.1,12.5-20.7,13.1-20.8l0.4,0h20.1v7.4h-19.7c-1,0.3-6.4,2.1-6.4,13.4V185.5z"/>
	</g>
	<g>
		<path class="st10" d="M846,185.5h7.4V115c0-19.1-12.5-20.7-13.1-20.8l-0.4,0h-20.1v7.4h19.7c1,0.3,6.4,2.1,6.4,13.4V185.5z"/>
	</g>
	<polygon class="st18" points="346.8,61.9 346.8,83.2 327.3,72.5 	"/>
	<g>
		<g>
			<path class="st18" d="M738.6,106.3h6.3c0-0.8,0-1.5,0-2.3c0.4-14.2,5.1-24.2,13.7-29.9c6.2-4.1,12.2-4.4,12.6-4.4h20.2v-6.3
				l-20.3,0c-0.3,0-8.1,0.2-15.9,5.4c-7.2,4.7-15.9,14.7-16.6,35C738.7,104.6,738.6,105.5,738.6,106.3z"/>
		</g>
		<polygon class="st18" points="789.2,56 789.2,77.3 808.6,66.6 		"/>
	</g>
	<path class="st18" d="M384.9,56.5v29.2c-2.7-5.2-6-8.6-8.9-10.9c-6.8-5.2-13.6-5.4-13.8-5.4l-20.7,0v6.3H362
		c0.4,0,5.6,0.3,10.9,4.4c7.5,5.7,11.5,15.8,11.9,29.9c0,0.7,0,1.5,0,2.3h5.5h1.1V56.5H384.9z"/>
	<g>
		<polygon class="st19" points="662.4,440.6 718.5,608.9 729.8,664.1 852.3,664.1 840.4,605.4 688.5,440.6 		"/>
		<polygon class="st20" points="790.8,606.2 820.7,584.1 840.4,605.4 803.1,664.1 750.4,664.1 		"/>
		<path class="st20" d="M691.8,444.2c-8.6,3.1-17.4,6.3-25.2,9.2l6.4,19.2l31.5-14.6L691.8,444.2z"/>
		<path class="st20" d="M713.8,468.1c-11.1,5.7-24.6,12.5-36.2,18.3l6.7,20l43.4-23.3L713.8,468.1z"/>
		<path class="st20" d="M741.1,497.8c-14.5,9.1-34.6,21.8-49.4,30.8l8.9,26.5l59-37.3L741.1,497.8z"/>
		<path class="st20" d="M710.1,583.6l8.4,25.3l2.1,10.4l80.7-56.1l-24.2-26.3C758.5,550.1,724.9,573.9,710.1,583.6z"/>
		<polygon class="st21" points="840.4,605.4 717.8,605.4 729.8,664.1 852.3,664.1 		"/>
		<polygon class="st20" points="793.6,604.2 750.4,664.1 803.1,664.1 840.4,605.4 		"/>
		<polygon class="st20" points="793.6,604.2 750.4,664.1 803.1,664.1 840.4,605.4 		"/>
		<polygon class="st20" points="662.4,440.6 665.4,455.5 724.6,664.1 729.8,664.1 717.8,605.4 		"/>
	</g>
	<g>
		<g>
			<polygon class="st19" points="490.3,440.6 427.6,608.9 414.2,664.1 291.6,664.1 305.9,605.4 464.2,440.6 			"/>
			<polygon class="st20" points="355.4,606.2 326.4,584.1 305.9,605.4 340.9,664.1 393.5,664.1 			"/>
			<path class="st20" d="M460.7,444.2c8.4,3.1,17.2,6.3,24.8,9.2l-7.2,19.2L447.5,458L460.7,444.2z"/>
			<path class="st20" d="M437.8,468.1c10.9,5.7,24.1,12.5,35.5,18.3l-7.4,20l-42.5-23.3L437.8,468.1z"/>
			<path class="st20" d="M409.3,497.8c14.1,9.1,33.8,21.8,48.2,30.8l-9.9,26.5l-57.6-37.3L409.3,497.8z"/>
			<path class="st20" d="M437,583.6l-9.4,25.3l-2.5,10.4l-78.5-56.1l25.2-26.3C389.9,550.1,422.6,573.9,437,583.6z"/>
			<polygon class="st21" points="305.9,605.4 428.5,605.4 414.2,664.1 291.6,664.1 			"/>
			<polygon class="st20" points="352.7,604.2 393.5,664.1 340.9,664.1 305.9,605.4 			"/>
			<polygon class="st20" points="352.7,604.2 393.5,664.1 340.9,664.1 305.9,605.4 			"/>
			<polygon class="st20" points="490.3,440.6 486.7,455.5 419.4,664.1 414.2,664.1 428.5,605.4 			"/>
		</g>
	</g>
	<g>
		<polygon class="st6" points="989.3,548.2 954.2,548.2 969.6,478.4 974.5,478.4 		"/>
		<rect x="952.5" y="548.2" class="st6" width="38.7" height="6.4"/>
		<rect x="945.9" y="554.5" class="st6" width="52.7" height="5.3"/>
		<g>
			<g>
				<path class="st7" d="M958.9,527.1l3.5-15.9c7.5,4.2,15.4,8.6,21.7,12.1l4.2,19.7C981.2,539.2,969.3,532.8,958.9,527.1z"/>
				<path class="st7" d="M981.7,512.2c-5.2-2.8-11.4-6.2-17.4-9.5l3.5-15.8c3.3,1.9,6.6,3.7,9.7,5.5L981.7,512.2z"/>
				<path class="st7" d="M956.6,537.2c6.2,3.5,13.2,7.4,19.5,10.9h-21.9L956.6,537.2z"/>
			</g>
		</g>
	</g>
	<g>
		<polygon class="st6" points="942.3,631.7 899.7,631.7 918.4,547.1 924.3,547.1 		"/>
		<rect x="897.7" y="631.7" class="st6" width="46.9" height="7.7"/>
		<rect x="889.7" y="639.4" class="st6" width="63.9" height="6.5"/>
		<g>
			<g>
				<path class="st7" d="M905.4,606.2l4.3-19.3c9.1,5.1,18.6,10.4,26.3,14.7l5.1,23.9C932.4,620.8,918,613,905.4,606.2z"/>
				<path class="st7" d="M933,588.2c-6.3-3.4-13.8-7.5-21.1-11.5l4.2-19.2c4,2.2,8,4.5,11.8,6.6L933,588.2z"/>
				<path class="st7" d="M902.7,618.5c7.5,4.2,16,9,23.6,13.3h-26.6L902.7,618.5z"/>
			</g>
		</g>
	</g>
	<rect x="21.7" y="664.1" class="st22" width="1103.3" height="42.5"/>
	<g>
		<polygon class="st6" points="889,506.1 854,506.1 869.4,436.3 874.2,436.3 		"/>
		<rect x="852.3" y="506.1" class="st6" width="38.7" height="6.4"/>
		<rect x="845.7" y="512.5" class="st6" width="52.7" height="5.3"/>
		<g>
			<g>
				<path class="st7" d="M858.6,485.1l3.5-15.9c7.5,4.2,15.4,8.6,21.7,12.1l4.2,19.7C880.9,497.1,869,490.7,858.6,485.1z"/>
				<path class="st7" d="M881.4,470.2c-5.2-2.8-11.4-6.2-17.4-9.5l3.5-15.8c3.3,1.9,6.6,3.7,9.7,5.5L881.4,470.2z"/>
				<path class="st7" d="M856.4,495.2c6.2,3.5,13.2,7.4,19.5,10.9H854L856.4,495.2z"/>
			</g>
		</g>
	</g>
</g>
<rect x="284.5" y="55.9" class="st23" width="580.8" height="85.2"/>
<text transform="matrix(1 0 0 1 410.7515 76.3623)"><tspan x="0" y="0" class="st12 st24 st25">WELCOME TO TURKEY</tspan><tspan x="96.9" y="33.6" class="st12 st24 st25">KAPIKÖY</tspan></text>
</svg>
