<!-- Generator: Adobe Illustrator 21.0.2, SVG Export Plug-In  -->
<svg version="1.1"
	 xmlns="http://www.w3.org/2000/svg" xmlns:xlink="http://www.w3.org/1999/xlink" xmlns:a="http://ns.adobe.com/AdobeSVGViewerExtensions/3.0/"
	 x="0px" y="0px" width="720px" height="540px" viewBox="0 0 720 540" style="enable-background:new 0 0 720 540;"
	 xml:space="preserve">
<style type="text/css">
	.st0{clip-path:url(#SVGID_2_);}
	.st1{clip-path:url(#SVGID_4_);fill:#A7C0DE;}
	.st2{clip-path:url(#SVGID_4_);fill:#CEE2EA;}
	.st3{clip-path:url(#SVGID_4_);fill:#E8F1F5;}
	.st4{clip-path:url(#SVGID_6_);}
	.st5{clip-path:url(#SVGID_8_);}
	.st6{font-family:'Gotham-Bold';}
	.st7{font-size:14px;}
	.st8{clip-path:url(#SVGID_10_);}
	.st9{clip-path:url(#SVGID_12_);}
	.st10{clip-path:url(#SVGID_14_);}
	.st11{clip-path:url(#SVGID_16_);}
	.st12{font-family:'Gotham-Medium';}
	.st13{letter-spacing:-1;}
	.st14{clip-path:url(#SVGID_18_);}
	.st15{clip-path:url(#SVGID_20_);}
	.st16{clip-path:url(#SVGID_22_);}
	.st17{clip-path:url(#SVGID_24_);}
	.st18{clip-path:url(#SVGID_26_);}
	.st19{clip-path:url(#SVGID_28_);}
	.st20{clip-path:url(#SVGID_30_);}
	.st21{clip-path:url(#SVGID_32_);}
	.st22{clip-path:url(#SVGID_34_);}
	.st23{clip-path:url(#SVGID_36_);}
	.st24{font-size:9.3333px;}
	.st25{clip-path:url(#SVGID_38_);}
	.st26{clip-path:url(#SVGID_40_);}
	.st27{clip-path:url(#SVGID_42_);}
	.st28{clip-path:url(#SVGID_44_);}
	.st29{clip-path:url(#SVGID_46_);}
	.st30{clip-path:url(#SVGID_48_);}
	.st31{clip-path:url(#SVGID_50_);}
	.st32{clip-path:url(#SVGID_52_);}
	.st33{clip-path:url(#SVGID_54_);}
	.st34{clip-path:url(#SVGID_56_);}
	.st35{clip-path:url(#SVGID_58_);}
	.st36{clip-path:url(#SVGID_60_);}
	.st37{clip-path:url(#SVGID_62_);}
	.st38{clip-path:url(#SVGID_64_);fill:none;stroke:#FFFFFF;stroke-width:3;}
	.st39{clip-path:url(#SVGID_66_);}
	.st40{clip-path:url(#SVGID_68_);fill:#A7C0DE;}
	.st41{clip-path:url(#SVGID_68_);fill:#CEE2EA;}
	.st42{clip-path:url(#SVGID_68_);fill:#E8F1F5;}
	.st43{clip-path:url(#SVGID_70_);}
	.st44{clip-path:url(#SVGID_72_);}
	.st45{clip-path:url(#SVGID_74_);}
	.st46{clip-path:url(#SVGID_76_);}
	.st47{clip-path:url(#SVGID_78_);}
	.st48{clip-path:url(#SVGID_80_);}
	.st49{clip-path:url(#SVGID_82_);}
	.st50{clip-path:url(#SVGID_84_);}
	.st51{clip-path:url(#SVGID_86_);}
	.st52{clip-path:url(#SVGID_88_);}
	.st53{clip-path:url(#SVGID_90_);}
	.st54{clip-path:url(#SVGID_92_);}
	.st55{clip-path:url(#SVGID_94_);}
	.st56{clip-path:url(#SVGID_96_);}
	.st57{clip-path:url(#SVGID_98_);}
	.st58{clip-path:url(#SVGID_100_);}
	.st59{clip-path:url(#SVGID_102_);}
	.st60{clip-path:url(#SVGID_104_);}
	.st61{clip-path:url(#SVGID_106_);}
	.st62{clip-path:url(#SVGID_108_);}
	.st63{clip-path:url(#SVGID_110_);}
	.st64{clip-path:url(#SVGID_112_);}
	.st65{clip-path:url(#SVGID_114_);}
	.st66{clip-path:url(#SVGID_116_);}
	.st67{clip-path:url(#SVGID_118_);}
	.st68{clip-path:url(#SVGID_120_);}
	.st69{clip-path:url(#SVGID_122_);}
	.st70{clip-path:url(#SVGID_124_);}
	.st71{clip-path:url(#SVGID_126_);}
	.st72{clip-path:url(#SVGID_128_);fill:none;stroke:#FFFFFF;stroke-width:3;}
</style>
<defs>
</defs>
<g>
	<defs>
		<rect id="SVGID_1_" x="214.5" y="80.5" width="324.5" height="322.6"/>
	</defs>
	<clipPath id="SVGID_2_">
		<use xlink:href="#SVGID_1_"  style="overflow:visible;"/>
	</clipPath>
	<g class="st0">
		<defs>
			<rect id="SVGID_3_" width="720" height="540"/>
		</defs>
		<clipPath id="SVGID_4_">
			<use xlink:href="#SVGID_3_"  style="overflow:visible;"/>
		</clipPath>
		<rect x="216" y="82" class="st1" width="175" height="44.6"/>
		<rect x="391" y="82" class="st1" width="146.4" height="44.6"/>
		<rect x="216" y="126.6" class="st2" width="175" height="44.6"/>
		<rect x="391" y="126.6" class="st2" width="146.4" height="44.6"/>
		<rect x="216" y="171.1" class="st3" width="175" height="44.6"/>
		<rect x="391" y="171.1" class="st3" width="146.4" height="44.6"/>
		<rect x="216" y="215.7" class="st2" width="175" height="44.6"/>
		<rect x="391" y="215.7" class="st2" width="146.4" height="44.6"/>
		<rect x="216" y="260.3" class="st3" width="175" height="44.6"/>
		<rect x="391" y="260.3" class="st3" width="146.4" height="44.6"/>
		<rect x="216" y="304.9" class="st2" width="175" height="44.6"/>
		<rect x="391" y="304.9" class="st2" width="146.4" height="44.6"/>
		<rect x="216" y="349.4" class="st3" width="175" height="52.2"/>
		<rect x="391" y="349.4" class="st3" width="146.4" height="52.2"/>
	</g>
</g>
<g>
	<defs>
		<rect id="SVGID_5_" x="214.5" y="80.5" width="324.5" height="322.6"/>
	</defs>
	<clipPath id="SVGID_6_">
		<use xlink:href="#SVGID_5_"  style="overflow:visible;"/>
	</clipPath>
	<g class="st4">
		<defs>
			<rect id="SVGID_7_" x="217.5" y="83.5" width="172" height="41.6"/>
		</defs>
		<clipPath id="SVGID_8_">
			<use xlink:href="#SVGID_7_"  style="overflow:visible;"/>
		</clipPath>
		<g class="st5">
			<text transform="matrix(1 0 0 1 226 109)" class="st6 st7">İ</text>
		</g>
		<g class="st5">
			<text transform="matrix(1 0 0 1 230.7041 109)"><tspan x="0" y="0" class="st6 st7">l Mer</tspan><tspan x="35" y="0" class="st6 st7">k</tspan><tspan x="43" y="0" class="st6 st7">e</tspan><tspan x="51.3" y="0" class="st6 st7">zine Uzaklı</tspan></text>
		</g>
		<g class="st5">
			<text transform="matrix(1 0 0 1 359.1401 109)" class="st6 st7">ğ</text>
		</g>
		<g class="st5">
			<text transform="matrix(1 0 0 1 368.5903 109)" class="st6 st7">ı</text>
		</g>
	</g>
</g>
<g>
	<defs>
		<rect id="SVGID_9_" x="214.5" y="80.5" width="324.5" height="322.6"/>
	</defs>
	<clipPath id="SVGID_10_">
		<use xlink:href="#SVGID_9_"  style="overflow:visible;"/>
	</clipPath>
	<g class="st8">
		<defs>
			<rect id="SVGID_11_" x="392.5" y="83.5" width="143.4" height="41.6"/>
		</defs>
		<clipPath id="SVGID_12_">
			<use xlink:href="#SVGID_11_"  style="overflow:visible;"/>
		</clipPath>
		<g class="st9">
			<text transform="matrix(1 0 0 1 402 109)" class="st6 st7">8 km</text>
		</g>
	</g>
</g>
<g>
	<defs>
		<rect id="SVGID_13_" x="214.5" y="80.5" width="324.5" height="322.6"/>
	</defs>
	<clipPath id="SVGID_14_">
		<use xlink:href="#SVGID_13_"  style="overflow:visible;"/>
	</clipPath>
	<g class="st10">
		<defs>
			<rect id="SVGID_15_" x="217.5" y="128.1" width="172" height="41.6"/>
		</defs>
		<clipPath id="SVGID_16_">
			<use xlink:href="#SVGID_15_"  style="overflow:visible;"/>
		</clipPath>
		<g class="st11">
			<text transform="matrix(1 0 0 1 226 153)" class="st12 st7">Ba</text>
		</g>
		<g class="st11">
			<text transform="matrix(1 0 0 1 244.3262 153)" class="st12 st7">ş</text>
		</g>
		<g class="st11">
			<text transform="matrix(1 0 0 1 251.3403 153)"><tspan x="0" y="0" class="st12 st7">lama </tspan><tspan x="37.9" y="0" class="st12 st7 st13">T</tspan><tspan x="45.4" y="0" class="st12 st7">arihi</tspan></text>
		</g>
	</g>
</g>
<g>
	<defs>
		<rect id="SVGID_17_" x="214.5" y="80.5" width="324.5" height="322.6"/>
	</defs>
	<clipPath id="SVGID_18_">
		<use xlink:href="#SVGID_17_"  style="overflow:visible;"/>
	</clipPath>
	<g class="st14">
		<defs>
			<rect id="SVGID_19_" x="392.5" y="128.1" width="143.4" height="41.6"/>
		</defs>
		<clipPath id="SVGID_20_">
			<use xlink:href="#SVGID_19_"  style="overflow:visible;"/>
		</clipPath>
		<g class="st15">
			<text transform="matrix(1 0 0 1 402 153)"><tspan x="0" y="0" class="st12 st7">2</tspan><tspan x="8.6" y="0" class="st12 st7">0</tspan><tspan x="18.7" y="0" class="st12 st7">13</tspan></text>
		</g>
	</g>
</g>
<g>
	<defs>
		<rect id="SVGID_21_" x="214.5" y="80.5" width="324.5" height="322.6"/>
	</defs>
	<clipPath id="SVGID_22_">
		<use xlink:href="#SVGID_21_"  style="overflow:visible;"/>
	</clipPath>
	<g class="st16">
		<defs>
			<rect id="SVGID_23_" x="217.5" y="172.6" width="172" height="41.6"/>
		</defs>
		<clipPath id="SVGID_24_">
			<use xlink:href="#SVGID_23_"  style="overflow:visible;"/>
		</clipPath>
		<g class="st17">
			<text transform="matrix(1 0 0 1 226 198)" class="st12 st7">Biti</text>
		</g>
		<g class="st17">
			<text transform="matrix(1 0 0 1 249.856 198)" class="st12 st7">ş</text>
		</g>
		<g class="st17">
			<text transform="matrix(1 0 0 1 256.8701 198)"><tspan x="0" y="0" class="st12 st7"> </tspan><tspan x="4.2" y="0" class="st12 st7 st13">T</tspan><tspan x="11.7" y="0" class="st12 st7">arihi</tspan></text>
		</g>
	</g>
</g>
<g>
	<defs>
		<rect id="SVGID_25_" x="214.5" y="80.5" width="324.5" height="322.6"/>
	</defs>
	<clipPath id="SVGID_26_">
		<use xlink:href="#SVGID_25_"  style="overflow:visible;"/>
	</clipPath>
	<g class="st18">
		<defs>
			<rect id="SVGID_27_" x="392.5" y="172.6" width="143.4" height="41.6"/>
		</defs>
		<clipPath id="SVGID_28_">
			<use xlink:href="#SVGID_27_"  style="overflow:visible;"/>
		</clipPath>
		<g class="st19">
			<text transform="matrix(1 0 0 1 402 198)"><tspan x="0" y="0" class="st12 st7">2</tspan><tspan x="8.6" y="0" class="st12 st7">0</tspan><tspan x="18.7" y="0" class="st12 st7">17 Sonu</tspan></text>
		</g>
	</g>
</g>
<g>
	<defs>
		<rect id="SVGID_29_" x="214.5" y="80.5" width="324.5" height="322.6"/>
	</defs>
	<clipPath id="SVGID_30_">
		<use xlink:href="#SVGID_29_"  style="overflow:visible;"/>
	</clipPath>
	<g class="st20">
		<defs>
			<rect id="SVGID_31_" x="217.5" y="217.2" width="172" height="41.6"/>
		</defs>
		<clipPath id="SVGID_32_">
			<use xlink:href="#SVGID_31_"  style="overflow:visible;"/>
		</clipPath>
		<g class="st21">
			<text transform="matrix(1 0 0 1 226 243)"><tspan x="0" y="0" class="st12 st7">So</tspan><tspan x="18.2" y="0" class="st12 st7">s</tspan><tspan x="25" y="0" class="st12 st7">y</tspan><tspan x="33" y="0" class="st12 st7">al </tspan><tspan x="49.4" y="0" class="st12 st7 st13">T</tspan><tspan x="56.9" y="0" class="st12 st7">esis Alanı</tspan></text>
		</g>
	</g>
</g>
<g>
	<defs>
		<rect id="SVGID_33_" x="214.5" y="80.5" width="324.5" height="322.6"/>
	</defs>
	<clipPath id="SVGID_34_">
		<use xlink:href="#SVGID_33_"  style="overflow:visible;"/>
	</clipPath>
	<g class="st22">
		<defs>
			<rect id="SVGID_35_" x="392.5" y="217.2" width="143.4" height="41.6"/>
		</defs>
		<clipPath id="SVGID_36_">
			<use xlink:href="#SVGID_35_"  style="overflow:visible;"/>
		</clipPath>
		<g class="st23">
			<text transform="matrix(1 0 0 1 402 243)" class="st12 st7">3.600 m</text>
		</g>
		<g class="st23">
			<text transform="matrix(1 0 0 1 461.374 239.5869)" class="st12 st24">2   </text>
		</g>
	</g>
</g>
<g>
	<defs>
		<rect id="SVGID_37_" x="214.5" y="80.5" width="324.5" height="322.6"/>
	</defs>
	<clipPath id="SVGID_38_">
		<use xlink:href="#SVGID_37_"  style="overflow:visible;"/>
	</clipPath>
	<g class="st25">
		<defs>
			<rect id="SVGID_39_" x="217.5" y="261.8" width="172" height="41.6"/>
		</defs>
		<clipPath id="SVGID_40_">
			<use xlink:href="#SVGID_39_"  style="overflow:visible;"/>
		</clipPath>
		<g class="st26">
			<text transform="matrix(1 0 0 1 226 287)" class="st12 st7">1500 m</text>
		</g>
		<g class="st26">
			<text transform="matrix(1 0 0 1 278.0239 283.5869)" class="st12 st24">2</text>
		</g>
		<g class="st26">
			<text transform="matrix(1 0 0 1 283.7451 287)" class="st12 st7">‘lik i</text>
		</g>
		<g class="st26">
			<text transform="matrix(1 0 0 1 311.8711 287)" class="st12 st7">ş</text>
		</g>
		<g class="st26">
			<text transform="matrix(1 0 0 1 318.8853 287)" class="st12 st7">letme</text>
		</g>
	</g>
</g>
<g>
	<defs>
		<rect id="SVGID_41_" x="214.5" y="80.5" width="324.5" height="322.6"/>
	</defs>
	<clipPath id="SVGID_42_">
		<use xlink:href="#SVGID_41_"  style="overflow:visible;"/>
	</clipPath>
	<g class="st27">
		<defs>
			<rect id="SVGID_43_" x="392.5" y="261.8" width="143.4" height="41.6"/>
		</defs>
		<clipPath id="SVGID_44_">
			<use xlink:href="#SVGID_43_"  style="overflow:visible;"/>
		</clipPath>
		<g class="st28">
			<text transform="matrix(1 0 0 1 402 287)"><tspan x="0" y="0" class="st12 st7">10 </tspan><tspan x="19.9" y="0" class="st12 st7">A</tspan><tspan x="30.6" y="0" class="st12 st7">det</tspan></text>
		</g>
	</g>
</g>
<g>
	<defs>
		<rect id="SVGID_45_" x="214.5" y="80.5" width="324.5" height="322.6"/>
	</defs>
	<clipPath id="SVGID_46_">
		<use xlink:href="#SVGID_45_"  style="overflow:visible;"/>
	</clipPath>
	<g class="st29">
		<defs>
			<rect id="SVGID_47_" x="217.5" y="306.4" width="172" height="41.6"/>
		</defs>
		<clipPath id="SVGID_48_">
			<use xlink:href="#SVGID_47_"  style="overflow:visible;"/>
		</clipPath>
		<g class="st30">
			<text transform="matrix(1 0 0 1 226 332)"><tspan x="0" y="0" class="st12 st7">7</tspan><tspan x="8.2" y="0" class="st12 st7">50 m</tspan></text>
		</g>
		<g class="st30">
			<text transform="matrix(1 0 0 1 270.52 328.5869)" class="st12 st24">2</text>
		</g>
		<g class="st30">
			<text transform="matrix(1 0 0 1 276.2412 332)" class="st12 st7">‘lik i</text>
		</g>
		<g class="st30">
			<text transform="matrix(1 0 0 1 304.3672 332)" class="st12 st7">ş</text>
		</g>
		<g class="st30">
			<text transform="matrix(1 0 0 1 311.3813 332)" class="st12 st7">letme</text>
		</g>
	</g>
</g>
<g>
	<defs>
		<rect id="SVGID_49_" x="214.5" y="80.5" width="324.5" height="322.6"/>
	</defs>
	<clipPath id="SVGID_50_">
		<use xlink:href="#SVGID_49_"  style="overflow:visible;"/>
	</clipPath>
	<g class="st31">
		<defs>
			<rect id="SVGID_51_" x="392.5" y="306.4" width="143.4" height="41.6"/>
		</defs>
		<clipPath id="SVGID_52_">
			<use xlink:href="#SVGID_51_"  style="overflow:visible;"/>
		</clipPath>
		<g class="st32">
			<text transform="matrix(1 0 0 1 402 332)"><tspan x="0" y="0" class="st12 st7">22 </tspan><tspan x="21.4" y="0" class="st12 st7">A</tspan><tspan x="32.1" y="0" class="st12 st7">det</tspan></text>
		</g>
	</g>
</g>
<g>
	<defs>
		<rect id="SVGID_53_" x="214.5" y="80.5" width="324.5" height="322.6"/>
	</defs>
	<clipPath id="SVGID_54_">
		<use xlink:href="#SVGID_53_"  style="overflow:visible;"/>
	</clipPath>
	<g class="st33">
		<defs>
			<rect id="SVGID_55_" x="217.5" y="350.9" width="172" height="49.2"/>
		</defs>
		<clipPath id="SVGID_56_">
			<use xlink:href="#SVGID_55_"  style="overflow:visible;"/>
		</clipPath>
		<g class="st34">
			<text transform="matrix(1 0 0 1 226 371)" class="st12 st7">İ</text>
		</g>
		<g class="st34">
			<text transform="matrix(1 0 0 1 230.438 371)"><tspan x="0" y="0" class="st12 st7">s</tspan><tspan x="6.9" y="0" class="st12 st7">tihdam Beklentisi </tspan></text>
		</g>
		<g class="st34">
			<text transform="matrix(1 0 0 1 226 388)"><tspan x="0" y="0" class="st12 st7">(</tspan><tspan x="6.2" y="0" class="st12 st7 st13">T</tspan><tspan x="13.6" y="0" class="st12 st7">ek </tspan><tspan x="34.4" y="0" class="st12 st7">V</tspan><tspan x="44" y="0" class="st12 st7">a</tspan><tspan x="52.2" y="0" class="st12 st7">r</tspan><tspan x="57.8" y="0" class="st12 st7">di</tspan><tspan x="71.2" y="0" class="st12 st7">y</tspan><tspan x="79.2" y="0" class="st12 st7">a)</tspan></text>
		</g>
	</g>
</g>
<g>
	<defs>
		<rect id="SVGID_57_" x="214.5" y="80.5" width="324.5" height="322.6"/>
	</defs>
	<clipPath id="SVGID_58_">
		<use xlink:href="#SVGID_57_"  style="overflow:visible;"/>
	</clipPath>
	<g class="st35">
		<defs>
			<rect id="SVGID_59_" x="392.5" y="350.9" width="143.4" height="49.2"/>
		</defs>
		<clipPath id="SVGID_60_">
			<use xlink:href="#SVGID_59_"  style="overflow:visible;"/>
		</clipPath>
		<g class="st36">
			<text transform="matrix(1 0 0 1 402 371)" class="st12 st7">2500 Ki</text>
		</g>
		<g class="st36">
			<text transform="matrix(1 0 0 1 457.916 371)" class="st12 st7">ş</text>
		</g>
		<g class="st36">
			<text transform="matrix(1 0 0 1 464.9302 371)" class="st12 st7">i / 1200 </text>
		</g>
		<g class="st36">
			<text transform="matrix(1 0 0 1 402 388)" class="st12 st7">ki</text>
		</g>
		<g class="st36">
			<text transform="matrix(1 0 0 1 414.1519 388)" class="st12 st7">ş</text>
		</g>
		<g class="st36">
			<text transform="matrix(1 0 0 1 421.166 388)" class="st12 st7">i</text>
		</g>
	</g>
</g>
<g>
	<defs>
		<rect id="SVGID_61_" x="214.5" y="80.5" width="324.5" height="322.6"/>
	</defs>
	<clipPath id="SVGID_62_">
		<use xlink:href="#SVGID_61_"  style="overflow:visible;"/>
	</clipPath>
	<g class="st37">
		<defs>
			<rect id="SVGID_63_" width="720" height="540"/>
		</defs>
		<clipPath id="SVGID_64_">
			<use xlink:href="#SVGID_63_"  style="overflow:visible;"/>
		</clipPath>
		<line class="st38" x1="391" y1="80.5" x2="391" y2="403.1"/>
		<line class="st38" x1="214.5" y1="171.1" x2="539" y2="171.1"/>
		<line class="st38" x1="214.5" y1="215.7" x2="539" y2="215.7"/>
		<line class="st38" x1="214.5" y1="260.3" x2="539" y2="260.3"/>
		<line class="st38" x1="214.5" y1="304.9" x2="539" y2="304.9"/>
		<line class="st38" x1="214.5" y1="349.4" x2="539" y2="349.4"/>
		<line class="st38" x1="214.5" y1="126.6" x2="539" y2="126.6"/>
		<line class="st38" x1="216" y1="80.5" x2="216" y2="403.1"/>
		<line class="st38" x1="537.5" y1="80.5" x2="537.5" y2="403.1"/>
		<line class="st38" x1="214.5" y1="82" x2="539" y2="82"/>
		<line class="st38" x1="214.5" y1="401.6" x2="539" y2="401.6"/>
	</g>
</g>
</svg>
