<!-- Generator: Adobe Illustrator 21.0.2, SVG Export Plug-In  -->
<svg version="1.1"
	 xmlns="http://www.w3.org/2000/svg" xmlns:xlink="http://www.w3.org/1999/xlink" xmlns:a="http://ns.adobe.com/AdobeSVGViewerExtensions/3.0/"
	 x="0px" y="0px" width="511.1px" height="307.6px" viewBox="0 0 511.1 307.6" style="enable-background:new 0 0 511.1 307.6;"
	 xml:space="preserve">
<style type="text/css">
	.st0{fill:#007790;}
	.st1{fill:#CBE1E9;}
	.st2{fill:#EAF3F7;}
	.st3{fill:none;stroke:#FFFFFF;stroke-width:3;stroke-miterlimit:10;}
	.st4{fill:#FFFFFF;}
</style>
<defs>
</defs>
<path class="st0" d="M412.4,1.5h97.2v81.4h-97.2V1.5z M340.2,1.5h72.2v81.4h-72.2V1.5z M220.5,1.5h119.7v81.4H220.5V1.5z M120.8,1.5
	h99.8v81.4h-99.8V1.5z M1.5,1.5h119.3v81.4H1.5V1.5z"/>
<path class="st1" d="M412.4,191.2h97.2v42.9h-97.2V191.2z M340.2,191.2h72.2v42.9h-72.2V191.2z M220.5,191.2h119.7v42.9H220.5V191.2
	z M120.8,191.2h99.8v42.9h-99.8V191.2z M1.5,191.2h119.3v42.9H1.5V191.2z M412.4,82.9h97.2v54.2h-97.2V82.9z M340.2,82.9h72.2v54.2
	h-72.2V82.9z M220.5,82.9h119.7v54.2H220.5V82.9z M120.8,82.9h99.8v54.2h-99.8V82.9z M1.5,82.9h119.3v54.2H1.5V82.9z"/>
<path class="st2" d="M412.4,234.1h97.2V277h-97.2V234.1z M340.2,234.1h72.2V277h-72.2V234.1z M220.5,234.1h119.7V277H220.5V234.1z
	 M120.8,234.1h99.8V277h-99.8V234.1z M1.5,234.1h119.3V277H1.5V234.1z M412.4,137.1h97.2v54.2h-97.2V137.1z M340.2,137.1h72.2v54.2
	h-72.2V137.1z M220.5,137.1h119.7v54.2H220.5V137.1z M120.8,137.1h99.8v54.2h-99.8V137.1z M1.5,137.1h119.3v54.2H1.5V137.1z"/>
<path class="st0" d="M412.4,277h97.2v29.1h-97.2V277z M340.2,277h72.2v29.1h-72.2V277z M220.5,277h119.7v29.1H220.5V277z M120.8,277
	h99.8v29.1h-99.8V277z M1.5,277h119.3v29.1H1.5V277z"/>
<line class="st3" x1="0" y1="1.5" x2="120.8" y2="1.5"/>
<line class="st3" x1="1.5" y1="81.4" x2="1.5" y2="3"/>
<line class="st3" x1="120.8" y1="1.5" x2="220.5" y2="1.5"/>
<line class="st3" x1="120.8" y1="81.4" x2="120.8" y2="3"/>
<line class="st3" x1="220.5" y1="1.5" x2="340.2" y2="1.5"/>
<line class="st3" x1="220.5" y1="81.4" x2="220.5" y2="3"/>
<line class="st3" x1="340.2" y1="1.5" x2="412.4" y2="1.5"/>
<line class="st3" x1="340.2" y1="81.4" x2="340.2" y2="3"/>
<line class="st3" x1="412.4" y1="1.5" x2="511.1" y2="1.5"/>
<line class="st3" x1="412.4" y1="81.4" x2="412.4" y2="3"/>
<line class="st3" x1="509.6" y1="81.4" x2="509.6" y2="3"/>
<line class="st3" x1="0" y1="82.9" x2="120.8" y2="82.9"/>
<line class="st3" x1="1.5" y1="135.6" x2="1.5" y2="84.4"/>
<line class="st3" x1="120.8" y1="82.9" x2="220.5" y2="82.9"/>
<line class="st3" x1="120.8" y1="135.6" x2="120.8" y2="84.4"/>
<line class="st3" x1="220.5" y1="82.9" x2="340.2" y2="82.9"/>
<line class="st3" x1="220.5" y1="135.6" x2="220.5" y2="84.4"/>
<line class="st3" x1="340.2" y1="82.9" x2="412.4" y2="82.9"/>
<line class="st3" x1="340.2" y1="135.6" x2="340.2" y2="84.4"/>
<line class="st3" x1="412.4" y1="82.9" x2="511.1" y2="82.9"/>
<line class="st3" x1="412.4" y1="135.6" x2="412.4" y2="84.4"/>
<line class="st3" x1="509.6" y1="135.6" x2="509.6" y2="84.4"/>
<line class="st3" x1="0" y1="137.1" x2="120.8" y2="137.1"/>
<line class="st3" x1="1.5" y1="189.7" x2="1.5" y2="138.6"/>
<line class="st3" x1="120.8" y1="137.1" x2="220.5" y2="137.1"/>
<line class="st3" x1="120.8" y1="189.7" x2="120.8" y2="138.6"/>
<line class="st3" x1="220.5" y1="137.1" x2="340.2" y2="137.1"/>
<line class="st3" x1="220.5" y1="189.7" x2="220.5" y2="138.6"/>
<line class="st3" x1="340.2" y1="137.1" x2="412.4" y2="137.1"/>
<line class="st3" x1="340.2" y1="189.7" x2="340.2" y2="138.6"/>
<line class="st3" x1="412.4" y1="137.1" x2="511.1" y2="137.1"/>
<line class="st3" x1="412.4" y1="189.7" x2="412.4" y2="138.6"/>
<line class="st3" x1="509.6" y1="189.7" x2="509.6" y2="138.6"/>
<line class="st3" x1="0" y1="191.2" x2="120.8" y2="191.2"/>
<line class="st3" x1="1.5" y1="232.6" x2="1.5" y2="192.7"/>
<line class="st3" x1="120.8" y1="191.2" x2="220.5" y2="191.2"/>
<line class="st3" x1="120.8" y1="232.6" x2="120.8" y2="192.7"/>
<line class="st3" x1="220.5" y1="191.2" x2="340.2" y2="191.2"/>
<line class="st3" x1="220.5" y1="232.6" x2="220.5" y2="192.7"/>
<line class="st3" x1="340.2" y1="191.2" x2="412.4" y2="191.2"/>
<line class="st3" x1="340.2" y1="232.6" x2="340.2" y2="192.7"/>
<line class="st3" x1="412.4" y1="191.2" x2="511.1" y2="191.2"/>
<line class="st3" x1="412.4" y1="232.6" x2="412.4" y2="192.7"/>
<line class="st3" x1="509.6" y1="232.6" x2="509.6" y2="192.7"/>
<line class="st3" x1="0" y1="234.1" x2="120.8" y2="234.1"/>
<line class="st3" x1="1.5" y1="275.5" x2="1.5" y2="235.6"/>
<line class="st3" x1="120.8" y1="234.1" x2="220.5" y2="234.1"/>
<line class="st3" x1="120.8" y1="275.5" x2="120.8" y2="235.6"/>
<line class="st3" x1="220.5" y1="234.1" x2="340.2" y2="234.1"/>
<line class="st3" x1="220.5" y1="275.5" x2="220.5" y2="235.6"/>
<line class="st3" x1="340.2" y1="234.1" x2="412.4" y2="234.1"/>
<line class="st3" x1="340.2" y1="275.5" x2="340.2" y2="235.6"/>
<line class="st3" x1="412.4" y1="234.1" x2="511.1" y2="234.1"/>
<line class="st3" x1="412.4" y1="275.5" x2="412.4" y2="235.6"/>
<line class="st3" x1="509.6" y1="275.5" x2="509.6" y2="235.6"/>
<line class="st3" x1="0" y1="277" x2="120.8" y2="277"/>
<line class="st3" x1="1.5" y1="304.6" x2="1.5" y2="278.5"/>
<line class="st3" x1="120.8" y1="277" x2="220.5" y2="277"/>
<line class="st3" x1="120.8" y1="304.6" x2="120.8" y2="278.5"/>
<line class="st3" x1="220.5" y1="277" x2="340.2" y2="277"/>
<line class="st3" x1="220.5" y1="304.6" x2="220.5" y2="278.5"/>
<line class="st3" x1="340.2" y1="277" x2="412.4" y2="277"/>
<line class="st3" x1="340.2" y1="304.6" x2="340.2" y2="278.5"/>
<line class="st3" x1="412.4" y1="277" x2="511.1" y2="277"/>
<line class="st3" x1="412.4" y1="304.6" x2="412.4" y2="278.5"/>
<line class="st3" x1="509.6" y1="304.6" x2="509.6" y2="278.5"/>
<line class="st3" x1="0" y1="306.1" x2="120.8" y2="306.1"/>
<line class="st3" x1="120.8" y1="306.1" x2="220.5" y2="306.1"/>
<line class="st3" x1="220.5" y1="306.1" x2="340.2" y2="306.1"/>
<line class="st3" x1="340.2" y1="306.1" x2="412.4" y2="306.1"/>
<line class="st3" x1="412.4" y1="306.1" x2="511.1" y2="306.1"/>
<g>
	<path class="st4" d="M10.7,38.6H14c3,0,4.7,1.7,4.7,4.1v0c0,2.4-1.8,4.2-4.8,4.2h-3.2V38.6z M14,44.9c1.4,0,2.3-0.8,2.3-2.1v0
		c0-1.3-0.9-2.1-2.3-2.1h-0.9v4.3H14z"/>
	<path class="st4" d="M19.5,43.8L19.5,43.8c0-1.9,1.4-3.4,3.3-3.4c2.2,0,3.3,1.6,3.3,3.5c0,0.1,0,0.3,0,0.5h-4.3
		c0.2,0.7,0.7,1.1,1.4,1.1c0.5,0,1-0.2,1.4-0.7l1.3,1c-0.6,0.8-1.5,1.3-2.8,1.3C21,47.2,19.5,45.8,19.5,43.8z M23.9,43.2
		c-0.1-0.7-0.5-1.2-1.1-1.2c-0.6,0-1,0.5-1.1,1.2H23.9z"/>
	<path class="st4" d="M26.6,46.2l0.9-1.4c0.7,0.5,1.6,0.7,2.2,0.7c0.4,0,0.6-0.1,0.6-0.3v0c0-0.3-0.4-0.4-1-0.6
		c-1.3-0.3-2.3-0.8-2.3-2.1v0c0-1.4,1.1-2.1,2.6-2.1c0.9,0,1.9,0.3,2.7,0.8l-0.8,1.4C30.7,42.2,30,42,29.5,42
		c-0.3,0-0.5,0.1-0.5,0.3v0c0,0.3,0.4,0.4,1.1,0.6c1.3,0.4,2.3,0.8,2.3,2.1v0c0,1.4-1.1,2.2-2.7,2.2C28.5,47.2,27.5,46.8,26.6,46.2z
		"/>
	<path class="st4" d="M33.5,45v-2.6h-0.8v-1.8h0.8v-1.6h2.3v1.6h1.5v1.8h-1.5v2.2c0,0.5,0.2,0.6,0.6,0.6c0.3,0,0.6-0.1,0.9-0.2v1.8
		c-0.4,0.2-0.9,0.4-1.6,0.4C34.3,47.1,33.5,46.5,33.5,45z"/>
	<path class="st4" d="M37.8,43.8L37.8,43.8c0-1.9,1.4-3.4,3.3-3.4c2.2,0,3.3,1.6,3.3,3.5c0,0.1,0,0.3,0,0.5H40
		c0.2,0.7,0.7,1.1,1.4,1.1c0.5,0,1-0.2,1.4-0.7l1.3,1c-0.6,0.8-1.5,1.3-2.8,1.3C39.3,47.2,37.8,45.8,37.8,43.8z M42.3,43.2
		c-0.1-0.7-0.5-1.2-1.1-1.2c-0.6,0-1,0.5-1.1,1.2H42.3z"/>
	<path class="st4" d="M45.4,38.3h2.3v4.4l1.8-2.2H52l-2.3,2.6L52,47h-2.5l-1.3-2.2l-0.6,0.7V47h-2.3V38.3z"/>
	<path class="st4" d="M58.1,40.7h-2.5v-2H63v2h-2.5V47h-2.3V40.7z"/>
	<path class="st4" d="M63.5,44.8v-4.2h2.3V44c0,0.7,0.4,1.1,0.9,1.1c0.5,0,0.9-0.4,0.9-1.1v-3.5h2.3V47h-2.3v-0.9
		c-0.4,0.5-1,1-1.9,1C64.3,47.2,63.5,46.2,63.5,44.8z M64.5,38.3h1.9V40h-1.9V38.3z M67,38.3h1.9V40H67V38.3z"/>
	<path class="st4" d="M71.1,40.5h2.3v1.3c0.4-0.9,1-1.5,2.1-1.4v2.4h-0.2c-1.2,0-1.9,0.7-1.9,2.2v2h-2.3V40.5z"/>
	<path class="st4" d="M76.2,44.8v-4.2h2.3V44c0,0.7,0.4,1.1,0.9,1.1c0.5,0,0.9-0.4,0.9-1.1v-3.5h2.3V47h-2.3v-0.9
		c-0.4,0.5-1,1-1.9,1C77,47.2,76.2,46.2,76.2,44.8z M77.2,38.3h1.9V40h-1.9V38.3z M79.7,38.3h1.9V40h-1.9V38.3z"/>
</g>
<path class="st4" d="M132.9,31.4h2.2l3.6,8.5h-2.5l-0.6-1.5h-3.2l-0.6,1.5h-2.4L132.9,31.4z M134.9,36.5l-0.9-2.4l-0.9,2.4H134.9z
	 M138.5,41.7v-1.5c0.1,0,0.2,0,0.3,0c0.4,0,0.7-0.2,0.7-0.8v-6.1h2.3v6.2c0,1.6-0.8,2.2-2.3,2.2C139.1,41.8,138.8,41.7,138.5,41.7z
	 M139.4,31.1h2.4v1.7h-2.4V31.1z M142.7,38L142.7,38c0-1.4,1-2.1,2.5-2.1c0.6,0,1.2,0.1,1.6,0.3V36c0-0.7-0.4-1.1-1.3-1.1
	c-0.7,0-1.2,0.1-1.8,0.4l-0.5-1.6c0.7-0.3,1.5-0.5,2.6-0.5c1.2,0,2,0.3,2.5,0.8c0.5,0.5,0.7,1.2,0.7,2.1v3.7h-2.3v-0.7
	c-0.4,0.5-1.1,0.8-1.9,0.8C143.7,40,142.7,39.2,142.7,38z M146.8,37.5v-0.3c-0.2-0.1-0.6-0.2-0.9-0.2c-0.7,0-1,0.3-1,0.8v0
	c0,0.4,0.3,0.7,0.8,0.7C146.4,38.5,146.8,38.1,146.8,37.5z M150.2,33.3h2.3v0.9c0.4-0.5,1-1.1,1.9-1.1c1.4,0,2.2,0.9,2.2,2.4v4.2
	h-2.3v-3.5c0-0.7-0.4-1.1-0.9-1.1c-0.6,0-1,0.4-1,1.1v3.5h-2.3V33.3z M157.3,39l0.9-1.4c0.7,0.5,1.6,0.7,2.2,0.7
	c0.4,0,0.6-0.1,0.6-0.3v0c0-0.3-0.4-0.4-1-0.6c-1.3-0.3-2.3-0.8-2.3-2.1v0c0-1.4,1.1-2.1,2.6-2.1c0.9,0,1.9,0.3,2.7,0.8l-0.8,1.4
	c-0.7-0.4-1.4-0.6-1.9-0.6c-0.3,0-0.5,0.1-0.5,0.3v0c0,0.3,0.4,0.4,1.1,0.6c1.3,0.4,2.3,0.8,2.3,2.1v0c0,1.4-1.1,2.2-2.7,2.2
	C159.3,40,158.2,39.6,157.3,39z M167.5,31.4h3.2c3,0,4.7,1.7,4.7,4.1v0c0,2.4-1.8,4.2-4.8,4.2h-3.2V31.4z M170.7,37.7
	c1.4,0,2.3-0.8,2.3-2.1v0c0-1.3-0.9-2.1-2.3-2.1h-0.9v4.3H170.7z M176.2,36.6L176.2,36.6c0-1.9,1.4-3.4,3.3-3.4
	c2.2,0,3.3,1.6,3.3,3.6c0,0.1,0,0.3,0,0.5h-4.3c0.2,0.7,0.7,1.1,1.4,1.1c0.5,0,1-0.2,1.4-0.7l1.3,1c-0.6,0.8-1.5,1.3-2.8,1.3
	C177.7,40,176.2,38.6,176.2,36.6z M180.7,36c-0.1-0.7-0.5-1.2-1.1-1.2c-0.6,0-1,0.5-1.1,1.2H180.7z M183.3,39l0.9-1.4
	c0.7,0.5,1.6,0.7,2.2,0.7c0.4,0,0.6-0.1,0.6-0.3v0c0-0.3-0.4-0.4-1-0.6c-1.3-0.3-2.3-0.8-2.3-2.1v0c0-1.4,1.1-2.1,2.6-2.1
	c0.9,0,1.9,0.3,2.7,0.8l-0.8,1.4c-0.7-0.4-1.4-0.6-1.9-0.6c-0.3,0-0.5,0.1-0.5,0.3v0c0,0.3,0.4,0.4,1.1,0.6c1.3,0.4,2.3,0.8,2.3,2.1
	v0c0,1.4-1.1,2.2-2.7,2.2C185.3,40,184.2,39.6,183.3,39z M190.2,37.8v-2.6h-0.8v-1.8h0.8v-1.6h2.3v1.6h1.5v1.8h-1.5v2.2
	c0,0.5,0.2,0.6,0.6,0.6c0.3,0,0.6-0.1,0.9-0.2v1.8c-0.4,0.2-0.9,0.4-1.6,0.4C191,39.9,190.2,39.3,190.2,37.8z M194.5,36.6
	L194.5,36.6c0-1.9,1.4-3.4,3.3-3.4c2.2,0,3.3,1.6,3.3,3.6c0,0.1,0,0.3,0,0.5h-4.3c0.2,0.7,0.7,1.1,1.4,1.1c0.5,0,1-0.2,1.4-0.7
	l1.3,1c-0.6,0.8-1.5,1.3-2.8,1.3C196,40,194.5,38.6,194.5,36.6z M199,36c-0.1-0.7-0.5-1.2-1.1-1.2c-0.6,0-1,0.5-1.1,1.2H199z
	 M202,41l0.7-1.5c0.7,0.4,1.4,0.6,2.3,0.6c1.1,0,1.7-0.6,1.7-1.6v-0.3c-0.5,0.5-1.1,1-2,1c-1.6,0-2.9-1.2-2.9-3v0c0-1.9,1.3-3,2.8-3
	c1,0,1.5,0.4,2,0.9v-0.8h2.3v4.9c0,1.2-0.3,2-0.8,2.6c-0.6,0.6-1.5,0.9-2.9,0.9C204,41.8,202.9,41.5,202,41z M203.2,30.7h1.3
	c0.1,0.4,0.4,0.7,1,0.7s0.9-0.3,1-0.7h1.3c-0.1,1.3-1,2-2.4,2S203.4,32,203.2,30.7z M206.7,36.2L206.7,36.2c0-0.7-0.6-1.3-1.3-1.3
	c-0.8,0-1.3,0.5-1.3,1.3v0c0,0.7,0.6,1.2,1.3,1.2C206.2,37.5,206.7,36.9,206.7,36.2z M210.2,31.1h2.4v1.7h-2.4V31.1z M210.2,33.3
	h2.3v6.5h-2.3V33.3z"/>
<path class="st4" d="M129.8,50.8c0-2.4,1.3-4,3.5-5.1l0.9,1.4c-1.5,1.1-2.2,2.1-2.2,3.7c0,1.6,0.7,2.7,2.2,3.7l-0.9,1.4
	C131,54.7,129.8,53.2,129.8,50.8z M135.2,47.7h2.3v0.9c0.4-0.5,1-1,1.9-1c0.9,0,1.5,0.4,1.9,1.1c0.6-0.6,1.2-1.1,2.2-1.1
	c1.4,0,2.2,0.9,2.2,2.4v4.3h-2.3v-3.5c0-0.7-0.3-1.1-0.9-1.1s-0.9,0.4-0.9,1.1v3.5h-2.3v-3.5c0-0.7-0.3-1.1-0.9-1.1
	s-0.9,0.4-0.9,1.1v3.5h-2.3V47.7z M146.9,45.5h2.4v1.7h-2.4V45.5z M146.9,47.7h2.3v6.5h-2.3V47.7z M150.5,45.5h2.3v8.8h-2.3V45.5z
	 M153.9,55.6l0.7-1.6c0.4,0.2,0.7,0.3,1,0.3c0.2,0,0.4-0.1,0.5-0.3l-2.5-6.4h2.4l1.3,3.9l1.2-3.9h2.3l-2.4,6.3
	c-0.6,1.5-1.2,2.1-2.5,2.1C155.2,56.2,154.5,55.9,153.9,55.6z M161,51L161,51c0-1.9,1.5-3.4,3.6-3.4c2.1,0,3.6,1.5,3.6,3.4v0
	c0,1.8-1.5,3.4-3.6,3.4C162.5,54.4,161,52.8,161,51z M165.9,51L165.9,51c0-0.8-0.6-1.5-1.4-1.5c-0.8,0-1.4,0.7-1.4,1.4v0
	c0,0.8,0.6,1.5,1.4,1.5C165.4,52.4,165.9,51.8,165.9,51z M169.1,47.7h2.3v0.9c0.4-0.5,1-1.1,1.9-1.1c1.4,0,2.2,0.9,2.2,2.4v4.2h-2.3
	v-3.5c0-0.7-0.4-1.1-0.9-1.1c-0.6,0-1,0.4-1,1.1v3.5h-2.3V47.7z M182.2,47.9h-2.5v-2h7.4v2h-2.5v6.4h-2.3V47.9z M188.1,45.8h2.3v6.4
	h4.1v2h-6.4V45.8z M195.1,54.5c1.5-1.1,2.2-2.1,2.2-3.7c0-1.6-0.7-2.7-2.2-3.7l0.9-1.4c2.2,1.2,3.5,2.7,3.5,5.1c0,2.4-1.3,4-3.5,5.1
	L195.1,54.5z"/>
<path class="st4" d="M229.8,17h6.8v2h-4.4v1.3h4v1.8h-4v1.3h4.5v2h-6.8V17z M238.3,26.7l0.9-1.3c-0.7-0.1-1.4-0.4-2-0.9l0.9-1.4
	c0.7,0.5,1.6,0.7,2.2,0.7c0.4,0,0.6-0.1,0.6-0.3v0c0-0.3-0.4-0.4-1-0.6c-1.3-0.3-2.3-0.8-2.3-2.1v0c0-1.4,1.1-2.1,2.6-2.1
	c0.9,0,1.9,0.3,2.7,0.8L242,21c-0.7-0.4-1.4-0.6-1.9-0.6c-0.3,0-0.5,0.1-0.5,0.3v0c0,0.3,0.4,0.4,1.1,0.6c1.3,0.4,2.3,0.8,2.3,2.1v0
	c0,1.3-0.8,2-2.1,2.1l-0.7,2L238.3,26.7z M247.3,17h6.7v2h-4.4v1.4h4v1.9h-4v3h-2.3V17z M254.9,16.7h2.4v1.7h-2.4V16.7z M255,18.9
	h2.3v6.5H255V18.9z M258.5,18.9h2.3v0.9c0.4-0.5,1-1.1,1.9-1.1c1.4,0,2.2,0.9,2.2,2.4v4.2h-2.3v-3.5c0-0.7-0.4-1.1-0.9-1.1
	c-0.6,0-1,0.4-1,1.1v3.5h-2.3V18.9z M265.8,23.6L265.8,23.6c0-1.4,1-2.1,2.5-2.1c0.6,0,1.2,0.1,1.6,0.3v-0.1c0-0.7-0.4-1.1-1.3-1.1
	c-0.7,0-1.2,0.1-1.8,0.4l-0.5-1.6c0.7-0.3,1.5-0.5,2.6-0.5c1.2,0,2,0.3,2.5,0.8c0.5,0.5,0.7,1.2,0.7,2.1v3.7h-2.3v-0.7
	c-0.4,0.5-1.1,0.8-1.9,0.8C266.8,25.6,265.8,24.8,265.8,23.6z M269.9,23.1v-0.3c-0.2-0.1-0.6-0.2-0.9-0.2c-0.7,0-1,0.3-1,0.8v0
	c0,0.4,0.3,0.7,0.8,0.7C269.5,24.1,269.9,23.7,269.9,23.1z M273.3,18.9h2.3v0.9c0.4-0.5,1-1.1,1.9-1.1c1.4,0,2.2,0.9,2.2,2.4v4.2
	h-2.3v-3.5c0-0.7-0.4-1.1-0.9-1.1c-0.6,0-1,0.4-1,1.1v3.5h-2.3V18.9z M280.4,24.6l0.9-1.4c0.7,0.5,1.6,0.7,2.2,0.7
	c0.4,0,0.6-0.1,0.6-0.3v0c0-0.3-0.4-0.4-1-0.6c-1.3-0.3-2.3-0.8-2.3-2.1v0c0-1.4,1.1-2.1,2.6-2.1c0.9,0,1.9,0.3,2.7,0.8l-0.8,1.4
	c-0.7-0.4-1.4-0.6-1.9-0.6c-0.3,0-0.5,0.1-0.5,0.3v0c0,0.3,0.4,0.4,1.1,0.6c1.3,0.4,2.3,0.8,2.3,2.1v0c0,1.4-1.1,2.2-2.7,2.2
	C282.4,25.6,281.3,25.2,280.4,24.6z M287.1,18.9h2.3v0.9c0.4-0.5,1-1,1.9-1c0.9,0,1.5,0.4,1.9,1.1c0.6-0.6,1.2-1.1,2.2-1.1
	c1.4,0,2.2,0.9,2.2,2.4v4.3h-2.3v-3.5c0-0.7-0.3-1.1-0.9-1.1c-0.5,0-0.9,0.4-0.9,1.1v3.5h-2.3v-3.5c0-0.7-0.3-1.1-0.9-1.1
	c-0.5,0-0.9,0.4-0.9,1.1v3.5h-2.3V18.9z M298.4,23.6L298.4,23.6c0-1.4,1-2.1,2.5-2.1c0.6,0,1.2,0.1,1.6,0.3v-0.1
	c0-0.7-0.4-1.1-1.3-1.1c-0.7,0-1.2,0.1-1.8,0.4l-0.5-1.6c0.7-0.3,1.5-0.5,2.6-0.5c1.2,0,2,0.3,2.5,0.8c0.5,0.5,0.7,1.2,0.7,2.1v3.7
	h-2.3v-0.7c-0.4,0.5-1.1,0.8-1.9,0.8C299.4,25.6,298.4,24.8,298.4,23.6z M302.6,23.1v-0.3c-0.2-0.1-0.6-0.2-0.9-0.2
	c-0.7,0-1,0.3-1,0.8v0c0,0.4,0.3,0.7,0.8,0.7C302.1,24.1,302.6,23.7,302.6,23.1z M305.9,18.9h2.3v0.9c0.4-0.5,1-1.1,1.9-1.1
	c1.4,0,2.2,0.9,2.2,2.4v4.2h-2.3v-3.5c0-0.7-0.4-1.1-0.9-1.1c-0.6,0-1,0.4-1,1.1v3.5h-2.3V18.9z"/>
<path class="st4" d="M229.8,31.4h3.2c3,0,4.7,1.7,4.7,4.1v0c0,2.4-1.8,4.2-4.8,4.2h-3.2V31.4z M233.1,37.7c1.4,0,2.3-0.8,2.3-2.1v0
	c0-1.3-0.9-2.1-2.3-2.1h-0.9v4.3H233.1z M238.4,38L238.4,38c0-1.4,1-2.1,2.5-2.1c0.6,0,1.2,0.1,1.6,0.3V36c0-0.7-0.4-1.1-1.3-1.1
	c-0.7,0-1.2,0.1-1.8,0.4l-0.5-1.6c0.7-0.3,1.5-0.5,2.6-0.5c1.2,0,2,0.3,2.5,0.8c0.5,0.5,0.7,1.2,0.7,2.1v3.7h-2.3v-0.7
	c-0.4,0.5-1.1,0.8-1.9,0.8C239.4,40,238.4,39.2,238.4,38z M240.9,30.7h1.8l1.5,2h-1.5l-1-0.7l-1,0.7h-1.4L240.9,30.7z M242.6,37.5
	v-0.3c-0.2-0.1-0.6-0.2-0.9-0.2c-0.7,0-1,0.3-1,0.8v0c0,0.4,0.3,0.7,0.8,0.7C242.1,38.5,242.6,38.1,242.6,37.5z M246,31.1h2.3v3.2
	c0.4-0.5,1-1,1.9-1c1.4,0,2.2,0.9,2.2,2.4v4.2h-2.3v-3.5c0-0.7-0.4-1.1-0.9-1.1c-0.6,0-1,0.4-1,1.1v3.5H246V31.1z M253.6,31.1h2.4
	v1.7h-2.4V31.1z M253.6,33.3h2.3v6.5h-2.3V33.3z M257.2,31.1h2.3v8.8h-2.3V31.1z M266.3,33.5h-2.5v-2h7.4v2h-2.5v6.4h-2.3V33.5z
	 M270.6,36.6L270.6,36.6c0-1.9,1.5-3.4,3.6-3.4c2.1,0,3.6,1.5,3.6,3.4v0c0,1.8-1.5,3.4-3.6,3.4C272.1,40,270.6,38.4,270.6,36.6z
	 M275.6,36.6L275.6,36.6c0-0.8-0.6-1.5-1.4-1.5c-0.8,0-1.4,0.7-1.4,1.4v0c0,0.8,0.6,1.5,1.4,1.5C275.1,38,275.6,37.4,275.6,36.6z
	 M278.8,33.3h2.3v0.9c0.4-0.5,1-1,2-1c1.5,0,2.9,1.3,2.9,3.4v0c0,2.1-1.3,3.4-2.9,3.4c-1,0-1.6-0.4-2-0.9v2.7h-2.3V33.3z
	 M283.7,36.6L283.7,36.6c0-0.9-0.6-1.5-1.3-1.5c-0.7,0-1.3,0.6-1.3,1.5v0c0,0.9,0.6,1.5,1.3,1.5C283.1,38,283.7,37.4,283.7,36.6z
	 M286.9,31.1h2.3v8.8h-2.3V31.1z M290.2,38L290.2,38c0-1.4,1-2.1,2.5-2.1c0.6,0,1.2,0.1,1.6,0.3V36c0-0.7-0.4-1.1-1.3-1.1
	c-0.7,0-1.2,0.1-1.8,0.4l-0.5-1.6c0.7-0.3,1.5-0.5,2.6-0.5c1.2,0,2,0.3,2.5,0.8c0.5,0.5,0.7,1.2,0.7,2.1v3.7h-2.3v-0.7
	c-0.4,0.5-1.1,0.8-1.9,0.8C291.1,40,290.2,39.2,290.2,38z M294.3,37.5v-0.3c-0.2-0.1-0.6-0.2-0.9-0.2c-0.7,0-1,0.3-1,0.8v0
	c0,0.4,0.3,0.7,0.8,0.7C293.8,38.5,294.3,38.1,294.3,37.5z M297.7,33.3h2.3v0.9c0.4-0.5,1-1,1.9-1c0.9,0,1.5,0.4,1.9,1.1
	c0.6-0.6,1.2-1.1,2.2-1.1c1.4,0,2.2,0.9,2.2,2.4v4.3h-2.3v-3.5c0-0.7-0.3-1.1-0.9-1.1c-0.5,0-0.9,0.4-0.9,1.1v3.5h-2.3v-3.5
	c0-0.7-0.3-1.1-0.9-1.1c-0.5,0-0.9,0.4-0.9,1.1v3.5h-2.3V33.3z"/>
<path class="st4" d="M229.8,45.8h3.6c2.1,0,3.5,1.1,3.5,3v0c0,2-1.5,3-3.6,3h-1.2v2.4h-2.3V45.8z M233.2,50c0.8,0,1.3-0.4,1.3-1.1v0
	c0-0.7-0.5-1.1-1.3-1.1h-1.1V50H233.2z M237.7,47.7h2.3V49c0.4-0.9,1-1.5,2.1-1.4V50h-0.2c-1.2,0-1.9,0.7-1.9,2.2v2h-2.3V47.7z
	 M242.5,51L242.5,51c0-1.9,1.5-3.4,3.6-3.4c2.1,0,3.6,1.5,3.6,3.4v0c0,1.8-1.5,3.4-3.6,3.4C244,54.4,242.5,52.8,242.5,51z M247.4,51
	L247.4,51c0-0.8-0.6-1.5-1.4-1.5c-0.8,0-1.4,0.7-1.4,1.4v0c0,0.8,0.6,1.5,1.4,1.5C246.9,52.4,247.4,51.8,247.4,51z M249.7,56.1v-1.5
	c0.1,0,0.2,0,0.3,0c0.4,0,0.7-0.2,0.7-0.8v-6.1h2.3v6.2c0,1.6-0.8,2.2-2.3,2.2C250.3,56.2,250,56.1,249.7,56.1z M250.6,45.5h2.4v1.7
	h-2.4V45.5z M254,51L254,51c0-1.9,1.4-3.4,3.3-3.4c2.2,0,3.3,1.6,3.3,3.6c0,0.1,0,0.3,0,0.5h-4.3c0.2,0.7,0.7,1.1,1.4,1.1
	c0.5,0,1-0.2,1.4-0.7l1.3,1c-0.6,0.8-1.5,1.3-2.8,1.3C255.4,54.4,254,53,254,51z M258.4,50.4c-0.1-0.7-0.5-1.2-1.1-1.2
	c-0.6,0-1,0.5-1.1,1.2H258.4z M265,45.8h4.3c1.1,0,1.8,0.3,2.3,0.8c0.3,0.3,0.5,0.8,0.5,1.4v0c0,1-0.6,1.5-1.3,1.9
	c1,0.3,1.7,0.9,1.7,2.1v0c0,1.4-1.2,2.3-3.2,2.3H265V45.8z M268.7,49.2c0.7,0,1.1-0.2,1.1-0.7v0c0-0.5-0.4-0.7-1.1-0.7h-1.5v1.5
	H268.7z M269,52.3c0.7,0,1.1-0.3,1.1-0.8v0c0-0.5-0.4-0.8-1.1-0.8h-1.8v1.5H269z M273.4,52v-4.2h2.3v3.5c0,0.7,0.4,1.1,0.9,1.1
	c0.5,0,0.9-0.4,0.9-1.1v-3.5h2.3v6.5h-2.3v-0.9c-0.4,0.5-1,1-1.9,1C274.2,54.4,273.4,53.4,273.4,52z M274.3,45.5h1.9v1.7h-1.9V45.5z
	 M276.8,45.5h1.9v1.7h-1.9V45.5z M281.4,52.2v-2.6h-0.8v-1.8h0.8v-1.6h2.3v1.6h1.5v1.8h-1.5v2.2c0,0.5,0.2,0.6,0.6,0.6
	c0.3,0,0.6-0.1,0.9-0.2V54c-0.4,0.2-0.9,0.4-1.6,0.4C282.2,54.3,281.4,53.7,281.4,52.2z M287.1,55.5l1-1.3c-1.4-0.4-2.3-1.7-2.3-3.2
	v0c0-1.8,1.4-3.4,3.5-3.4c1.3,0,2.2,0.6,2.8,1.5l-1.5,1.2c-0.3-0.4-0.7-0.7-1.2-0.7c-0.7,0-1.3,0.6-1.3,1.4v0c0,0.8,0.5,1.5,1.3,1.5
	c0.5,0,0.9-0.3,1.2-0.7l1.5,1.1c-0.5,0.8-1.3,1.3-2.4,1.5l-0.7,1.9L287.1,55.5z M292.4,51L292.4,51c0-1.9,1.4-3.4,3.3-3.4
	c2.2,0,3.3,1.6,3.3,3.6c0,0.1,0,0.3,0,0.5h-4.3c0.2,0.7,0.7,1.1,1.4,1.1c0.5,0,1-0.2,1.4-0.7l1.3,1c-0.6,0.8-1.5,1.3-2.8,1.3
	C293.8,54.4,292.4,53,292.4,51z M296.8,50.4c-0.1-0.7-0.5-1.2-1.1-1.2c-0.6,0-1,0.5-1.1,1.2H296.8z M299.4,53.4l0.9-1.4
	c0.7,0.5,1.6,0.7,2.2,0.7c0.4,0,0.6-0.1,0.6-0.3v0c0-0.3-0.4-0.4-1-0.6c-1.3-0.3-2.3-0.8-2.3-2.1v0c0-1.4,1.1-2.1,2.6-2.1
	c0.9,0,1.9,0.3,2.7,0.8l-0.8,1.4c-0.7-0.4-1.4-0.6-1.9-0.6c-0.3,0-0.5,0.1-0.5,0.3v0c0,0.3,0.4,0.4,1.1,0.6c1.3,0.4,2.3,0.8,2.3,2.1
	v0c0,1.4-1.1,2.2-2.7,2.2C301.4,54.4,300.3,54,299.4,53.4z M306.1,45.5h2.4v1.7h-2.4V45.5z M306.1,47.7h2.3v6.5h-2.3V47.7z"/>
<path class="st4" d="M229.6,65.2c0-2.4,1.3-4,3.5-5.1l0.9,1.4c-1.5,1.1-2.2,2.1-2.2,3.7c0,1.6,0.7,2.7,2.2,3.7l-0.9,1.4
	C230.8,69.1,229.6,67.6,229.6,65.2z M235,62.1h2.3V63c0.4-0.5,1-1,1.9-1c0.9,0,1.5,0.4,1.9,1.1c0.6-0.6,1.2-1.1,2.2-1.1
	c1.4,0,2.2,0.9,2.2,2.4v4.3h-2.3v-3.5c0-0.7-0.3-1.1-0.9-1.1s-0.9,0.4-0.9,1.1v3.5h-2.3v-3.5c0-0.7-0.3-1.1-0.9-1.1
	s-0.9,0.4-0.9,1.1v3.5H235V62.1z M246.6,59.9h2.4v1.7h-2.4V59.9z M246.7,62.1h2.3v6.5h-2.3V62.1z M250.3,59.9h2.3v8.8h-2.3V59.9z
	 M253.7,70l0.7-1.6c0.4,0.2,0.7,0.3,1,0.3c0.2,0,0.4-0.1,0.5-0.3l-2.5-6.4h2.4l1.3,3.9l1.2-3.9h2.3l-2.4,6.3
	c-0.6,1.5-1.2,2.1-2.5,2.1C255,70.6,254.3,70.3,253.7,70z M260.7,65.4L260.7,65.4c0-1.9,1.5-3.4,3.6-3.4c2.1,0,3.6,1.5,3.6,3.4v0
	c0,1.8-1.5,3.4-3.6,3.4C262.2,68.8,260.7,67.2,260.7,65.4z M265.7,65.4L265.7,65.4c0-0.8-0.6-1.5-1.4-1.5c-0.8,0-1.4,0.7-1.4,1.4v0
	c0,0.8,0.6,1.5,1.4,1.5C265.2,66.8,265.7,66.2,265.7,65.4z M268.9,62.1h2.3V63c0.4-0.5,1-1.1,1.9-1.1c1.4,0,2.2,0.9,2.2,2.4v4.2H273
	v-3.5c0-0.7-0.4-1.1-0.9-1.1c-0.6,0-1,0.4-1,1.1v3.5h-2.3V62.1z M282,62.3h-2.5v-2h7.4v2h-2.5v6.4H282V62.3z M287.9,60.2h2.3v6.4
	h4.1v2h-6.4V60.2z M294.9,68.9c1.5-1.1,2.2-2.1,2.2-3.7c0-1.6-0.7-2.7-2.2-3.7l0.9-1.4c2.2,1.2,3.5,2.7,3.5,5.1c0,2.4-1.3,4-3.5,5.1
	L294.9,68.9z"/>
<g>
	<path class="st4" d="M349.4,24.2h3.6c2.1,0,3.5,1.1,3.5,3v0c0,2-1.5,3-3.6,3h-1.2v2.4h-2.3V24.2z M352.9,28.4
		c0.8,0,1.3-0.4,1.3-1.1v0c0-0.7-0.5-1.1-1.3-1.1h-1.1v2.2H352.9z"/>
	<path class="st4" d="M357.4,26.1h2.3v1.3c0.4-0.9,1-1.5,2.1-1.4v2.4h-0.2c-1.2,0-1.9,0.7-1.9,2.2v2h-2.3V26.1z"/>
	<path class="st4" d="M362.1,29.4L362.1,29.4c0-1.9,1.5-3.4,3.6-3.4c2.1,0,3.6,1.5,3.6,3.4v0c0,1.8-1.5,3.4-3.6,3.4
		C363.6,32.8,362.1,31.2,362.1,29.4z M367.1,29.4L367.1,29.4c0-0.8-0.6-1.5-1.4-1.5c-0.8,0-1.4,0.7-1.4,1.4v0c0,0.8,0.6,1.5,1.4,1.5
		C366.6,30.8,367.1,30.2,367.1,29.4z"/>
	<path class="st4" d="M369.4,34.5V33c0.1,0,0.2,0,0.3,0c0.4,0,0.7-0.2,0.7-0.8v-6.1h2.3v6.2c0,1.6-0.8,2.2-2.3,2.2
		C369.9,34.6,369.6,34.5,369.4,34.5z M370.3,23.9h2.4v1.7h-2.4V23.9z"/>
	<path class="st4" d="M373.6,29.4L373.6,29.4c0-1.9,1.4-3.4,3.3-3.4c2.2,0,3.3,1.6,3.3,3.5c0,0.1,0,0.3,0,0.5h-4.3
		c0.2,0.7,0.7,1.1,1.4,1.1c0.5,0,1-0.2,1.4-0.7l1.3,1c-0.6,0.8-1.5,1.3-2.8,1.3C375.1,32.8,373.6,31.4,373.6,29.4z M378.1,28.8
		c-0.1-0.7-0.5-1.2-1.1-1.2c-0.6,0-1,0.5-1.1,1.2H378.1z"/>
</g>
<g>
	<path class="st4" d="M349.4,38.6h4.3c1.1,0,1.8,0.3,2.3,0.8c0.3,0.3,0.5,0.8,0.5,1.4v0c0,1-0.6,1.5-1.3,1.9c1,0.3,1.7,0.9,1.7,2.1
		v0c0,1.4-1.2,2.3-3.2,2.3h-4.3V38.6z M353.2,42c0.7,0,1.1-0.2,1.1-0.7v0c0-0.5-0.4-0.7-1.1-0.7h-1.5V42H353.2z M353.5,45.1
		c0.7,0,1.1-0.3,1.1-0.8v0c0-0.5-0.4-0.8-1.1-0.8h-1.8v1.5H353.5z"/>
	<path class="st4" d="M357.6,45.2L357.6,45.2c0-1.4,1-2.1,2.5-2.1c0.6,0,1.2,0.1,1.6,0.3v-0.1c0-0.7-0.4-1.1-1.3-1.1
		c-0.7,0-1.2,0.1-1.8,0.4l-0.5-1.6c0.7-0.3,1.5-0.5,2.6-0.5c1.2,0,2,0.3,2.5,0.8c0.5,0.5,0.7,1.2,0.7,2.1V47h-2.3v-0.7
		c-0.4,0.5-1.1,0.8-1.9,0.8C358.5,47.2,357.6,46.4,357.6,45.2z M361.7,44.7v-0.3c-0.2-0.1-0.6-0.2-0.9-0.2c-0.7,0-1,0.3-1,0.8v0
		c0,0.4,0.3,0.7,0.8,0.7C361.2,45.7,361.7,45.3,361.7,44.7z"/>
	<path class="st4" d="M365.7,48.3l0.9-1.3c-0.7-0.1-1.4-0.4-2-0.9l0.9-1.4c0.7,0.5,1.6,0.7,2.2,0.7c0.4,0,0.6-0.1,0.6-0.3v0
		c0-0.3-0.4-0.4-1-0.6c-1.3-0.3-2.3-0.8-2.3-2.1v0c0-1.4,1.1-2.1,2.6-2.1c0.9,0,1.9,0.3,2.7,0.8l-0.8,1.4c-0.7-0.4-1.4-0.6-1.9-0.6
		c-0.3,0-0.5,0.1-0.5,0.3v0c0,0.3,0.4,0.4,1.1,0.6c1.3,0.4,2.3,0.8,2.3,2.1v0c0,1.3-0.8,2-2.1,2.1l-0.7,2L365.7,48.3z"/>
	<path class="st4" d="M370.5,40.5h2.4l1.2,3.8l1.2-3.8h2.4l-2.6,6.5h-2.1L370.5,40.5z"/>
	<path class="st4" d="M378.4,44.8v-4.2h2.3V44c0,0.7,0.4,1.1,0.9,1.1c0.5,0,0.9-0.4,0.9-1.1v-3.5h2.3V47h-2.3v-0.9
		c-0.4,0.5-1,1-1.9,1C379.3,47.2,378.4,46.2,378.4,44.8z"/>
	<path class="st4" d="M386.1,40.5h2.3v1.3c0.4-0.9,1-1.5,2.1-1.4v2.4h-0.2c-1.2,0-1.9,0.7-1.9,2.2v2h-2.3V40.5z"/>
	<path class="st4" d="M391.2,44.8v-4.2h2.3V44c0,0.7,0.4,1.1,0.9,1.1c0.5,0,0.9-0.4,0.9-1.1v-3.5h2.3V47h-2.3v-0.9
		c-0.4,0.5-1,1-1.9,1C392,47.2,391.2,46.2,391.2,44.8z"/>
</g>
<g>
	<path class="st4" d="M348.8,60.2l1.3-1.5c0.8,0.7,1.8,1,2.7,1c0.6,0,1-0.2,1-0.6v0c0-0.3-0.3-0.5-1.4-0.8c-1.8-0.4-3.2-0.9-3.2-2.6
		v0c0-1.6,1.2-2.7,3.2-2.7c1.4,0,2.5,0.4,3.5,1.1l-1.2,1.6c-0.8-0.5-1.6-0.8-2.4-0.8c-0.6,0-0.8,0.2-0.8,0.5v0
		c0,0.4,0.3,0.6,1.5,0.8c1.9,0.4,3.1,1,3.1,2.6v0c0,1.7-1.4,2.7-3.4,2.7C351.2,61.6,349.8,61.1,348.8,60.2z"/>
	<path class="st4" d="M356.8,59.6L356.8,59.6c0-1.4,1-2.1,2.5-2.1c0.6,0,1.2,0.1,1.6,0.3v-0.1c0-0.7-0.4-1.1-1.3-1.1
		c-0.7,0-1.2,0.1-1.8,0.4l-0.5-1.6c0.7-0.3,1.5-0.5,2.6-0.5c1.2,0,2,0.3,2.5,0.8c0.5,0.5,0.7,1.2,0.7,2.1v3.7h-2.3v-0.7
		c-0.4,0.5-1.1,0.8-1.9,0.8C357.8,61.6,356.8,60.8,356.8,59.6z M360.9,59.1v-0.3c-0.2-0.1-0.6-0.2-0.9-0.2c-0.7,0-1,0.3-1,0.8v0
		c0,0.4,0.3,0.7,0.8,0.7C360.5,60.1,360.9,59.7,360.9,59.1z"/>
	<path class="st4" d="M363.9,62.8l0.7-1.6c0.4,0.2,0.7,0.3,1,0.3c0.2,0,0.4-0.1,0.5-0.3l-2.5-6.4h2.4l1.3,3.9l1.2-3.9h2.3l-2.4,6.3
		c-0.6,1.5-1.2,2.1-2.5,2.1C365.1,63.4,364.5,63.1,363.9,62.8z"/>
	<path class="st4" d="M371.6,54.9h2.3v6.5h-2.3V54.9z"/>
	<path class="st4" d="M374.6,60.6l0.9-1.4c0.7,0.5,1.6,0.7,2.2,0.7c0.4,0,0.6-0.1,0.6-0.3v0c0-0.3-0.4-0.4-1-0.6
		c-1.3-0.3-2.3-0.8-2.3-2.1v0c0-1.4,1.1-2.1,2.6-2.1c0.9,0,1.9,0.3,2.7,0.8l-0.8,1.4c-0.7-0.4-1.4-0.6-1.9-0.6
		c-0.3,0-0.5,0.1-0.5,0.3v0c0,0.3,0.4,0.4,1.1,0.6c1.3,0.4,2.3,0.8,2.3,2.1v0c0,1.4-1.1,2.2-2.7,2.2
		C376.6,61.6,375.5,61.2,374.6,60.6z"/>
	<path class="st4" d="M381.4,54.9h2.3v6.5h-2.3V54.9z"/>
</g>
<g>
	<path class="st4" d="M421.6,31.4h3.2c3,0,4.7,1.7,4.7,4.1v0c0,2.4-1.8,4.2-4.8,4.2h-3.2V31.4z M424.9,37.7c1.4,0,2.3-0.8,2.3-2.1v0
		c0-1.3-0.9-2.1-2.3-2.1H424v4.3H424.9z"/>
	<path class="st4" d="M430.4,36.6L430.4,36.6c0-1.9,1.4-3.4,3.3-3.4c2.2,0,3.3,1.6,3.3,3.5c0,0.1,0,0.3,0,0.5h-4.3
		c0.2,0.7,0.7,1.1,1.4,1.1c0.5,0,1-0.2,1.4-0.7l1.3,1c-0.6,0.8-1.5,1.3-2.8,1.3C431.9,40,430.4,38.6,430.4,36.6z M434.8,36
		c-0.1-0.7-0.5-1.2-1.1-1.2c-0.6,0-1,0.5-1.1,1.2H434.8z"/>
	<path class="st4" d="M437.4,39l0.9-1.4c0.7,0.5,1.6,0.7,2.2,0.7c0.4,0,0.6-0.1,0.6-0.3v0c0-0.3-0.4-0.4-1-0.6
		c-1.3-0.3-2.3-0.8-2.3-2.1v0c0-1.4,1.1-2.1,2.6-2.1c0.9,0,1.9,0.3,2.7,0.8l-0.8,1.4c-0.7-0.4-1.4-0.6-1.9-0.6
		c-0.3,0-0.5,0.1-0.5,0.3v0c0,0.3,0.4,0.4,1.1,0.6c1.3,0.4,2.3,0.8,2.3,2.1v0c0,1.4-1.1,2.2-2.7,2.2C439.4,40,438.3,39.6,437.4,39z"
		/>
	<path class="st4" d="M444.4,37.8v-2.6h-0.8v-1.8h0.8v-1.6h2.3v1.6h1.5v1.8h-1.5v2.2c0,0.5,0.2,0.6,0.6,0.6c0.3,0,0.6-0.1,0.9-0.2
		v1.8c-0.4,0.2-0.9,0.4-1.6,0.4C445.2,39.9,444.4,39.3,444.4,37.8z"/>
	<path class="st4" d="M448.7,36.6L448.7,36.6c0-1.9,1.4-3.4,3.3-3.4c2.2,0,3.3,1.6,3.3,3.5c0,0.1,0,0.3,0,0.5h-4.3
		c0.2,0.7,0.7,1.1,1.4,1.1c0.5,0,1-0.2,1.4-0.7l1.3,1c-0.6,0.8-1.5,1.3-2.8,1.3C450.2,40,448.7,38.6,448.7,36.6z M453.1,36
		c-0.1-0.7-0.5-1.2-1.1-1.2c-0.6,0-1,0.5-1.1,1.2H453.1z"/>
	<path class="st4" d="M456.3,31.1h2.3v4.4l1.8-2.2h2.6l-2.3,2.6l2.3,3.9h-2.5l-1.3-2.2l-0.6,0.7v1.5h-2.3V31.1z"/>
	<path class="st4" d="M463.5,31.1h2.3v8.8h-2.3V31.1z"/>
	<path class="st4" d="M466.8,36.6L466.8,36.6c0-1.9,1.4-3.4,3.3-3.4c2.2,0,3.3,1.6,3.3,3.5c0,0.1,0,0.3,0,0.5H469
		c0.2,0.7,0.7,1.1,1.4,1.1c0.5,0,1-0.2,1.4-0.7l1.3,1c-0.6,0.8-1.5,1.3-2.8,1.3C468.3,40,466.8,38.6,466.8,36.6z M471.2,36
		c-0.1-0.7-0.5-1.2-1.1-1.2c-0.6,0-1,0.5-1.1,1.2H471.2z"/>
	<path class="st4" d="M474.4,33.3h2.3v0.9c0.4-0.5,1-1.1,1.9-1.1c1.4,0,2.2,0.9,2.2,2.4v4.2h-2.3v-3.5c0-0.7-0.4-1.1-0.9-1.1
		c-0.6,0-1,0.4-1,1.1v3.5h-2.3V33.3z"/>
	<path class="st4" d="M481.7,36.6L481.7,36.6c0-1.9,1.4-3.4,3.3-3.4c2.2,0,3.3,1.6,3.3,3.5c0,0.1,0,0.3,0,0.5h-4.3
		c0.2,0.7,0.7,1.1,1.4,1.1c0.5,0,1-0.2,1.4-0.7l1.3,1c-0.6,0.8-1.5,1.3-2.8,1.3C483.1,40,481.7,38.6,481.7,36.6z M486.1,36
		c-0.1-0.7-0.5-1.2-1.1-1.2c-0.6,0-1,0.5-1.1,1.2H486.1z"/>
	<path class="st4" d="M489.2,33.3h2.3v0.9c0.4-0.5,1-1.1,1.9-1.1c1.4,0,2.2,0.9,2.2,2.4v4.2h-2.3v-3.5c0-0.7-0.4-1.1-0.9-1.1
		c-0.6,0-1,0.4-1,1.1v3.5h-2.3V33.3z"/>
</g>
<g>
	<path class="st4" d="M421.6,45.8h3.6c2.1,0,3.5,1.1,3.5,3v0c0,2-1.5,3-3.6,3H424v2.4h-2.3V45.8z M425.1,50c0.8,0,1.3-0.4,1.3-1.1v0
		c0-0.7-0.5-1.1-1.3-1.1H424V50H425.1z"/>
	<path class="st4" d="M429.6,47.7h2.3V49c0.4-0.9,1-1.5,2.1-1.4V50h-0.2c-1.2,0-1.9,0.7-1.9,2.2v2h-2.3V47.7z"/>
	<path class="st4" d="M434.3,51L434.3,51c0-1.9,1.5-3.4,3.6-3.4c2.1,0,3.6,1.5,3.6,3.4v0c0,1.8-1.5,3.4-3.6,3.4
		C435.8,54.4,434.3,52.8,434.3,51z M439.3,51L439.3,51c0-0.8-0.6-1.5-1.4-1.5c-0.8,0-1.4,0.7-1.4,1.4v0c0,0.8,0.6,1.5,1.4,1.5
		C438.8,52.4,439.3,51.8,439.3,51z"/>
	<path class="st4" d="M441.5,56.1v-1.5c0.1,0,0.2,0,0.3,0c0.4,0,0.7-0.2,0.7-0.8v-6.1h2.3v6.2c0,1.6-0.8,2.2-2.3,2.2
		C442.1,56.2,441.8,56.1,441.5,56.1z M442.5,45.5h2.4v1.7h-2.4V45.5z"/>
	<path class="st4" d="M445.8,51L445.8,51c0-1.9,1.4-3.4,3.3-3.4c2.2,0,3.3,1.6,3.3,3.5c0,0.1,0,0.3,0,0.5H448
		c0.2,0.7,0.7,1.1,1.4,1.1c0.5,0,1-0.2,1.4-0.7l1.3,1c-0.6,0.8-1.5,1.3-2.8,1.3C447.3,54.4,445.8,53,445.8,51z M450.2,50.4
		c-0.1-0.7-0.5-1.2-1.1-1.2c-0.6,0-1,0.5-1.1,1.2H450.2z"/>
	<path class="st4" d="M456.2,53l1.3-1.5c0.8,0.7,1.8,1,2.7,1c0.6,0,1-0.2,1-0.6v0c0-0.3-0.3-0.5-1.4-0.8c-1.8-0.4-3.2-0.9-3.2-2.6v0
		c0-1.6,1.2-2.7,3.2-2.7c1.4,0,2.5,0.4,3.5,1.1l-1.2,1.6c-0.8-0.5-1.6-0.8-2.4-0.8c-0.6,0-0.8,0.2-0.8,0.5v0c0,0.4,0.3,0.6,1.5,0.8
		c1.9,0.4,3.1,1,3.1,2.6v0c0,1.7-1.4,2.7-3.4,2.7C458.6,54.4,457.2,53.9,456.2,53z"/>
	<path class="st4" d="M464.2,52.4L464.2,52.4c0-1.4,1-2.1,2.5-2.1c0.6,0,1.2,0.1,1.6,0.3v-0.1c0-0.7-0.4-1.1-1.3-1.1
		c-0.7,0-1.2,0.1-1.8,0.4l-0.5-1.6c0.7-0.3,1.5-0.5,2.6-0.5c1.2,0,2,0.3,2.5,0.8c0.5,0.5,0.7,1.2,0.7,2.1v3.7h-2.3v-0.7
		c-0.4,0.5-1.1,0.8-1.9,0.8C465.1,54.4,464.2,53.6,464.2,52.4z M468.3,51.9v-0.3c-0.2-0.1-0.6-0.2-0.9-0.2c-0.7,0-1,0.3-1,0.8v0
		c0,0.4,0.3,0.7,0.8,0.7C467.8,52.9,468.3,52.5,468.3,51.9z"/>
	<path class="st4" d="M471.2,55.6l0.7-1.6c0.4,0.2,0.7,0.3,1,0.3c0.2,0,0.4-0.1,0.5-0.3l-2.5-6.4h2.4l1.3,3.9l1.2-3.9h2.3l-2.4,6.3
		c-0.6,1.5-1.2,2.1-2.5,2.1C472.5,56.2,471.8,55.9,471.2,55.6z"/>
	<path class="st4" d="M479,47.7h2.3v6.5H479V47.7z"/>
	<path class="st4" d="M482,53.4l0.9-1.4c0.7,0.5,1.6,0.7,2.2,0.7c0.4,0,0.6-0.1,0.6-0.3v0c0-0.3-0.4-0.4-1-0.6
		c-1.3-0.3-2.3-0.8-2.3-2.1v0c0-1.4,1.1-2.1,2.6-2.1c0.9,0,1.9,0.3,2.7,0.8l-0.8,1.4c-0.7-0.4-1.4-0.6-1.9-0.6
		c-0.3,0-0.5,0.1-0.5,0.3v0c0,0.3,0.4,0.4,1.1,0.6c1.3,0.4,2.3,0.8,2.3,2.1v0c0,1.4-1.1,2.2-2.7,2.2C484,54.4,482.9,54,482,53.4z"/>
	<path class="st4" d="M488.7,47.7h2.3v6.5h-2.3V47.7z"/>
</g>
<g>
	<path d="M11,99.2h3.4c2,0,3.2,1.2,3.2,2.9v0c0,1.9-1.5,3-3.4,3h-1.4v2.5H11V99.2z M14.3,103.4c0.9,0,1.5-0.6,1.5-1.3v0
		c0-0.8-0.6-1.3-1.5-1.3h-1.4v2.6H14.3z"/>
	<path d="M18.8,101.2h1.8v1.3c0.4-0.9,1-1.5,2.1-1.4v1.9h-0.1c-1.2,0-2,0.7-2,2.3v2.4h-1.8V101.2z"/>
	<path d="M23.4,104.4L23.4,104.4c0-1.9,1.5-3.4,3.5-3.4c2,0,3.5,1.5,3.5,3.3v0c0,1.8-1.5,3.3-3.5,3.3
		C24.8,107.7,23.4,106.3,23.4,104.4z M28.5,104.4L28.5,104.4c0-1-0.7-1.8-1.7-1.8c-1,0-1.7,0.8-1.7,1.8v0c0,0.9,0.7,1.8,1.7,1.8
		C27.9,106.2,28.5,105.4,28.5,104.4z"/>
	<path d="M30.7,109.5v-1.4c0.1,0,0.3,0,0.4,0c0.4,0,0.6-0.2,0.6-0.7v-6.2h1.8v6.3c0,1.4-0.7,2.1-2.1,2.1
		C31.1,109.6,30.9,109.5,30.7,109.5z M31.7,98.8h1.9v1.6h-1.9V98.8z"/>
	<path d="M35,104.4L35,104.4c0-1.9,1.3-3.4,3.2-3.4c2.1,0,3.1,1.7,3.1,3.5c0,0.1,0,0.3,0,0.5h-4.5c0.2,0.8,0.8,1.3,1.6,1.3
		c0.6,0,1.1-0.2,1.6-0.7l1,0.9c-0.6,0.7-1.5,1.2-2.6,1.2C36.4,107.7,35,106.4,35,104.4z M39.5,103.9c-0.1-0.8-0.6-1.4-1.4-1.4
		c-0.8,0-1.2,0.5-1.4,1.4H39.5z"/>
	<path d="M48.4,100.9h-2.6v-1.7h7v1.7h-2.6v6.7h-1.8V100.9z"/>
	<path d="M52.4,104.4L52.4,104.4c0-1.9,1.3-3.4,3.2-3.4c2.1,0,3.1,1.7,3.1,3.5c0,0.1,0,0.3,0,0.5h-4.5c0.2,0.8,0.8,1.3,1.6,1.3
		c0.6,0,1.1-0.2,1.6-0.7l1,0.9c-0.6,0.7-1.5,1.2-2.6,1.2C53.9,107.7,52.4,106.4,52.4,104.4z M57,103.9c-0.1-0.8-0.6-1.4-1.4-1.4
		c-0.8,0-1.2,0.5-1.4,1.4H57z"/>
	<path d="M60.1,98.8h1.8v4.7l2.1-2.3h2.2l-2.4,2.5l2.5,3.9h-2.1l-1.7-2.6l-0.6,0.7v2h-1.8V98.8z"/>
	<path d="M67.3,98.8h1.8v8.8h-1.8V98.8z"/>
	<path d="M70.9,98.8h1.9v1.6h-1.9V98.8z M70.9,101.2h1.8v6.4h-1.8V101.2z"/>
	<path d="M74.8,102.7H74v-1.5h0.8v-0.4c0-0.7,0.2-1.2,0.5-1.6s0.8-0.5,1.5-0.5c0.6,0,1,0.1,1.3,0.2v1.5c-0.3-0.1-0.5-0.2-0.8-0.2
		c-0.4,0-0.7,0.2-0.7,0.7v0.3H78v1.5h-1.5v4.9h-1.8V102.7z"/>
</g>
<g>
	<path d="M13,123.4l1-1.4c-1.9-0.4-3.3-2.1-3.3-4.2v0c0-2.4,1.8-4.3,4.4-4.3c1.6,0,2.5,0.5,3.3,1.3l-1.2,1.4
		c-0.6-0.6-1.3-0.9-2.1-0.9c-1.4,0-2.4,1.2-2.4,2.6v0c0,1.4,1,2.6,2.4,2.6c1,0,1.5-0.4,2.2-1l1.2,1.2c-0.8,0.9-1.7,1.4-3.1,1.5
		l-0.8,1.9L13,123.4z"/>
	<path d="M19.3,120.2L19.3,120.2c0-1.4,1.1-2.1,2.6-2.1c0.6,0,1.1,0.1,1.6,0.3v-0.1c0-0.8-0.5-1.2-1.4-1.2c-0.7,0-1.2,0.1-1.8,0.3
		l-0.5-1.4c0.7-0.3,1.4-0.5,2.5-0.5c1,0,1.7,0.3,2.2,0.7c0.5,0.5,0.7,1.2,0.7,2.1v3.7h-1.8v-0.7c-0.4,0.5-1.1,0.8-1.9,0.8
		C20.3,122.1,19.3,121.4,19.3,120.2z M23.5,119.7v-0.3c-0.3-0.1-0.7-0.2-1.2-0.2c-0.8,0-1.3,0.3-1.3,0.9v0c0,0.5,0.4,0.8,1,0.8
		C22.9,120.9,23.5,120.4,23.5,119.7z"/>
	<path d="M26.8,123.3l0.6-1.4c0.7,0.4,1.3,0.6,2.2,0.6c1.2,0,1.8-0.6,1.8-1.8v-0.3c-0.5,0.6-1.1,1-2.1,1c-1.5,0-2.9-1.1-2.9-3v0
		c0-1.9,1.4-3,2.9-3c1,0,1.6,0.4,2.1,1v-0.8h1.8v5c0,1.2-0.3,2-0.8,2.5c-0.6,0.6-1.5,0.9-2.8,0.9C28.6,123.9,27.6,123.7,26.8,123.3z
		 M27.8,113h1.2c0.1,0.4,0.4,0.7,1,0.7s0.9-0.3,1-0.7h1.2c-0.1,1.2-1,1.9-2.3,1.9S28,114.2,27.8,113z M31.4,118.5L31.4,118.5
		c0-0.9-0.7-1.5-1.6-1.5c-0.9,0-1.6,0.6-1.6,1.5v0c0,0.9,0.7,1.5,1.6,1.5C30.8,120,31.4,119.3,31.4,118.5z"/>
	<path d="M34.9,115.6h1.8v1.3c0.4-0.9,1-1.5,2.1-1.4v1.9h-0.1c-1.2,0-2,0.7-2,2.3v2.4h-1.8V115.6z"/>
	<path d="M40,115.6h1.8v6.4H40V115.6z"/>
	<path d="M43.6,113.2h1.8v8.8h-1.8V113.2z"/>
	<path d="M46.8,120.2L46.8,120.2c0-1.4,1.1-2.1,2.6-2.1c0.6,0,1.1,0.1,1.6,0.3v-0.1c0-0.8-0.5-1.2-1.4-1.2c-0.7,0-1.2,0.1-1.8,0.3
		l-0.5-1.4c0.7-0.3,1.4-0.5,2.5-0.5c1,0,1.7,0.3,2.2,0.7c0.5,0.5,0.7,1.2,0.7,2.1v3.7h-1.8v-0.7c-0.4,0.5-1.1,0.8-1.9,0.8
		C47.8,122.1,46.8,121.4,46.8,120.2z M50.9,119.7v-0.3c-0.3-0.1-0.7-0.2-1.2-0.2c-0.8,0-1.3,0.3-1.3,0.9v0c0,0.5,0.4,0.8,1,0.8
		C50.4,120.9,50.9,120.4,50.9,119.7z"/>
	<path d="M54.2,115.6h1.8v1.3c0.4-0.9,1-1.5,2.1-1.4v1.9H58c-1.2,0-2,0.7-2,2.3v2.4h-1.8V115.6z"/>
	<path d="M59.3,115.6h1.8v6.4h-1.8V115.6z"/>
</g>
<g>
	<path d="M129.8,112.5L129.8,112.5c0-1,0.5-1.6,1.4-2.1c-0.6-0.4-1.1-0.9-1.1-1.8v0c0-1.3,1.2-2.3,3-2.3s3,1,3,2.3v0
		c0,0.9-0.4,1.4-1.1,1.8c0.9,0.4,1.4,1,1.4,2v0c0,1.6-1.4,2.5-3.2,2.5S129.8,114,129.8,112.5z M134.5,112.4L134.5,112.4
		c0-0.7-0.6-1.1-1.5-1.1c-0.8,0-1.5,0.4-1.5,1v0c0,0.6,0.5,1,1.5,1S134.5,112.9,134.5,112.4z M134.2,108.8L134.2,108.8
		c0-0.5-0.4-1-1.2-1c-0.8,0-1.2,0.5-1.2,1v0c0,0.6,0.5,1,1.2,1S134.2,109.4,134.2,108.8z"/>
	<path d="M141.5,108h-3.9v-1.6h6v1.4l-3.8,7h-2.1L141.5,108z"/>
	<path d="M143.3,116c0.8-0.1,1.2-0.5,1.2-1.2h-0.7v-1.9h1.9v1.6c0,1.6-0.8,2.2-2.2,2.2L143.3,116z"/>
	<path d="M148,114c-0.6-0.6-1-1.5-1-3.2v0c0-2.6,1.2-4.6,3.7-4.6c1.1,0,1.9,0.3,2.6,0.9l-1,1.4c-0.6-0.4-1-0.7-1.7-0.7
		c-1,0-1.6,0.8-1.7,1.9c0.4-0.3,0.9-0.5,1.7-0.5c1.7,0,3,0.9,3,2.7v0c0,1.7-1.4,2.9-3.2,2.9C149.4,114.9,148.6,114.6,148,114z
		 M151.8,112.1L151.8,112.1c0-0.7-0.6-1.2-1.5-1.2s-1.4,0.5-1.4,1.2v0c0,0.7,0.6,1.2,1.5,1.2C151.3,113.4,151.8,112.8,151.8,112.1z"
		/>
</g>
<g>
	<path d="M231.2,108.2l-1.5,0.4l-0.4-1.5l2.4-0.7h1.3v8.5h-1.8V108.2z"/>
	<path d="M235.7,114c-0.6-0.6-1-1.5-1-3.2v0c0-2.6,1.2-4.6,3.7-4.6c1.1,0,1.9,0.3,2.6,0.9l-1,1.4c-0.6-0.4-1-0.7-1.7-0.7
		c-1,0-1.6,0.8-1.7,1.9c0.4-0.3,0.9-0.5,1.7-0.5c1.7,0,3,0.9,3,2.7v0c0,1.7-1.4,2.9-3.2,2.9C237.1,114.9,236.3,114.6,235.7,114z
		 M239.5,112.1L239.5,112.1c0-0.7-0.6-1.2-1.5-1.2s-1.4,0.5-1.4,1.2v0c0,0.7,0.6,1.2,1.5,1.2C239,113.4,239.5,112.8,239.5,112.1z"/>
	<path d="M242.6,113.7l1.1-1.3c0.6,0.6,1.3,0.9,2,0.9c0.9,0,1.4-0.4,1.4-1.2v0c0-0.7-0.6-1.1-1.5-1.1c-0.5,0-1,0.1-1.4,0.3l-1.1-0.7
		l0.2-4.1h5.2v1.6H245l-0.1,1.5c0.3-0.1,0.6-0.1,1.1-0.1c1.6,0,2.9,0.8,2.9,2.7v0c0,1.8-1.3,2.9-3.2,2.9
		C244.4,114.9,243.4,114.5,242.6,113.7z"/>
	<path d="M249.9,116c0.8-0.1,1.2-0.5,1.2-1.2h-0.7v-1.9h1.9v1.6c0,1.6-0.8,2.2-2.2,2.2L249.9,116z"/>
	<path d="M253.6,113.3l2.8-2.3c1-0.9,1.5-1.3,1.5-2c0-0.7-0.5-1.1-1.1-1.1c-0.6,0-1.1,0.4-1.7,1.1l-1.3-1c0.8-1.1,1.6-1.7,3.1-1.7
		c1.7,0,2.9,1,2.9,2.6v0c0,1.4-0.7,2.1-2.2,3.3l-1.4,1.1h3.7v1.6h-6.2V113.3z"/>
	<path d="M261.4,113.9l1-1.4c0.6,0.5,1.1,0.7,1.8,0.7c1,0,1.6-0.8,1.7-1.9c-0.4,0.3-1,0.6-1.7,0.6c-1.8,0-3-1-3-2.7v0
		c0-1.7,1.3-2.9,3.2-2.9c1.1,0,1.8,0.3,2.4,0.9c0.6,0.6,1,1.5,1,3.2v0c0,2.7-1.3,4.6-3.7,4.6C262.9,114.9,262.1,114.5,261.4,113.9z
		 M265.9,109.1L265.9,109.1c0-0.8-0.6-1.3-1.5-1.3c-0.9,0-1.4,0.5-1.4,1.3v0c0,0.7,0.6,1.3,1.5,1.3S265.9,109.9,265.9,109.1z"/>
</g>
<g>
	<path d="M350.8,108.2l-1.5,0.4l-0.4-1.5l2.4-0.7h1.3v8.5h-1.8V108.2z"/>
	<path d="M354.5,112.9h1.9v1.9h-1.9V112.9z"/>
	<path d="M358.8,114c-0.6-0.6-1-1.5-1-3.2v0c0-2.6,1.2-4.6,3.7-4.6c1.1,0,1.9,0.3,2.6,0.9l-1,1.4c-0.6-0.4-1-0.7-1.7-0.7
		c-1,0-1.6,0.8-1.7,1.9c0.4-0.3,0.9-0.5,1.7-0.5c1.7,0,3,0.9,3,2.7v0c0,1.7-1.4,2.9-3.2,2.9C360.2,114.9,359.4,114.6,358.8,114z
		 M362.6,112.1L362.6,112.1c0-0.7-0.6-1.2-1.5-1.2s-1.4,0.5-1.4,1.2v0c0,0.7,0.6,1.2,1.5,1.2C362.1,113.4,362.6,112.8,362.6,112.1z"
		/>
	<path d="M366.8,114c-0.6-0.6-1-1.5-1-3.2v0c0-2.6,1.2-4.6,3.7-4.6c1.1,0,1.9,0.3,2.6,0.9l-1,1.4c-0.6-0.4-1-0.7-1.7-0.7
		c-1,0-1.6,0.8-1.7,1.9c0.4-0.3,0.9-0.5,1.7-0.5c1.7,0,3,0.9,3,2.7v0c0,1.7-1.4,2.9-3.2,2.9C368.1,114.9,367.4,114.6,366.8,114z
		 M370.6,112.1L370.6,112.1c0-0.7-0.6-1.2-1.5-1.2s-1.4,0.5-1.4,1.2v0c0,0.7,0.6,1.2,1.5,1.2C370,113.4,370.6,112.8,370.6,112.1z"/>
	<path d="M373.7,110.6L373.7,110.6c0-2.5,1.5-4.4,3.7-4.4c2.2,0,3.7,1.9,3.7,4.3v0c0,2.4-1.5,4.3-3.7,4.3
		C375.2,114.9,373.7,113.1,373.7,110.6z M379.3,110.6L379.3,110.6c0-1.5-0.7-2.7-1.8-2.7s-1.8,1.1-1.8,2.7v0c0,1.5,0.7,2.7,1.8,2.7
		S379.3,112.1,379.3,110.6z"/>
</g>
<g>
	<path d="M421.5,113.3l2.8-2.3c1-0.9,1.5-1.3,1.5-2c0-0.7-0.5-1.1-1.1-1.1c-0.6,0-1.1,0.4-1.7,1.1l-1.3-1c0.8-1.1,1.6-1.7,3.1-1.7
		c1.7,0,2.9,1,2.9,2.6v0c0,1.4-0.7,2.1-2.2,3.3l-1.4,1.1h3.7v1.6h-6.2V113.3z"/>
	<path d="M433.1,108h-3.9v-1.6h6v1.4l-3.8,7h-2.1L433.1,108z"/>
	<path d="M436.2,110.6L436.2,110.6c0-2.5,1.5-4.4,3.7-4.4c2.2,0,3.7,1.9,3.7,4.3v0c0,2.4-1.5,4.3-3.7,4.3
		C437.6,114.9,436.2,113.1,436.2,110.6z M441.7,110.6L441.7,110.6c0-1.5-0.7-2.7-1.8-2.7s-1.8,1.1-1.8,2.7v0c0,1.5,0.7,2.7,1.8,2.7
		S441.7,112.1,441.7,110.6z"/>
</g>
<g>
	<path d="M11,153.4h3.3c2.6,0,4.5,1.8,4.5,4.2v0c0,2.4-1.8,4.2-4.5,4.2H11V153.4z M14.3,160.1c1.5,0,2.5-1,2.5-2.5v0
		c0-1.5-1-2.5-2.5-2.5h-1.4v5.1H14.3z"/>
	<path d="M19.9,158.6L19.9,158.6c0-1.9,1.5-3.4,3.5-3.4c2,0,3.5,1.5,3.5,3.3v0c0,1.8-1.5,3.3-3.5,3.3
		C21.4,161.9,19.9,160.4,19.9,158.6z M25,158.6L25,158.6c0-1-0.7-1.8-1.7-1.8c-1,0-1.7,0.8-1.7,1.8v0c0,0.9,0.7,1.8,1.7,1.8
		C24.4,160.3,25,159.5,25,158.6z"/>
	<path d="M28.2,163l0.6-1.4c0.7,0.4,1.3,0.6,2.2,0.6c1.2,0,1.8-0.6,1.8-1.8v-0.3c-0.5,0.6-1.1,1-2.1,1c-1.5,0-2.9-1.1-2.9-3v0
		c0-1.9,1.4-3,2.9-3c1,0,1.6,0.4,2.1,1v-0.8h1.8v5c0,1.2-0.3,2-0.8,2.5c-0.6,0.6-1.5,0.9-2.8,0.9C30,163.7,29,163.5,28.2,163z
		 M29.2,152.7h1.2c0.1,0.4,0.4,0.7,1,0.7s0.9-0.3,1-0.7h1.2c-0.1,1.2-1,1.9-2.3,1.9S29.3,154,29.2,152.7z M32.8,158.2L32.8,158.2
		c0-0.9-0.7-1.5-1.6-1.5c-0.9,0-1.6,0.6-1.6,1.5v0c0,0.9,0.7,1.5,1.6,1.5C32.2,159.7,32.8,159.1,32.8,158.2z"/>
	<path d="M36.3,155.3h1.8v1.3c0.4-0.9,1-1.5,2.1-1.4v1.9H40c-1.2,0-2,0.7-2,2.3v2.4h-1.8V155.3z"/>
	<path d="M41.2,159.5v-4.2h1.8v3.6c0,0.9,0.4,1.3,1.1,1.3c0.7,0,1.1-0.4,1.1-1.3v-3.6h1.8v6.4h-1.8v-0.9c-0.4,0.5-1,1-1.9,1
		C42,161.9,41.2,161,41.2,159.5z"/>
	<path d="M48.5,158.6L48.5,158.6c0-2.2,1.4-3.3,2.9-3.3c1,0,1.6,0.4,2,1V153h1.8v8.8h-1.8v-0.9c-0.4,0.6-1.1,1-2,1
		C49.9,161.9,48.5,160.7,48.5,158.6z M53.4,158.6L53.4,158.6c0-1.1-0.7-1.8-1.6-1.8s-1.6,0.7-1.6,1.8v0c0,1.1,0.7,1.8,1.6,1.8
		S53.4,159.6,53.4,158.6z"/>
	<path d="M56.5,159.9L56.5,159.9c0-1.4,1.1-2.1,2.6-2.1c0.6,0,1.1,0.1,1.6,0.3V158c0-0.8-0.5-1.2-1.4-1.2c-0.7,0-1.2,0.1-1.8,0.3
		l-0.5-1.4c0.7-0.3,1.4-0.5,2.5-0.5c1,0,1.7,0.3,2.2,0.7c0.5,0.5,0.7,1.2,0.7,2.1v3.7h-1.8v-0.7c-0.4,0.5-1.1,0.8-1.9,0.8
		C57.5,161.9,56.5,161.2,56.5,159.9z M60.7,159.5v-0.3c-0.3-0.1-0.7-0.2-1.2-0.2c-0.8,0-1.3,0.3-1.3,0.9v0c0,0.5,0.4,0.8,1,0.8
		C60.1,160.6,60.7,160.2,60.7,159.5z"/>
	<path d="M64,155.3h1.8v0.9c0.4-0.5,1-1,1.9-1c1.4,0,2.2,0.9,2.2,2.4v4.2H68v-3.6c0-0.9-0.4-1.3-1.1-1.3c-0.7,0-1.1,0.4-1.1,1.3v3.6
		H64V155.3z"/>
</g>
<g>
	<path d="M11,167.8h6.4v1.7h-4.5v1.8h4v1.7h-4v3.2H11V167.8z"/>
	<path d="M18,174.3L18,174.3c0-1.4,1.1-2.1,2.6-2.1c0.6,0,1.1,0.1,1.6,0.3v-0.1c0-0.8-0.5-1.2-1.4-1.2c-0.7,0-1.2,0.1-1.8,0.3
		l-0.5-1.4c0.7-0.3,1.4-0.5,2.5-0.5c1,0,1.7,0.3,2.2,0.7c0.5,0.5,0.7,1.2,0.7,2.1v3.7h-1.8v-0.7c-0.4,0.5-1.1,0.8-1.9,0.8
		C19,176.3,18,175.6,18,174.3z M22.2,173.9v-0.3c-0.3-0.1-0.7-0.2-1.2-0.2c-0.8,0-1.3,0.3-1.3,0.9v0c0,0.5,0.4,0.8,1,0.8
		C21.6,175,22.2,174.6,22.2,173.9z"/>
	<path d="M25.1,174.3L25.1,174.3c0-1.4,1.1-2.1,2.6-2.1c0.6,0,1.1,0.1,1.6,0.3v-0.1c0-0.8-0.5-1.2-1.4-1.2c-0.7,0-1.2,0.1-1.8,0.3
		l-0.5-1.4c0.7-0.3,1.4-0.5,2.5-0.5c1,0,1.7,0.3,2.2,0.7c0.5,0.5,0.7,1.2,0.7,2.1v3.7h-1.8v-0.7c-0.4,0.5-1.1,0.8-1.9,0.8
		C26.1,176.3,25.1,175.6,25.1,174.3z M29.3,173.9v-0.3c-0.3-0.1-0.7-0.2-1.2-0.2c-0.8,0-1.3,0.3-1.3,0.9v0c0,0.5,0.4,0.8,1,0.8
		C28.7,175,29.3,174.6,29.3,173.9z"/>
	<path d="M32.7,167.4h1.8v8.8h-1.8V167.4z"/>
	<path d="M36.3,167.4h1.9v1.6h-1.9V167.4z M36.3,169.7h1.8v6.4h-1.8V169.7z"/>
	<path d="M39.8,177.7l0.6-1.3c0.2,0.1,0.5,0.3,0.8,0.3c0.3,0,0.5-0.1,0.6-0.4l-2.5-6.5h1.9l1.5,4.4l1.4-4.4H46l-2.5,6.6
		c-0.5,1.3-1,1.8-2.1,1.8C40.7,178.1,40.2,178,39.8,177.7z"/>
	<path d="M46.4,173L46.4,173c0-1.9,1.3-3.4,3.2-3.4c2.1,0,3.1,1.7,3.1,3.5c0,0.1,0,0.3,0,0.5h-4.5c0.2,0.8,0.8,1.3,1.6,1.3
		c0.6,0,1.1-0.2,1.6-0.7l1,0.9c-0.6,0.7-1.5,1.2-2.6,1.2C47.8,176.3,46.4,175,46.4,173z M50.9,172.4c-0.1-0.8-0.6-1.4-1.4-1.4
		c-0.8,0-1.2,0.5-1.4,1.4H50.9z"/>
	<path d="M54.4,174.3v-3h-0.8v-1.6h0.8v-1.6h1.8v1.6h1.5v1.6h-1.5v2.7c0,0.4,0.2,0.6,0.6,0.6c0.3,0,0.6-0.1,0.9-0.2v1.5
		c-0.4,0.2-0.8,0.4-1.4,0.4C55.1,176.3,54.4,175.8,54.4,174.3z"/>
	<path d="M62.8,167.8h3.3c2.6,0,4.5,1.8,4.5,4.2v0c0,2.4-1.8,4.2-4.5,4.2h-3.3V167.8z M66.1,174.5c1.5,0,2.5-1,2.5-2.5v0
		c0-1.5-1-2.5-2.5-2.5h-1.4v5.1H66.1z"/>
	<path d="M71.7,173L71.7,173c0-1.9,1.3-3.4,3.2-3.4c2.1,0,3.1,1.7,3.1,3.5c0,0.1,0,0.3,0,0.5h-4.5c0.2,0.8,0.8,1.3,1.6,1.3
		c0.6,0,1.1-0.2,1.6-0.7l1,0.9c-0.6,0.7-1.5,1.2-2.6,1.2C73.1,176.3,71.7,175,71.7,173z M76.2,172.4c-0.1-0.8-0.6-1.4-1.4-1.4
		c-0.8,0-1.2,0.5-1.4,1.4H76.2z"/>
	<path d="M78.9,175.3l0.8-1.2c0.7,0.5,1.4,0.8,2,0.8c0.5,0,0.8-0.2,0.8-0.5v0c0-0.4-0.6-0.5-1.3-0.7c-0.9-0.3-1.9-0.7-1.9-1.9v0
		c0-1.3,1.1-2,2.4-2c0.8,0,1.7,0.3,2.4,0.7l-0.7,1.3c-0.6-0.4-1.3-0.6-1.7-0.6c-0.4,0-0.7,0.2-0.7,0.4v0c0,0.4,0.6,0.5,1.3,0.8
		c0.9,0.3,1.9,0.7,1.9,1.9v0c0,1.4-1.1,2.1-2.5,2.1C80.7,176.3,79.7,176,78.9,175.3z"/>
	<path d="M85.6,174.3v-3h-0.8v-1.6h0.8v-1.6h1.8v1.6h1.5v1.6h-1.5v2.7c0,0.4,0.2,0.6,0.6,0.6c0.3,0,0.6-0.1,0.9-0.2v1.5
		c-0.4,0.2-0.8,0.4-1.4,0.4C86.3,176.3,85.6,175.8,85.6,174.3z"/>
	<path d="M89.8,173L89.8,173c0-1.9,1.3-3.4,3.2-3.4c2.1,0,3.1,1.7,3.1,3.5c0,0.1,0,0.3,0,0.5h-4.5c0.2,0.8,0.8,1.3,1.6,1.3
		c0.6,0,1.1-0.2,1.6-0.7l1,0.9c-0.6,0.7-1.5,1.2-2.6,1.2C91.2,176.3,89.8,175,89.8,173z M94.3,172.4c-0.1-0.8-0.6-1.4-1.4-1.4
		c-0.8,0-1.2,0.5-1.4,1.4H94.3z"/>
	<path d="M97.5,177.4l0.6-1.4c0.7,0.4,1.3,0.6,2.2,0.6c1.2,0,1.8-0.6,1.8-1.8v-0.3c-0.5,0.6-1.1,1-2.1,1c-1.5,0-2.9-1.1-2.9-3v0
		c0-1.9,1.4-3,2.9-3c1,0,1.6,0.4,2.1,1v-0.8h1.8v5c0,1.2-0.3,2-0.8,2.5c-0.6,0.6-1.5,0.9-2.8,0.9C99.3,178.1,98.3,177.9,97.5,177.4z
		 M98.5,167.1h1.2c0.1,0.4,0.4,0.7,1,0.7s0.9-0.3,1-0.7h1.2c-0.1,1.2-1,1.9-2.3,1.9S98.6,168.4,98.5,167.1z M102.1,172.6
		L102.1,172.6c0-0.9-0.7-1.5-1.6-1.5c-0.9,0-1.6,0.6-1.6,1.5v0c0,0.9,0.7,1.5,1.6,1.5C101.4,174.1,102.1,173.5,102.1,172.6z"/>
	<path d="M105.6,167.4h1.9v1.6h-1.9V167.4z M105.6,169.7h1.8v6.4h-1.8V169.7z"/>
</g>
<g>
	<path d="M134,167.2h-4.1l-0.3-1.3l4.6-5.3h1.6v5.1h1.1v1.5h-1.1v1.8H134V167.2z M134,165.7V163l-2.2,2.6H134z"/>
	<path d="M137.8,170.2c0.8-0.1,1.2-0.5,1.2-1.2h-0.7V167h1.9v1.6c0,1.6-0.8,2.2-2.2,2.2L137.8,170.2z"/>
	<path d="M141.4,167.7l1.3-1.2c0.6,0.6,1.2,1,2,1c0.7,0,1.2-0.4,1.2-1v0c0-0.7-0.6-1.1-1.6-1.1h-0.8l-0.3-1.2l2-2h-3.3v-1.6h5.7v1.4
		l-2.1,2c1.1,0.2,2.3,0.8,2.3,2.4v0c0,1.6-1.2,2.7-3,2.7C143.2,169.1,142.1,168.5,141.4,167.7z"/>
	<path d="M149.2,168.1l1-1.4c0.6,0.5,1.1,0.7,1.8,0.7c1,0,1.6-0.8,1.7-1.9c-0.4,0.3-1,0.6-1.7,0.6c-1.8,0-3-1-3-2.7v0
		c0-1.7,1.3-2.9,3.2-2.9c1.1,0,1.8,0.3,2.4,0.9c0.6,0.6,1,1.5,1,3.2v0c0,2.7-1.3,4.6-3.7,4.6C150.8,169.1,149.9,168.7,149.2,168.1z
		 M153.8,163.3L153.8,163.3c0-0.8-0.6-1.3-1.5-1.3c-0.9,0-1.4,0.5-1.4,1.3v0c0,0.7,0.6,1.3,1.5,1.3S153.8,164,153.8,163.3z"/>
</g>
<g>
	<path d="M233.8,167.2h-4.1l-0.3-1.3l4.6-5.3h1.6v5.1h1.1v1.5h-1.1v1.8h-1.8V167.2z M233.8,165.7V163l-2.2,2.6H233.8z"/>
	<path d="M237.6,170.2c0.8-0.1,1.2-0.5,1.2-1.2h-0.7V167h1.9v1.6c0,1.6-0.8,2.2-2.2,2.2L237.6,170.2z"/>
	<path d="M242.4,168.2c-0.6-0.6-1-1.5-1-3.2v0c0-2.6,1.2-4.6,3.7-4.6c1.1,0,1.9,0.3,2.6,0.9l-1,1.4c-0.6-0.4-1-0.7-1.7-0.7
		c-1,0-1.6,0.8-1.7,1.9c0.4-0.3,0.9-0.5,1.7-0.5c1.7,0,3,0.9,3,2.7v0c0,1.7-1.4,2.9-3.2,2.9C243.7,169.1,243,168.8,242.4,168.2z
		 M246.2,166.3L246.2,166.3c0-0.7-0.6-1.2-1.5-1.2s-1.4,0.5-1.4,1.2v0c0,0.7,0.6,1.2,1.5,1.2C245.6,167.5,246.2,167,246.2,166.3z"/>
	<path d="M249.3,167.5l2.8-2.3c1-0.9,1.5-1.3,1.5-2c0-0.7-0.5-1.1-1.1-1.1c-0.6,0-1.1,0.4-1.7,1.1l-1.3-1c0.8-1.1,1.6-1.7,3.1-1.7
		c1.7,0,2.9,1,2.9,2.6v0c0,1.4-0.7,2.1-2.2,3.3l-1.4,1.1h3.7v1.6h-6.2V167.5z"/>
</g>
<g>
	<path d="M349.3,167.5l2.8-2.3c1-0.9,1.5-1.3,1.5-2c0-0.7-0.5-1.1-1.1-1.1c-0.6,0-1.1,0.4-1.7,1.1l-1.3-1c0.8-1.1,1.6-1.7,3.1-1.7
		c1.7,0,2.9,1,2.9,2.6v0c0,1.4-0.7,2.1-2.2,3.3l-1.4,1.1h3.7v1.6h-6.2V167.5z"/>
	<path d="M356.6,167.7l1.3-1.2c0.6,0.6,1.2,1,2,1c0.7,0,1.2-0.4,1.2-1v0c0-0.7-0.6-1.1-1.6-1.1h-0.8l-0.3-1.2l2-2h-3.3v-1.6h5.7v1.4
		l-2.1,2c1.1,0.2,2.3,0.8,2.3,2.4v0c0,1.6-1.2,2.7-3,2.7C358.4,169.1,357.3,168.5,356.6,167.7z"/>
	<path d="M365.8,162.4l-1.5,0.4l-0.4-1.5l2.4-0.7h1.3v8.5h-1.8V162.4z"/>
</g>
<g>
	<path d="M422.5,168.2c-0.6-0.6-1-1.5-1-3.2v0c0-2.6,1.2-4.6,3.7-4.6c1.1,0,1.9,0.3,2.6,0.9l-1,1.4c-0.6-0.4-1-0.7-1.7-0.7
		c-1,0-1.6,0.8-1.7,1.9c0.4-0.3,0.9-0.5,1.7-0.5c1.7,0,3,0.9,3,2.7v0c0,1.7-1.4,2.9-3.2,2.9C423.9,169.1,423.1,168.8,422.5,168.2z
		 M426.3,166.3L426.3,166.3c0-0.7-0.6-1.2-1.5-1.2s-1.4,0.5-1.4,1.2v0c0,0.7,0.6,1.2,1.5,1.2C425.8,167.5,426.3,167,426.3,166.3z"/>
	<path d="M429.6,168.1l1-1.4c0.6,0.5,1.1,0.7,1.8,0.7c1,0,1.6-0.8,1.7-1.9c-0.4,0.3-1,0.6-1.7,0.6c-1.8,0-3-1-3-2.7v0
		c0-1.7,1.3-2.9,3.2-2.9c1.1,0,1.8,0.3,2.4,0.9c0.6,0.6,1,1.5,1,3.2v0c0,2.7-1.3,4.6-3.7,4.6C431.1,169.1,430.3,168.7,429.6,168.1z
		 M434.1,163.3L434.1,163.3c0-0.8-0.6-1.3-1.5-1.3c-0.9,0-1.4,0.5-1.4,1.3v0c0,0.7,0.6,1.3,1.5,1.3S434.1,164,434.1,163.3z"/>
</g>
<g>
	<path d="M10.6,213.3L10.6,213.3c0-2.4,1.9-4.4,4.4-4.4c1.5,0,2.4,0.4,3.3,1.2l-1.2,1.4c-0.6-0.5-1.2-0.9-2.2-0.9
		c-1.3,0-2.4,1.2-2.4,2.6v0c0,1.5,1.1,2.7,2.5,2.7c0.7,0,1.3-0.2,1.7-0.5v-1.2H15v-1.6h3.6v3.6c-0.9,0.7-2.1,1.3-3.6,1.3
		C12.4,217.6,10.6,215.8,10.6,213.3z"/>
	<path d="M20.2,215.2V211H22v3.6c0,0.9,0.4,1.3,1.1,1.3c0.7,0,1.1-0.4,1.1-1.3V211h1.8v6.4h-1.8v-0.9c-0.4,0.5-1,1-1.9,1
		C21,217.6,20.2,216.7,20.2,215.2z M21,208.7h1.8v1.6H21V208.7z M23.5,208.7h1.8v1.6h-1.8V208.7z"/>
	<path d="M27.4,214.3L27.4,214.3c0-2.2,1.4-3.3,2.9-3.3c1,0,1.6,0.4,2,1v-3.2h1.8v8.8h-1.8v-0.9c-0.4,0.6-1.1,1-2,1
		C28.8,217.6,27.4,216.4,27.4,214.3z M32.4,214.3L32.4,214.3c0-1.1-0.7-1.8-1.6-1.8s-1.6,0.7-1.6,1.8v0c0,1.1,0.7,1.8,1.6,1.8
		S32.4,215.3,32.4,214.3z"/>
	<path d="M35.8,215.2V211h1.8v3.6c0,0.9,0.4,1.3,1.1,1.3c0.7,0,1.1-0.4,1.1-1.3V211h1.8v6.4h-1.8v-0.9c-0.4,0.5-1,1-1.9,1
		C36.6,217.6,35.8,216.7,35.8,215.2z M36.6,208.7h1.8v1.6h-1.8V208.7z M39.1,208.7h1.8v1.6h-1.8V208.7z"/>
	<path d="M43.3,211h1.8v0.9c0.4-0.5,1-1,1.9-1c0.8,0,1.5,0.4,1.8,1c0.6-0.7,1.2-1,2.1-1c1.4,0,2.2,0.8,2.2,2.4v4.2h-1.8v-3.6
		c0-0.9-0.4-1.3-1.1-1.3s-1.1,0.4-1.1,1.3v3.6h-1.8v-3.6c0-0.9-0.4-1.3-1.1-1.3c-0.7,0-1.1,0.4-1.1,1.3v3.6h-1.8V211z"/>
	<path d="M54.8,208.7h1.8v8.8h-1.8V208.7z"/>
	<path d="M58.3,215.2V211h1.8v3.6c0,0.9,0.4,1.3,1.1,1.3c0.7,0,1.1-0.4,1.1-1.3V211h1.8v6.4h-1.8v-0.9c-0.4,0.5-1,1-1.9,1
		C59.1,217.6,58.3,216.7,58.3,215.2z M59.1,208.7h1.8v1.6h-1.8V208.7z M61.6,208.7h1.8v1.6h-1.8V208.7z"/>
	<path d="M69.6,209.1H73c2,0,3.2,1.2,3.2,2.9v0c0,1.9-1.5,3-3.4,3h-1.4v2.5h-1.8V209.1z M72.9,213.3c0.9,0,1.5-0.6,1.5-1.3v0
		c0-0.8-0.6-1.3-1.5-1.3h-1.4v2.6H72.9z"/>
	<path d="M77.4,211h1.8v1.3c0.4-0.9,1-1.5,2.1-1.4v1.9h-0.1c-1.2,0-2,0.7-2,2.3v2.4h-1.8V211z"/>
	<path d="M81.9,214.3L81.9,214.3c0-1.9,1.5-3.4,3.5-3.4c2,0,3.5,1.5,3.5,3.3v0c0,1.8-1.5,3.3-3.5,3.3
		C83.4,217.6,81.9,216.1,81.9,214.3z M87.1,214.3L87.1,214.3c0-1-0.7-1.8-1.7-1.8c-1,0-1.7,0.8-1.7,1.8v0c0,0.9,0.7,1.8,1.7,1.8
		C86.5,216,87.1,215.2,87.1,214.3z"/>
	<path d="M89.3,219.4v-1.4c0.1,0,0.3,0,0.4,0c0.4,0,0.6-0.2,0.6-0.7V211h1.8v6.3c0,1.4-0.7,2.1-2.1,2.1
		C89.7,219.4,89.5,219.4,89.3,219.4z M90.2,208.7h1.9v1.6h-1.9V208.7z"/>
	<path d="M93.5,214.3L93.5,214.3c0-1.9,1.3-3.4,3.2-3.4c2.1,0,3.1,1.7,3.1,3.5c0,0.1,0,0.3,0,0.5h-4.5c0.2,0.8,0.8,1.3,1.6,1.3
		c0.6,0,1.1-0.2,1.6-0.7l1,0.9c-0.6,0.7-1.5,1.2-2.6,1.2C94.9,217.6,93.5,216.3,93.5,214.3z M98,213.8c-0.1-0.8-0.6-1.4-1.4-1.4
		c-0.8,0-1.2,0.5-1.4,1.4H98z"/>
	<path d="M101.3,208.7h1.8v8.8h-1.8V208.7z"/>
	<path d="M104.5,214.3L104.5,214.3c0-1.9,1.3-3.4,3.2-3.4c2.1,0,3.1,1.7,3.1,3.5c0,0.1,0,0.3,0,0.5h-4.5c0.2,0.8,0.8,1.3,1.6,1.3
		c0.6,0,1.1-0.2,1.6-0.7l1,0.9c-0.6,0.7-1.5,1.2-2.6,1.2C105.9,217.6,104.5,216.3,104.5,214.3z M109,213.8c-0.1-0.8-0.6-1.4-1.4-1.4
		c-0.8,0-1.2,0.5-1.4,1.4H109z"/>
	<path d="M112.2,211h1.8v1.3c0.4-0.9,1-1.5,2.1-1.4v1.9h-0.1c-1.2,0-2,0.7-2,2.3v2.4h-1.8V211z"/>
</g>
<g>
	<path d="M129.9,213.3L129.9,213.3c0-2.5,1.5-4.4,3.7-4.4c2.2,0,3.7,1.9,3.7,4.3v0c0,2.4-1.5,4.3-3.7,4.3S129.9,215.7,129.9,213.3z
		 M135.5,213.3L135.5,213.3c0-1.5-0.7-2.7-1.8-2.7s-1.8,1.1-1.8,2.7v0c0,1.5,0.7,2.7,1.8,2.7S135.5,214.8,135.5,213.3z"/>
</g>
<g>
	<path d="M229.7,213.3L229.7,213.3c0-2.5,1.5-4.4,3.7-4.4c2.2,0,3.7,1.9,3.7,4.3v0c0,2.4-1.5,4.3-3.7,4.3S229.7,215.7,229.7,213.3z
		 M235.3,213.3L235.3,213.3c0-1.5-0.7-2.7-1.8-2.7c-1.1,0-1.8,1.1-1.8,2.7v0c0,1.5,0.7,2.7,1.8,2.7S235.3,214.8,235.3,213.3z"/>
</g>
<g>
	<path d="M349.3,213.3L349.3,213.3c0-2.5,1.5-4.4,3.7-4.4c2.2,0,3.7,1.9,3.7,4.3v0c0,2.4-1.5,4.3-3.7,4.3
		C350.8,217.6,349.3,215.7,349.3,213.3z M354.9,213.3L354.9,213.3c0-1.5-0.7-2.7-1.8-2.7c-1.1,0-1.8,1.1-1.8,2.7v0
		c0,1.5,0.7,2.7,1.8,2.7S354.9,214.8,354.9,213.3z"/>
</g>
<g>
	<path d="M421.5,213.3L421.5,213.3c0-2.5,1.5-4.4,3.7-4.4c2.2,0,3.7,1.9,3.7,4.3v0c0,2.4-1.5,4.3-3.7,4.3
		C423,217.6,421.5,215.7,421.5,213.3z M427.1,213.3L427.1,213.3c0-1.5-0.7-2.7-1.8-2.7c-1.1,0-1.8,1.1-1.8,2.7v0
		c0,1.5,0.7,2.7,1.8,2.7S427.1,214.8,427.1,213.3z"/>
</g>
<g>
	<path d="M13,253.6h-2.6v-1.7h7v1.7h-2.6v6.7H13V253.6z"/>
	<path d="M17,257.1L17,257.1c0-1.9,1.3-3.4,3.2-3.4c2.1,0,3.1,1.7,3.1,3.5c0,0.1,0,0.3,0,0.5h-4.5c0.2,0.8,0.8,1.3,1.6,1.3
		c0.6,0,1.1-0.2,1.6-0.7l1,0.9c-0.6,0.7-1.5,1.2-2.6,1.2C18.5,260.5,17,259.1,17,257.1z M21.6,256.6c-0.1-0.8-0.6-1.4-1.4-1.4
		c-0.8,0-1.2,0.5-1.4,1.4H21.6z"/>
	<path d="M24.7,251.6h1.8v4.7l2.1-2.3h2.2l-2.4,2.5l2.5,3.9h-2.1l-1.7-2.6l-0.6,0.7v2h-1.8V251.6z"/>
	<path d="M31.8,253.9h1.8v0.9c0.4-0.5,1-1,1.9-1c1.4,0,2.2,0.9,2.2,2.4v4.2h-1.8v-3.6c0-0.9-0.4-1.3-1.1-1.3c-0.7,0-1.1,0.4-1.1,1.3
		v3.6h-1.8V253.9z"/>
	<path d="M39.3,251.6h1.9v1.6h-1.9V251.6z M39.4,253.9h1.8v6.4h-1.8V253.9z"/>
	<path d="M42.9,251.6h1.8v4.7l2.1-2.3H49l-2.4,2.5l2.5,3.9H47l-1.7-2.6l-0.6,0.7v2h-1.8V251.6z"/>
	<path d="M53.8,251.9h3.3c2.6,0,4.5,1.8,4.5,4.2v0c0,2.4-1.8,4.2-4.5,4.2h-3.3V251.9z M57.1,258.7c1.5,0,2.5-1,2.5-2.5v0
		c0-1.5-1-2.5-2.5-2.5h-1.4v5.1H57.1z"/>
	<path d="M62.7,257.1L62.7,257.1c0-1.9,1.3-3.4,3.2-3.4c2.1,0,3.1,1.7,3.1,3.5c0,0.1,0,0.3,0,0.5h-4.5c0.2,0.8,0.8,1.3,1.6,1.3
		c0.6,0,1.1-0.2,1.6-0.7l1,0.9c-0.6,0.7-1.5,1.2-2.6,1.2C64.1,260.5,62.7,259.1,62.7,257.1z M67.2,256.6c-0.1-0.8-0.6-1.4-1.4-1.4
		c-0.8,0-1.2,0.5-1.4,1.4H67.2z"/>
	<path d="M69.8,259.5l0.8-1.2c0.7,0.5,1.4,0.8,2,0.8c0.5,0,0.8-0.2,0.8-0.5v0c0-0.4-0.6-0.5-1.3-0.7c-0.9-0.3-1.9-0.7-1.9-1.9v0
		c0-1.3,1.1-2,2.4-2c0.8,0,1.7,0.3,2.4,0.7l-0.7,1.3c-0.6-0.4-1.3-0.6-1.7-0.6c-0.4,0-0.7,0.2-0.7,0.4v0c0,0.4,0.6,0.5,1.3,0.8
		c0.9,0.3,1.9,0.7,1.9,1.9v0c0,1.4-1.1,2.1-2.5,2.1C71.7,260.4,70.7,260.1,69.8,259.5z"/>
	<path d="M76.5,258.5v-3h-0.8v-1.6h0.8v-1.6h1.8v1.6h1.5v1.6h-1.5v2.7c0,0.4,0.2,0.6,0.6,0.6c0.3,0,0.6-0.1,0.9-0.2v1.5
		c-0.4,0.2-0.8,0.4-1.4,0.4C77.3,260.4,76.5,260,76.5,258.5z"/>
	<path d="M80.7,257.1L80.7,257.1c0-1.9,1.3-3.4,3.2-3.4c2.1,0,3.1,1.7,3.1,3.5c0,0.1,0,0.3,0,0.5h-4.5c0.2,0.8,0.8,1.3,1.6,1.3
		c0.6,0,1.1-0.2,1.6-0.7l1,0.9c-0.6,0.7-1.5,1.2-2.6,1.2C82.2,260.5,80.7,259.1,80.7,257.1z M85.3,256.6c-0.1-0.8-0.6-1.4-1.4-1.4
		c-0.8,0-1.2,0.5-1.4,1.4H85.3z"/>
	<path d="M88.4,251.6h1.8v4.7l2.1-2.3h2.2l-2.4,2.5l2.5,3.9h-2.1l-1.7-2.6l-0.6,0.7v2h-1.8V251.6z"/>
	<path d="M95.6,251.6h1.8v8.8h-1.8V251.6z"/>
	<path d="M98.8,257.1L98.8,257.1c0-1.9,1.3-3.4,3.2-3.4c2.1,0,3.1,1.7,3.1,3.5c0,0.1,0,0.3,0,0.5h-4.5c0.2,0.8,0.8,1.3,1.6,1.3
		c0.6,0,1.1-0.2,1.6-0.7l1,0.9c-0.6,0.7-1.5,1.2-2.6,1.2C100.2,260.5,98.8,259.1,98.8,257.1z M103.3,256.6c-0.1-0.8-0.6-1.4-1.4-1.4
		c-0.8,0-1.2,0.5-1.4,1.4H103.3z"/>
	<path d="M106.5,253.9h1.8v1.3c0.4-0.9,1-1.5,2.1-1.4v1.9h-0.1c-1.2,0-2,0.7-2,2.3v2.4h-1.8V253.9z"/>
</g>
<g>
	<path d="M129.8,258.9l2.8-2.3c1-0.9,1.5-1.3,1.5-2c0-0.7-0.5-1.1-1.1-1.1c-0.6,0-1.1,0.4-1.7,1.1l-1.3-1c0.8-1.1,1.6-1.7,3.1-1.7
		c1.7,0,2.9,1,2.9,2.6v0c0,1.4-0.7,2.1-2.2,3.3l-1.4,1.1h3.7v1.6h-6.2V258.9z"/>
	<path d="M137,261.5c0.8-0.1,1.2-0.5,1.2-1.2h-0.7v-1.9h1.9v1.6c0,1.6-0.8,2.2-2.2,2.2L137,261.5z"/>
	<path d="M140.7,259.2l1.1-1.3c0.6,0.6,1.3,0.9,2,0.9c0.9,0,1.4-0.4,1.4-1.2v0c0-0.7-0.6-1.1-1.5-1.1c-0.5,0-1,0.1-1.4,0.3l-1.1-0.7
		l0.2-4.1h5.2v1.6h-3.6L143,255c0.3-0.1,0.6-0.1,1.1-0.1c1.6,0,2.9,0.8,2.9,2.7v0c0,1.8-1.3,2.9-3.2,2.9
		C142.5,260.5,141.5,260,140.7,259.2z"/>
	<path d="M148.5,259.5l1-1.4c0.6,0.5,1.1,0.7,1.8,0.7c1,0,1.6-0.8,1.7-1.9c-0.4,0.3-1,0.6-1.7,0.6c-1.8,0-3-1-3-2.7v0
		c0-1.7,1.3-2.9,3.2-2.9c1.1,0,1.8,0.3,2.4,0.9c0.6,0.6,1,1.5,1,3.2v0c0,2.7-1.3,4.6-3.7,4.6C150.1,260.5,149.3,260.1,148.5,259.5z
		 M153.1,254.7L153.1,254.7c0-0.8-0.6-1.3-1.5-1.3c-0.9,0-1.4,0.5-1.4,1.3v0c0,0.7,0.6,1.3,1.5,1.3S153.1,255.4,153.1,254.7z"/>
</g>
<g>
	<path d="M229.6,258.9l2.8-2.3c1-0.9,1.5-1.3,1.5-2c0-0.7-0.5-1.1-1.1-1.1c-0.6,0-1.1,0.4-1.7,1.1l-1.3-1c0.8-1.1,1.6-1.7,3.1-1.7
		c1.7,0,2.9,1,2.9,2.6v0c0,1.4-0.7,2.1-2.2,3.3l-1.4,1.1h3.7v1.6h-6.2V258.9z"/>
	<path d="M236.8,261.5c0.8-0.1,1.2-0.5,1.2-1.2h-0.7v-1.9h1.9v1.6c0,1.6-0.8,2.2-2.2,2.2L236.8,261.5z"/>
	<path d="M240.5,259.2l1.1-1.3c0.6,0.6,1.3,0.9,2,0.9c0.9,0,1.4-0.4,1.4-1.2v0c0-0.7-0.6-1.1-1.5-1.1c-0.5,0-1,0.1-1.4,0.3l-1.1-0.7
		l0.2-4.1h5.2v1.6h-3.6l-0.1,1.5c0.3-0.1,0.6-0.1,1.1-0.1c1.6,0,2.9,0.8,2.9,2.7v0c0,1.8-1.3,2.9-3.2,2.9
		C242.3,260.5,241.3,260,240.5,259.2z"/>
	<path d="M248.3,259.5l1-1.4c0.6,0.5,1.1,0.7,1.8,0.7c1,0,1.6-0.8,1.7-1.9c-0.4,0.3-1,0.6-1.7,0.6c-1.8,0-3-1-3-2.7v0
		c0-1.7,1.3-2.9,3.2-2.9c1.1,0,1.8,0.3,2.4,0.9c0.6,0.6,1,1.5,1,3.2v0c0,2.7-1.3,4.6-3.7,4.6C249.9,260.5,249,260.1,248.3,259.5z
		 M252.9,254.7L252.9,254.7c0-0.8-0.6-1.3-1.5-1.3c-0.9,0-1.4,0.5-1.4,1.3v0c0,0.7,0.6,1.3,1.5,1.3S252.9,255.4,252.9,254.7z"/>
</g>
<g>
	<path d="M353.5,258.5h-4.1l-0.3-1.3l4.6-5.3h1.6v5.1h1.1v1.5h-1.1v1.8h-1.8V258.5z M353.5,257v-2.6l-2.2,2.6H353.5z"/>
	<path d="M358.6,259.6c-0.6-0.6-1-1.5-1-3.2v0c0-2.6,1.2-4.6,3.7-4.6c1.1,0,1.9,0.3,2.6,0.9l-1,1.4c-0.6-0.4-1-0.7-1.7-0.7
		c-1,0-1.6,0.8-1.7,1.9c0.4-0.3,0.9-0.5,1.7-0.5c1.7,0,3,0.9,3,2.7v0c0,1.7-1.4,2.9-3.2,2.9C359.9,260.5,359.2,260.2,358.6,259.6z
		 M362.4,257.6L362.4,257.6c0-0.7-0.6-1.2-1.5-1.2s-1.4,0.5-1.4,1.2v0c0,0.7,0.6,1.2,1.5,1.2C361.9,258.9,362.4,258.4,362.4,257.6z"
		/>
	<path d="M365.3,259l1.3-1.2c0.6,0.6,1.2,1,2,1c0.7,0,1.2-0.4,1.2-1v0c0-0.7-0.6-1.1-1.6-1.1h-0.8l-0.3-1.2l2-2h-3.3v-1.6h5.7v1.4
		l-2.1,2c1.1,0.2,2.3,0.8,2.3,2.4v0c0,1.6-1.2,2.7-3,2.7C367,260.5,366,259.9,365.3,259z"/>
</g>
<g>
	<path d="M421.5,258.9l2.8-2.3c1-0.9,1.5-1.3,1.5-2c0-0.7-0.5-1.1-1.1-1.1c-0.6,0-1.1,0.4-1.7,1.1l-1.3-1c0.8-1.1,1.6-1.7,3.1-1.7
		c1.7,0,2.9,1,2.9,2.6v0c0,1.4-0.7,2.1-2.2,3.3l-1.4,1.1h3.7v1.6h-6.2V258.9z"/>
	<path d="M433.1,253.5h-3.9v-1.6h6v1.4l-3.8,7h-2.1L433.1,253.5z"/>
	<path d="M436.2,258L436.2,258c0-1,0.5-1.6,1.4-2.1c-0.6-0.4-1.1-0.9-1.1-1.8v0c0-1.3,1.2-2.3,3-2.3c1.8,0,3,1,3,2.3v0
		c0,0.9-0.4,1.4-1.1,1.8c0.9,0.4,1.4,1,1.4,2v0c0,1.6-1.4,2.5-3.2,2.5C437.6,260.4,436.2,259.5,436.2,258z M440.9,257.9L440.9,257.9
		c0-0.7-0.6-1.1-1.5-1.1c-0.8,0-1.5,0.4-1.5,1v0c0,0.6,0.5,1,1.5,1C440.3,258.9,440.9,258.5,440.9,257.9z M440.6,254.3L440.6,254.3
		c0-0.5-0.4-1-1.2-1c-0.8,0-1.2,0.5-1.2,1v0c0,0.6,0.5,1,1.2,1C440.1,255.4,440.6,254.9,440.6,254.3z"/>
</g>
<g>
	<path class="st4" d="M13,289.6h-2.6v-1.7h7v1.7h-2.6v6.7H13V289.6z"/>
	<path class="st4" d="M18.1,292.1L18.1,292.1c0-2.4,1.9-4.4,4.5-4.4c2.6,0,4.4,1.9,4.4,4.3v0c0,2.4-1.9,4.3-4.5,4.3
		C19.9,296.4,18.1,294.5,18.1,292.1z M25,292.1L25,292.1c0-1.5-1.1-2.7-2.5-2.7c-1.5,0-2.5,1.2-2.5,2.6v0c0,1.4,1.1,2.6,2.5,2.6
		C24,294.7,25,293.6,25,292.1z"/>
	<path class="st4" d="M28.6,287.9h3.4c2,0,3.2,1.2,3.2,2.9v0c0,1.9-1.5,3-3.4,3h-1.4v2.5h-1.8V287.9z M31.9,292.1
		c0.9,0,1.5-0.6,1.5-1.3v0c0-0.8-0.6-1.3-1.5-1.3h-1.4v2.6H31.9z"/>
	<path class="st4" d="M36.6,287.9h1.8v6.7h4.2v1.7h-6V287.9z"/>
	<path class="st4" d="M46.9,287.8h1.7l3.6,8.5h-1.9l-0.8-1.9H46l-0.8,1.9h-1.9L46.9,287.8z M48.9,292.8l-1.1-2.7l-1.1,2.7H48.9z"/>
	<path class="st4" d="M53.6,287.9h2l2.2,3.6l2.2-3.6h2v8.4h-1.8v-5.5l-2.4,3.6h0l-2.3-3.5v5.4h-1.8V287.9z"/>
</g>
<g>
	<path class="st4" d="M130.1,295.4l1-1.4c0.6,0.5,1.1,0.7,1.8,0.7c1,0,1.6-0.8,1.7-1.9c-0.4,0.3-1,0.6-1.7,0.6c-1.8,0-3-1-3-2.7v0
		c0-1.7,1.3-2.9,3.2-2.9c1.1,0,1.8,0.3,2.4,0.9c0.6,0.6,1,1.5,1,3.2v0c0,2.7-1.3,4.6-3.7,4.6C131.7,296.4,130.8,296,130.1,295.4z
		 M134.7,290.6L134.7,290.6c0-0.8-0.6-1.3-1.5-1.3c-0.9,0-1.4,0.5-1.4,1.3v0c0,0.7,0.6,1.3,1.5,1.3S134.7,291.4,134.7,290.6z"/>
	<path class="st4" d="M142,294.5h-4.1l-0.3-1.3l4.6-5.3h1.6v5.1h1.1v1.5h-1.1v1.8H142V294.5z M142,293v-2.6l-2.2,2.6H142z"/>
	<path class="st4" d="M145.8,297.5c0.8-0.1,1.2-0.5,1.2-1.2h-0.7v-1.9h1.9v1.6c0,1.6-0.8,2.2-2.2,2.2L145.8,297.5z"/>
	<path class="st4" d="M149.4,295.2l1.1-1.3c0.6,0.6,1.3,0.9,2,0.9c0.9,0,1.4-0.4,1.4-1.2v0c0-0.7-0.6-1.1-1.5-1.1
		c-0.5,0-1,0.1-1.4,0.3L150,292l0.2-4.1h5.2v1.6h-3.6l-0.1,1.5c0.3-0.1,0.6-0.1,1.1-0.1c1.6,0,2.9,0.8,2.9,2.7v0
		c0,1.8-1.3,2.9-3.2,2.9C151.2,296.4,150.2,296,149.4,295.2z"/>
	<path class="st4" d="M157,294L157,294c0-1,0.5-1.6,1.4-2.1c-0.6-0.4-1.1-0.9-1.1-1.8v0c0-1.3,1.2-2.3,3-2.3s3,1,3,2.3v0
		c0,0.9-0.4,1.4-1.1,1.8c0.9,0.4,1.4,1,1.4,2v0c0,1.6-1.4,2.5-3.2,2.5S157,295.5,157,294z M161.7,293.9L161.7,293.9
		c0-0.7-0.6-1.1-1.5-1.1c-0.8,0-1.5,0.4-1.5,1v0c0,0.6,0.5,1,1.5,1S161.7,294.4,161.7,293.9z M161.4,290.3L161.4,290.3
		c0-0.5-0.4-1-1.2-1c-0.8,0-1.2,0.5-1.2,1v0c0,0.6,0.5,1,1.2,1C161,291.3,161.4,290.9,161.4,290.3z"/>
</g>
<g>
	<path class="st4" d="M231.2,289.7l-1.5,0.4l-0.4-1.5l2.4-0.7h1.3v8.5h-1.8V289.7z"/>
	<path class="st4" d="M238.9,289.5h-3.9v-1.6h6v1.4l-3.8,7h-2.1L238.9,289.5z"/>
	<path class="st4" d="M242,294.8l2.8-2.3c1-0.9,1.5-1.3,1.5-2c0-0.7-0.5-1.1-1.1-1.1c-0.6,0-1.1,0.4-1.7,1.1l-1.3-1
		c0.8-1.1,1.6-1.7,3.1-1.7c1.7,0,2.9,1,2.9,2.6v0c0,1.4-0.7,2.1-2.2,3.3l-1.4,1.1h3.7v1.6H242V294.8z"/>
	<path class="st4" d="M249.2,297.5c0.8-0.1,1.2-0.5,1.2-1.2h-0.7v-1.9h1.9v1.6c0,1.6-0.8,2.2-2.2,2.2L249.2,297.5z"/>
	<path class="st4" d="M252.8,295.2l1.1-1.3c0.6,0.6,1.3,0.9,2,0.9c0.9,0,1.4-0.4,1.4-1.2v0c0-0.7-0.6-1.1-1.5-1.1
		c-0.5,0-1,0.1-1.4,0.3l-1.1-0.7l0.2-4.1h5.2v1.6h-3.6l-0.1,1.5c0.3-0.1,0.6-0.1,1.1-0.1c1.6,0,2.9,0.8,2.9,2.7v0
		c0,1.8-1.3,2.9-3.2,2.9C254.6,296.4,253.6,296,252.8,295.2z"/>
	<path class="st4" d="M260.5,292.1L260.5,292.1c0-2.5,1.5-4.4,3.7-4.4c2.2,0,3.7,1.9,3.7,4.3v0c0,2.4-1.5,4.3-3.7,4.3
		C262,296.4,260.5,294.6,260.5,292.1z M266,292.1L266,292.1c0-1.5-0.7-2.7-1.8-2.7s-1.8,1.1-1.8,2.7v0c0,1.5,0.7,2.7,1.8,2.7
		C265.3,294.8,266,293.6,266,292.1z"/>
</g>
<g>
	<path class="st4" d="M349.3,294.8l2.8-2.3c1-0.9,1.5-1.3,1.5-2c0-0.7-0.5-1.1-1.1-1.1c-0.6,0-1.1,0.4-1.7,1.1l-1.3-1
		c0.8-1.1,1.6-1.7,3.1-1.7c1.7,0,2.9,1,2.9,2.6v0c0,1.4-0.7,2.1-2.2,3.3l-1.4,1.1h3.7v1.6h-6.2V294.8z"/>
	<path class="st4" d="M356.6,295l1.3-1.2c0.6,0.6,1.2,1,2,1c0.7,0,1.2-0.4,1.2-1v0c0-0.7-0.6-1.1-1.6-1.1h-0.8l-0.3-1.2l2-2h-3.3
		v-1.6h5.7v1.4l-2.1,2c1.1,0.2,2.3,0.8,2.3,2.4v0c0,1.6-1.2,2.7-3,2.7C358.4,296.4,357.3,295.8,356.6,295z"/>
	<path class="st4" d="M364.1,295.2l1.1-1.3c0.6,0.6,1.3,0.9,2,0.9c0.9,0,1.4-0.4,1.4-1.2v0c0-0.7-0.6-1.1-1.5-1.1
		c-0.5,0-1,0.1-1.4,0.3l-1.1-0.7l0.2-4.1h5.2v1.6h-3.6l-0.1,1.5c0.3-0.1,0.6-0.1,1.1-0.1c1.6,0,2.9,0.8,2.9,2.7v0
		c0,1.8-1.3,2.9-3.2,2.9C365.9,296.4,364.9,296,364.1,295.2z"/>
	<path class="st4" d="M375.9,294.5h-4.1l-0.3-1.3l4.6-5.3h1.6v5.1h1.1v1.5h-1.1v1.8h-1.8V294.5z M375.9,293v-2.6l-2.2,2.6H375.9z"/>
</g>
<g>
	<path class="st4" d="M422.5,295.5c-0.6-0.6-1-1.5-1-3.2v0c0-2.6,1.2-4.6,3.7-4.6c1.1,0,1.9,0.3,2.6,0.9l-1,1.4
		c-0.6-0.4-1-0.7-1.7-0.7c-1,0-1.6,0.8-1.7,1.9c0.4-0.3,0.9-0.5,1.7-0.5c1.7,0,3,0.9,3,2.7v0c0,1.7-1.4,2.9-3.2,2.9
		C423.9,296.4,423.1,296.1,422.5,295.5z M426.3,293.6L426.3,293.6c0-0.7-0.6-1.2-1.5-1.2s-1.4,0.5-1.4,1.2v0c0,0.7,0.6,1.2,1.5,1.2
		C425.8,294.9,426.3,294.3,426.3,293.6z"/>
	<path class="st4" d="M430.9,289.7l-1.5,0.4l-0.4-1.5l2.4-0.7h1.3v8.5h-1.8V289.7z"/>
	<path class="st4" d="M438.5,289.5h-3.9v-1.6h6v1.4l-3.8,7h-2.1L438.5,289.5z"/>
</g>
</svg>
