<!-- Generator: Adobe Illustrator 21.0.2, SVG Export Plug-In  -->
<svg version="1.1"
	 xmlns="http://www.w3.org/2000/svg" xmlns:xlink="http://www.w3.org/1999/xlink" xmlns:a="http://ns.adobe.com/AdobeSVGViewerExtensions/3.0/"
	 x="0px" y="0px" width="266px" height="266px" viewBox="0 0 266 266" style="enable-background:new 0 0 266 266;"
	 xml:space="preserve">
<style type="text/css">
	.st0{fill:#00A3C2;}
	.st1{fill:#007488;}
	.st2{fill:#FFFFFF;}
</style>
<defs>
</defs>
<g>
	<path class="st0" d="M133,261C62.4,261,5,203.6,5,133S62.4,5,133,5s128,57.4,128,128S203.6,261,133,261z"/>
	<path class="st1" d="M133,10c32.9,0,63.7,12.8,87,36c23.2,23.2,36,54.1,36,87s-12.8,63.7-36,87c-23.2,23.2-54.1,36-87,36
		s-63.7-12.8-87-36c-23.2-23.2-36-54.1-36-87s12.8-63.7,36-87C69.3,22.8,100.1,10,133,10 M133,0C59.5,0,0,59.5,0,133
		s59.5,133,133,133s133-59.5,133-133S206.5,0,133,0L133,0z"/>
</g>
<polygon class="st2" points="225,131.7 158,170.4 91,209.1 91,131.7 91,54.3 158,93 "/>
</svg>
